<?xml version="1.0" encoding="us-ascii" standalone="no"?><svg xmlns="http://www.w3.org/2000/svg" xmlns:xlink="http://www.w3.org/1999/xlink" contentStyleType="text/css" height="427px" preserveAspectRatio="none" style="width:1026px;height:427px;background:#FFFFFF;" version="1.1" viewBox="0 0 1026 427" width="1026px" zoomAndPan="magnify"><defs/><g><!--cluster datenwerft--><g id="cluster_datenwerft"><path d="M8.5,6.0137 L85.5,6.0137 A3.75,3.75 0 0 1 88,8.5137 L95,30.6348 L525.5,30.6348 A2.5,2.5 0 0 1 528,33.1348 L528,417.5137 A2.5,2.5 0 0 1 525.5,420.0137 L8.5,420.0137 A2.5,2.5 0 0 1 6,417.5137 L6,8.5137 A2.5,2.5 0 0 1 8.5,6.0137 " fill="none" style="stroke:#000000;stroke-width:1.5;"/><line style="stroke:#000000;stroke-width:1.5;" x1="6" x2="95" y1="30.6348" y2="30.6348"/><text fill="#000000" font-family="sans-serif" font-size="14" font-weight="bold" lengthAdjust="spacing" textLength="76" x="10" y="23.1211">datenwerft</text></g><!--cluster accounts--><g id="cluster_accounts"><path d="M554.5,282.0137 L619.5,282.0137 A3.75,3.75 0 0 1 622,284.5137 L629,306.6348 L1016.5,306.6348 A2.5,2.5 0 0 1 1019,309.1348 L1019,417.5137 A2.5,2.5 0 0 1 1016.5,420.0137 L554.5,420.0137 A2.5,2.5 0 0 1 552,417.5137 L552,284.5137 A2.5,2.5 0 0 1 554.5,282.0137 " fill="none" style="stroke:#000000;stroke-width:1.5;"/><line style="stroke:#000000;stroke-width:1.5;" x1="552" x2="629" y1="306.6348" y2="306.6348"/><text fill="#000000" font-family="sans-serif" font-size="14" font-weight="bold" lengthAdjust="spacing" textLength="64" x="556" y="299.1211">accounts</text></g><!--class base--><g id="elem_base"><rect codeLine="2" fill="#F1F1F1" height="215.5898" id="base" rx="2.5" ry="2.5" style="stroke:#181818;stroke-width:0.5;" width="139" x="228.5" y="43.0137"/><ellipse cx="278.25" cy="59.0137" fill="#ADD1B2" rx="11" ry="11" style="stroke:#181818;stroke-width:1.0;"/><path d="M281.0156,54.8887 Q281.1719,54.6699 281.3594,54.5605 Q281.5469,54.4512 281.7656,54.4512 Q282.1406,54.4512 282.375,54.7168 Q282.6094,54.9668 282.6094,55.5762 L282.6094,57.0293 Q282.6094,57.6387 282.375,57.9043 Q282.1406,58.1699 281.7656,58.1699 Q281.4219,58.1699 281.2188,57.9668 Q281.0156,57.7793 280.9063,57.2637 Q280.8594,56.9043 280.6719,56.7168 Q280.3438,56.3418 279.7344,56.123 Q279.125,55.9043 278.5,55.9043 Q277.7344,55.9043 277.0938,56.2324 Q276.4688,56.5605 275.9688,57.3105 Q275.4844,58.0605 275.4844,59.0918 L275.4844,60.1855 Q275.4844,61.4199 276.375,62.248 Q277.2656,63.0605 278.8594,63.0605 Q279.7969,63.0605 280.4531,62.8105 Q280.8438,62.6543 281.2656,62.2168 Q281.5313,61.9512 281.6719,61.873 Q281.8281,61.7949 282.0313,61.7949 Q282.3594,61.7949 282.6094,62.0605 Q282.875,62.3105 282.875,62.6543 Q282.875,62.998 282.5313,63.4043 Q282.0313,63.9824 281.2344,64.3105 Q280.1563,64.7637 278.8594,64.7637 Q277.3438,64.7637 276.1406,64.1387 Q275.1563,63.6387 274.4688,62.5762 Q273.7813,61.498 273.7813,60.2168 L273.7813,59.0605 Q273.7813,57.7324 274.3906,56.5918 Q275.0156,55.4355 276.1094,54.8262 Q277.2031,54.2012 278.4375,54.2012 Q279.1719,54.2012 279.8125,54.373 Q280.4688,54.5293 281.0156,54.8887 Z " fill="#000000"/><text fill="#000000" font-family="sans-serif" font-size="14" lengthAdjust="spacing" textLength="31" x="298.75" y="64.8105">base</text><line style="stroke:#181818;stroke-width:0.5;" x1="229.5" x2="366.5" y1="75.0137" y2="75.0137"/><text fill="#000000" font-family="sans-serif" font-size="14" lengthAdjust="spacing" textLength="32" x="234.5" y="94.1211">head</text><text fill="#000000" font-family="sans-serif" font-size="14" lengthAdjust="spacing" textLength="31" x="234.5" y="112.7422">meta</text><text fill="#000000" font-family="sans-serif" font-size="14" lengthAdjust="spacing" textLength="22" x="234.5" y="131.3633">title</text><text fill="#000000" font-family="sans-serif" font-size="14" lengthAdjust="spacing" textLength="29" x="234.5" y="149.9844">style</text><text fill="#000000" font-family="sans-serif" font-size="14" lengthAdjust="spacing" textLength="41" x="234.5" y="168.6055">scripts</text><text fill="#000000" font-family="sans-serif" font-size="14" lengthAdjust="spacing" textLength="44" x="234.5" y="187.2266">navbar</text><text fill="#000000" font-family="sans-serif" font-size="14" lengthAdjust="spacing" textLength="47" x="234.5" y="205.8477">content</text><text fill="#000000" font-family="sans-serif" font-size="14" lengthAdjust="spacing" textLength="37" x="234.5" y="224.4688">footer</text><line style="stroke:#181818;stroke-width:0.5;" x1="229.5" x2="366.5" y1="231.9824" y2="231.9824"/><text fill="#000000" font-family="sans-serif" font-size="14" lengthAdjust="spacing" textLength="127" x="234.5" y="251.0898">include navbar_html</text></g><!--class navbar_html--><g id="elem_navbar_html"><rect codeLine="14" fill="#F1F1F1" height="66.6211" id="navbar_html" rx="2.5" ry="2.5" style="stroke:#181818;stroke-width:0.5;" width="110" x="391" y="328.0137"/><ellipse cx="406" cy="344.0137" fill="#ADD1B2" rx="11" ry="11" style="stroke:#181818;stroke-width:1.0;"/><path d="M408.7656,339.8887 Q408.9219,339.6699 409.1094,339.5605 Q409.2969,339.4512 409.5156,339.4512 Q409.8906,339.4512 410.125,339.7168 Q410.3594,339.9668 410.3594,340.5762 L410.3594,342.0293 Q410.3594,342.6387 410.125,342.9043 Q409.8906,343.1699 409.5156,343.1699 Q409.1719,343.1699 408.9688,342.9668 Q408.7656,342.7793 408.6563,342.2637 Q408.6094,341.9043 408.4219,341.7168 Q408.0938,341.3418 407.4844,341.123 Q406.875,340.9043 406.25,340.9043 Q405.4844,340.9043 404.8438,341.2324 Q404.2188,341.5605 403.7188,342.3105 Q403.2344,343.0605 403.2344,344.0918 L403.2344,345.1855 Q403.2344,346.4199 404.125,347.248 Q405.0156,348.0605 406.6094,348.0605 Q407.5469,348.0605 408.2031,347.8105 Q408.5938,347.6543 409.0156,347.2168 Q409.2813,346.9512 409.4219,346.873 Q409.5781,346.7949 409.7813,346.7949 Q410.1094,346.7949 410.3594,347.0605 Q410.625,347.3105 410.625,347.6543 Q410.625,347.998 410.2813,348.4043 Q409.7813,348.9824 408.9844,349.3105 Q407.9063,349.7637 406.6094,349.7637 Q405.0938,349.7637 403.8906,349.1387 Q402.9063,348.6387 402.2188,347.5762 Q401.5313,346.498 401.5313,345.2168 L401.5313,344.0605 Q401.5313,342.7324 402.1406,341.5918 Q402.7656,340.4355 403.8594,339.8262 Q404.9531,339.2012 406.1875,339.2012 Q406.9219,339.2012 407.5625,339.373 Q408.2188,339.5293 408.7656,339.8887 Z " fill="#000000"/><text fill="#000000" font-family="sans-serif" font-size="14" lengthAdjust="spacing" textLength="78" x="420" y="349.8105">navbar_html</text><line style="stroke:#181818;stroke-width:0.5;" x1="392" x2="500" y1="360.0137" y2="360.0137"/><text fill="#000000" font-family="sans-serif" font-size="14" lengthAdjust="spacing" textLength="44" x="397" y="379.1211">navbar</text><line style="stroke:#181818;stroke-width:0.5;" x1="392" x2="500" y1="386.6348" y2="386.6348"/></g><!--class index--><g id="elem_index"><rect codeLine="18" fill="#F1F1F1" height="85.2422" id="index" rx="2.5" ry="2.5" style="stroke:#181818;stroke-width:0.5;" width="65" x="192.5" y="319.0137"/><ellipse cx="207.5" cy="335.0137" fill="#ADD1B2" rx="11" ry="11" style="stroke:#181818;stroke-width:1.0;"/><path d="M210.2656,330.8887 Q210.4219,330.6699 210.6094,330.5605 Q210.7969,330.4512 211.0156,330.4512 Q211.3906,330.4512 211.625,330.7168 Q211.8594,330.9668 211.8594,331.5762 L211.8594,333.0293 Q211.8594,333.6387 211.625,333.9043 Q211.3906,334.1699 211.0156,334.1699 Q210.6719,334.1699 210.4688,333.9668 Q210.2656,333.7793 210.1563,333.2637 Q210.1094,332.9043 209.9219,332.7168 Q209.5938,332.3418 208.9844,332.123 Q208.375,331.9043 207.75,331.9043 Q206.9844,331.9043 206.3438,332.2324 Q205.7188,332.5605 205.2188,333.3105 Q204.7344,334.0605 204.7344,335.0918 L204.7344,336.1855 Q204.7344,337.4199 205.625,338.248 Q206.5156,339.0605 208.1094,339.0605 Q209.0469,339.0605 209.7031,338.8105 Q210.0938,338.6543 210.5156,338.2168 Q210.7813,337.9512 210.9219,337.873 Q211.0781,337.7949 211.2813,337.7949 Q211.6094,337.7949 211.8594,338.0605 Q212.125,338.3105 212.125,338.6543 Q212.125,338.998 211.7813,339.4043 Q211.2813,339.9824 210.4844,340.3105 Q209.4063,340.7637 208.1094,340.7637 Q206.5938,340.7637 205.3906,340.1387 Q204.4063,339.6387 203.7188,338.5762 Q203.0313,337.498 203.0313,336.2168 L203.0313,335.0605 Q203.0313,333.7324 203.6406,332.5918 Q204.2656,331.4355 205.3594,330.8262 Q206.4531,330.2012 207.6875,330.2012 Q208.4219,330.2012 209.0625,330.373 Q209.7188,330.5293 210.2656,330.8887 Z " fill="#000000"/><text fill="#000000" font-family="sans-serif" font-size="14" lengthAdjust="spacing" textLength="33" x="221.5" y="340.8105">index</text><line style="stroke:#181818;stroke-width:0.5;" x1="193.5" x2="256.5" y1="351.0137" y2="351.0137"/><text fill="#000000" font-family="sans-serif" font-size="14" lengthAdjust="spacing" textLength="22" x="198.5" y="370.1211">title</text><text fill="#000000" font-family="sans-serif" font-size="14" lengthAdjust="spacing" textLength="47" x="198.5" y="388.7422">content</text><line style="stroke:#181818;stroke-width:0.5;" x1="193.5" x2="256.5" y1="396.2559" y2="396.2559"/></g><!--class error--><g id="elem_error"><rect codeLine="23" fill="#F1F1F1" height="85.2422" id="error" rx="2.5" ry="2.5" style="stroke:#181818;stroke-width:0.5;" width="63" x="292.5" y="319.0137"/><ellipse cx="307.5" cy="335.0137" fill="#ADD1B2" rx="11" ry="11" style="stroke:#181818;stroke-width:1.0;"/><path d="M310.2656,330.8887 Q310.4219,330.6699 310.6094,330.5605 Q310.7969,330.4512 311.0156,330.4512 Q311.3906,330.4512 311.625,330.7168 Q311.8594,330.9668 311.8594,331.5762 L311.8594,333.0293 Q311.8594,333.6387 311.625,333.9043 Q311.3906,334.1699 311.0156,334.1699 Q310.6719,334.1699 310.4688,333.9668 Q310.2656,333.7793 310.1563,333.2637 Q310.1094,332.9043 309.9219,332.7168 Q309.5938,332.3418 308.9844,332.123 Q308.375,331.9043 307.75,331.9043 Q306.9844,331.9043 306.3438,332.2324 Q305.7188,332.5605 305.2188,333.3105 Q304.7344,334.0605 304.7344,335.0918 L304.7344,336.1855 Q304.7344,337.4199 305.625,338.248 Q306.5156,339.0605 308.1094,339.0605 Q309.0469,339.0605 309.7031,338.8105 Q310.0938,338.6543 310.5156,338.2168 Q310.7813,337.9512 310.9219,337.873 Q311.0781,337.7949 311.2813,337.7949 Q311.6094,337.7949 311.8594,338.0605 Q312.125,338.3105 312.125,338.6543 Q312.125,338.998 311.7813,339.4043 Q311.2813,339.9824 310.4844,340.3105 Q309.4063,340.7637 308.1094,340.7637 Q306.5938,340.7637 305.3906,340.1387 Q304.4063,339.6387 303.7188,338.5762 Q303.0313,337.498 303.0313,336.2168 L303.0313,335.0605 Q303.0313,333.7324 303.6406,332.5918 Q304.2656,331.4355 305.3594,330.8262 Q306.4531,330.2012 307.6875,330.2012 Q308.4219,330.2012 309.0625,330.373 Q309.7188,330.5293 310.2656,330.8887 Z " fill="#000000"/><text fill="#000000" font-family="sans-serif" font-size="14" lengthAdjust="spacing" textLength="31" x="321.5" y="340.8105">error</text><line style="stroke:#181818;stroke-width:0.5;" x1="293.5" x2="354.5" y1="351.0137" y2="351.0137"/><text fill="#000000" font-family="sans-serif" font-size="14" lengthAdjust="spacing" textLength="22" x="298.5" y="370.1211">title</text><text fill="#000000" font-family="sans-serif" font-size="14" lengthAdjust="spacing" textLength="47" x="298.5" y="388.7422">content</text><line style="stroke:#181818;stroke-width:0.5;" x1="293.5" x2="354.5" y1="396.2559" y2="396.2559"/></g><!--class modal_confirm_export--><g id="elem_modal_confirm_export"><rect codeLine="28" fill="#F1F1F1" height="48" id="modal_confirm_export" rx="2.5" ry="2.5" style="stroke:#181818;stroke-width:0.5;" width="171" x="22.5" y="127.0137"/><ellipse cx="37.5" cy="143.0137" fill="#ADD1B2" rx="11" ry="11" style="stroke:#181818;stroke-width:1.0;"/><path d="M40.2656,138.8887 Q40.4219,138.6699 40.6094,138.5605 Q40.7969,138.4512 41.0156,138.4512 Q41.3906,138.4512 41.625,138.7168 Q41.8594,138.9668 41.8594,139.5762 L41.8594,141.0293 Q41.8594,141.6387 41.625,141.9043 Q41.3906,142.1699 41.0156,142.1699 Q40.6719,142.1699 40.4688,141.9668 Q40.2656,141.7793 40.1563,141.2637 Q40.1094,140.9043 39.9219,140.7168 Q39.5938,140.3418 38.9844,140.123 Q38.375,139.9043 37.75,139.9043 Q36.9844,139.9043 36.3438,140.2324 Q35.7188,140.5605 35.2188,141.3105 Q34.7344,142.0605 34.7344,143.0918 L34.7344,144.1855 Q34.7344,145.4199 35.625,146.248 Q36.5156,147.0605 38.1094,147.0605 Q39.0469,147.0605 39.7031,146.8105 Q40.0938,146.6543 40.5156,146.2168 Q40.7813,145.9512 40.9219,145.873 Q41.0781,145.7949 41.2813,145.7949 Q41.6094,145.7949 41.8594,146.0605 Q42.125,146.3105 42.125,146.6543 Q42.125,146.998 41.7813,147.4043 Q41.2813,147.9824 40.4844,148.3105 Q39.4063,148.7637 38.1094,148.7637 Q36.5938,148.7637 35.3906,148.1387 Q34.4063,147.6387 33.7188,146.5762 Q33.0313,145.498 33.0313,144.2168 L33.0313,143.0605 Q33.0313,141.7324 33.6406,140.5918 Q34.2656,139.4355 35.3594,138.8262 Q36.4531,138.2012 37.6875,138.2012 Q38.4219,138.2012 39.0625,138.373 Q39.7188,138.5293 40.2656,138.8887 Z " fill="#000000"/><text fill="#000000" font-family="sans-serif" font-size="14" lengthAdjust="spacing" textLength="139" x="51.5" y="148.8105">modal_confirm_export</text><line style="stroke:#181818;stroke-width:0.5;" x1="23.5" x2="192.5" y1="159.0137" y2="159.0137"/><line style="stroke:#181818;stroke-width:0.5;" x1="23.5" x2="192.5" y1="167.0137" y2="167.0137"/></g><!--class modal_error--><g id="elem_modal_error"><rect codeLine="29" fill="#F1F1F1" height="48" id="modal_error" rx="2.5" ry="2.5" style="stroke:#181818;stroke-width:0.5;" width="109" x="402.5" y="127.0137"/><ellipse cx="417.5" cy="143.0137" fill="#ADD1B2" rx="11" ry="11" style="stroke:#181818;stroke-width:1.0;"/><path d="M420.2656,138.8887 Q420.4219,138.6699 420.6094,138.5605 Q420.7969,138.4512 421.0156,138.4512 Q421.3906,138.4512 421.625,138.7168 Q421.8594,138.9668 421.8594,139.5762 L421.8594,141.0293 Q421.8594,141.6387 421.625,141.9043 Q421.3906,142.1699 421.0156,142.1699 Q420.6719,142.1699 420.4688,141.9668 Q420.2656,141.7793 420.1563,141.2637 Q420.1094,140.9043 419.9219,140.7168 Q419.5938,140.3418 418.9844,140.123 Q418.375,139.9043 417.75,139.9043 Q416.9844,139.9043 416.3438,140.2324 Q415.7188,140.5605 415.2188,141.3105 Q414.7344,142.0605 414.7344,143.0918 L414.7344,144.1855 Q414.7344,145.4199 415.625,146.248 Q416.5156,147.0605 418.1094,147.0605 Q419.0469,147.0605 419.7031,146.8105 Q420.0938,146.6543 420.5156,146.2168 Q420.7813,145.9512 420.9219,145.873 Q421.0781,145.7949 421.2813,145.7949 Q421.6094,145.7949 421.8594,146.0605 Q422.125,146.3105 422.125,146.6543 Q422.125,146.998 421.7813,147.4043 Q421.2813,147.9824 420.4844,148.3105 Q419.4063,148.7637 418.1094,148.7637 Q416.5938,148.7637 415.3906,148.1387 Q414.4063,147.6387 413.7188,146.5762 Q413.0313,145.498 413.0313,144.2168 L413.0313,143.0605 Q413.0313,141.7324 413.6406,140.5918 Q414.2656,139.4355 415.3594,138.8262 Q416.4531,138.2012 417.6875,138.2012 Q418.4219,138.2012 419.0625,138.373 Q419.7188,138.5293 420.2656,138.8887 Z " fill="#000000"/><text fill="#000000" font-family="sans-serif" font-size="14" lengthAdjust="spacing" textLength="77" x="431.5" y="148.8105">modal_error</text><line style="stroke:#181818;stroke-width:0.5;" x1="403.5" x2="510.5" y1="159.0137" y2="159.0137"/><line style="stroke:#181818;stroke-width:0.5;" x1="403.5" x2="510.5" y1="167.0137" y2="167.0137"/></g><!--class modal_loading--><g id="elem_modal_loading"><rect codeLine="30" fill="#F1F1F1" height="48" id="modal_loading" rx="2.5" ry="2.5" style="stroke:#181818;stroke-width:0.5;" width="124" x="33" y="337.5137"/><ellipse cx="48" cy="353.5137" fill="#ADD1B2" rx="11" ry="11" style="stroke:#181818;stroke-width:1.0;"/><path d="M50.7656,349.3887 Q50.9219,349.1699 51.1094,349.0605 Q51.2969,348.9512 51.5156,348.9512 Q51.8906,348.9512 52.125,349.2168 Q52.3594,349.4668 52.3594,350.0762 L52.3594,351.5293 Q52.3594,352.1387 52.125,352.4043 Q51.8906,352.6699 51.5156,352.6699 Q51.1719,352.6699 50.9688,352.4668 Q50.7656,352.2793 50.6563,351.7637 Q50.6094,351.4043 50.4219,351.2168 Q50.0938,350.8418 49.4844,350.623 Q48.875,350.4043 48.25,350.4043 Q47.4844,350.4043 46.8438,350.7324 Q46.2188,351.0605 45.7188,351.8105 Q45.2344,352.5605 45.2344,353.5918 L45.2344,354.6855 Q45.2344,355.9199 46.125,356.748 Q47.0156,357.5605 48.6094,357.5605 Q49.5469,357.5605 50.2031,357.3105 Q50.5938,357.1543 51.0156,356.7168 Q51.2813,356.4512 51.4219,356.373 Q51.5781,356.2949 51.7813,356.2949 Q52.1094,356.2949 52.3594,356.5605 Q52.625,356.8105 52.625,357.1543 Q52.625,357.498 52.2813,357.9043 Q51.7813,358.4824 50.9844,358.8105 Q49.9063,359.2637 48.6094,359.2637 Q47.0938,359.2637 45.8906,358.6387 Q44.9063,358.1387 44.2188,357.0762 Q43.5313,355.998 43.5313,354.7168 L43.5313,353.5605 Q43.5313,352.2324 44.1406,351.0918 Q44.7656,349.9355 45.8594,349.3262 Q46.9531,348.7012 48.1875,348.7012 Q48.9219,348.7012 49.5625,348.873 Q50.2188,349.0293 50.7656,349.3887 Z " fill="#000000"/><text fill="#000000" font-family="sans-serif" font-size="14" lengthAdjust="spacing" textLength="92" x="62" y="359.3105">modal_loading</text><line style="stroke:#181818;stroke-width:0.5;" x1="34" x2="156" y1="369.5137" y2="369.5137"/><line style="stroke:#181818;stroke-width:0.5;" x1="34" x2="156" y1="377.5137" y2="377.5137"/></g><!--class login--><g id="elem_login"><rect codeLine="34" fill="#F1F1F1" height="85.2422" id="login" rx="2.5" ry="2.5" style="stroke:#181818;stroke-width:0.5;" width="62" x="941" y="319.0137"/><ellipse cx="956" cy="335.0137" fill="#ADD1B2" rx="11" ry="11" style="stroke:#181818;stroke-width:1.0;"/><path d="M958.7656,330.8887 Q958.9219,330.6699 959.1094,330.5605 Q959.2969,330.4512 959.5156,330.4512 Q959.8906,330.4512 960.125,330.7168 Q960.3594,330.9668 960.3594,331.5762 L960.3594,333.0293 Q960.3594,333.6387 960.125,333.9043 Q959.8906,334.1699 959.5156,334.1699 Q959.1719,334.1699 958.9688,333.9668 Q958.7656,333.7793 958.6563,333.2637 Q958.6094,332.9043 958.4219,332.7168 Q958.0938,332.3418 957.4844,332.123 Q956.875,331.9043 956.25,331.9043 Q955.4844,331.9043 954.8438,332.2324 Q954.2188,332.5605 953.7188,333.3105 Q953.2344,334.0605 953.2344,335.0918 L953.2344,336.1855 Q953.2344,337.4199 954.125,338.248 Q955.0156,339.0605 956.6094,339.0605 Q957.5469,339.0605 958.2031,338.8105 Q958.5938,338.6543 959.0156,338.2168 Q959.2813,337.9512 959.4219,337.873 Q959.5781,337.7949 959.7813,337.7949 Q960.1094,337.7949 960.3594,338.0605 Q960.625,338.3105 960.625,338.6543 Q960.625,338.998 960.2813,339.4043 Q959.7813,339.9824 958.9844,340.3105 Q957.9063,340.7637 956.6094,340.7637 Q955.0938,340.7637 953.8906,340.1387 Q952.9063,339.6387 952.2188,338.5762 Q951.5313,337.498 951.5313,336.2168 L951.5313,335.0605 Q951.5313,333.7324 952.1406,332.5918 Q952.7656,331.4355 953.8594,330.8262 Q954.9531,330.2012 956.1875,330.2012 Q956.9219,330.2012 957.5625,330.373 Q958.2188,330.5293 958.7656,330.8887 Z " fill="#000000"/><text fill="#000000" font-family="sans-serif" font-size="14" lengthAdjust="spacing" textLength="30" x="970" y="340.8105">login</text><line style="stroke:#181818;stroke-width:0.5;" x1="942" x2="1002" y1="351.0137" y2="351.0137"/><text fill="#000000" font-family="sans-serif" font-size="14" lengthAdjust="spacing" textLength="22" x="947" y="370.1211">title</text><text fill="#000000" font-family="sans-serif" font-size="14" lengthAdjust="spacing" textLength="47" x="947" y="388.7422">content</text><line style="stroke:#181818;stroke-width:0.5;" x1="942" x2="1002" y1="396.2559" y2="396.2559"/></g><!--class login_add_token--><g id="elem_login_add_token"><rect codeLine="39" fill="#F1F1F1" height="85.2422" id="login_add_token" rx="2.5" ry="2.5" style="stroke:#181818;stroke-width:0.5;" width="137" x="768.5" y="319.0137"/><ellipse cx="783.5" cy="335.0137" fill="#ADD1B2" rx="11" ry="11" style="stroke:#181818;stroke-width:1.0;"/><path d="M786.2656,330.8887 Q786.4219,330.6699 786.6094,330.5605 Q786.7969,330.4512 787.0156,330.4512 Q787.3906,330.4512 787.625,330.7168 Q787.8594,330.9668 787.8594,331.5762 L787.8594,333.0293 Q787.8594,333.6387 787.625,333.9043 Q787.3906,334.1699 787.0156,334.1699 Q786.6719,334.1699 786.4688,333.9668 Q786.2656,333.7793 786.1563,333.2637 Q786.1094,332.9043 785.9219,332.7168 Q785.5938,332.3418 784.9844,332.123 Q784.375,331.9043 783.75,331.9043 Q782.9844,331.9043 782.3438,332.2324 Q781.7188,332.5605 781.2188,333.3105 Q780.7344,334.0605 780.7344,335.0918 L780.7344,336.1855 Q780.7344,337.4199 781.625,338.248 Q782.5156,339.0605 784.1094,339.0605 Q785.0469,339.0605 785.7031,338.8105 Q786.0938,338.6543 786.5156,338.2168 Q786.7813,337.9512 786.9219,337.873 Q787.0781,337.7949 787.2813,337.7949 Q787.6094,337.7949 787.8594,338.0605 Q788.125,338.3105 788.125,338.6543 Q788.125,338.998 787.7813,339.4043 Q787.2813,339.9824 786.4844,340.3105 Q785.4063,340.7637 784.1094,340.7637 Q782.5938,340.7637 781.3906,340.1387 Q780.4063,339.6387 779.7188,338.5762 Q779.0313,337.498 779.0313,336.2168 L779.0313,335.0605 Q779.0313,333.7324 779.6406,332.5918 Q780.2656,331.4355 781.3594,330.8262 Q782.4531,330.2012 783.6875,330.2012 Q784.4219,330.2012 785.0625,330.373 Q785.7188,330.5293 786.2656,330.8887 Z " fill="#000000"/><text fill="#000000" font-family="sans-serif" font-size="14" lengthAdjust="spacing" textLength="105" x="797.5" y="340.8105">login_add_token</text><line style="stroke:#181818;stroke-width:0.5;" x1="769.5" x2="904.5" y1="351.0137" y2="351.0137"/><text fill="#000000" font-family="sans-serif" font-size="14" lengthAdjust="spacing" textLength="22" x="774.5" y="370.1211">title</text><text fill="#000000" font-family="sans-serif" font-size="14" lengthAdjust="spacing" textLength="47" x="774.5" y="388.7422">content</text><line style="stroke:#181818;stroke-width:0.5;" x1="769.5" x2="904.5" y1="396.2559" y2="396.2559"/></g><!--class logout--><g id="elem_logout"><rect codeLine="44" fill="#F1F1F1" height="85.2422" id="logout" rx="2.5" ry="2.5" style="stroke:#181818;stroke-width:0.5;" width="71" x="662.5" y="319.0137"/><ellipse cx="677.5" cy="335.0137" fill="#ADD1B2" rx="11" ry="11" style="stroke:#181818;stroke-width:1.0;"/><path d="M680.2656,330.8887 Q680.4219,330.6699 680.6094,330.5605 Q680.7969,330.4512 681.0156,330.4512 Q681.3906,330.4512 681.625,330.7168 Q681.8594,330.9668 681.8594,331.5762 L681.8594,333.0293 Q681.8594,333.6387 681.625,333.9043 Q681.3906,334.1699 681.0156,334.1699 Q680.6719,334.1699 680.4688,333.9668 Q680.2656,333.7793 680.1563,333.2637 Q680.1094,332.9043 679.9219,332.7168 Q679.5938,332.3418 678.9844,332.123 Q678.375,331.9043 677.75,331.9043 Q676.9844,331.9043 676.3438,332.2324 Q675.7188,332.5605 675.2188,333.3105 Q674.7344,334.0605 674.7344,335.0918 L674.7344,336.1855 Q674.7344,337.4199 675.625,338.248 Q676.5156,339.0605 678.1094,339.0605 Q679.0469,339.0605 679.7031,338.8105 Q680.0938,338.6543 680.5156,338.2168 Q680.7813,337.9512 680.9219,337.873 Q681.0781,337.7949 681.2813,337.7949 Q681.6094,337.7949 681.8594,338.0605 Q682.125,338.3105 682.125,338.6543 Q682.125,338.998 681.7813,339.4043 Q681.2813,339.9824 680.4844,340.3105 Q679.4063,340.7637 678.1094,340.7637 Q676.5938,340.7637 675.3906,340.1387 Q674.4063,339.6387 673.7188,338.5762 Q673.0313,337.498 673.0313,336.2168 L673.0313,335.0605 Q673.0313,333.7324 673.6406,332.5918 Q674.2656,331.4355 675.3594,330.8262 Q676.4531,330.2012 677.6875,330.2012 Q678.4219,330.2012 679.0625,330.373 Q679.7188,330.5293 680.2656,330.8887 Z " fill="#000000"/><text fill="#000000" font-family="sans-serif" font-size="14" lengthAdjust="spacing" textLength="39" x="691.5" y="340.8105">logout</text><line style="stroke:#181818;stroke-width:0.5;" x1="663.5" x2="732.5" y1="351.0137" y2="351.0137"/><text fill="#000000" font-family="sans-serif" font-size="14" lengthAdjust="spacing" textLength="22" x="668.5" y="370.1211">title</text><text fill="#000000" font-family="sans-serif" font-size="14" lengthAdjust="spacing" textLength="47" x="668.5" y="388.7422">content</text><line style="stroke:#181818;stroke-width:0.5;" x1="663.5" x2="732.5" y1="396.2559" y2="396.2559"/></g><!--class test--><g id="elem_test"><rect codeLine="49" fill="#F1F1F1" height="66.6211" id="test" rx="2.5" ry="2.5" style="stroke:#181818;stroke-width:0.5;" width="59" x="568.5" y="328.0137"/><ellipse cx="585.3" cy="344.0137" fill="#ADD1B2" rx="11" ry="11" style="stroke:#181818;stroke-width:1.0;"/><path d="M588.0656,339.8887 Q588.2219,339.6699 588.4094,339.5605 Q588.5969,339.4512 588.8156,339.4512 Q589.1906,339.4512 589.425,339.7168 Q589.6594,339.9668 589.6594,340.5762 L589.6594,342.0293 Q589.6594,342.6387 589.425,342.9043 Q589.1906,343.1699 588.8156,343.1699 Q588.4719,343.1699 588.2688,342.9668 Q588.0656,342.7793 587.9563,342.2637 Q587.9094,341.9043 587.7219,341.7168 Q587.3938,341.3418 586.7844,341.123 Q586.175,340.9043 585.55,340.9043 Q584.7844,340.9043 584.1438,341.2324 Q583.5188,341.5605 583.0188,342.3105 Q582.5344,343.0605 582.5344,344.0918 L582.5344,345.1855 Q582.5344,346.4199 583.425,347.248 Q584.3156,348.0605 585.9094,348.0605 Q586.8469,348.0605 587.5031,347.8105 Q587.8938,347.6543 588.3156,347.2168 Q588.5813,346.9512 588.7219,346.873 Q588.8781,346.7949 589.0813,346.7949 Q589.4094,346.7949 589.6594,347.0605 Q589.925,347.3105 589.925,347.6543 Q589.925,347.998 589.5813,348.4043 Q589.0813,348.9824 588.2844,349.3105 Q587.2063,349.7637 585.9094,349.7637 Q584.3938,349.7637 583.1906,349.1387 Q582.2063,348.6387 581.5188,347.5762 Q580.8313,346.498 580.8313,345.2168 L580.8313,344.0605 Q580.8313,342.7324 581.4406,341.5918 Q582.0656,340.4355 583.1594,339.8262 Q584.2531,339.2012 585.4875,339.2012 Q586.2219,339.2012 586.8625,339.373 Q587.5188,339.5293 588.0656,339.8887 Z " fill="#000000"/><text fill="#000000" font-family="sans-serif" font-size="14" lengthAdjust="spacing" textLength="23" x="599.7" y="349.8105">test</text><line style="stroke:#181818;stroke-width:0.5;" x1="569.5" x2="626.5" y1="360.0137" y2="360.0137"/><text fill="#000000" font-family="sans-serif" font-size="14" lengthAdjust="spacing" textLength="47" x="574.5" y="379.1211">content</text><line style="stroke:#181818;stroke-width:0.5;" x1="569.5" x2="626.5" y1="386.6348" y2="386.6348"/></g><!--link base to navbar_html--><g id="link_base_navbar_html"><path codeLine="55" d="M367.67,250.1537 C387.46,278.0437 404.1967,301.6212 419.1267,322.6512 " fill="none" id="base-to-navbar_html" style="stroke:#181818;stroke-width:1.0;stroke-dasharray:7.0,7.0;"/><polygon fill="#181818" points="422.6,327.5437,420.6516,317.8895,419.7056,323.4666,414.1284,322.5206,422.6,327.5437" style="stroke:#181818;stroke-width:1.0;"/></g><!--reverse link base to index--><g id="link_base_index"><path codeLine="56" d="M254.4808,276.3021 C247.0708,297.4621 245.68,301.4537 239.61,318.7837 " fill="none" id="base-backto-index" style="stroke:#181818;stroke-width:1.0;"/><polygon fill="none" points="260.43,259.3137,248.818,274.3191,260.1436,278.2852,260.43,259.3137" style="stroke:#181818;stroke-width:1.0;"/></g><!--reverse link base to error--><g id="link_base_error"><path codeLine="57" d="M313.6085,277.1752 C316.2485,298.3352 316.64,301.4537 318.8,318.7837 " fill="none" id="base-backto-error" style="stroke:#181818;stroke-width:1.0;"/><polygon fill="none" points="311.38,259.3137,307.6546,277.918,319.5623,276.4324,311.38,259.3137" style="stroke:#181818;stroke-width:1.0;"/></g><!--reverse link base to login--><g id="link_base_login"><path codeLine="59" d="M381.9194,258.9712 C387.4494,263.1112 378.88,255.9937 385,259.0137 C438.64,285.4537 871.76,243.1837 923,274.0137 C939.56,283.9837 951.01,301.7837 958.65,318.6537 " fill="none" id="base-backto-login" style="stroke:#181818;stroke-width:1.0;"/><polygon fill="none" points="367.51,248.1837,378.3235,263.7743,385.5152,254.168,367.51,248.1837" style="stroke:#181818;stroke-width:1.0;"/></g><!--reverse link base to login_add_token--><g id="link_base_login_add_token"><path codeLine="60" d="M381.9219,258.9211 C387.4519,263.0911 378.9,255.9537 385,259.0137 C457.78,295.4837 676.5,241.2237 751,274.0137 C772.9,283.6537 792.22,301.6337 806.98,318.7237 " fill="none" id="base-backto-login_add_token" style="stroke:#181818;stroke-width:1.0;"/><polygon fill="none" points="367.55,248.0837,378.3094,263.7117,385.5343,254.1304,367.55,248.0837" style="stroke:#181818;stroke-width:1.0;"/></g><!--reverse link base to logout--><g id="link_base_logout"><path codeLine="61" d="M381.9254,258.8756 C387.4354,263.0756 378.93,255.9037 385,259.0137 C436.52,285.3737 595.34,244.2937 645,274.0137 C661.93,284.1437 674.19,301.9637 682.62,318.8137 " fill="none" id="base-backto-logout" style="stroke:#181818;stroke-width:1.0;"/><polygon fill="none" points="367.61,247.9637,378.2881,263.6474,385.5627,254.1038,367.61,247.9637" style="stroke:#181818;stroke-width:1.0;"/></g><!--reverse link base to test--><g id="link_base_test"><path codeLine="62" d="M381.652,258.5267 C387.212,262.8967 378.89,255.7037 385,259.0137 C441.19,289.4437 471.84,243.5137 528,274.0137 C550.41,286.1837 568.32,308.8037 580.41,327.8537 " fill="none" id="base-backto-test" style="stroke:#181818;stroke-width:1.0;"/><polygon fill="none" points="367.5,247.4037,377.9443,263.244,385.3596,253.8094,367.5,247.4037" style="stroke:#181818;stroke-width:1.0;"/></g><!--SRC=[dP9jReCm38R_SufSe9nWsbMGcnY86cAKcAqJvUuB4Ij9Mec9dtdzl8w_Hf0tw50eOBJVw5gUAo6a0U_55JoAzId4t6eqQX4zWig40HaoWJKRp1JFFwKYdHxPPvg5hokuJ99aGr6SQIqHuuQ5ltiAchRIJ0gt54tFWmd0KZqRIG95FyzV4rfRXVU2U-rgBownedFapba7Kc2Q46gr6ngyZ-HOp4iHtpuePKEWjEtMG4WvRZi5AMcoxCM-KaETjkSAZDO6b6gORdW-2KrypileIsVA1RBQhxYEnrlNdybbr-c1bEZ7ut99sNW5XrJSH_KU-nj_7IVt7sQVxZ4TndW0hVEgVW40]--></g></svg>