<?xml version="1.0" encoding="us-ascii" standalone="no"?><svg xmlns="http://www.w3.org/2000/svg" xmlns:xlink="http://www.w3.org/1999/xlink" contentStyleType="text/css" height="1161px" preserveAspectRatio="none" style="width:1975px;height:1161px;background:#FFFFFF;" version="1.1" viewBox="0 0 1975 1161" width="1975px" zoomAndPan="magnify"><defs/><g><!--cluster datenwerft--><g id="cluster_datenwerft"><path d="M8.5,6.0137 L85.5,6.0137 A3.75,3.75 0 0 1 88,8.5137 L95,30.6348 L684.5,30.6348 A2.5,2.5 0 0 1 687,33.1348 L687,501.5137 A2.5,2.5 0 0 1 684.5,504.0137 L8.5,504.0137 A2.5,2.5 0 0 1 6,501.5137 L6,8.5137 A2.5,2.5 0 0 1 8.5,6.0137 " fill="none" style="stroke:#000000;stroke-width:1.5;"/><line style="stroke:#000000;stroke-width:1.5;" x1="6" x2="95" y1="30.6348" y2="30.6348"/><text fill="#000000" font-family="sans-serif" font-size="14" font-weight="bold" lengthAdjust="spacing" textLength="76" x="10" y="23.1211">datenwerft</text></g><!--cluster datenmanagement--><g id="cluster_datenmanagement"><path d="M713.5,282.0137 L844.5,282.0137 A3.75,3.75 0 0 1 847,284.5137 L854,306.6348 L1770.5,306.6348 A2.5,2.5 0 0 1 1773,309.1348 L1773,1151.5137 A2.5,2.5 0 0 1 1770.5,1154.0137 L713.5,1154.0137 A2.5,2.5 0 0 1 711,1151.5137 L711,284.5137 A2.5,2.5 0 0 1 713.5,282.0137 " fill="none" style="stroke:#000000;stroke-width:1.5;"/><line style="stroke:#000000;stroke-width:1.5;" x1="711" x2="854" y1="306.6348" y2="306.6348"/><text fill="#000000" font-family="sans-serif" font-size="14" font-weight="bold" lengthAdjust="spacing" textLength="130" x="715" y="299.1211">datenmanagement</text></g><!--class base--><g id="elem_base"><rect codeLine="2" fill="#F1F1F1" height="215.5898" id="base" rx="2.5" ry="2.5" style="stroke:#181818;stroke-width:0.5;" width="139" x="22.5" y="43.0137"/><ellipse cx="72.25" cy="59.0137" fill="#ADD1B2" rx="11" ry="11" style="stroke:#181818;stroke-width:1.0;"/><path d="M75.0156,54.8887 Q75.1719,54.6699 75.3594,54.5605 Q75.5469,54.4512 75.7656,54.4512 Q76.1406,54.4512 76.375,54.7168 Q76.6094,54.9668 76.6094,55.5762 L76.6094,57.0293 Q76.6094,57.6387 76.375,57.9043 Q76.1406,58.1699 75.7656,58.1699 Q75.4219,58.1699 75.2188,57.9668 Q75.0156,57.7793 74.9063,57.2637 Q74.8594,56.9043 74.6719,56.7168 Q74.3438,56.3418 73.7344,56.123 Q73.125,55.9043 72.5,55.9043 Q71.7344,55.9043 71.0938,56.2324 Q70.4688,56.5605 69.9688,57.3105 Q69.4844,58.0605 69.4844,59.0918 L69.4844,60.1855 Q69.4844,61.4199 70.375,62.248 Q71.2656,63.0605 72.8594,63.0605 Q73.7969,63.0605 74.4531,62.8105 Q74.8438,62.6543 75.2656,62.2168 Q75.5313,61.9512 75.6719,61.873 Q75.8281,61.7949 76.0313,61.7949 Q76.3594,61.7949 76.6094,62.0605 Q76.875,62.3105 76.875,62.6543 Q76.875,62.998 76.5313,63.4043 Q76.0313,63.9824 75.2344,64.3105 Q74.1563,64.7637 72.8594,64.7637 Q71.3438,64.7637 70.1406,64.1387 Q69.1563,63.6387 68.4688,62.5762 Q67.7813,61.498 67.7813,60.2168 L67.7813,59.0605 Q67.7813,57.7324 68.3906,56.5918 Q69.0156,55.4355 70.1094,54.8262 Q71.2031,54.2012 72.4375,54.2012 Q73.1719,54.2012 73.8125,54.373 Q74.4688,54.5293 75.0156,54.8887 Z " fill="#000000"/><text fill="#000000" font-family="sans-serif" font-size="14" lengthAdjust="spacing" textLength="31" x="92.75" y="64.8105">base</text><line style="stroke:#181818;stroke-width:0.5;" x1="23.5" x2="160.5" y1="75.0137" y2="75.0137"/><text fill="#000000" font-family="sans-serif" font-size="14" lengthAdjust="spacing" textLength="32" x="28.5" y="94.1211">head</text><text fill="#000000" font-family="sans-serif" font-size="14" lengthAdjust="spacing" textLength="31" x="28.5" y="112.7422">meta</text><text fill="#000000" font-family="sans-serif" font-size="14" lengthAdjust="spacing" textLength="22" x="28.5" y="131.3633">title</text><text fill="#000000" font-family="sans-serif" font-size="14" lengthAdjust="spacing" textLength="29" x="28.5" y="149.9844">style</text><text fill="#000000" font-family="sans-serif" font-size="14" lengthAdjust="spacing" textLength="41" x="28.5" y="168.6055">scripts</text><text fill="#000000" font-family="sans-serif" font-size="14" lengthAdjust="spacing" textLength="44" x="28.5" y="187.2266">navbar</text><text fill="#000000" font-family="sans-serif" font-size="14" lengthAdjust="spacing" textLength="47" x="28.5" y="205.8477">content</text><text fill="#000000" font-family="sans-serif" font-size="14" lengthAdjust="spacing" textLength="37" x="28.5" y="224.4688">footer</text><line style="stroke:#181818;stroke-width:0.5;" x1="23.5" x2="160.5" y1="231.9824" y2="231.9824"/><text fill="#000000" font-family="sans-serif" font-size="14" lengthAdjust="spacing" textLength="127" x="28.5" y="251.0898">include navbar_html</text></g><!--class navbar_html--><g id="elem_navbar_html"><rect codeLine="14" fill="#F1F1F1" height="66.6211" id="navbar_html" rx="2.5" ry="2.5" style="stroke:#181818;stroke-width:0.5;" width="110" x="22" y="412.0137"/><ellipse cx="37" cy="428.0137" fill="#ADD1B2" rx="11" ry="11" style="stroke:#181818;stroke-width:1.0;"/><path d="M39.7656,423.8887 Q39.9219,423.6699 40.1094,423.5605 Q40.2969,423.4512 40.5156,423.4512 Q40.8906,423.4512 41.125,423.7168 Q41.3594,423.9668 41.3594,424.5762 L41.3594,426.0293 Q41.3594,426.6387 41.125,426.9043 Q40.8906,427.1699 40.5156,427.1699 Q40.1719,427.1699 39.9688,426.9668 Q39.7656,426.7793 39.6563,426.2637 Q39.6094,425.9043 39.4219,425.7168 Q39.0938,425.3418 38.4844,425.123 Q37.875,424.9043 37.25,424.9043 Q36.4844,424.9043 35.8438,425.2324 Q35.2188,425.5605 34.7188,426.3105 Q34.2344,427.0605 34.2344,428.0918 L34.2344,429.1855 Q34.2344,430.4199 35.125,431.248 Q36.0156,432.0605 37.6094,432.0605 Q38.5469,432.0605 39.2031,431.8105 Q39.5938,431.6543 40.0156,431.2168 Q40.2813,430.9512 40.4219,430.873 Q40.5781,430.7949 40.7813,430.7949 Q41.1094,430.7949 41.3594,431.0605 Q41.625,431.3105 41.625,431.6543 Q41.625,431.998 41.2813,432.4043 Q40.7813,432.9824 39.9844,433.3105 Q38.9063,433.7637 37.6094,433.7637 Q36.0938,433.7637 34.8906,433.1387 Q33.9063,432.6387 33.2188,431.5762 Q32.5313,430.498 32.5313,429.2168 L32.5313,428.0605 Q32.5313,426.7324 33.1406,425.5918 Q33.7656,424.4355 34.8594,423.8262 Q35.9531,423.2012 37.1875,423.2012 Q37.9219,423.2012 38.5625,423.373 Q39.2188,423.5293 39.7656,423.8887 Z " fill="#000000"/><text fill="#000000" font-family="sans-serif" font-size="14" lengthAdjust="spacing" textLength="78" x="51" y="433.8105">navbar_html</text><line style="stroke:#181818;stroke-width:0.5;" x1="23" x2="131" y1="444.0137" y2="444.0137"/><text fill="#000000" font-family="sans-serif" font-size="14" lengthAdjust="spacing" textLength="44" x="28" y="463.1211">navbar</text><line style="stroke:#181818;stroke-width:0.5;" x1="23" x2="131" y1="470.6348" y2="470.6348"/></g><!--class index--><g id="elem_index"><rect codeLine="18" fill="#F1F1F1" height="85.2422" id="index" rx="2.5" ry="2.5" style="stroke:#181818;stroke-width:0.5;" width="65" x="167.5" y="403.0137"/><ellipse cx="182.5" cy="419.0137" fill="#ADD1B2" rx="11" ry="11" style="stroke:#181818;stroke-width:1.0;"/><path d="M185.2656,414.8887 Q185.4219,414.6699 185.6094,414.5605 Q185.7969,414.4512 186.0156,414.4512 Q186.3906,414.4512 186.625,414.7168 Q186.8594,414.9668 186.8594,415.5762 L186.8594,417.0293 Q186.8594,417.6387 186.625,417.9043 Q186.3906,418.1699 186.0156,418.1699 Q185.6719,418.1699 185.4688,417.9668 Q185.2656,417.7793 185.1563,417.2637 Q185.1094,416.9043 184.9219,416.7168 Q184.5938,416.3418 183.9844,416.123 Q183.375,415.9043 182.75,415.9043 Q181.9844,415.9043 181.3438,416.2324 Q180.7188,416.5605 180.2188,417.3105 Q179.7344,418.0605 179.7344,419.0918 L179.7344,420.1855 Q179.7344,421.4199 180.625,422.248 Q181.5156,423.0605 183.1094,423.0605 Q184.0469,423.0605 184.7031,422.8105 Q185.0938,422.6543 185.5156,422.2168 Q185.7813,421.9512 185.9219,421.873 Q186.0781,421.7949 186.2813,421.7949 Q186.6094,421.7949 186.8594,422.0605 Q187.125,422.3105 187.125,422.6543 Q187.125,422.998 186.7813,423.4043 Q186.2813,423.9824 185.4844,424.3105 Q184.4063,424.7637 183.1094,424.7637 Q181.5938,424.7637 180.3906,424.1387 Q179.4063,423.6387 178.7188,422.5762 Q178.0313,421.498 178.0313,420.2168 L178.0313,419.0605 Q178.0313,417.7324 178.6406,416.5918 Q179.2656,415.4355 180.3594,414.8262 Q181.4531,414.2012 182.6875,414.2012 Q183.4219,414.2012 184.0625,414.373 Q184.7188,414.5293 185.2656,414.8887 Z " fill="#000000"/><text fill="#000000" font-family="sans-serif" font-size="14" lengthAdjust="spacing" textLength="33" x="196.5" y="424.8105">index</text><line style="stroke:#181818;stroke-width:0.5;" x1="168.5" x2="231.5" y1="435.0137" y2="435.0137"/><text fill="#000000" font-family="sans-serif" font-size="14" lengthAdjust="spacing" textLength="22" x="173.5" y="454.1211">title</text><text fill="#000000" font-family="sans-serif" font-size="14" lengthAdjust="spacing" textLength="47" x="173.5" y="472.7422">content</text><line style="stroke:#181818;stroke-width:0.5;" x1="168.5" x2="231.5" y1="480.2559" y2="480.2559"/></g><!--class error--><g id="elem_error"><rect codeLine="23" fill="#F1F1F1" height="85.2422" id="error" rx="2.5" ry="2.5" style="stroke:#181818;stroke-width:0.5;" width="63" x="267.5" y="403.0137"/><ellipse cx="282.5" cy="419.0137" fill="#ADD1B2" rx="11" ry="11" style="stroke:#181818;stroke-width:1.0;"/><path d="M285.2656,414.8887 Q285.4219,414.6699 285.6094,414.5605 Q285.7969,414.4512 286.0156,414.4512 Q286.3906,414.4512 286.625,414.7168 Q286.8594,414.9668 286.8594,415.5762 L286.8594,417.0293 Q286.8594,417.6387 286.625,417.9043 Q286.3906,418.1699 286.0156,418.1699 Q285.6719,418.1699 285.4688,417.9668 Q285.2656,417.7793 285.1563,417.2637 Q285.1094,416.9043 284.9219,416.7168 Q284.5938,416.3418 283.9844,416.123 Q283.375,415.9043 282.75,415.9043 Q281.9844,415.9043 281.3438,416.2324 Q280.7188,416.5605 280.2188,417.3105 Q279.7344,418.0605 279.7344,419.0918 L279.7344,420.1855 Q279.7344,421.4199 280.625,422.248 Q281.5156,423.0605 283.1094,423.0605 Q284.0469,423.0605 284.7031,422.8105 Q285.0938,422.6543 285.5156,422.2168 Q285.7813,421.9512 285.9219,421.873 Q286.0781,421.7949 286.2813,421.7949 Q286.6094,421.7949 286.8594,422.0605 Q287.125,422.3105 287.125,422.6543 Q287.125,422.998 286.7813,423.4043 Q286.2813,423.9824 285.4844,424.3105 Q284.4063,424.7637 283.1094,424.7637 Q281.5938,424.7637 280.3906,424.1387 Q279.4063,423.6387 278.7188,422.5762 Q278.0313,421.498 278.0313,420.2168 L278.0313,419.0605 Q278.0313,417.7324 278.6406,416.5918 Q279.2656,415.4355 280.3594,414.8262 Q281.4531,414.2012 282.6875,414.2012 Q283.4219,414.2012 284.0625,414.373 Q284.7188,414.5293 285.2656,414.8887 Z " fill="#000000"/><text fill="#000000" font-family="sans-serif" font-size="14" lengthAdjust="spacing" textLength="31" x="296.5" y="424.8105">error</text><line style="stroke:#181818;stroke-width:0.5;" x1="268.5" x2="329.5" y1="435.0137" y2="435.0137"/><text fill="#000000" font-family="sans-serif" font-size="14" lengthAdjust="spacing" textLength="22" x="273.5" y="454.1211">title</text><text fill="#000000" font-family="sans-serif" font-size="14" lengthAdjust="spacing" textLength="47" x="273.5" y="472.7422">content</text><line style="stroke:#181818;stroke-width:0.5;" x1="268.5" x2="329.5" y1="480.2559" y2="480.2559"/></g><!--class modal_confirm_export--><g id="elem_modal_confirm_export"><rect codeLine="28" fill="#F1F1F1" height="48" id="modal_confirm_export" rx="2.5" ry="2.5" style="stroke:#181818;stroke-width:0.5;" width="171" x="196.5" y="127.0137"/><ellipse cx="211.5" cy="143.0137" fill="#ADD1B2" rx="11" ry="11" style="stroke:#181818;stroke-width:1.0;"/><path d="M214.2656,138.8887 Q214.4219,138.6699 214.6094,138.5605 Q214.7969,138.4512 215.0156,138.4512 Q215.3906,138.4512 215.625,138.7168 Q215.8594,138.9668 215.8594,139.5762 L215.8594,141.0293 Q215.8594,141.6387 215.625,141.9043 Q215.3906,142.1699 215.0156,142.1699 Q214.6719,142.1699 214.4688,141.9668 Q214.2656,141.7793 214.1563,141.2637 Q214.1094,140.9043 213.9219,140.7168 Q213.5938,140.3418 212.9844,140.123 Q212.375,139.9043 211.75,139.9043 Q210.9844,139.9043 210.3438,140.2324 Q209.7188,140.5605 209.2188,141.3105 Q208.7344,142.0605 208.7344,143.0918 L208.7344,144.1855 Q208.7344,145.4199 209.625,146.248 Q210.5156,147.0605 212.1094,147.0605 Q213.0469,147.0605 213.7031,146.8105 Q214.0938,146.6543 214.5156,146.2168 Q214.7813,145.9512 214.9219,145.873 Q215.0781,145.7949 215.2813,145.7949 Q215.6094,145.7949 215.8594,146.0605 Q216.125,146.3105 216.125,146.6543 Q216.125,146.998 215.7813,147.4043 Q215.2813,147.9824 214.4844,148.3105 Q213.4063,148.7637 212.1094,148.7637 Q210.5938,148.7637 209.3906,148.1387 Q208.4063,147.6387 207.7188,146.5762 Q207.0313,145.498 207.0313,144.2168 L207.0313,143.0605 Q207.0313,141.7324 207.6406,140.5918 Q208.2656,139.4355 209.3594,138.8262 Q210.4531,138.2012 211.6875,138.2012 Q212.4219,138.2012 213.0625,138.373 Q213.7188,138.5293 214.2656,138.8887 Z " fill="#000000"/><text fill="#000000" font-family="sans-serif" font-size="14" lengthAdjust="spacing" textLength="139" x="225.5" y="148.8105">modal_confirm_export</text><line style="stroke:#181818;stroke-width:0.5;" x1="197.5" x2="366.5" y1="159.0137" y2="159.0137"/><line style="stroke:#181818;stroke-width:0.5;" x1="197.5" x2="366.5" y1="167.0137" y2="167.0137"/></g><!--class modal_error--><g id="elem_modal_error"><rect codeLine="29" fill="#F1F1F1" height="48" id="modal_error" rx="2.5" ry="2.5" style="stroke:#181818;stroke-width:0.5;" width="109" x="402.5" y="127.0137"/><ellipse cx="417.5" cy="143.0137" fill="#ADD1B2" rx="11" ry="11" style="stroke:#181818;stroke-width:1.0;"/><path d="M420.2656,138.8887 Q420.4219,138.6699 420.6094,138.5605 Q420.7969,138.4512 421.0156,138.4512 Q421.3906,138.4512 421.625,138.7168 Q421.8594,138.9668 421.8594,139.5762 L421.8594,141.0293 Q421.8594,141.6387 421.625,141.9043 Q421.3906,142.1699 421.0156,142.1699 Q420.6719,142.1699 420.4688,141.9668 Q420.2656,141.7793 420.1563,141.2637 Q420.1094,140.9043 419.9219,140.7168 Q419.5938,140.3418 418.9844,140.123 Q418.375,139.9043 417.75,139.9043 Q416.9844,139.9043 416.3438,140.2324 Q415.7188,140.5605 415.2188,141.3105 Q414.7344,142.0605 414.7344,143.0918 L414.7344,144.1855 Q414.7344,145.4199 415.625,146.248 Q416.5156,147.0605 418.1094,147.0605 Q419.0469,147.0605 419.7031,146.8105 Q420.0938,146.6543 420.5156,146.2168 Q420.7813,145.9512 420.9219,145.873 Q421.0781,145.7949 421.2813,145.7949 Q421.6094,145.7949 421.8594,146.0605 Q422.125,146.3105 422.125,146.6543 Q422.125,146.998 421.7813,147.4043 Q421.2813,147.9824 420.4844,148.3105 Q419.4063,148.7637 418.1094,148.7637 Q416.5938,148.7637 415.3906,148.1387 Q414.4063,147.6387 413.7188,146.5762 Q413.0313,145.498 413.0313,144.2168 L413.0313,143.0605 Q413.0313,141.7324 413.6406,140.5918 Q414.2656,139.4355 415.3594,138.8262 Q416.4531,138.2012 417.6875,138.2012 Q418.4219,138.2012 419.0625,138.373 Q419.7188,138.5293 420.2656,138.8887 Z " fill="#000000"/><text fill="#000000" font-family="sans-serif" font-size="14" lengthAdjust="spacing" textLength="77" x="431.5" y="148.8105">modal_error</text><line style="stroke:#181818;stroke-width:0.5;" x1="403.5" x2="510.5" y1="159.0137" y2="159.0137"/><line style="stroke:#181818;stroke-width:0.5;" x1="403.5" x2="510.5" y1="167.0137" y2="167.0137"/></g><!--class modal_loading--><g id="elem_modal_loading"><rect codeLine="30" fill="#F1F1F1" height="48" id="modal_loading" rx="2.5" ry="2.5" style="stroke:#181818;stroke-width:0.5;" width="124" x="547" y="127.0137"/><ellipse cx="562" cy="143.0137" fill="#ADD1B2" rx="11" ry="11" style="stroke:#181818;stroke-width:1.0;"/><path d="M564.7656,138.8887 Q564.9219,138.6699 565.1094,138.5605 Q565.2969,138.4512 565.5156,138.4512 Q565.8906,138.4512 566.125,138.7168 Q566.3594,138.9668 566.3594,139.5762 L566.3594,141.0293 Q566.3594,141.6387 566.125,141.9043 Q565.8906,142.1699 565.5156,142.1699 Q565.1719,142.1699 564.9688,141.9668 Q564.7656,141.7793 564.6563,141.2637 Q564.6094,140.9043 564.4219,140.7168 Q564.0938,140.3418 563.4844,140.123 Q562.875,139.9043 562.25,139.9043 Q561.4844,139.9043 560.8438,140.2324 Q560.2188,140.5605 559.7188,141.3105 Q559.2344,142.0605 559.2344,143.0918 L559.2344,144.1855 Q559.2344,145.4199 560.125,146.248 Q561.0156,147.0605 562.6094,147.0605 Q563.5469,147.0605 564.2031,146.8105 Q564.5938,146.6543 565.0156,146.2168 Q565.2813,145.9512 565.4219,145.873 Q565.5781,145.7949 565.7813,145.7949 Q566.1094,145.7949 566.3594,146.0605 Q566.625,146.3105 566.625,146.6543 Q566.625,146.998 566.2813,147.4043 Q565.7813,147.9824 564.9844,148.3105 Q563.9063,148.7637 562.6094,148.7637 Q561.0938,148.7637 559.8906,148.1387 Q558.9063,147.6387 558.2188,146.5762 Q557.5313,145.498 557.5313,144.2168 L557.5313,143.0605 Q557.5313,141.7324 558.1406,140.5918 Q558.7656,139.4355 559.8594,138.8262 Q560.9531,138.2012 562.1875,138.2012 Q562.9219,138.2012 563.5625,138.373 Q564.2188,138.5293 564.7656,138.8887 Z " fill="#000000"/><text fill="#000000" font-family="sans-serif" font-size="14" lengthAdjust="spacing" textLength="92" x="576" y="148.8105">modal_loading</text><line style="stroke:#181818;stroke-width:0.5;" x1="548" x2="670" y1="159.0137" y2="159.0137"/><line style="stroke:#181818;stroke-width:0.5;" x1="548" x2="670" y1="167.0137" y2="167.0137"/></g><!--class add_another--><g id="elem_add_another"><rect codeLine="35" fill="#F1F1F1" height="85.2422" id="add_another" rx="2.5" ry="2.5" style="stroke:#181818;stroke-width:0.5;" width="113" x="833.5" y="403.0137"/><ellipse cx="848.5" cy="419.0137" fill="#ADD1B2" rx="11" ry="11" style="stroke:#181818;stroke-width:1.0;"/><path d="M851.2656,414.8887 Q851.4219,414.6699 851.6094,414.5605 Q851.7969,414.4512 852.0156,414.4512 Q852.3906,414.4512 852.625,414.7168 Q852.8594,414.9668 852.8594,415.5762 L852.8594,417.0293 Q852.8594,417.6387 852.625,417.9043 Q852.3906,418.1699 852.0156,418.1699 Q851.6719,418.1699 851.4688,417.9668 Q851.2656,417.7793 851.1563,417.2637 Q851.1094,416.9043 850.9219,416.7168 Q850.5938,416.3418 849.9844,416.123 Q849.375,415.9043 848.75,415.9043 Q847.9844,415.9043 847.3438,416.2324 Q846.7188,416.5605 846.2188,417.3105 Q845.7344,418.0605 845.7344,419.0918 L845.7344,420.1855 Q845.7344,421.4199 846.625,422.248 Q847.5156,423.0605 849.1094,423.0605 Q850.0469,423.0605 850.7031,422.8105 Q851.0938,422.6543 851.5156,422.2168 Q851.7813,421.9512 851.9219,421.873 Q852.0781,421.7949 852.2813,421.7949 Q852.6094,421.7949 852.8594,422.0605 Q853.125,422.3105 853.125,422.6543 Q853.125,422.998 852.7813,423.4043 Q852.2813,423.9824 851.4844,424.3105 Q850.4063,424.7637 849.1094,424.7637 Q847.5938,424.7637 846.3906,424.1387 Q845.4063,423.6387 844.7188,422.5762 Q844.0313,421.498 844.0313,420.2168 L844.0313,419.0605 Q844.0313,417.7324 844.6406,416.5918 Q845.2656,415.4355 846.3594,414.8262 Q847.4531,414.2012 848.6875,414.2012 Q849.4219,414.2012 850.0625,414.373 Q850.7188,414.5293 851.2656,414.8887 Z " fill="#000000"/><text fill="#000000" font-family="sans-serif" font-size="14" lengthAdjust="spacing" textLength="81" x="862.5" y="424.8105">add_another</text><line style="stroke:#181818;stroke-width:0.5;" x1="834.5" x2="945.5" y1="435.0137" y2="435.0137"/><text fill="#000000" font-family="sans-serif" font-size="14" lengthAdjust="spacing" textLength="22" x="839.5" y="454.1211">title</text><text fill="#000000" font-family="sans-serif" font-size="14" lengthAdjust="spacing" textLength="47" x="839.5" y="472.7422">content</text><line style="stroke:#181818;stroke-width:0.5;" x1="834.5" x2="945.5" y1="480.2559" y2="480.2559"/></g><!--class delete--><g id="elem_delete"><rect codeLine="40" fill="#F1F1F1" height="85.2422" id="delete" rx="2.5" ry="2.5" style="stroke:#181818;stroke-width:0.5;" width="71" x="727.5" y="403.0137"/><ellipse cx="742.5" cy="419.0137" fill="#ADD1B2" rx="11" ry="11" style="stroke:#181818;stroke-width:1.0;"/><path d="M745.2656,414.8887 Q745.4219,414.6699 745.6094,414.5605 Q745.7969,414.4512 746.0156,414.4512 Q746.3906,414.4512 746.625,414.7168 Q746.8594,414.9668 746.8594,415.5762 L746.8594,417.0293 Q746.8594,417.6387 746.625,417.9043 Q746.3906,418.1699 746.0156,418.1699 Q745.6719,418.1699 745.4688,417.9668 Q745.2656,417.7793 745.1563,417.2637 Q745.1094,416.9043 744.9219,416.7168 Q744.5938,416.3418 743.9844,416.123 Q743.375,415.9043 742.75,415.9043 Q741.9844,415.9043 741.3438,416.2324 Q740.7188,416.5605 740.2188,417.3105 Q739.7344,418.0605 739.7344,419.0918 L739.7344,420.1855 Q739.7344,421.4199 740.625,422.248 Q741.5156,423.0605 743.1094,423.0605 Q744.0469,423.0605 744.7031,422.8105 Q745.0938,422.6543 745.5156,422.2168 Q745.7813,421.9512 745.9219,421.873 Q746.0781,421.7949 746.2813,421.7949 Q746.6094,421.7949 746.8594,422.0605 Q747.125,422.3105 747.125,422.6543 Q747.125,422.998 746.7813,423.4043 Q746.2813,423.9824 745.4844,424.3105 Q744.4063,424.7637 743.1094,424.7637 Q741.5938,424.7637 740.3906,424.1387 Q739.4063,423.6387 738.7188,422.5762 Q738.0313,421.498 738.0313,420.2168 L738.0313,419.0605 Q738.0313,417.7324 738.6406,416.5918 Q739.2656,415.4355 740.3594,414.8262 Q741.4531,414.2012 742.6875,414.2012 Q743.4219,414.2012 744.0625,414.373 Q744.7188,414.5293 745.2656,414.8887 Z " fill="#000000"/><text fill="#000000" font-family="sans-serif" font-size="14" lengthAdjust="spacing" textLength="39" x="756.5" y="424.8105">delete</text><line style="stroke:#181818;stroke-width:0.5;" x1="728.5" x2="797.5" y1="435.0137" y2="435.0137"/><text fill="#000000" font-family="sans-serif" font-size="14" lengthAdjust="spacing" textLength="22" x="733.5" y="454.1211">title</text><text fill="#000000" font-family="sans-serif" font-size="14" lengthAdjust="spacing" textLength="47" x="733.5" y="472.7422">content</text><line style="stroke:#181818;stroke-width:0.5;" x1="728.5" x2="797.5" y1="480.2559" y2="480.2559"/></g><!--class form--><g id="elem_form"><rect codeLine="45" fill="#F1F1F1" height="252.832" id="form" rx="2.5" ry="2.5" style="stroke:#181818;stroke-width:0.5;" width="133" x="1199.5" y="319.0137"/><ellipse cx="1247.75" cy="335.0137" fill="#ADD1B2" rx="11" ry="11" style="stroke:#181818;stroke-width:1.0;"/><path d="M1250.5156,330.8887 Q1250.6719,330.6699 1250.8594,330.5605 Q1251.0469,330.4512 1251.2656,330.4512 Q1251.6406,330.4512 1251.875,330.7168 Q1252.1094,330.9668 1252.1094,331.5762 L1252.1094,333.0293 Q1252.1094,333.6387 1251.875,333.9043 Q1251.6406,334.1699 1251.2656,334.1699 Q1250.9219,334.1699 1250.7188,333.9668 Q1250.5156,333.7793 1250.4063,333.2637 Q1250.3594,332.9043 1250.1719,332.7168 Q1249.8438,332.3418 1249.2344,332.123 Q1248.625,331.9043 1248,331.9043 Q1247.2344,331.9043 1246.5938,332.2324 Q1245.9688,332.5605 1245.4688,333.3105 Q1244.9844,334.0605 1244.9844,335.0918 L1244.9844,336.1855 Q1244.9844,337.4199 1245.875,338.248 Q1246.7656,339.0605 1248.3594,339.0605 Q1249.2969,339.0605 1249.9531,338.8105 Q1250.3438,338.6543 1250.7656,338.2168 Q1251.0313,337.9512 1251.1719,337.873 Q1251.3281,337.7949 1251.5313,337.7949 Q1251.8594,337.7949 1252.1094,338.0605 Q1252.375,338.3105 1252.375,338.6543 Q1252.375,338.998 1252.0313,339.4043 Q1251.5313,339.9824 1250.7344,340.3105 Q1249.6563,340.7637 1248.3594,340.7637 Q1246.8438,340.7637 1245.6406,340.1387 Q1244.6563,339.6387 1243.9688,338.5762 Q1243.2813,337.498 1243.2813,336.2168 L1243.2813,335.0605 Q1243.2813,333.7324 1243.8906,332.5918 Q1244.5156,331.4355 1245.6094,330.8262 Q1246.7031,330.2012 1247.9375,330.2012 Q1248.6719,330.2012 1249.3125,330.373 Q1249.9688,330.5293 1250.5156,330.8887 Z " fill="#000000"/><text fill="#000000" font-family="sans-serif" font-size="14" lengthAdjust="spacing" textLength="28" x="1268.25" y="340.8105">form</text><line style="stroke:#181818;stroke-width:0.5;" x1="1200.5" x2="1331.5" y1="351.0137" y2="351.0137"/><text fill="#000000" font-family="sans-serif" font-size="14" lengthAdjust="spacing" textLength="22" x="1205.5" y="370.1211">title</text><text fill="#000000" font-family="sans-serif" font-size="14" lengthAdjust="spacing" textLength="29" x="1205.5" y="388.7422">style</text><text fill="#000000" font-family="sans-serif" font-size="14" lengthAdjust="spacing" textLength="41" x="1205.5" y="407.3633">scripts</text><text fill="#000000" font-family="sans-serif" font-size="14" lengthAdjust="spacing" textLength="47" x="1205.5" y="425.9844">content</text><text fill="#000000" font-family="sans-serif" font-size="14" lengthAdjust="spacing" textLength="35" x="1205.5" y="444.6055">alerts</text><text fill="#000000" font-family="sans-serif" font-size="14" lengthAdjust="spacing" textLength="121" x="1205.5" y="463.2266">associated_models</text><text fill="#000000" font-family="sans-serif" font-size="14" lengthAdjust="spacing" textLength="17" x="1205.5" y="481.8477">list</text><text fill="#000000" font-family="sans-serif" font-size="14" lengthAdjust="spacing" textLength="27" x="1205.5" y="500.4688">map</text><text fill="#000000" font-family="sans-serif" font-size="14" lengthAdjust="spacing" textLength="105" x="1205.5" y="519.0898">pc_management</text><line style="stroke:#181818;stroke-width:0.5;" x1="1200.5" x2="1331.5" y1="526.6035" y2="526.6035"/><text fill="#000000" font-family="sans-serif" font-size="14" lengthAdjust="spacing" textLength="75" x="1205.5" y="545.7109">extend style</text><text fill="#000000" font-family="sans-serif" font-size="14" lengthAdjust="spacing" textLength="87" x="1205.5" y="564.332">extend scripts</text></g><!--class form_address--><g id="elem_form_address"><rect codeLine="59" fill="#F1F1F1" height="48" id="form_address" rx="2.5" ry="2.5" style="stroke:#181818;stroke-width:0.5;" width="119" x="1354.5" y="1071.5137"/><ellipse cx="1369.5" cy="1087.5137" fill="#ADD1B2" rx="11" ry="11" style="stroke:#181818;stroke-width:1.0;"/><path d="M1372.2656,1083.3887 Q1372.4219,1083.1699 1372.6094,1083.0605 Q1372.7969,1082.9512 1373.0156,1082.9512 Q1373.3906,1082.9512 1373.625,1083.2168 Q1373.8594,1083.4668 1373.8594,1084.0762 L1373.8594,1085.5293 Q1373.8594,1086.1387 1373.625,1086.4043 Q1373.3906,1086.6699 1373.0156,1086.6699 Q1372.6719,1086.6699 1372.4688,1086.4668 Q1372.2656,1086.2793 1372.1563,1085.7637 Q1372.1094,1085.4043 1371.9219,1085.2168 Q1371.5938,1084.8418 1370.9844,1084.623 Q1370.375,1084.4043 1369.75,1084.4043 Q1368.9844,1084.4043 1368.3438,1084.7324 Q1367.7188,1085.0605 1367.2188,1085.8105 Q1366.7344,1086.5605 1366.7344,1087.5918 L1366.7344,1088.6855 Q1366.7344,1089.9199 1367.625,1090.748 Q1368.5156,1091.5605 1370.1094,1091.5605 Q1371.0469,1091.5605 1371.7031,1091.3105 Q1372.0938,1091.1543 1372.5156,1090.7168 Q1372.7813,1090.4512 1372.9219,1090.373 Q1373.0781,1090.2949 1373.2813,1090.2949 Q1373.6094,1090.2949 1373.8594,1090.5605 Q1374.125,1090.8105 1374.125,1091.1543 Q1374.125,1091.498 1373.7813,1091.9043 Q1373.2813,1092.4824 1372.4844,1092.8105 Q1371.4063,1093.2637 1370.1094,1093.2637 Q1368.5938,1093.2637 1367.3906,1092.6387 Q1366.4063,1092.1387 1365.7188,1091.0762 Q1365.0313,1089.998 1365.0313,1088.7168 L1365.0313,1087.5605 Q1365.0313,1086.2324 1365.6406,1085.0918 Q1366.2656,1083.9355 1367.3594,1083.3262 Q1368.4531,1082.7012 1369.6875,1082.7012 Q1370.4219,1082.7012 1371.0625,1082.873 Q1371.7188,1083.0293 1372.2656,1083.3887 Z " fill="#000000"/><text fill="#000000" font-family="sans-serif" font-size="14" lengthAdjust="spacing" textLength="87" x="1383.5" y="1093.3105">form_address</text><line style="stroke:#181818;stroke-width:0.5;" x1="1355.5" x2="1472.5" y1="1103.5137" y2="1103.5137"/><line style="stroke:#181818;stroke-width:0.5;" x1="1355.5" x2="1472.5" y1="1111.5137" y2="1111.5137"/></g><!--class form_list--><g id="elem_form_list"><rect codeLine="61" fill="#F1F1F1" height="85.2422" id="form_list" rx="2.5" ry="2.5" style="stroke:#181818;stroke-width:0.5;" width="148" x="1203" y="632.0137"/><ellipse cx="1246.35" cy="648.0137" fill="#ADD1B2" rx="11" ry="11" style="stroke:#181818;stroke-width:1.0;"/><path d="M1249.1156,643.8887 Q1249.2719,643.6699 1249.4594,643.5605 Q1249.6469,643.4512 1249.8656,643.4512 Q1250.2406,643.4512 1250.475,643.7168 Q1250.7094,643.9668 1250.7094,644.5762 L1250.7094,646.0293 Q1250.7094,646.6387 1250.475,646.9043 Q1250.2406,647.1699 1249.8656,647.1699 Q1249.5219,647.1699 1249.3188,646.9668 Q1249.1156,646.7793 1249.0063,646.2637 Q1248.9594,645.9043 1248.7719,645.7168 Q1248.4438,645.3418 1247.8344,645.123 Q1247.225,644.9043 1246.6,644.9043 Q1245.8344,644.9043 1245.1938,645.2324 Q1244.5688,645.5605 1244.0688,646.3105 Q1243.5844,647.0605 1243.5844,648.0918 L1243.5844,649.1855 Q1243.5844,650.4199 1244.475,651.248 Q1245.3656,652.0605 1246.9594,652.0605 Q1247.8969,652.0605 1248.5531,651.8105 Q1248.9438,651.6543 1249.3656,651.2168 Q1249.6313,650.9512 1249.7719,650.873 Q1249.9281,650.7949 1250.1313,650.7949 Q1250.4594,650.7949 1250.7094,651.0605 Q1250.975,651.3105 1250.975,651.6543 Q1250.975,651.998 1250.6313,652.4043 Q1250.1313,652.9824 1249.3344,653.3105 Q1248.2563,653.7637 1246.9594,653.7637 Q1245.4438,653.7637 1244.2406,653.1387 Q1243.2563,652.6387 1242.5688,651.5762 Q1241.8813,650.498 1241.8813,649.2168 L1241.8813,648.0605 Q1241.8813,646.7324 1242.4906,645.5918 Q1243.1156,644.4355 1244.2094,643.8262 Q1245.3031,643.2012 1246.5375,643.2012 Q1247.2719,643.2012 1247.9125,643.373 Q1248.5688,643.5293 1249.1156,643.8887 Z " fill="#000000"/><text fill="#000000" font-family="sans-serif" font-size="14" lengthAdjust="spacing" textLength="53" x="1266.65" y="653.8105">form_list</text><line style="stroke:#181818;stroke-width:0.5;" x1="1204" x2="1350" y1="664.0137" y2="664.0137"/><text fill="#000000" font-family="sans-serif" font-size="14" lengthAdjust="spacing" textLength="17" x="1209" y="683.1211">list</text><line style="stroke:#181818;stroke-width:0.5;" x1="1204" x2="1350" y1="690.6348" y2="690.6348"/><text fill="#000000" font-family="sans-serif" font-size="14" lengthAdjust="spacing" textLength="136" x="1209" y="709.7422">include form_address</text></g><!--class form_map--><g id="elem_form_map"><rect codeLine="66" fill="#F1F1F1" height="215.5898" id="form_map" rx="2.5" ry="2.5" style="stroke:#181818;stroke-width:0.5;" width="153" x="1569.5" y="777.0137"/><ellipse cx="1610.6" cy="793.0137" fill="#ADD1B2" rx="11" ry="11" style="stroke:#181818;stroke-width:1.0;"/><path d="M1613.3656,788.8887 Q1613.5219,788.6699 1613.7094,788.5605 Q1613.8969,788.4512 1614.1156,788.4512 Q1614.4906,788.4512 1614.725,788.7168 Q1614.9594,788.9668 1614.9594,789.5762 L1614.9594,791.0293 Q1614.9594,791.6387 1614.725,791.9043 Q1614.4906,792.1699 1614.1156,792.1699 Q1613.7719,792.1699 1613.5688,791.9668 Q1613.3656,791.7793 1613.2563,791.2637 Q1613.2094,790.9043 1613.0219,790.7168 Q1612.6938,790.3418 1612.0844,790.123 Q1611.475,789.9043 1610.85,789.9043 Q1610.0844,789.9043 1609.4438,790.2324 Q1608.8188,790.5605 1608.3188,791.3105 Q1607.8344,792.0605 1607.8344,793.0918 L1607.8344,794.1855 Q1607.8344,795.4199 1608.725,796.248 Q1609.6156,797.0605 1611.2094,797.0605 Q1612.1469,797.0605 1612.8031,796.8105 Q1613.1938,796.6543 1613.6156,796.2168 Q1613.8813,795.9512 1614.0219,795.873 Q1614.1781,795.7949 1614.3813,795.7949 Q1614.7094,795.7949 1614.9594,796.0605 Q1615.225,796.3105 1615.225,796.6543 Q1615.225,796.998 1614.8813,797.4043 Q1614.3813,797.9824 1613.5844,798.3105 Q1612.5063,798.7637 1611.2094,798.7637 Q1609.6938,798.7637 1608.4906,798.1387 Q1607.5063,797.6387 1606.8188,796.5762 Q1606.1313,795.498 1606.1313,794.2168 L1606.1313,793.0605 Q1606.1313,791.7324 1606.7406,790.5918 Q1607.3656,789.4355 1608.4594,788.8262 Q1609.5531,788.2012 1610.7875,788.2012 Q1611.5219,788.2012 1612.1625,788.373 Q1612.8188,788.5293 1613.3656,788.8887 Z " fill="#000000"/><text fill="#000000" font-family="sans-serif" font-size="14" lengthAdjust="spacing" textLength="63" x="1630.4" y="798.8105">form_map</text><line style="stroke:#181818;stroke-width:0.5;" x1="1570.5" x2="1721.5" y1="809.0137" y2="809.0137"/><text fill="#000000" font-family="sans-serif" font-size="14" lengthAdjust="spacing" textLength="29" x="1575.5" y="828.1211">style</text><text fill="#000000" font-family="sans-serif" font-size="14" lengthAdjust="spacing" textLength="41" x="1575.5" y="846.7422">scripts</text><text fill="#000000" font-family="sans-serif" font-size="14" lengthAdjust="spacing" textLength="35" x="1575.5" y="865.3633">alerts</text><text fill="#000000" font-family="sans-serif" font-size="14" lengthAdjust="spacing" textLength="17" x="1575.5" y="883.9844">list</text><line style="stroke:#181818;stroke-width:0.5;" x1="1570.5" x2="1721.5" y1="891.498" y2="891.498"/><text fill="#000000" font-family="sans-serif" font-size="14" lengthAdjust="spacing" textLength="75" x="1575.5" y="910.6055">extend style</text><text fill="#000000" font-family="sans-serif" font-size="14" lengthAdjust="spacing" textLength="87" x="1575.5" y="929.2266">extend scripts</text><text fill="#000000" font-family="sans-serif" font-size="14" lengthAdjust="spacing" textLength="126" x="1575.5" y="947.8477">include modal_error</text><text fill="#000000" font-family="sans-serif" font-size="14" lengthAdjust="spacing" textLength="141" x="1575.5" y="966.4688">include modal_loading</text><text fill="#000000" font-family="sans-serif" font-size="14" lengthAdjust="spacing" textLength="136" x="1575.5" y="985.0898">include form_address</text></g><!--class form_pcmanagement--><g id="elem_form_pcmanagement"><rect codeLine="78" fill="#F1F1F1" height="85.2422" id="form_pcmanagement" rx="2.5" ry="2.5" style="stroke:#181818;stroke-width:0.5;" width="165" x="1563.5" y="1053.0137"/><ellipse cx="1578.5" cy="1069.0137" fill="#ADD1B2" rx="11" ry="11" style="stroke:#181818;stroke-width:1.0;"/><path d="M1581.2656,1064.8887 Q1581.4219,1064.6699 1581.6094,1064.5605 Q1581.7969,1064.4512 1582.0156,1064.4512 Q1582.3906,1064.4512 1582.625,1064.7168 Q1582.8594,1064.9668 1582.8594,1065.5762 L1582.8594,1067.0293 Q1582.8594,1067.6387 1582.625,1067.9043 Q1582.3906,1068.1699 1582.0156,1068.1699 Q1581.6719,1068.1699 1581.4688,1067.9668 Q1581.2656,1067.7793 1581.1563,1067.2637 Q1581.1094,1066.9043 1580.9219,1066.7168 Q1580.5938,1066.3418 1579.9844,1066.123 Q1579.375,1065.9043 1578.75,1065.9043 Q1577.9844,1065.9043 1577.3438,1066.2324 Q1576.7188,1066.5605 1576.2188,1067.3105 Q1575.7344,1068.0605 1575.7344,1069.0918 L1575.7344,1070.1855 Q1575.7344,1071.4199 1576.625,1072.248 Q1577.5156,1073.0605 1579.1094,1073.0605 Q1580.0469,1073.0605 1580.7031,1072.8105 Q1581.0938,1072.6543 1581.5156,1072.2168 Q1581.7813,1071.9512 1581.9219,1071.873 Q1582.0781,1071.7949 1582.2813,1071.7949 Q1582.6094,1071.7949 1582.8594,1072.0605 Q1583.125,1072.3105 1583.125,1072.6543 Q1583.125,1072.998 1582.7813,1073.4043 Q1582.2813,1073.9824 1581.4844,1074.3105 Q1580.4063,1074.7637 1579.1094,1074.7637 Q1577.5938,1074.7637 1576.3906,1074.1387 Q1575.4063,1073.6387 1574.7188,1072.5762 Q1574.0313,1071.498 1574.0313,1070.2168 L1574.0313,1069.0605 Q1574.0313,1067.7324 1574.6406,1066.5918 Q1575.2656,1065.4355 1576.3594,1064.8262 Q1577.4531,1064.2012 1578.6875,1064.2012 Q1579.4219,1064.2012 1580.0625,1064.373 Q1580.7188,1064.5293 1581.2656,1064.8887 Z " fill="#000000"/><text fill="#000000" font-family="sans-serif" font-size="14" lengthAdjust="spacing" textLength="133" x="1592.5" y="1074.8105">form_pcmanagement</text><line style="stroke:#181818;stroke-width:0.5;" x1="1564.5" x2="1727.5" y1="1085.0137" y2="1085.0137"/><text fill="#000000" font-family="sans-serif" font-size="14" lengthAdjust="spacing" textLength="121" x="1569.5" y="1104.1211">associated_models</text><text fill="#000000" font-family="sans-serif" font-size="14" lengthAdjust="spacing" textLength="105" x="1569.5" y="1122.7422">pc_management</text><line style="stroke:#181818;stroke-width:0.5;" x1="1564.5" x2="1727.5" y1="1130.2559" y2="1130.2559"/></g><!--class index--><g id="elem_index"><rect codeLine="83" fill="#F1F1F1" height="103.8633" id="index" rx="2.5" ry="2.5" style="stroke:#181818;stroke-width:0.5;" width="87" x="1077.5" y="393.5137"/><ellipse cx="1102.4" cy="409.5137" fill="#ADD1B2" rx="11" ry="11" style="stroke:#181818;stroke-width:1.0;"/><path d="M1105.1656,405.3887 Q1105.3219,405.1699 1105.5094,405.0605 Q1105.6969,404.9512 1105.9156,404.9512 Q1106.2906,404.9512 1106.525,405.2168 Q1106.7594,405.4668 1106.7594,406.0762 L1106.7594,407.5293 Q1106.7594,408.1387 1106.525,408.4043 Q1106.2906,408.6699 1105.9156,408.6699 Q1105.5719,408.6699 1105.3688,408.4668 Q1105.1656,408.2793 1105.0563,407.7637 Q1105.0094,407.4043 1104.8219,407.2168 Q1104.4938,406.8418 1103.8844,406.623 Q1103.275,406.4043 1102.65,406.4043 Q1101.8844,406.4043 1101.2438,406.7324 Q1100.6188,407.0605 1100.1188,407.8105 Q1099.6344,408.5605 1099.6344,409.5918 L1099.6344,410.6855 Q1099.6344,411.9199 1100.525,412.748 Q1101.4156,413.5605 1103.0094,413.5605 Q1103.9469,413.5605 1104.6031,413.3105 Q1104.9938,413.1543 1105.4156,412.7168 Q1105.6813,412.4512 1105.8219,412.373 Q1105.9781,412.2949 1106.1813,412.2949 Q1106.5094,412.2949 1106.7594,412.5605 Q1107.025,412.8105 1107.025,413.1543 Q1107.025,413.498 1106.6813,413.9043 Q1106.1813,414.4824 1105.3844,414.8105 Q1104.3063,415.2637 1103.0094,415.2637 Q1101.4938,415.2637 1100.2906,414.6387 Q1099.3063,414.1387 1098.6188,413.0762 Q1097.9313,411.998 1097.9313,410.7168 L1097.9313,409.5605 Q1097.9313,408.2324 1098.5406,407.0918 Q1099.1656,405.9355 1100.2594,405.3262 Q1101.3531,404.7012 1102.5875,404.7012 Q1103.3219,404.7012 1103.9625,404.873 Q1104.6188,405.0293 1105.1656,405.3887 Z " fill="#000000"/><text fill="#000000" font-family="sans-serif" font-size="14" lengthAdjust="spacing" textLength="33" x="1118.6" y="415.3105">index</text><line style="stroke:#181818;stroke-width:0.5;" x1="1078.5" x2="1163.5" y1="425.5137" y2="425.5137"/><text fill="#000000" font-family="sans-serif" font-size="14" lengthAdjust="spacing" textLength="29" x="1083.5" y="444.6211">style</text><text fill="#000000" font-family="sans-serif" font-size="14" lengthAdjust="spacing" textLength="47" x="1083.5" y="463.2422">content</text><line style="stroke:#181818;stroke-width:0.5;" x1="1078.5" x2="1163.5" y1="470.7559" y2="470.7559"/><text fill="#000000" font-family="sans-serif" font-size="14" lengthAdjust="spacing" textLength="75" x="1083.5" y="489.8633">extend style</text></g><!--class list--><g id="elem_list"><rect codeLine="89" fill="#F1F1F1" height="234.2109" id="list" rx="2.5" ry="2.5" style="stroke:#181818;stroke-width:0.5;" width="200" x="1368" y="328.5137"/><ellipse cx="1455.25" cy="344.5137" fill="#ADD1B2" rx="11" ry="11" style="stroke:#181818;stroke-width:1.0;"/><path d="M1458.0156,340.3887 Q1458.1719,340.1699 1458.3594,340.0605 Q1458.5469,339.9512 1458.7656,339.9512 Q1459.1406,339.9512 1459.375,340.2168 Q1459.6094,340.4668 1459.6094,341.0762 L1459.6094,342.5293 Q1459.6094,343.1387 1459.375,343.4043 Q1459.1406,343.6699 1458.7656,343.6699 Q1458.4219,343.6699 1458.2188,343.4668 Q1458.0156,343.2793 1457.9063,342.7637 Q1457.8594,342.4043 1457.6719,342.2168 Q1457.3438,341.8418 1456.7344,341.623 Q1456.125,341.4043 1455.5,341.4043 Q1454.7344,341.4043 1454.0938,341.7324 Q1453.4688,342.0605 1452.9688,342.8105 Q1452.4844,343.5605 1452.4844,344.5918 L1452.4844,345.6855 Q1452.4844,346.9199 1453.375,347.748 Q1454.2656,348.5605 1455.8594,348.5605 Q1456.7969,348.5605 1457.4531,348.3105 Q1457.8438,348.1543 1458.2656,347.7168 Q1458.5313,347.4512 1458.6719,347.373 Q1458.8281,347.2949 1459.0313,347.2949 Q1459.3594,347.2949 1459.6094,347.5605 Q1459.875,347.8105 1459.875,348.1543 Q1459.875,348.498 1459.5313,348.9043 Q1459.0313,349.4824 1458.2344,349.8105 Q1457.1563,350.2637 1455.8594,350.2637 Q1454.3438,350.2637 1453.1406,349.6387 Q1452.1563,349.1387 1451.4688,348.0762 Q1450.7813,346.998 1450.7813,345.7168 L1450.7813,344.5605 Q1450.7813,343.2324 1451.3906,342.0918 Q1452.0156,340.9355 1453.1094,340.3262 Q1454.2031,339.7012 1455.4375,339.7012 Q1456.1719,339.7012 1456.8125,339.873 Q1457.4688,340.0293 1458.0156,340.3887 Z " fill="#000000"/><text fill="#000000" font-family="sans-serif" font-size="14" lengthAdjust="spacing" textLength="17" x="1475.75" y="350.3105">list</text><line style="stroke:#181818;stroke-width:0.5;" x1="1369" x2="1567" y1="360.5137" y2="360.5137"/><text fill="#000000" font-family="sans-serif" font-size="14" lengthAdjust="spacing" textLength="22" x="1374" y="379.6211">title</text><text fill="#000000" font-family="sans-serif" font-size="14" lengthAdjust="spacing" textLength="29" x="1374" y="398.2422">style</text><text fill="#000000" font-family="sans-serif" font-size="14" lengthAdjust="spacing" textLength="41" x="1374" y="416.8633">scripts</text><text fill="#000000" font-family="sans-serif" font-size="14" lengthAdjust="spacing" textLength="47" x="1374" y="435.4844">content</text><line style="stroke:#181818;stroke-width:0.5;" x1="1369" x2="1567" y1="442.998" y2="442.998"/><text fill="#000000" font-family="sans-serif" font-size="14" lengthAdjust="spacing" textLength="75" x="1374" y="462.1055">extend style</text><text fill="#000000" font-family="sans-serif" font-size="14" lengthAdjust="spacing" textLength="87" x="1374" y="480.7266">extend scripts</text><text fill="#000000" font-family="sans-serif" font-size="14" lengthAdjust="spacing" textLength="182" x="1374" y="499.3477">include modal_action_assign</text><text fill="#000000" font-family="sans-serif" font-size="14" lengthAdjust="spacing" textLength="180" x="1374" y="517.9688">include modal_action_delete</text><text fill="#000000" font-family="sans-serif" font-size="14" lengthAdjust="spacing" textLength="126" x="1374" y="536.5898">include modal_error</text><text fill="#000000" font-family="sans-serif" font-size="14" lengthAdjust="spacing" textLength="188" x="1374" y="555.2109">include modal_confirm_export</text></g><!--class map_html--><g id="elem_map_html"><rect codeLine="102" fill="#F1F1F1" height="178.3477" id="map_html" rx="2.5" ry="2.5" style="stroke:#181818;stroke-width:0.5;" width="153" x="1603.5" y="356.5137"/><ellipse cx="1645.5" cy="372.5137" fill="#ADD1B2" rx="11" ry="11" style="stroke:#181818;stroke-width:1.0;"/><path d="M1648.2656,368.3887 Q1648.4219,368.1699 1648.6094,368.0605 Q1648.7969,367.9512 1649.0156,367.9512 Q1649.3906,367.9512 1649.625,368.2168 Q1649.8594,368.4668 1649.8594,369.0762 L1649.8594,370.5293 Q1649.8594,371.1387 1649.625,371.4043 Q1649.3906,371.6699 1649.0156,371.6699 Q1648.6719,371.6699 1648.4688,371.4668 Q1648.2656,371.2793 1648.1563,370.7637 Q1648.1094,370.4043 1647.9219,370.2168 Q1647.5938,369.8418 1646.9844,369.623 Q1646.375,369.4043 1645.75,369.4043 Q1644.9844,369.4043 1644.3438,369.7324 Q1643.7188,370.0605 1643.2188,370.8105 Q1642.7344,371.5605 1642.7344,372.5918 L1642.7344,373.6855 Q1642.7344,374.9199 1643.625,375.748 Q1644.5156,376.5605 1646.1094,376.5605 Q1647.0469,376.5605 1647.7031,376.3105 Q1648.0938,376.1543 1648.5156,375.7168 Q1648.7813,375.4512 1648.9219,375.373 Q1649.0781,375.2949 1649.2813,375.2949 Q1649.6094,375.2949 1649.8594,375.5605 Q1650.125,375.8105 1650.125,376.1543 Q1650.125,376.498 1649.7813,376.9043 Q1649.2813,377.4824 1648.4844,377.8105 Q1647.4063,378.2637 1646.1094,378.2637 Q1644.5938,378.2637 1643.3906,377.6387 Q1642.4063,377.1387 1641.7188,376.0762 Q1641.0313,374.998 1641.0313,373.7168 L1641.0313,372.5605 Q1641.0313,371.2324 1641.6406,370.0918 Q1642.2656,368.9355 1643.3594,368.3262 Q1644.4531,367.7012 1645.6875,367.7012 Q1646.4219,367.7012 1647.0625,367.873 Q1647.7188,368.0293 1648.2656,368.3887 Z " fill="#000000"/><text fill="#000000" font-family="sans-serif" font-size="14" lengthAdjust="spacing" textLength="61" x="1665.5" y="378.3105">map_html</text><line style="stroke:#181818;stroke-width:0.5;" x1="1604.5" x2="1755.5" y1="388.5137" y2="388.5137"/><text fill="#000000" font-family="sans-serif" font-size="14" lengthAdjust="spacing" textLength="22" x="1609.5" y="407.6211">title</text><text fill="#000000" font-family="sans-serif" font-size="14" lengthAdjust="spacing" textLength="29" x="1609.5" y="426.2422">style</text><text fill="#000000" font-family="sans-serif" font-size="14" lengthAdjust="spacing" textLength="41" x="1609.5" y="444.8633">scripts</text><text fill="#000000" font-family="sans-serif" font-size="14" lengthAdjust="spacing" textLength="47" x="1609.5" y="463.4844">content</text><line style="stroke:#181818;stroke-width:0.5;" x1="1604.5" x2="1755.5" y1="470.998" y2="470.998"/><text fill="#000000" font-family="sans-serif" font-size="14" lengthAdjust="spacing" textLength="75" x="1609.5" y="490.1055">extend style</text><text fill="#000000" font-family="sans-serif" font-size="14" lengthAdjust="spacing" textLength="87" x="1609.5" y="508.7266">extend scripts</text><text fill="#000000" font-family="sans-serif" font-size="14" lengthAdjust="spacing" textLength="141" x="1609.5" y="527.3477">include modal_loading</text></g><!--class modal_action_assign--><g id="elem_modal_action_assign"><rect codeLine="112" fill="#F1F1F1" height="48" id="modal_action_assign" rx="2.5" ry="2.5" style="stroke:#181818;stroke-width:0.5;" width="165" x="1584.5" y="650.5137"/><ellipse cx="1599.5" cy="666.5137" fill="#ADD1B2" rx="11" ry="11" style="stroke:#181818;stroke-width:1.0;"/><path d="M1602.2656,662.3887 Q1602.4219,662.1699 1602.6094,662.0605 Q1602.7969,661.9512 1603.0156,661.9512 Q1603.3906,661.9512 1603.625,662.2168 Q1603.8594,662.4668 1603.8594,663.0762 L1603.8594,664.5293 Q1603.8594,665.1387 1603.625,665.4043 Q1603.3906,665.6699 1603.0156,665.6699 Q1602.6719,665.6699 1602.4688,665.4668 Q1602.2656,665.2793 1602.1563,664.7637 Q1602.1094,664.4043 1601.9219,664.2168 Q1601.5938,663.8418 1600.9844,663.623 Q1600.375,663.4043 1599.75,663.4043 Q1598.9844,663.4043 1598.3438,663.7324 Q1597.7188,664.0605 1597.2188,664.8105 Q1596.7344,665.5605 1596.7344,666.5918 L1596.7344,667.6855 Q1596.7344,668.9199 1597.625,669.748 Q1598.5156,670.5605 1600.1094,670.5605 Q1601.0469,670.5605 1601.7031,670.3105 Q1602.0938,670.1543 1602.5156,669.7168 Q1602.7813,669.4512 1602.9219,669.373 Q1603.0781,669.2949 1603.2813,669.2949 Q1603.6094,669.2949 1603.8594,669.5605 Q1604.125,669.8105 1604.125,670.1543 Q1604.125,670.498 1603.7813,670.9043 Q1603.2813,671.4824 1602.4844,671.8105 Q1601.4063,672.2637 1600.1094,672.2637 Q1598.5938,672.2637 1597.3906,671.6387 Q1596.4063,671.1387 1595.7188,670.0762 Q1595.0313,668.998 1595.0313,667.7168 L1595.0313,666.5605 Q1595.0313,665.2324 1595.6406,664.0918 Q1596.2656,662.9355 1597.3594,662.3262 Q1598.4531,661.7012 1599.6875,661.7012 Q1600.4219,661.7012 1601.0625,661.873 Q1601.7188,662.0293 1602.2656,662.3887 Z " fill="#000000"/><text fill="#000000" font-family="sans-serif" font-size="14" lengthAdjust="spacing" textLength="133" x="1613.5" y="672.3105">modal_action_assign</text><line style="stroke:#181818;stroke-width:0.5;" x1="1585.5" x2="1748.5" y1="682.5137" y2="682.5137"/><line style="stroke:#181818;stroke-width:0.5;" x1="1585.5" x2="1748.5" y1="690.5137" y2="690.5137"/></g><!--class modal_action_delete--><g id="elem_modal_action_delete"><rect codeLine="113" fill="#F1F1F1" height="48" id="modal_action_delete" rx="2.5" ry="2.5" style="stroke:#181818;stroke-width:0.5;" width="163" x="1386.5" y="650.5137"/><ellipse cx="1401.5" cy="666.5137" fill="#ADD1B2" rx="11" ry="11" style="stroke:#181818;stroke-width:1.0;"/><path d="M1404.2656,662.3887 Q1404.4219,662.1699 1404.6094,662.0605 Q1404.7969,661.9512 1405.0156,661.9512 Q1405.3906,661.9512 1405.625,662.2168 Q1405.8594,662.4668 1405.8594,663.0762 L1405.8594,664.5293 Q1405.8594,665.1387 1405.625,665.4043 Q1405.3906,665.6699 1405.0156,665.6699 Q1404.6719,665.6699 1404.4688,665.4668 Q1404.2656,665.2793 1404.1563,664.7637 Q1404.1094,664.4043 1403.9219,664.2168 Q1403.5938,663.8418 1402.9844,663.623 Q1402.375,663.4043 1401.75,663.4043 Q1400.9844,663.4043 1400.3438,663.7324 Q1399.7188,664.0605 1399.2188,664.8105 Q1398.7344,665.5605 1398.7344,666.5918 L1398.7344,667.6855 Q1398.7344,668.9199 1399.625,669.748 Q1400.5156,670.5605 1402.1094,670.5605 Q1403.0469,670.5605 1403.7031,670.3105 Q1404.0938,670.1543 1404.5156,669.7168 Q1404.7813,669.4512 1404.9219,669.373 Q1405.0781,669.2949 1405.2813,669.2949 Q1405.6094,669.2949 1405.8594,669.5605 Q1406.125,669.8105 1406.125,670.1543 Q1406.125,670.498 1405.7813,670.9043 Q1405.2813,671.4824 1404.4844,671.8105 Q1403.4063,672.2637 1402.1094,672.2637 Q1400.5938,672.2637 1399.3906,671.6387 Q1398.4063,671.1387 1397.7188,670.0762 Q1397.0313,668.998 1397.0313,667.7168 L1397.0313,666.5605 Q1397.0313,665.2324 1397.6406,664.0918 Q1398.2656,662.9355 1399.3594,662.3262 Q1400.4531,661.7012 1401.6875,661.7012 Q1402.4219,661.7012 1403.0625,661.873 Q1403.7188,662.0293 1404.2656,662.3887 Z " fill="#000000"/><text fill="#000000" font-family="sans-serif" font-size="14" lengthAdjust="spacing" textLength="131" x="1415.5" y="672.3105">modal_action_delete</text><line style="stroke:#181818;stroke-width:0.5;" x1="1387.5" x2="1548.5" y1="682.5137" y2="682.5137"/><line style="stroke:#181818;stroke-width:0.5;" x1="1387.5" x2="1548.5" y1="690.5137" y2="690.5137"/></g><!--class start--><g id="elem_start"><rect codeLine="115" fill="#F1F1F1" height="85.2422" id="start" rx="2.5" ry="2.5" style="stroke:#181818;stroke-width:0.5;" width="60" x="982" y="403.0137"/><ellipse cx="997" cy="419.0137" fill="#ADD1B2" rx="11" ry="11" style="stroke:#181818;stroke-width:1.0;"/><path d="M999.7656,414.8887 Q999.9219,414.6699 1000.1094,414.5605 Q1000.2969,414.4512 1000.5156,414.4512 Q1000.8906,414.4512 1001.125,414.7168 Q1001.3594,414.9668 1001.3594,415.5762 L1001.3594,417.0293 Q1001.3594,417.6387 1001.125,417.9043 Q1000.8906,418.1699 1000.5156,418.1699 Q1000.1719,418.1699 999.9688,417.9668 Q999.7656,417.7793 999.6563,417.2637 Q999.6094,416.9043 999.4219,416.7168 Q999.0938,416.3418 998.4844,416.123 Q997.875,415.9043 997.25,415.9043 Q996.4844,415.9043 995.8438,416.2324 Q995.2188,416.5605 994.7188,417.3105 Q994.2344,418.0605 994.2344,419.0918 L994.2344,420.1855 Q994.2344,421.4199 995.125,422.248 Q996.0156,423.0605 997.6094,423.0605 Q998.5469,423.0605 999.2031,422.8105 Q999.5938,422.6543 1000.0156,422.2168 Q1000.2813,421.9512 1000.4219,421.873 Q1000.5781,421.7949 1000.7813,421.7949 Q1001.1094,421.7949 1001.3594,422.0605 Q1001.625,422.3105 1001.625,422.6543 Q1001.625,422.998 1001.2813,423.4043 Q1000.7813,423.9824 999.9844,424.3105 Q998.9063,424.7637 997.6094,424.7637 Q996.0938,424.7637 994.8906,424.1387 Q993.9063,423.6387 993.2188,422.5762 Q992.5313,421.498 992.5313,420.2168 L992.5313,419.0605 Q992.5313,417.7324 993.1406,416.5918 Q993.7656,415.4355 994.8594,414.8262 Q995.9531,414.2012 997.1875,414.2012 Q997.9219,414.2012 998.5625,414.373 Q999.2188,414.5293 999.7656,414.8887 Z " fill="#000000"/><text fill="#000000" font-family="sans-serif" font-size="14" lengthAdjust="spacing" textLength="28" x="1011" y="424.8105">start</text><line style="stroke:#181818;stroke-width:0.5;" x1="983" x2="1041" y1="435.0137" y2="435.0137"/><text fill="#000000" font-family="sans-serif" font-size="14" lengthAdjust="spacing" textLength="22" x="988" y="454.1211">title</text><text fill="#000000" font-family="sans-serif" font-size="14" lengthAdjust="spacing" textLength="47" x="988" y="472.7422">content</text><line style="stroke:#181818;stroke-width:0.5;" x1="983" x2="1041" y1="480.2559" y2="480.2559"/></g><!--link base to navbar_html--><g id="link_base_navbar_html"><path codeLine="122" d="M86.5,259.2737 C83.72,313.4037 80.8564,369.2315 78.9764,406.0015 " fill="none" id="base-to-navbar_html" style="stroke:#181818;stroke-width:1.0;stroke-dasharray:7.0,7.0;"/><polygon fill="#181818" points="78.67,411.9937,83.1243,403.2097,78.9253,407.0002,75.1348,402.8012,78.67,411.9937" style="stroke:#181818;stroke-width:1.0;"/></g><!--reverse link base to index--><g id="link_base_index"><path codeLine="123" d="M149.9135,275.7361 C166.3535,318.9061 180.07,368.0737 189.4,402.9537 " fill="none" id="base-backto-index" style="stroke:#181818;stroke-width:1.0;"/><polygon fill="none" points="143.08,259.0837,144.3627,278.0139,155.4643,273.4583,143.08,259.0837" style="stroke:#181818;stroke-width:1.0;"/></g><!--reverse link base to error--><g id="link_base_error"><path codeLine="124" d="M175.4271,258.0059 C180.9671,262.6559 172.97,255.3337 179,259.0137 C206.53,275.8237 226.39,252.0437 250,274.0137 C285.51,307.0637 295.87,363.9837 298.59,402.8937 " fill="none" id="base-backto-error" style="stroke:#181818;stroke-width:1.0;"/><polygon fill="none" points="161.64,246.4337,171.5697,262.6016,179.2845,253.4102,161.64,246.4337" style="stroke:#181818;stroke-width:1.0;"/></g><!--reverse link base to add_another--><g id="link_base_add_another"><path codeLine="126" d="M176.2497,259.1402 C181.7097,263.1802 172.98,256.0637 179,259.0137 C242.57,290.1837 757.27,234.4837 816,274.0137 C858.83,302.8437 877.03,362.2337 884.66,402.7237 " fill="none" id="base-backto-add_another" style="stroke:#181818;stroke-width:1.0;"/><polygon fill="none" points="161.78,248.4337,172.6808,263.9634,179.8185,254.3169,161.78,248.4337" style="stroke:#181818;stroke-width:1.0;"/></g><!--reverse link base to delete--><g id="link_base_delete"><path codeLine="127" d="M175.9287,258.9487 C181.4687,263.0887 172.88,255.9937 179,259.0137 C229.63,284.0237 640.09,242.5737 687,274.0137 C730.07,302.8837 748.99,362.2637 757.12,402.7437 " fill="none" id="base-backto-delete" style="stroke:#181818;stroke-width:1.0;"/><polygon fill="none" points="161.51,248.1737,172.3371,263.7549,179.5204,254.1424,161.51,248.1737" style="stroke:#181818;stroke-width:1.0;"/></g><!--reverse link base to form--><g id="link_base_form"><path codeLine="128" d="M176.2323,259.183 C181.6923,263.213 172.97,256.0837 179,259.0137 C229.14,283.3337 1134.9,244.2237 1182,274.0137 C1199.57,285.1237 1213.58,301.0937 1224.72,318.8537 " fill="none" id="base-backto-form" style="stroke:#181818;stroke-width:1.0;"/><polygon fill="none" points="161.75,248.4937,172.6692,264.0105,179.7954,254.3556,161.75,248.4937" style="stroke:#181818;stroke-width:1.0;"/></g><!--reverse link base to index--><g id="link_base_index"><path codeLine="129" d="M176.2297,259.1802 C181.6897,263.2202 172.97,256.0837 179,259.0137 C222.97,280.3937 1019.19,245.6237 1059,274.0137 C1096.82,300.9937 1111.64,353.4837 1117.41,393.1337 " fill="none" id="base-backto-index-1" style="stroke:#181818;stroke-width:1.0;"/><polygon fill="none" points="161.76,248.4737,172.6608,264.0034,179.7985,254.3569,161.76,248.4737" style="stroke:#181818;stroke-width:1.0;"/></g><!--reverse link base to list--><g id="link_base_list"><path codeLine="130" d="M176.2317,259.1804 C181.7017,263.2104 172.96,256.0937 179,259.0137 C237.57,287.3437 1292.57,243.4437 1350,274.0137 C1373.83,286.7037 1393.83,306.5837 1410.19,328.3637 " fill="none" id="base-backto-list" style="stroke:#181818;stroke-width:1.0;"/><polygon fill="none" points="161.74,248.5037,172.6728,264.0109,179.7906,254.3498,161.74,248.5037" style="stroke:#181818;stroke-width:1.0;"/></g><!--reverse link base to map_html--><g id="link_base_map_html"><path codeLine="131" d="M176.235,259.1958 C181.695,263.2158 172.96,256.1037 179,259.0137 C249.41,292.9737 1518.9,233.9037 1586,274.0137 C1616.75,292.3937 1638.16,324.7937 1652.68,356.4337 " fill="none" id="base-backto-map_html" style="stroke:#181818;stroke-width:1.0;"/><polygon fill="none" points="161.74,248.5237,172.6776,264.0275,179.7924,254.3642,161.74,248.5237" style="stroke:#181818;stroke-width:1.0;"/></g><!--reverse link base to start--><g id="link_base_start"><path codeLine="132" d="M176.2397,259.1702 C181.6997,263.2102 172.97,256.0737 179,259.0137 C218.21,278.1237 929.48,247.3437 964,274.0137 C1002.82,303.9937 1011.9,362.8037 1013.23,402.8837 " fill="none" id="base-backto-start" style="stroke:#181818;stroke-width:1.0;"/><polygon fill="none" points="161.77,248.4637,172.6708,263.9934,179.8085,254.3469,161.77,248.4637" style="stroke:#181818;stroke-width:1.0;"/></g><!--reverse link form to form_list--><g id="link_form_form_list"><path codeLine="135" d="M1272.9705,590.2726 C1274.0105,611.7526 1274.15,614.6637 1274.98,631.8337 " fill="none" id="form-backto-form_list" style="stroke:#181818;stroke-width:1.0;"/><polygon fill="none" points="1272.1,572.2937,1266.9775,590.5628,1278.9635,589.9824,1272.1,572.2937" style="stroke:#181818;stroke-width:1.0;"/></g><!--reverse link form_list to form_map--><g id="link_form_list_form_map"><path codeLine="136" d="M1366.4612,726.0587 C1429.8712,761.8887 1505.3,804.5137 1569.49,840.7837 " fill="none" id="form_list-backto-form_map" style="stroke:#181818;stroke-width:1.0;"/><polygon fill="none" points="1350.79,717.2037,1363.5095,731.2825,1369.4129,720.835,1350.79,717.2037" style="stroke:#181818;stroke-width:1.0;"/></g><!--reverse link form_map to form_pcmanagement--><g id="link_form_map_form_pcmanagement"><path codeLine="137" d="M1646,1011.3137 C1646,1032.4737 1646,1035.4537 1646,1052.7837 " fill="none" id="form_map-backto-form_pcmanagement" style="stroke:#181818;stroke-width:1.0;"/><polygon fill="none" points="1646,993.3137,1640,1011.3137,1652,1011.3137,1646,993.3137" style="stroke:#181818;stroke-width:1.0;"/></g><!--link form_list to form_address--><g id="link_form_list_form_address"><path codeLine="138" d="M1290.64,717.2237 C1319.13,804.3637 1382.3054,997.5908 1404.5254,1065.5508 " fill="none" id="form_list-to-form_address" style="stroke:#181818;stroke-width:1.0;stroke-dasharray:7.0,7.0;"/><polygon fill="#181818" points="1406.39,1071.2537,1407.395,1061.4562,1404.8362,1066.5012,1399.7911,1063.9424,1406.39,1071.2537" style="stroke:#181818;stroke-width:1.0;"/></g><!--link form_map to modal_error--><g id="link_form_map_modal_error"><path codeLine="139" d="M1722.66,798.0237 C1740.39,773.4537 1756.98,745.5637 1767,717.0137 C1799.61,624.1137 1843.2,344.0537 1774,274.0137 C1749.69,249.4137 559.43,275.4537 529,259.0137 C496.1,241.2437 477.7295,206.69 467.3695,180.94 " fill="none" id="form_map-to-modal_error" style="stroke:#181818;stroke-width:1.0;stroke-dasharray:7.0,7.0;"/><polygon fill="#181818" points="465.13,175.3737,464.7784,185.2163,466.9963,180.0123,472.2002,182.2302,465.13,175.3737" style="stroke:#181818;stroke-width:1.0;"/></g><!--link form_map to modal_loading--><g id="link_form_map_modal_loading"><path codeLine="140" d="M1722.65,839.6037 C1764.59,810.6337 1812.65,768.6337 1836,717.0137 C1917.16,537.6337 1968.15,419.9637 1836,274.0137 C1757.06,186.8337 915.5281,159.5851 677.0881,153.5651 " fill="none" id="form_map-to-modal_loading" style="stroke:#181818;stroke-width:1.0;stroke-dasharray:7.0,7.0;"/><polygon fill="#181818" points="671.09,153.4137,679.9862,157.6396,676.0884,153.5399,680.1881,149.6421,671.09,153.4137" style="stroke:#181818;stroke-width:1.0;"/></g><!--link form_map to form_address--><g id="link_form_map_form_address"><path codeLine="141" d="M1569.39,954.8637 C1524.52,995.1937 1475.1834,1039.5339 1444.0934,1067.4639 " fill="none" id="form_map-to-form_address" style="stroke:#181818;stroke-width:1.0;stroke-dasharray:7.0,7.0;"/><polygon fill="#181818" points="1439.63,1071.4737,1448.9983,1068.4347,1443.3495,1068.1322,1443.6519,1062.4835,1439.63,1071.4737" style="stroke:#181818;stroke-width:1.0;"/></g><!--link list to modal_error--><g id="link_list_modal_error"><path codeLine="142" d="M1410.14,328.4637 C1393.78,306.6737 1373.8,286.7637 1350,274.0137 C1269.58,230.9237 609.14,302.6237 529,259.0137 C496.16,241.1437 477.7636,206.6184 467.3936,180.8984 " fill="none" id="list-to-modal_error" style="stroke:#181818;stroke-width:1.0;stroke-dasharray:7.0,7.0;"/><polygon fill="#181818" points="465.15,175.3337,464.8056,185.1765,467.0197,179.9709,472.2253,182.185,465.15,175.3337" style="stroke:#181818;stroke-width:1.0;"/></g><!--link list to modal_confirm_export--><g id="link_list_modal_confirm_export"><path codeLine="143" d="M1410.17,328.4137 C1393.81,306.6337 1373.82,286.7337 1350,274.0137 C1302.7,248.7537 434.17,280.3837 385,259.0137 C345.27,241.7437 316.656,206.0575 299.386,180.1275 " fill="none" id="list-to-modal_confirm_export" style="stroke:#181818;stroke-width:1.0;stroke-dasharray:7.0,7.0;"/><polygon fill="#181818" points="296.06,175.1337,297.7198,184.8417,298.8316,179.2952,304.3782,180.407,296.06,175.1337" style="stroke:#181818;stroke-width:1.0;"/></g><!--link list to modal_action_assign--><g id="link_list_modal_action_assign"><path codeLine="144" d="M1568.08,560.6837 C1597.89,594.6837 1623.6738,624.1027 1642.6438,645.7327 " fill="none" id="list-to-modal_action_assign" style="stroke:#181818;stroke-width:1.0;stroke-dasharray:7.0,7.0;"/><polygon fill="#181818" points="1646.6,650.2437,1643.673,640.8398,1643.3032,646.4846,1637.6584,646.1147,1646.6,650.2437" style="stroke:#181818;stroke-width:1.0;"/></g><!--link list to modal_action_delete--><g id="link_list_modal_action_delete"><path codeLine="145" d="M1468,562.6737 C1468,596.0537 1468,623.1237 1468,644.3337 " fill="none" id="list-to-modal_action_delete" style="stroke:#181818;stroke-width:1.0;stroke-dasharray:7.0,7.0;"/><polygon fill="#181818" points="1468,650.3337,1472,641.3337,1468,645.3337,1464,641.3337,1468,650.3337" style="stroke:#181818;stroke-width:1.0;"/></g><!--link map_html to modal_error--><g id="link_map_html_modal_error"><path codeLine="146" d="M1652.64,356.4937 C1638.12,324.8537 1616.72,292.4537 1586,274.0137 C1535.65,243.7937 580.64,286.9837 529,259.0137 C496.12,241.2037 477.7429,206.6587 467.3729,180.9287 " fill="none" id="map_html-to-modal_error" style="stroke:#181818;stroke-width:1.0;stroke-dasharray:7.0,7.0;"/><polygon fill="#181818" points="465.13,175.3637,464.7843,185.2065,466.9991,180.0012,472.2043,182.216,465.13,175.3637" style="stroke:#181818;stroke-width:1.0;"/></g><!--link map_html to modal_loading--><g id="link_map_html_modal_loading"><path codeLine="147" d="M1650.71,356.4237 C1636.07,325.5737 1615.1,293.7337 1586,274.0137 C1435.65,172.1237 867.7194,155.4105 677.0194,152.6505 " fill="none" id="map_html-to-modal_loading" style="stroke:#181818;stroke-width:1.0;stroke-dasharray:7.0,7.0;"/><polygon fill="#181818" points="671.02,152.5637,679.9612,156.6935,676.0195,152.636,680.0769,148.6943,671.02,152.5637" style="stroke:#181818;stroke-width:1.0;"/></g><!--SRC=[pLLRSkCW4FptARX0T8AjN8MQmCYc5e4AiObJZk- -o9Oi6249A_d8dpJJmxoQfWNn5ux897Wq7-XgVpam9ZHq7Nk33bd_ozYbLgZbbPqGP69eq4DYyCfhJ2oT_wGMuLJhkyHcuFqDN68IreIYV6AhhVKum4BkamqsPOJ-9t4uWfzyemFWUdWq4Zb8Fu-i4LePYMU2ctSr5HU5edFMxGjjh0JDWwjMhk5uRgtpx78b_Y41DMiBKfbZxmX77jfugGsOyDs4X6nQBKZ9mLX_mftbIjJeSLziRLsp6Ld6cXn5GACZi93L2XMc8NaO6EhKgrMNdj10c_otWazJJBc7vv1VnjLIpwDgCW4UTk0m_5oeew-7p6SgaP8-FYgJ9BH2ZYeRR6Q8yngUQ3vJUSJeDS30xLtTjuAmlvGITECRyZ2VQKBCXNb5XsPM_YDNuYSt1S8hQtWeLnrD0V0k4T_QVIg7H32XpIdwhnlRnD-PsYSJdQjwCiT49ZeFpZybllspCBtnrUrfhwhNwDslukUJGlzylRp4sDibs4JTzxi2c-vO5Rr8PG43lOgmlHYK8RSQYw0tFIn2ZbGjGz-MEwwBDB7S7f_AoNbM0llNRicn4XPhwqhU1yceTrJjnTI4dh5aF1Spti3jgD8Qqywswrl64uLR3umfbP7aVS7nFSfmzfasrsF6DVm7]--></g></svg>