<svg xmlns="http://www.w3.org/2000/svg" xmlns:xlink="http://www.w3.org/1999/xlink" contentStyleType="text/css" height="1137px" preserveAspectRatio="none" style="width:2997px;height:1137px;background:#FFFFFF;" version="1.1" viewBox="0 0 2997 1137" width="2997px" zoomAndPan="magnify"><defs/><g><!--class Base--><g id="elem_Base"><rect codeLine="2" fill="#F1F1F1" height="103.8633" id="Base" rx="2.5" ry="2.5" style="stroke:#181818;stroke-width:0.5;" width="177.7236" x="2020.5" y="7"/><ellipse cx="2089.1567" cy="23" fill="#A9DCDF" rx="11" ry="11" style="stroke:#181818;stroke-width:1.0;"/><path d="M2091.3442,24.7656 L2087.2036,24.7656 L2086.7817,25.7969 L2087.2036,25.7969 Q2087.813,25.7969 2088.0786,26.0313 Q2088.3442,26.2656 2088.3442,26.6563 Q2088.3442,27.0313 2088.0786,27.2656 Q2087.813,27.5 2087.2036,27.5 L2084.9067,27.5 Q2084.2974,27.5 2084.0474,27.2656 Q2083.7817,27.0313 2083.7817,26.6406 Q2083.7817,26.2656 2084.063,26.0313 Q2084.3286,25.7813 2084.9536,25.7969 L2087.6255,19.1406 L2086.5161,19.1406 Q2085.9067,19.1406 2085.6411,18.9063 Q2085.3755,18.6719 2085.3755,18.2813 Q2085.3755,17.9063 2085.6411,17.6719 Q2085.9067,17.4375 2086.5161,17.4375 L2090.188,17.4375 L2093.5786,25.7969 Q2094.1724,25.7969 2094.3599,25.9375 Q2094.7505,26.2031 2094.7505,26.6563 Q2094.7505,27.0313 2094.4849,27.2656 Q2094.2349,27.5 2093.6255,27.5 L2091.3286,27.5 Q2090.7192,27.5 2090.4536,27.2656 Q2090.188,27.0313 2090.188,26.6406 Q2090.188,26.2656 2090.4536,26.0313 Q2090.7192,25.7969 2091.3286,25.7969 L2091.7505,25.7969 L2091.3442,24.7656 Z M2090.6255,23.0625 L2089.2661,19.6875 L2087.8911,23.0625 L2090.6255,23.0625 Z " fill="#000000"/><text fill="#000000" font-family="sans-serif" font-size="14" font-style="italic" lengthAdjust="spacing" textLength="31.9102" x="2109.6567" y="28.7969">Base</text><line style="stroke:#181818;stroke-width:0.5;" x1="2021.5" x2="2197.2236" y1="39" y2="39"/><ellipse cx="2031.5" cy="53.8105" fill="none" rx="3" ry="3" style="stroke:#038048;stroke-width:1.0;"/><text fill="#000000" font-family="sans-serif" font-size="14" lengthAdjust="spacing" textLength="136.1924" x="2040.5" y="58.1074">id: BigAutoField &#171;PK&#187;</text><ellipse cx="2031.5" cy="72.4316" fill="none" rx="3" ry="3" style="stroke:#038048;stroke-width:1.0;"/><text fill="#000000" font-family="sans-serif" font-size="14" lengthAdjust="spacing" textLength="145.5029" x="2040.5" y="76.7285">created: DateTimeField</text><ellipse cx="2031.5" cy="91.0527" fill="none" rx="3" ry="3" style="stroke:#038048;stroke-width:1.0;"/><text fill="#000000" font-family="sans-serif" font-size="14" lengthAdjust="spacing" textLength="151.7236" x="2040.5" y="95.3496">modified: DateTimeField</text><line style="stroke:#181818;stroke-width:0.5;" x1="2021.5" x2="2197.2236" y1="102.8633" y2="102.8633"/></g><!--class Codelist--><g id="elem_Codelist"><rect codeLine="8" fill="#F1F1F1" height="85.2422" id="Codelist" rx="2.5" ry="2.5" style="stroke:#181818;stroke-width:0.5;" width="268.7852" x="2236" y="309"/><ellipse cx="2340.853" cy="325" fill="#A9DCDF" rx="11" ry="11" style="stroke:#181818;stroke-width:1.0;"/><path d="M2343.0405,326.7656 L2338.8999,326.7656 L2338.478,327.7969 L2338.8999,327.7969 Q2339.5093,327.7969 2339.7749,328.0313 Q2340.0405,328.2656 2340.0405,328.6563 Q2340.0405,329.0313 2339.7749,329.2656 Q2339.5093,329.5 2338.8999,329.5 L2336.603,329.5 Q2335.9937,329.5 2335.7437,329.2656 Q2335.478,329.0313 2335.478,328.6406 Q2335.478,328.2656 2335.7593,328.0313 Q2336.0249,327.7813 2336.6499,327.7969 L2339.3218,321.1406 L2338.2124,321.1406 Q2337.603,321.1406 2337.3374,320.9063 Q2337.0718,320.6719 2337.0718,320.2813 Q2337.0718,319.9063 2337.3374,319.6719 Q2337.603,319.4375 2338.2124,319.4375 L2341.8843,319.4375 L2345.2749,327.7969 Q2345.8687,327.7969 2346.0562,327.9375 Q2346.4468,328.2031 2346.4468,328.6563 Q2346.4468,329.0313 2346.1812,329.2656 Q2345.9312,329.5 2345.3218,329.5 L2343.0249,329.5 Q2342.4155,329.5 2342.1499,329.2656 Q2341.8843,329.0313 2341.8843,328.6406 Q2341.8843,328.2656 2342.1499,328.0313 Q2342.4155,327.7969 2343.0249,327.7969 L2343.4468,327.7969 L2343.0405,326.7656 Z M2342.3218,325.0625 L2340.9624,321.6875 L2339.5874,325.0625 L2342.3218,325.0625 Z " fill="#000000"/><text fill="#000000" font-family="sans-serif" font-size="14" font-style="italic" lengthAdjust="spacing" textLength="50.5791" x="2361.353" y="330.7969">Codelist</text><line style="stroke:#181818;stroke-width:0.5;" x1="2237" x2="2503.7852" y1="341" y2="341"/><ellipse cx="2247" cy="355.8105" fill="none" rx="3" ry="3" style="stroke:#038048;stroke-width:1.0;"/><text fill="#000000" font-family="sans-serif" font-size="14" lengthAdjust="spacing" textLength="242.7852" x="2256" y="360.1074">ordinal: PositiveSmallIntegerField [0..1]</text><ellipse cx="2247" cy="374.4316" fill="none" rx="3" ry="3" style="stroke:#038048;stroke-width:1.0;"/><text fill="#000000" font-family="sans-serif" font-size="14" lengthAdjust="spacing" textLength="103.4893" x="2256" y="378.7285">name: CharField</text><line style="stroke:#181818;stroke-width:0.5;" x1="2237" x2="2503.7852" y1="386.2422" y2="386.2422"/></g><!--class Object--><g id="elem_Object"><rect codeLine="13" fill="#F1F1F1" height="48" id="Object" rx="2.5" ry="2.5" style="stroke:#181818;stroke-width:0.5;" width="72.4619" x="1606.5" y="172"/><ellipse cx="1621.5" cy="188" fill="#A9DCDF" rx="11" ry="11" style="stroke:#181818;stroke-width:1.0;"/><path d="M1623.6875,189.7656 L1619.5469,189.7656 L1619.125,190.7969 L1619.5469,190.7969 Q1620.1563,190.7969 1620.4219,191.0313 Q1620.6875,191.2656 1620.6875,191.6563 Q1620.6875,192.0313 1620.4219,192.2656 Q1620.1563,192.5 1619.5469,192.5 L1617.25,192.5 Q1616.6406,192.5 1616.3906,192.2656 Q1616.125,192.0313 1616.125,191.6406 Q1616.125,191.2656 1616.4063,191.0313 Q1616.6719,190.7813 1617.2969,190.7969 L1619.9688,184.1406 L1618.8594,184.1406 Q1618.25,184.1406 1617.9844,183.9063 Q1617.7188,183.6719 1617.7188,183.2813 Q1617.7188,182.9063 1617.9844,182.6719 Q1618.25,182.4375 1618.8594,182.4375 L1622.5313,182.4375 L1625.9219,190.7969 Q1626.5156,190.7969 1626.7031,190.9375 Q1627.0938,191.2031 1627.0938,191.6563 Q1627.0938,192.0313 1626.8281,192.2656 Q1626.5781,192.5 1625.9688,192.5 L1623.6719,192.5 Q1623.0625,192.5 1622.7969,192.2656 Q1622.5313,192.0313 1622.5313,191.6406 Q1622.5313,191.2656 1622.7969,191.0313 Q1623.0625,190.7969 1623.6719,190.7969 L1624.0938,190.7969 L1623.6875,189.7656 Z M1622.9688,188.0625 L1621.6094,184.6875 L1620.2344,188.0625 L1622.9688,188.0625 Z " fill="#000000"/><text fill="#000000" font-family="sans-serif" font-size="14" font-style="italic" lengthAdjust="spacing" textLength="40.4619" x="1635.5" y="193.7969">Object</text><line style="stroke:#181818;stroke-width:0.5;" x1="1607.5" x2="1677.9619" y1="204" y2="204"/><line style="stroke:#181818;stroke-width:0.5;" x1="1607.5" x2="1677.9619" y1="212" y2="212"/></g><!--class GeometryObject--><g id="elem_GeometryObject"><rect codeLine="16" fill="#F1F1F1" height="48" id="GeometryObject" rx="2.5" ry="2.5" style="stroke:#181818;stroke-width:0.5;" width="133.9238" x="805.5" y="327.5"/><ellipse cx="820.5" cy="343.5" fill="#A9DCDF" rx="11" ry="11" style="stroke:#181818;stroke-width:1.0;"/><path d="M822.6875,345.2656 L818.5469,345.2656 L818.125,346.2969 L818.5469,346.2969 Q819.1563,346.2969 819.4219,346.5313 Q819.6875,346.7656 819.6875,347.1563 Q819.6875,347.5313 819.4219,347.7656 Q819.1563,348 818.5469,348 L816.25,348 Q815.6406,348 815.3906,347.7656 Q815.125,347.5313 815.125,347.1406 Q815.125,346.7656 815.4063,346.5313 Q815.6719,346.2813 816.2969,346.2969 L818.9688,339.6406 L817.8594,339.6406 Q817.25,339.6406 816.9844,339.4063 Q816.7188,339.1719 816.7188,338.7813 Q816.7188,338.4063 816.9844,338.1719 Q817.25,337.9375 817.8594,337.9375 L821.5313,337.9375 L824.9219,346.2969 Q825.5156,346.2969 825.7031,346.4375 Q826.0938,346.7031 826.0938,347.1563 Q826.0938,347.5313 825.8281,347.7656 Q825.5781,348 824.9688,348 L822.6719,348 Q822.0625,348 821.7969,347.7656 Q821.5313,347.5313 821.5313,347.1406 Q821.5313,346.7656 821.7969,346.5313 Q822.0625,346.2969 822.6719,346.2969 L823.0938,346.2969 L822.6875,345.2656 Z M821.9688,343.5625 L820.6094,340.1875 L819.2344,343.5625 L821.9688,343.5625 Z " fill="#000000"/><text fill="#000000" font-family="sans-serif" font-size="14" font-style="italic" lengthAdjust="spacing" textLength="101.9238" x="834.5" y="349.2969">GeometryObject</text><line style="stroke:#181818;stroke-width:0.5;" x1="806.5" x2="938.4238" y1="359.5" y2="359.5"/><line style="stroke:#181818;stroke-width:0.5;" x1="806.5" x2="938.4238" y1="367.5" y2="367.5"/></g><!--class CodelistRequestStatus--><g id="elem_CodelistRequestStatus"><rect codeLine="19" fill="#F1F1F1" height="66.6211" id="CodelistRequestStatus" rx="2.5" ry="2.5" style="stroke:#181818;stroke-width:0.5;" width="174.4131" x="1894.5" y="669.5"/><ellipse cx="1909.5" cy="685.5" fill="#ADD1B2" rx="11" ry="11" style="stroke:#181818;stroke-width:1.0;"/><path d="M1912.2656,681.375 Q1912.4219,681.1563 1912.6094,681.0469 Q1912.7969,680.9375 1913.0156,680.9375 Q1913.3906,680.9375 1913.625,681.2031 Q1913.8594,681.4531 1913.8594,682.0625 L1913.8594,683.5156 Q1913.8594,684.125 1913.625,684.3906 Q1913.3906,684.6563 1913.0156,684.6563 Q1912.6719,684.6563 1912.4688,684.4531 Q1912.2656,684.2656 1912.1563,683.75 Q1912.1094,683.3906 1911.9219,683.2031 Q1911.5938,682.8281 1910.9844,682.6094 Q1910.375,682.3906 1909.75,682.3906 Q1908.9844,682.3906 1908.3438,682.7188 Q1907.7188,683.0469 1907.2188,683.7969 Q1906.7344,684.5469 1906.7344,685.5781 L1906.7344,686.6719 Q1906.7344,687.9063 1907.625,688.7344 Q1908.5156,689.5469 1910.1094,689.5469 Q1911.0469,689.5469 1911.7031,689.2969 Q1912.0938,689.1406 1912.5156,688.7031 Q1912.7813,688.4375 1912.9219,688.3594 Q1913.0781,688.2813 1913.2813,688.2813 Q1913.6094,688.2813 1913.8594,688.5469 Q1914.125,688.7969 1914.125,689.1406 Q1914.125,689.4844 1913.7813,689.8906 Q1913.2813,690.4688 1912.4844,690.7969 Q1911.4063,691.25 1910.1094,691.25 Q1908.5938,691.25 1907.3906,690.625 Q1906.4063,690.125 1905.7188,689.0625 Q1905.0313,687.9844 1905.0313,686.7031 L1905.0313,685.5469 Q1905.0313,684.2188 1905.6406,683.0781 Q1906.2656,681.9219 1907.3594,681.3125 Q1908.4531,680.6875 1909.6875,680.6875 Q1910.4219,680.6875 1911.0625,680.8594 Q1911.7188,681.0156 1912.2656,681.375 Z " fill="#000000"/><text fill="#000000" font-family="sans-serif" font-size="14" lengthAdjust="spacing" textLength="142.4131" x="1923.5" y="691.2969">CodelistRequestStatus</text><line style="stroke:#181818;stroke-width:0.5;" x1="1895.5" x2="2067.9131" y1="701.5" y2="701.5"/><ellipse cx="1905.5" cy="716.3105" fill="none" rx="3" ry="3" style="stroke:#038048;stroke-width:1.0;"/><text fill="#000000" font-family="sans-serif" font-size="14" lengthAdjust="spacing" textLength="129.1719" x="1914.5" y="720.6074">icon: CharField [0..1]</text><line style="stroke:#181818;stroke-width:0.5;" x1="1895.5" x2="2067.9131" y1="728.1211" y2="728.1211"/></g><!--class CleanupEventCodelistWasteQuantity--><g id="elem_CleanupEventCodelistWasteQuantity"><rect codeLine="23" fill="#F1F1F1" height="48" id="CleanupEventCodelistWasteQuantity" rx="2.5" ry="2.5" style="stroke:#181818;stroke-width:0.5;" width="262.3438" x="2380.5" y="679"/><ellipse cx="2395.5" cy="695" fill="#ADD1B2" rx="11" ry="11" style="stroke:#181818;stroke-width:1.0;"/><path d="M2398.2656,690.875 Q2398.4219,690.6563 2398.6094,690.5469 Q2398.7969,690.4375 2399.0156,690.4375 Q2399.3906,690.4375 2399.625,690.7031 Q2399.8594,690.9531 2399.8594,691.5625 L2399.8594,693.0156 Q2399.8594,693.625 2399.625,693.8906 Q2399.3906,694.1563 2399.0156,694.1563 Q2398.6719,694.1563 2398.4688,693.9531 Q2398.2656,693.7656 2398.1563,693.25 Q2398.1094,692.8906 2397.9219,692.7031 Q2397.5938,692.3281 2396.9844,692.1094 Q2396.375,691.8906 2395.75,691.8906 Q2394.9844,691.8906 2394.3438,692.2188 Q2393.7188,692.5469 2393.2188,693.2969 Q2392.7344,694.0469 2392.7344,695.0781 L2392.7344,696.1719 Q2392.7344,697.4063 2393.625,698.2344 Q2394.5156,699.0469 2396.1094,699.0469 Q2397.0469,699.0469 2397.7031,698.7969 Q2398.0938,698.6406 2398.5156,698.2031 Q2398.7813,697.9375 2398.9219,697.8594 Q2399.0781,697.7813 2399.2813,697.7813 Q2399.6094,697.7813 2399.8594,698.0469 Q2400.125,698.2969 2400.125,698.6406 Q2400.125,698.9844 2399.7813,699.3906 Q2399.2813,699.9688 2398.4844,700.2969 Q2397.4063,700.75 2396.1094,700.75 Q2394.5938,700.75 2393.3906,700.125 Q2392.4063,699.625 2391.7188,698.5625 Q2391.0313,697.4844 2391.0313,696.2031 L2391.0313,695.0469 Q2391.0313,693.7188 2391.6406,692.5781 Q2392.2656,691.4219 2393.3594,690.8125 Q2394.4531,690.1875 2395.6875,690.1875 Q2396.4219,690.1875 2397.0625,690.3594 Q2397.7188,690.5156 2398.2656,690.875 Z " fill="#000000"/><text fill="#000000" font-family="sans-serif" font-size="14" lengthAdjust="spacing" textLength="230.3438" x="2409.5" y="700.7969">CleanupEventCodelistWasteQuantity</text><line style="stroke:#181818;stroke-width:0.5;" x1="2381.5" x2="2641.8438" y1="711" y2="711"/><line style="stroke:#181818;stroke-width:0.5;" x1="2381.5" x2="2641.8438" y1="719" y2="719"/></g><!--class CleanupEventCodelistWasteType--><g id="elem_CleanupEventCodelistWasteType"><rect codeLine="26" fill="#F1F1F1" height="48" id="CleanupEventCodelistWasteType" rx="2.5" ry="2.5" style="stroke:#181818;stroke-width:0.5;" width="241.3301" x="2104" y="679"/><ellipse cx="2119" cy="695" fill="#ADD1B2" rx="11" ry="11" style="stroke:#181818;stroke-width:1.0;"/><path d="M2121.7656,690.875 Q2121.9219,690.6563 2122.1094,690.5469 Q2122.2969,690.4375 2122.5156,690.4375 Q2122.8906,690.4375 2123.125,690.7031 Q2123.3594,690.9531 2123.3594,691.5625 L2123.3594,693.0156 Q2123.3594,693.625 2123.125,693.8906 Q2122.8906,694.1563 2122.5156,694.1563 Q2122.1719,694.1563 2121.9688,693.9531 Q2121.7656,693.7656 2121.6563,693.25 Q2121.6094,692.8906 2121.4219,692.7031 Q2121.0938,692.3281 2120.4844,692.1094 Q2119.875,691.8906 2119.25,691.8906 Q2118.4844,691.8906 2117.8438,692.2188 Q2117.2188,692.5469 2116.7188,693.2969 Q2116.2344,694.0469 2116.2344,695.0781 L2116.2344,696.1719 Q2116.2344,697.4063 2117.125,698.2344 Q2118.0156,699.0469 2119.6094,699.0469 Q2120.5469,699.0469 2121.2031,698.7969 Q2121.5938,698.6406 2122.0156,698.2031 Q2122.2813,697.9375 2122.4219,697.8594 Q2122.5781,697.7813 2122.7813,697.7813 Q2123.1094,697.7813 2123.3594,698.0469 Q2123.625,698.2969 2123.625,698.6406 Q2123.625,698.9844 2123.2813,699.3906 Q2122.7813,699.9688 2121.9844,700.2969 Q2120.9063,700.75 2119.6094,700.75 Q2118.0938,700.75 2116.8906,700.125 Q2115.9063,699.625 2115.2188,698.5625 Q2114.5313,697.4844 2114.5313,696.2031 L2114.5313,695.0469 Q2114.5313,693.7188 2115.1406,692.5781 Q2115.7656,691.4219 2116.8594,690.8125 Q2117.9531,690.1875 2119.1875,690.1875 Q2119.9219,690.1875 2120.5625,690.3594 Q2121.2188,690.5156 2121.7656,690.875 Z " fill="#000000"/><text fill="#000000" font-family="sans-serif" font-size="14" lengthAdjust="spacing" textLength="209.3301" x="2133" y="700.7969">CleanupEventCodelistWasteType</text><line style="stroke:#181818;stroke-width:0.5;" x1="2105" x2="2344.3301" y1="711" y2="711"/><line style="stroke:#181818;stroke-width:0.5;" x1="2105" x2="2344.3301" y1="719" y2="719"/></g><!--class CleanupEventCodelistEquipment--><g id="elem_CleanupEventCodelistEquipment"><rect codeLine="29" fill="#F1F1F1" height="48" id="CleanupEventCodelistEquipment" rx="2.5" ry="2.5" style="stroke:#181818;stroke-width:0.5;" width="237.4609" x="2678" y="679"/><ellipse cx="2693" cy="695" fill="#ADD1B2" rx="11" ry="11" style="stroke:#181818;stroke-width:1.0;"/><path d="M2695.7656,690.875 Q2695.9219,690.6563 2696.1094,690.5469 Q2696.2969,690.4375 2696.5156,690.4375 Q2696.8906,690.4375 2697.125,690.7031 Q2697.3594,690.9531 2697.3594,691.5625 L2697.3594,693.0156 Q2697.3594,693.625 2697.125,693.8906 Q2696.8906,694.1563 2696.5156,694.1563 Q2696.1719,694.1563 2695.9688,693.9531 Q2695.7656,693.7656 2695.6563,693.25 Q2695.6094,692.8906 2695.4219,692.7031 Q2695.0938,692.3281 2694.4844,692.1094 Q2693.875,691.8906 2693.25,691.8906 Q2692.4844,691.8906 2691.8438,692.2188 Q2691.2188,692.5469 2690.7188,693.2969 Q2690.2344,694.0469 2690.2344,695.0781 L2690.2344,696.1719 Q2690.2344,697.4063 2691.125,698.2344 Q2692.0156,699.0469 2693.6094,699.0469 Q2694.5469,699.0469 2695.2031,698.7969 Q2695.5938,698.6406 2696.0156,698.2031 Q2696.2813,697.9375 2696.4219,697.8594 Q2696.5781,697.7813 2696.7813,697.7813 Q2697.1094,697.7813 2697.3594,698.0469 Q2697.625,698.2969 2697.625,698.6406 Q2697.625,698.9844 2697.2813,699.3906 Q2696.7813,699.9688 2695.9844,700.2969 Q2694.9063,700.75 2693.6094,700.75 Q2692.0938,700.75 2690.8906,700.125 Q2689.9063,699.625 2689.2188,698.5625 Q2688.5313,697.4844 2688.5313,696.2031 L2688.5313,695.0469 Q2688.5313,693.7188 2689.1406,692.5781 Q2689.7656,691.4219 2690.8594,690.8125 Q2691.9531,690.1875 2693.1875,690.1875 Q2693.9219,690.1875 2694.5625,690.3594 Q2695.2188,690.5156 2695.7656,690.875 Z " fill="#000000"/><text fill="#000000" font-family="sans-serif" font-size="14" lengthAdjust="spacing" textLength="205.4609" x="2707" y="700.7969">CleanupEventCodelistEquipment</text><line style="stroke:#181818;stroke-width:0.5;" x1="2679" x2="2914.4609" y1="711" y2="711"/><line style="stroke:#181818;stroke-width:0.5;" x1="2679" x2="2914.4609" y1="719" y2="719"/></g><!--class Authority--><g id="elem_Authority"><rect codeLine="32" fill="#F1F1F1" height="103.8633" id="Authority" rx="2.5" ry="2.5" style="stroke:#181818;stroke-width:0.5;" width="130.2754" x="2860.5" y="452"/><ellipse cx="2894.8623" cy="468" fill="#ADD1B2" rx="11" ry="11" style="stroke:#181818;stroke-width:1.0;"/><path d="M2897.6279,463.875 Q2897.7842,463.6563 2897.9717,463.5469 Q2898.1592,463.4375 2898.3779,463.4375 Q2898.7529,463.4375 2898.9873,463.7031 Q2899.2217,463.9531 2899.2217,464.5625 L2899.2217,466.0156 Q2899.2217,466.625 2898.9873,466.8906 Q2898.7529,467.1563 2898.3779,467.1563 Q2898.0342,467.1563 2897.8311,466.9531 Q2897.6279,466.7656 2897.5186,466.25 Q2897.4717,465.8906 2897.2842,465.7031 Q2896.9561,465.3281 2896.3467,465.1094 Q2895.7373,464.8906 2895.1123,464.8906 Q2894.3467,464.8906 2893.7061,465.2188 Q2893.0811,465.5469 2892.5811,466.2969 Q2892.0967,467.0469 2892.0967,468.0781 L2892.0967,469.1719 Q2892.0967,470.4063 2892.9873,471.2344 Q2893.8779,472.0469 2895.4717,472.0469 Q2896.4092,472.0469 2897.0654,471.7969 Q2897.4561,471.6406 2897.8779,471.2031 Q2898.1436,470.9375 2898.2842,470.8594 Q2898.4404,470.7813 2898.6436,470.7813 Q2898.9717,470.7813 2899.2217,471.0469 Q2899.4873,471.2969 2899.4873,471.6406 Q2899.4873,471.9844 2899.1436,472.3906 Q2898.6436,472.9688 2897.8467,473.2969 Q2896.7686,473.75 2895.4717,473.75 Q2893.9561,473.75 2892.7529,473.125 Q2891.7686,472.625 2891.0811,471.5625 Q2890.3936,470.4844 2890.3936,469.2031 L2890.3936,468.0469 Q2890.3936,466.7188 2891.0029,465.5781 Q2891.6279,464.4219 2892.7217,463.8125 Q2893.8154,463.1875 2895.0498,463.1875 Q2895.7842,463.1875 2896.4248,463.3594 Q2897.0811,463.5156 2897.6279,463.875 Z " fill="#000000"/><text fill="#000000" font-family="sans-serif" font-size="14" lengthAdjust="spacing" textLength="55.248" x="2913.165" y="473.7969">Authority</text><line style="stroke:#181818;stroke-width:0.5;" x1="2861.5" x2="2989.7754" y1="484" y2="484"/><ellipse cx="2871.5" cy="498.8105" fill="none" rx="3" ry="3" style="stroke:#038048;stroke-width:1.0;"/><text fill="#000000" font-family="sans-serif" font-size="14" lengthAdjust="spacing" textLength="104.2754" x="2880.5" y="503.1074">group: CharField</text><ellipse cx="2871.5" cy="517.4316" fill="none" rx="3" ry="3" style="stroke:#038048;stroke-width:1.0;"/><text fill="#000000" font-family="sans-serif" font-size="14" lengthAdjust="spacing" textLength="103.4893" x="2880.5" y="521.7285">name: CharField</text><ellipse cx="2871.5" cy="536.0527" fill="none" rx="3" ry="3" style="stroke:#038048;stroke-width:1.0;"/><text fill="#000000" font-family="sans-serif" font-size="14" lengthAdjust="spacing" textLength="101.9238" x="2880.5" y="540.3496">email: CharField</text><line style="stroke:#181818;stroke-width:0.5;" x1="2861.5" x2="2989.7754" y1="547.8633" y2="547.8633"/></g><!--class Email--><g id="elem_Email"><rect codeLine="38" fill="#F1F1F1" height="103.8633" id="Email" rx="2.5" ry="2.5" style="stroke:#181818;stroke-width:0.5;" width="138.8271" x="631" y="299.5"/><ellipse cx="678.6602" cy="315.5" fill="#ADD1B2" rx="11" ry="11" style="stroke:#181818;stroke-width:1.0;"/><path d="M681.4258,311.375 Q681.582,311.1563 681.7695,311.0469 Q681.957,310.9375 682.1758,310.9375 Q682.5508,310.9375 682.7852,311.2031 Q683.0195,311.4531 683.0195,312.0625 L683.0195,313.5156 Q683.0195,314.125 682.7852,314.3906 Q682.5508,314.6563 682.1758,314.6563 Q681.832,314.6563 681.6289,314.4531 Q681.4258,314.2656 681.3164,313.75 Q681.2695,313.3906 681.082,313.2031 Q680.7539,312.8281 680.1445,312.6094 Q679.5352,312.3906 678.9102,312.3906 Q678.1445,312.3906 677.5039,312.7188 Q676.8789,313.0469 676.3789,313.7969 Q675.8945,314.5469 675.8945,315.5781 L675.8945,316.6719 Q675.8945,317.9063 676.7852,318.7344 Q677.6758,319.5469 679.2695,319.5469 Q680.207,319.5469 680.8633,319.2969 Q681.2539,319.1406 681.6758,318.7031 Q681.9414,318.4375 682.082,318.3594 Q682.2383,318.2813 682.4414,318.2813 Q682.7695,318.2813 683.0195,318.5469 Q683.2852,318.7969 683.2852,319.1406 Q683.2852,319.4844 682.9414,319.8906 Q682.4414,320.4688 681.6445,320.7969 Q680.5664,321.25 679.2695,321.25 Q677.7539,321.25 676.5508,320.625 Q675.5664,320.125 674.8789,319.0625 Q674.1914,317.9844 674.1914,316.7031 L674.1914,315.5469 Q674.1914,314.2188 674.8008,313.0781 Q675.4258,311.9219 676.5195,311.3125 Q677.6133,310.6875 678.8477,310.6875 Q679.582,310.6875 680.2227,310.8594 Q680.8789,311.0156 681.4258,311.375 Z " fill="#000000"/><text fill="#000000" font-family="sans-serif" font-size="14" lengthAdjust="spacing" textLength="35.0068" x="699.1602" y="321.2969">Email</text><line style="stroke:#181818;stroke-width:0.5;" x1="632" x2="768.8271" y1="331.5" y2="331.5"/><ellipse cx="642" cy="346.3105" fill="none" rx="3" ry="3" style="stroke:#038048;stroke-width:1.0;"/><text fill="#000000" font-family="sans-serif" font-size="14" lengthAdjust="spacing" textLength="90.2549" x="651" y="350.6074">key: CharField</text><ellipse cx="642" cy="364.9316" fill="none" rx="3" ry="3" style="stroke:#038048;stroke-width:1.0;"/><text fill="#000000" font-family="sans-serif" font-size="14" lengthAdjust="spacing" textLength="112.8271" x="651" y="369.2285">subject: CharField</text><ellipse cx="642" cy="383.5527" fill="none" rx="3" ry="3" style="stroke:#038048;stroke-width:1.0;"/><text fill="#000000" font-family="sans-serif" font-size="14" lengthAdjust="spacing" textLength="95.71" x="651" y="387.8496">body: TextField</text><line style="stroke:#181818;stroke-width:0.5;" x1="632" x2="768.8271" y1="395.3633" y2="395.3633"/></g><!--class Requester--><g id="elem_Requester"><rect codeLine="44" fill="#F1F1F1" height="234.2109" id="Requester" rx="2.5" ry="2.5" style="stroke:#181818;stroke-width:0.5;" width="280.4814" x="1309.5" y="586"/><ellipse cx="1413.1943" cy="602" fill="#ADD1B2" rx="11" ry="11" style="stroke:#181818;stroke-width:1.0;"/><path d="M1415.96,597.875 Q1416.1162,597.6563 1416.3037,597.5469 Q1416.4912,597.4375 1416.71,597.4375 Q1417.085,597.4375 1417.3193,597.7031 Q1417.5537,597.9531 1417.5537,598.5625 L1417.5537,600.0156 Q1417.5537,600.625 1417.3193,600.8906 Q1417.085,601.1563 1416.71,601.1563 Q1416.3662,601.1563 1416.1631,600.9531 Q1415.96,600.7656 1415.8506,600.25 Q1415.8037,599.8906 1415.6162,599.7031 Q1415.2881,599.3281 1414.6787,599.1094 Q1414.0693,598.8906 1413.4443,598.8906 Q1412.6787,598.8906 1412.0381,599.2188 Q1411.4131,599.5469 1410.9131,600.2969 Q1410.4287,601.0469 1410.4287,602.0781 L1410.4287,603.1719 Q1410.4287,604.4063 1411.3193,605.2344 Q1412.21,606.0469 1413.8037,606.0469 Q1414.7412,606.0469 1415.3975,605.7969 Q1415.7881,605.6406 1416.21,605.2031 Q1416.4756,604.9375 1416.6162,604.8594 Q1416.7725,604.7813 1416.9756,604.7813 Q1417.3037,604.7813 1417.5537,605.0469 Q1417.8193,605.2969 1417.8193,605.6406 Q1417.8193,605.9844 1417.4756,606.3906 Q1416.9756,606.9688 1416.1787,607.2969 Q1415.1006,607.75 1413.8037,607.75 Q1412.2881,607.75 1411.085,607.125 Q1410.1006,606.625 1409.4131,605.5625 Q1408.7256,604.4844 1408.7256,603.2031 L1408.7256,602.0469 Q1408.7256,600.7188 1409.335,599.5781 Q1409.96,598.4219 1411.0537,597.8125 Q1412.1475,597.1875 1413.3818,597.1875 Q1414.1162,597.1875 1414.7568,597.3594 Q1415.4131,597.5156 1415.96,597.875 Z " fill="#000000"/><text fill="#000000" font-family="sans-serif" font-size="14" lengthAdjust="spacing" textLength="64.5928" x="1433.6943" y="607.7969">Requester</text><line style="stroke:#181818;stroke-width:0.5;" x1="1310.5" x2="1588.9814" y1="618" y2="618"/><ellipse cx="1320.5" cy="632.8105" fill="none" rx="3" ry="3" style="stroke:#038048;stroke-width:1.0;"/><text fill="#000000" font-family="sans-serif" font-size="14" lengthAdjust="spacing" textLength="211.668" x="1329.5" y="637.1074">user_id: PositiveIntegerField [0..1]</text><ellipse cx="1320.5" cy="651.4316" fill="none" rx="3" ry="3" style="stroke:#038048;stroke-width:1.0;"/><text fill="#000000" font-family="sans-serif" font-size="14" lengthAdjust="spacing" textLength="179.7646" x="1329.5" y="655.7285">organization: CharField [0..1]</text><ellipse cx="1320.5" cy="670.0527" fill="none" rx="3" ry="3" style="stroke:#038048;stroke-width:1.0;"/><text fill="#000000" font-family="sans-serif" font-size="14" lengthAdjust="spacing" textLength="168.8477" x="1329.5" y="674.3496">first_name: CharField [0..1]</text><ellipse cx="1320.5" cy="688.6738" fill="none" rx="3" ry="3" style="stroke:#038048;stroke-width:1.0;"/><text fill="#000000" font-family="sans-serif" font-size="14" lengthAdjust="spacing" textLength="168.082" x="1329.5" y="692.9707">last_name: CharField [0..1]</text><ellipse cx="1320.5" cy="707.2949" fill="none" rx="3" ry="3" style="stroke:#038048;stroke-width:1.0;"/><text fill="#000000" font-family="sans-serif" font-size="14" lengthAdjust="spacing" textLength="106.5859" x="1329.5" y="711.5918">email: EmailField</text><ellipse cx="1320.5" cy="725.916" fill="none" rx="3" ry="3" style="stroke:#038048;stroke-width:1.0;"/><text fill="#000000" font-family="sans-serif" font-size="14" lengthAdjust="spacing" textLength="129.9717" x="1329.5" y="730.2129">telephone: CharField</text><ellipse cx="1320.5" cy="744.5371" fill="none" rx="3" ry="3" style="stroke:#038048;stroke-width:1.0;"/><text fill="#000000" font-family="sans-serif" font-size="14" lengthAdjust="spacing" textLength="196.0957" x="1329.5" y="748.834">address_street: CharField [0..1]</text><ellipse cx="1320.5" cy="763.1582" fill="none" rx="3" ry="3" style="stroke:#038048;stroke-width:1.0;"/><text fill="#000000" font-family="sans-serif" font-size="14" lengthAdjust="spacing" textLength="254.4814" x="1329.5" y="767.4551">address_house_number: CharField [0..1]</text><ellipse cx="1320.5" cy="781.7793" fill="none" rx="3" ry="3" style="stroke:#038048;stroke-width:1.0;"/><text fill="#000000" font-family="sans-serif" font-size="14" lengthAdjust="spacing" textLength="236.585" x="1329.5" y="786.0762">address_postal_code: CharField [0..1]</text><ellipse cx="1320.5" cy="800.4004" fill="none" rx="3" ry="3" style="stroke:#038048;stroke-width:1.0;"/><text fill="#000000" font-family="sans-serif" font-size="14" lengthAdjust="spacing" textLength="194.5508" x="1329.5" y="804.6973">address_place: CharField [0..1]</text><line style="stroke:#181818;stroke-width:0.5;" x1="1310.5" x2="1588.9814" y1="812.2109" y2="812.2109"/></g><!--class Request--><g id="elem_Request"><rect codeLine="57" fill="#F1F1F1" height="103.8633" id="Request" rx="2.5" ry="2.5" style="stroke:#181818;stroke-width:0.5;" width="201.8682" x="1541.5" y="299.5"/><ellipse cx="1612.1118" cy="315.5" fill="#A9DCDF" rx="11" ry="11" style="stroke:#181818;stroke-width:1.0;"/><path d="M1614.2993,317.2656 L1610.1587,317.2656 L1609.7368,318.2969 L1610.1587,318.2969 Q1610.7681,318.2969 1611.0337,318.5313 Q1611.2993,318.7656 1611.2993,319.1563 Q1611.2993,319.5313 1611.0337,319.7656 Q1610.7681,320 1610.1587,320 L1607.8618,320 Q1607.2524,320 1607.0024,319.7656 Q1606.7368,319.5313 1606.7368,319.1406 Q1606.7368,318.7656 1607.0181,318.5313 Q1607.2837,318.2813 1607.9087,318.2969 L1610.5806,311.6406 L1609.4712,311.6406 Q1608.8618,311.6406 1608.5962,311.4063 Q1608.3306,311.1719 1608.3306,310.7813 Q1608.3306,310.4063 1608.5962,310.1719 Q1608.8618,309.9375 1609.4712,309.9375 L1613.1431,309.9375 L1616.5337,318.2969 Q1617.1274,318.2969 1617.3149,318.4375 Q1617.7056,318.7031 1617.7056,319.1563 Q1617.7056,319.5313 1617.4399,319.7656 Q1617.1899,320 1616.5806,320 L1614.2837,320 Q1613.6743,320 1613.4087,319.7656 Q1613.1431,319.5313 1613.1431,319.1406 Q1613.1431,318.7656 1613.4087,318.5313 Q1613.6743,318.2969 1614.2837,318.2969 L1614.7056,318.2969 L1614.2993,317.2656 Z M1613.5806,315.5625 L1612.2212,312.1875 L1610.8462,315.5625 L1613.5806,315.5625 Z " fill="#000000"/><text fill="#000000" font-family="sans-serif" font-size="14" font-style="italic" lengthAdjust="spacing" textLength="52.1445" x="1632.6118" y="321.2969">Request</text><line style="stroke:#181818;stroke-width:0.5;" x1="1542.5" x2="1742.3682" y1="331.5" y2="331.5"/><polygon fill="none" points="1552.5,342.3105,1548.5,348.3105,1556.5,348.3105" style="stroke:#1963A0;stroke-width:1.0;"/><text fill="#000000" font-family="sans-serif" font-size="14" lengthAdjust="spacing" textLength="154.0752" x="1561.5" y="350.6074">status: ForeignKey &#171;FK&#187;</text><ellipse cx="1552.5" cy="364.9316" fill="none" rx="3" ry="3" style="stroke:#038048;stroke-width:1.0;"/><text fill="#000000" font-family="sans-serif" font-size="14" lengthAdjust="spacing" textLength="161.0615" x="1561.5" y="369.2285">comment: CharField [0..1]</text><polygon fill="none" points="1552.5,379.5527,1548.5,385.5527,1556.5,385.5527" style="stroke:#1963A0;stroke-width:1.0;"/><text fill="#000000" font-family="sans-serif" font-size="14" lengthAdjust="spacing" textLength="175.8682" x="1561.5" y="387.8496">requester: ForeignKey &#171;FK&#187;</text><line style="stroke:#181818;stroke-width:0.5;" x1="1542.5" x2="1742.3682" y1="395.3633" y2="395.3633"/></g><!--class CleanupEventRequest--><g id="elem_CleanupEventRequest"><rect codeLine="63" fill="#F1F1F1" height="66.6211" id="CleanupEventRequest" rx="2.5" ry="2.5" style="stroke:#181818;stroke-width:0.5;" width="275.7715" x="981.5" y="899"/><ellipse cx="1045.0879" cy="915" fill="#ADD1B2" rx="11" ry="11" style="stroke:#181818;stroke-width:1.0;"/><path d="M1047.8535,910.875 Q1048.0098,910.6563 1048.1973,910.5469 Q1048.3848,910.4375 1048.6035,910.4375 Q1048.9785,910.4375 1049.2129,910.7031 Q1049.4473,910.9531 1049.4473,911.5625 L1049.4473,913.0156 Q1049.4473,913.625 1049.2129,913.8906 Q1048.9785,914.1563 1048.6035,914.1563 Q1048.2598,914.1563 1048.0566,913.9531 Q1047.8535,913.7656 1047.7441,913.25 Q1047.6973,912.8906 1047.5098,912.7031 Q1047.1816,912.3281 1046.5723,912.1094 Q1045.9629,911.8906 1045.3379,911.8906 Q1044.5723,911.8906 1043.9316,912.2188 Q1043.3066,912.5469 1042.8066,913.2969 Q1042.3223,914.0469 1042.3223,915.0781 L1042.3223,916.1719 Q1042.3223,917.4063 1043.2129,918.2344 Q1044.1035,919.0469 1045.6973,919.0469 Q1046.6348,919.0469 1047.291,918.7969 Q1047.6816,918.6406 1048.1035,918.2031 Q1048.3691,917.9375 1048.5098,917.8594 Q1048.666,917.7813 1048.8691,917.7813 Q1049.1973,917.7813 1049.4473,918.0469 Q1049.7129,918.2969 1049.7129,918.6406 Q1049.7129,918.9844 1049.3691,919.3906 Q1048.8691,919.9688 1048.0723,920.2969 Q1046.9941,920.75 1045.6973,920.75 Q1044.1816,920.75 1042.9785,920.125 Q1041.9941,919.625 1041.3066,918.5625 Q1040.6191,917.4844 1040.6191,916.2031 L1040.6191,915.0469 Q1040.6191,913.7188 1041.2285,912.5781 Q1041.8535,911.4219 1042.9473,910.8125 Q1044.041,910.1875 1045.2754,910.1875 Q1046.0098,910.1875 1046.6504,910.3594 Q1047.3066,910.5156 1047.8535,910.875 Z " fill="#000000"/><text fill="#000000" font-family="sans-serif" font-size="14" lengthAdjust="spacing" textLength="140.0957" x="1065.5879" y="920.7969">CleanupEventRequest</text><line style="stroke:#181818;stroke-width:0.5;" x1="982.5" x2="1256.2715" y1="931" y2="931"/><polygon fill="none" points="992.5,940.8105,996.5,944.8105,992.5,948.8105,988.5,944.8105" style="stroke:#B38D22;stroke-width:1.0;"/><text fill="#000000" font-family="sans-serif" font-size="14" lengthAdjust="spacing" textLength="249.7715" x="1001.5" y="950.1074">responsibilities: ManyToManyField [0..1]</text><line style="stroke:#181818;stroke-width:0.5;" x1="982.5" x2="1256.2715" y1="957.6211" y2="957.6211"/></g><!--class CleanupEventResponsibilities--><g id="elem_CleanupEventResponsibilities"><rect codeLine="67" fill="#F1F1F1" height="103.8633" id="CleanupEventResponsibilities" rx="2.5" ry="2.5" style="stroke:#181818;stroke-width:0.5;" width="280.4951" x="1903.5" y="1027"/><ellipse cx="1946.9739" cy="1043" fill="#ADD1B2" rx="11" ry="11" style="stroke:#181818;stroke-width:1.0;"/><path d="M1949.7396,1038.875 Q1949.8958,1038.6563 1950.0833,1038.5469 Q1950.2708,1038.4375 1950.4896,1038.4375 Q1950.8646,1038.4375 1951.0989,1038.7031 Q1951.3333,1038.9531 1951.3333,1039.5625 L1951.3333,1041.0156 Q1951.3333,1041.625 1951.0989,1041.8906 Q1950.8646,1042.1563 1950.4896,1042.1563 Q1950.1458,1042.1563 1949.9427,1041.9531 Q1949.7396,1041.7656 1949.6302,1041.25 Q1949.5833,1040.8906 1949.3958,1040.7031 Q1949.0677,1040.3281 1948.4583,1040.1094 Q1947.8489,1039.8906 1947.2239,1039.8906 Q1946.4583,1039.8906 1945.8177,1040.2188 Q1945.1927,1040.5469 1944.6927,1041.2969 Q1944.2083,1042.0469 1944.2083,1043.0781 L1944.2083,1044.1719 Q1944.2083,1045.4063 1945.0989,1046.2344 Q1945.9896,1047.0469 1947.5833,1047.0469 Q1948.5208,1047.0469 1949.1771,1046.7969 Q1949.5677,1046.6406 1949.9896,1046.2031 Q1950.2552,1045.9375 1950.3958,1045.8594 Q1950.5521,1045.7813 1950.7552,1045.7813 Q1951.0833,1045.7813 1951.3333,1046.0469 Q1951.5989,1046.2969 1951.5989,1046.6406 Q1951.5989,1046.9844 1951.2552,1047.3906 Q1950.7552,1047.9688 1949.9583,1048.2969 Q1948.8802,1048.75 1947.5833,1048.75 Q1946.0677,1048.75 1944.8646,1048.125 Q1943.8802,1047.625 1943.1927,1046.5625 Q1942.5052,1045.4844 1942.5052,1044.2031 L1942.5052,1043.0469 Q1942.5052,1041.7188 1943.1146,1040.5781 Q1943.7396,1039.4219 1944.8333,1038.8125 Q1945.9271,1038.1875 1947.1614,1038.1875 Q1947.8958,1038.1875 1948.5364,1038.3594 Q1949.1927,1038.5156 1949.7396,1038.875 Z " fill="#000000"/><text fill="#000000" font-family="sans-serif" font-size="14" lengthAdjust="spacing" textLength="185.2197" x="1967.3015" y="1048.7969">CleanupEventResponsibilities</text><line style="stroke:#181818;stroke-width:0.5;" x1="1904.5" x2="2182.9951" y1="1059" y2="1059"/><polygon fill="none" points="1914.5,1069.8105,1910.5,1075.8105,1918.5,1075.8105" style="stroke:#1963A0;stroke-width:1.0;"/><text fill="#000000" font-family="sans-serif" font-size="14" lengthAdjust="spacing" textLength="254.4951" x="1923.5" y="1078.1074">cleanupevent_request: ForeignKey &#171;FK&#187;</text><polygon fill="none" points="1914.5,1088.4316,1910.5,1094.4316,1918.5,1094.4316" style="stroke:#1963A0;stroke-width:1.0;"/><text fill="#000000" font-family="sans-serif" font-size="14" lengthAdjust="spacing" textLength="170.4199" x="1923.5" y="1096.7285">authority: ForeignKey &#171;FK&#187;</text><ellipse cx="1914.5" cy="1111.0527" fill="none" rx="3" ry="3" style="stroke:#038048;stroke-width:1.0;"/><text fill="#000000" font-family="sans-serif" font-size="14" lengthAdjust="spacing" textLength="119.8477" x="1923.5" y="1115.3496">main: BooleanField</text><line style="stroke:#181818;stroke-width:0.5;" x1="1904.5" x2="2182.9951" y1="1122.8633" y2="1122.8633"/></g><!--class CleanupEventEvent--><g id="elem_CleanupEventEvent"><rect codeLine="73" fill="#F1F1F1" height="122.4844" id="CleanupEventEvent" rx="2.5" ry="2.5" style="stroke:#181818;stroke-width:0.5;" width="308.5088" x="965" y="642"/><ellipse cx="1053.1289" cy="658" fill="#ADD1B2" rx="11" ry="11" style="stroke:#181818;stroke-width:1.0;"/><path d="M1055.8945,653.875 Q1056.0508,653.6563 1056.2383,653.5469 Q1056.4258,653.4375 1056.6445,653.4375 Q1057.0195,653.4375 1057.2539,653.7031 Q1057.4883,653.9531 1057.4883,654.5625 L1057.4883,656.0156 Q1057.4883,656.625 1057.2539,656.8906 Q1057.0195,657.1563 1056.6445,657.1563 Q1056.3008,657.1563 1056.0977,656.9531 Q1055.8945,656.7656 1055.7852,656.25 Q1055.7383,655.8906 1055.5508,655.7031 Q1055.2227,655.3281 1054.6133,655.1094 Q1054.0039,654.8906 1053.3789,654.8906 Q1052.6133,654.8906 1051.9727,655.2188 Q1051.3477,655.5469 1050.8477,656.2969 Q1050.3633,657.0469 1050.3633,658.0781 L1050.3633,659.1719 Q1050.3633,660.4063 1051.2539,661.2344 Q1052.1445,662.0469 1053.7383,662.0469 Q1054.6758,662.0469 1055.332,661.7969 Q1055.7227,661.6406 1056.1445,661.2031 Q1056.4102,660.9375 1056.5508,660.8594 Q1056.707,660.7813 1056.9102,660.7813 Q1057.2383,660.7813 1057.4883,661.0469 Q1057.7539,661.2969 1057.7539,661.6406 Q1057.7539,661.9844 1057.4102,662.3906 Q1056.9102,662.9688 1056.1133,663.2969 Q1055.0352,663.75 1053.7383,663.75 Q1052.2227,663.75 1051.0195,663.125 Q1050.0352,662.625 1049.3477,661.5625 Q1048.6602,660.4844 1048.6602,659.2031 L1048.6602,658.0469 Q1048.6602,656.7188 1049.2695,655.5781 Q1049.8945,654.4219 1050.9883,653.8125 Q1052.082,653.1875 1053.3164,653.1875 Q1054.0508,653.1875 1054.6914,653.3594 Q1055.3477,653.5156 1055.8945,653.875 Z " fill="#000000"/><text fill="#000000" font-family="sans-serif" font-size="14" lengthAdjust="spacing" textLength="123.751" x="1073.6289" y="663.7969">CleanupEventEvent</text><line style="stroke:#181818;stroke-width:0.5;" x1="966" x2="1272.5088" y1="674" y2="674"/><polygon fill="none" points="976,684.8105,972,690.8105,980,690.8105" style="stroke:#1963A0;stroke-width:1.0;"/><text fill="#000000" font-family="sans-serif" font-size="14" lengthAdjust="spacing" textLength="282.5088" x="985" y="693.1074">cleanupevent_request: OneToOneField &#171;FK&#187;</text><ellipse cx="976" cy="707.4316" fill="none" rx="3" ry="3" style="stroke:#038048;stroke-width:1.0;"/><text fill="#000000" font-family="sans-serif" font-size="14" lengthAdjust="spacing" textLength="130.7305" x="985" y="711.7285">from_date: DateField</text><ellipse cx="976" cy="726.0527" fill="none" rx="3" ry="3" style="stroke:#038048;stroke-width:1.0;"/><text fill="#000000" font-family="sans-serif" font-size="14" lengthAdjust="spacing" textLength="149.4268" x="985" y="730.3496">to_date: DateField [0..1]</text><ellipse cx="976" cy="744.6738" fill="none" rx="3" ry="3" style="stroke:#038048;stroke-width:1.0;"/><text fill="#000000" font-family="sans-serif" font-size="14" lengthAdjust="spacing" textLength="116.7373" x="985" y="748.9707">area: PolygonField</text><line style="stroke:#181818;stroke-width:0.5;" x1="966" x2="1272.5088" y1="756.4844" y2="756.4844"/></g><!--class CleanupEventVenue--><g id="elem_CleanupEventVenue"><rect codeLine="80" fill="#F1F1F1" height="85.2422" id="CleanupEventVenue" rx="2.5" ry="2.5" style="stroke:#181818;stroke-width:0.5;" width="308.5088" x="621" y="660.5"/><ellipse cx="706.7876" cy="676.5" fill="#ADD1B2" rx="11" ry="11" style="stroke:#181818;stroke-width:1.0;"/><path d="M709.5532,672.375 Q709.7095,672.1563 709.897,672.0469 Q710.0845,671.9375 710.3032,671.9375 Q710.6782,671.9375 710.9126,672.2031 Q711.147,672.4531 711.147,673.0625 L711.147,674.5156 Q711.147,675.125 710.9126,675.3906 Q710.6782,675.6563 710.3032,675.6563 Q709.9595,675.6563 709.7563,675.4531 Q709.5532,675.2656 709.4438,674.75 Q709.397,674.3906 709.2095,674.2031 Q708.8813,673.8281 708.272,673.6094 Q707.6626,673.3906 707.0376,673.3906 Q706.272,673.3906 705.6313,673.7188 Q705.0063,674.0469 704.5063,674.7969 Q704.022,675.5469 704.022,676.5781 L704.022,677.6719 Q704.022,678.9063 704.9126,679.7344 Q705.8032,680.5469 707.397,680.5469 Q708.3345,680.5469 708.9907,680.2969 Q709.3813,680.1406 709.8032,679.7031 Q710.0688,679.4375 710.2095,679.3594 Q710.3657,679.2813 710.5688,679.2813 Q710.897,679.2813 711.147,679.5469 Q711.4126,679.7969 711.4126,680.1406 Q711.4126,680.4844 711.0688,680.8906 Q710.5688,681.4688 709.772,681.7969 Q708.6938,682.25 707.397,682.25 Q705.8813,682.25 704.6782,681.625 Q703.6938,681.125 703.0063,680.0625 Q702.3188,678.9844 702.3188,677.7031 L702.3188,676.5469 Q702.3188,675.2188 702.9282,674.0781 Q703.5532,672.9219 704.647,672.3125 Q705.7407,671.6875 706.9751,671.6875 Q707.7095,671.6875 708.3501,671.8594 Q709.0063,672.0156 709.5532,672.375 Z " fill="#000000"/><text fill="#000000" font-family="sans-serif" font-size="14" lengthAdjust="spacing" textLength="128.4336" x="727.2876" y="682.2969">CleanupEventVenue</text><line style="stroke:#181818;stroke-width:0.5;" x1="622" x2="928.5088" y1="692.5" y2="692.5"/><polygon fill="none" points="632,703.3105,628,709.3105,636,709.3105" style="stroke:#1963A0;stroke-width:1.0;"/><text fill="#000000" font-family="sans-serif" font-size="14" lengthAdjust="spacing" textLength="282.5088" x="641" y="711.6074">cleanupevent_request: OneToOneField &#171;FK&#187;</text><ellipse cx="632" cy="725.9316" fill="none" rx="3" ry="3" style="stroke:#038048;stroke-width:1.0;"/><text fill="#000000" font-family="sans-serif" font-size="14" lengthAdjust="spacing" textLength="103.5029" x="641" y="730.2285">place: PointField</text><line style="stroke:#181818;stroke-width:0.5;" x1="622" x2="928.5088" y1="737.7422" y2="737.7422"/></g><!--class CleanupEventDetails--><g id="elem_CleanupEventDetails"><rect codeLine="85" fill="#F1F1F1" height="141.1055" id="CleanupEventDetails" rx="2.5" ry="2.5" style="stroke:#181818;stroke-width:0.5;" width="308.5088" x="1892" y="281"/><ellipse cx="1976.6323" cy="297" fill="#ADD1B2" rx="11" ry="11" style="stroke:#181818;stroke-width:1.0;"/><path d="M1979.3979,292.875 Q1979.5542,292.6563 1979.7417,292.5469 Q1979.9292,292.4375 1980.1479,292.4375 Q1980.5229,292.4375 1980.7573,292.7031 Q1980.9917,292.9531 1980.9917,293.5625 L1980.9917,295.0156 Q1980.9917,295.625 1980.7573,295.8906 Q1980.5229,296.1563 1980.1479,296.1563 Q1979.8042,296.1563 1979.6011,295.9531 Q1979.3979,295.7656 1979.2886,295.25 Q1979.2417,294.8906 1979.0542,294.7031 Q1978.7261,294.3281 1978.1167,294.1094 Q1977.5073,293.8906 1976.8823,293.8906 Q1976.1167,293.8906 1975.4761,294.2188 Q1974.8511,294.5469 1974.3511,295.2969 Q1973.8667,296.0469 1973.8667,297.0781 L1973.8667,298.1719 Q1973.8667,299.4063 1974.7573,300.2344 Q1975.6479,301.0469 1977.2417,301.0469 Q1978.1792,301.0469 1978.8354,300.7969 Q1979.2261,300.6406 1979.6479,300.2031 Q1979.9136,299.9375 1980.0542,299.8594 Q1980.2104,299.7813 1980.4136,299.7813 Q1980.7417,299.7813 1980.9917,300.0469 Q1981.2573,300.2969 1981.2573,300.6406 Q1981.2573,300.9844 1980.9136,301.3906 Q1980.4136,301.9688 1979.6167,302.2969 Q1978.5386,302.75 1977.2417,302.75 Q1975.7261,302.75 1974.5229,302.125 Q1973.5386,301.625 1972.8511,300.5625 Q1972.1636,299.4844 1972.1636,298.2031 L1972.1636,297.0469 Q1972.1636,295.7188 1972.7729,294.5781 Q1973.3979,293.4219 1974.4917,292.8125 Q1975.5854,292.1875 1976.8198,292.1875 Q1977.5542,292.1875 1978.1948,292.3594 Q1978.8511,292.5156 1979.3979,292.875 Z " fill="#000000"/><text fill="#000000" font-family="sans-serif" font-size="14" lengthAdjust="spacing" textLength="130.7441" x="1997.1323" y="302.7969">CleanupEventDetails</text><line style="stroke:#181818;stroke-width:0.5;" x1="1893" x2="2199.5088" y1="313" y2="313"/><polygon fill="none" points="1903,323.8105,1899,329.8105,1907,329.8105" style="stroke:#1963A0;stroke-width:1.0;"/><text fill="#000000" font-family="sans-serif" font-size="14" lengthAdjust="spacing" textLength="282.5088" x="1912" y="332.1074">cleanupevent_request: OneToOneField &#171;FK&#187;</text><polygon fill="none" points="1903,342.4316,1899,348.4316,1907,348.4316" style="stroke:#1963A0;stroke-width:1.0;"/><text fill="#000000" font-family="sans-serif" font-size="14" lengthAdjust="spacing" textLength="210.1162" x="1912" y="350.7285">waste_quantity: ForeignKey &#171;FK&#187;</text><polygon fill="none" points="1903,360.0527,1907,364.0527,1903,368.0527,1899,364.0527" style="stroke:#B38D22;stroke-width:1.0;"/><text fill="#000000" font-family="sans-serif" font-size="14" lengthAdjust="spacing" textLength="235.7715" x="1912" y="369.3496">waste_types: ManyToManyField [0..1]</text><ellipse cx="1903" cy="383.6738" fill="none" rx="3" ry="3" style="stroke:#038048;stroke-width:1.0;"/><text fill="#000000" font-family="sans-serif" font-size="14" lengthAdjust="spacing" textLength="254.4883" x="1912" y="387.9707">waste_types_annotation: CharField [0..1]</text><polygon fill="none" points="1903,397.2949,1907,401.2949,1903,405.2949,1899,401.2949" style="stroke:#B38D22;stroke-width:1.0;"/><text fill="#000000" font-family="sans-serif" font-size="14" lengthAdjust="spacing" textLength="230.3301" x="1912" y="406.5918">equipments: ManyToManyField [0..1]</text><line style="stroke:#181818;stroke-width:0.5;" x1="1893" x2="2199.5088" y1="414.1055" y2="414.1055"/></g><!--class CleanupEventContainer--><g id="elem_CleanupEventContainer"><rect codeLine="93" fill="#F1F1F1" height="122.4844" id="CleanupEventContainer" rx="2.5" ry="2.5" style="stroke:#181818;stroke-width:0.5;" width="271.1572" x="9" y="642"/><ellipse cx="66.0015" cy="658" fill="#ADD1B2" rx="11" ry="11" style="stroke:#181818;stroke-width:1.0;"/><path d="M68.7671,653.875 Q68.9233,653.6563 69.1108,653.5469 Q69.2983,653.4375 69.5171,653.4375 Q69.8921,653.4375 70.1265,653.7031 Q70.3608,653.9531 70.3608,654.5625 L70.3608,656.0156 Q70.3608,656.625 70.1265,656.8906 Q69.8921,657.1563 69.5171,657.1563 Q69.1733,657.1563 68.9702,656.9531 Q68.7671,656.7656 68.6577,656.25 Q68.6108,655.8906 68.4233,655.7031 Q68.0952,655.3281 67.4858,655.1094 Q66.8765,654.8906 66.2515,654.8906 Q65.4858,654.8906 64.8452,655.2188 Q64.2202,655.5469 63.7202,656.2969 Q63.2358,657.0469 63.2358,658.0781 L63.2358,659.1719 Q63.2358,660.4063 64.1265,661.2344 Q65.0171,662.0469 66.6108,662.0469 Q67.5483,662.0469 68.2046,661.7969 Q68.5952,661.6406 69.0171,661.2031 Q69.2827,660.9375 69.4233,660.8594 Q69.5796,660.7813 69.7827,660.7813 Q70.1108,660.7813 70.3608,661.0469 Q70.6265,661.2969 70.6265,661.6406 Q70.6265,661.9844 70.2827,662.3906 Q69.7827,662.9688 68.9858,663.2969 Q67.9077,663.75 66.6108,663.75 Q65.0952,663.75 63.8921,663.125 Q62.9077,662.625 62.2202,661.5625 Q61.5327,660.4844 61.5327,659.2031 L61.5327,658.0469 Q61.5327,656.7188 62.1421,655.5781 Q62.7671,654.4219 63.8608,653.8125 Q64.9546,653.1875 66.189,653.1875 Q66.9233,653.1875 67.564,653.3594 Q68.2202,653.5156 68.7671,653.875 Z " fill="#000000"/><text fill="#000000" font-family="sans-serif" font-size="14" lengthAdjust="spacing" textLength="148.6543" x="86.5015" y="663.7969">CleanupEventContainer</text><line style="stroke:#181818;stroke-width:0.5;" x1="10" x2="279.1572" y1="674" y2="674"/><polygon fill="none" points="20,684.8105,16,690.8105,24,690.8105" style="stroke:#1963A0;stroke-width:1.0;"/><text fill="#000000" font-family="sans-serif" font-size="14" lengthAdjust="spacing" textLength="245.1572" x="29" y="693.1074">cleanupevent_request: OneToOneField</text><ellipse cx="20" cy="707.4316" fill="none" rx="3" ry="3" style="stroke:#038048;stroke-width:1.0;"/><text fill="#000000" font-family="sans-serif" font-size="14" lengthAdjust="spacing" textLength="150.9717" x="29" y="711.7285">delivery_date: DateField</text><ellipse cx="20" cy="726.0527" fill="none" rx="3" ry="3" style="stroke:#038048;stroke-width:1.0;"/><text fill="#000000" font-family="sans-serif" font-size="14" lengthAdjust="spacing" textLength="143.1992" x="29" y="730.3496">pickup_date: DateField</text><ellipse cx="20" cy="744.6738" fill="none" rx="3" ry="3" style="stroke:#038048;stroke-width:1.0;"/><text fill="#000000" font-family="sans-serif" font-size="14" lengthAdjust="spacing" textLength="103.5029" x="29" y="748.9707">place: PointField</text><line style="stroke:#181818;stroke-width:0.5;" x1="10" x2="279.1572" y1="756.4844" y2="756.4844"/></g><!--class CleanupEventDump--><g id="elem_CleanupEventDump"><rect codeLine="100" fill="#F1F1F1" height="85.2422" id="CleanupEventDump" rx="2.5" ry="2.5" style="stroke:#181818;stroke-width:0.5;" width="271.1572" x="315" y="660.5"/><ellipse cx="383.6807" cy="676.5" fill="#ADD1B2" rx="11" ry="11" style="stroke:#181818;stroke-width:1.0;"/><path d="M386.4463,672.375 Q386.6025,672.1563 386.79,672.0469 Q386.9775,671.9375 387.1963,671.9375 Q387.5713,671.9375 387.8057,672.2031 Q388.04,672.4531 388.04,673.0625 L388.04,674.5156 Q388.04,675.125 387.8057,675.3906 Q387.5713,675.6563 387.1963,675.6563 Q386.8525,675.6563 386.6494,675.4531 Q386.4463,675.2656 386.3369,674.75 Q386.29,674.3906 386.1025,674.2031 Q385.7744,673.8281 385.165,673.6094 Q384.5557,673.3906 383.9307,673.3906 Q383.165,673.3906 382.5244,673.7188 Q381.8994,674.0469 381.3994,674.7969 Q380.915,675.5469 380.915,676.5781 L380.915,677.6719 Q380.915,678.9063 381.8057,679.7344 Q382.6963,680.5469 384.29,680.5469 Q385.2275,680.5469 385.8838,680.2969 Q386.2744,680.1406 386.6963,679.7031 Q386.9619,679.4375 387.1025,679.3594 Q387.2588,679.2813 387.4619,679.2813 Q387.79,679.2813 388.04,679.5469 Q388.3057,679.7969 388.3057,680.1406 Q388.3057,680.4844 387.9619,680.8906 Q387.4619,681.4688 386.665,681.7969 Q385.5869,682.25 384.29,682.25 Q382.7744,682.25 381.5713,681.625 Q380.5869,681.125 379.8994,680.0625 Q379.2119,678.9844 379.2119,677.7031 L379.2119,676.5469 Q379.2119,675.2188 379.8213,674.0781 Q380.4463,672.9219 381.54,672.3125 Q382.6338,671.6875 383.8682,671.6875 Q384.6025,671.6875 385.2432,671.8594 Q385.8994,672.0156 386.4463,672.375 Z " fill="#000000"/><text fill="#000000" font-family="sans-serif" font-size="14" lengthAdjust="spacing" textLength="125.2959" x="404.1807" y="682.2969">CleanupEventDump</text><line style="stroke:#181818;stroke-width:0.5;" x1="316" x2="585.1572" y1="692.5" y2="692.5"/><polygon fill="none" points="326,703.3105,322,709.3105,330,709.3105" style="stroke:#1963A0;stroke-width:1.0;"/><text fill="#000000" font-family="sans-serif" font-size="14" lengthAdjust="spacing" textLength="245.1572" x="335" y="711.6074">cleanupevent_request: OneToOneField</text><ellipse cx="326" cy="725.9316" fill="none" rx="3" ry="3" style="stroke:#038048;stroke-width:1.0;"/><text fill="#000000" font-family="sans-serif" font-size="14" lengthAdjust="spacing" textLength="103.5029" x="335" y="730.2285">place: PointField</text><line style="stroke:#181818;stroke-width:0.5;" x1="316" x2="585.1572" y1="737.7422" y2="737.7422"/></g><!--reverse link Base to Codelist--><g id="link_Base_Codelist"><path codeLine="105" d="M2167.5907,124.6589 C2218.0807,180.8489 2286.09,256.55 2332.93,308.68 " fill="none" id="Base-backto-Codelist" style="stroke:#181818;stroke-width:1.0;"/><polygon fill="none" points="2155.56,111.27,2163.1277,128.6691,2172.0537,120.6487,2155.56,111.27" style="stroke:#181818;stroke-width:1.0;"/></g><!--reverse link Base to Object--><g id="link_Base_Object"><path codeLine="106" d="M2002.9981,90.7891 C1899.6081,120.6791 1751.46,163.5 1678.76,184.52 " fill="none" id="Base-backto-Object" style="stroke:#181818;stroke-width:1.0;"/><polygon fill="none" points="2020.29,85.79,2001.3318,85.0251,2004.6645,96.553,2020.29,85.79" style="stroke:#181818;stroke-width:1.0;"/></g><!--reverse link Object to GeometryObject--><g id="link_Object_GeometryObject"><path codeLine="107" d="M1588.7374,207.7191 C1468.3974,231.7091 1097.34,305.68 939.77,337.09 " fill="none" id="Object-backto-GeometryObject" style="stroke:#181818;stroke-width:1.0;"/><polygon fill="none" points="1606.39,204.2,1587.5643,201.8349,1589.9104,213.6033,1606.39,204.2" style="stroke:#181818;stroke-width:1.0;"/></g><!--reverse link Codelist to CodelistRequestStatus--><g id="link_Codelist_CodelistRequestStatus"><path codeLine="108" d="M2294.2454,404.6819 C2270.3254,421.7419 2257.79,431.75 2234.5,452 C2185.88,494.28 2183.44,515.28 2133.5,556 C2114.29,571.66 2105.43,570 2086.5,586 C2056.62,611.25 2027.14,644.79 2007.05,669.32 " fill="none" id="Codelist-backto-CodelistRequestStatus" style="stroke:#181818;stroke-width:1.0;"/><polygon fill="none" points="2308.9,394.23,2290.7614,399.797,2297.7293,409.5667,2308.9,394.23" style="stroke:#181818;stroke-width:1.0;"/></g><!--reverse link Codelist to CleanupEventCodelistWasteQuantity--><g id="link_Codelist_CleanupEventCodelistWasteQuantity"><path codeLine="109" d="M2394.1028,411.0034 C2423.9928,485.1134 2478.61,620.47 2502.08,678.65 " fill="none" id="Codelist-backto-CleanupEventCodelistWasteQuantity" style="stroke:#181818;stroke-width:1.0;"/><polygon fill="none" points="2387.37,394.31,2388.5383,413.2477,2399.6672,408.7591,2387.37,394.31" style="stroke:#181818;stroke-width:1.0;"/></g><!--reverse link Codelist to CleanupEventCodelistWasteType--><g id="link_Codelist_CleanupEventCodelistWasteType"><path codeLine="110" d="M2308.9511,407.2268 C2292.6511,423.6268 2288.53,430.82 2277.5,452 C2237.63,528.53 2227.75,633.08 2225.3,678.9 " fill="none" id="Codelist-backto-CleanupEventCodelistWasteType" style="stroke:#181818;stroke-width:1.0;"/><polygon fill="none" points="2321.64,394.46,2304.6955,402.9971,2313.2067,411.4564,2321.64,394.46" style="stroke:#181818;stroke-width:1.0;"/></g><!--reverse link Codelist to CleanupEventCodelistEquipment--><g id="link_Codelist_CleanupEventCodelistEquipment"><path codeLine="111" d="M2474.4657,401.138 C2498.2757,411.338 2507.78,414.4 2532.5,422 C2599.57,442.62 2632.74,408.13 2687.5,452 C2760.85,510.76 2785.99,628.71 2793.58,678.72 " fill="none" id="Codelist-backto-CleanupEventCodelistEquipment" style="stroke:#181818;stroke-width:1.0;"/><polygon fill="none" points="2457.92,394.05,2472.103,406.6533,2476.8284,395.6228,2457.92,394.05" style="stroke:#181818;stroke-width:1.0;"/></g><!--reverse link Object to Authority--><g id="link_Object_Authority"><path codeLine="112" d="M1696.7331,199.2798 C1841.5631,205.5598 2360.64,231.05 2522.5,281 C2650.54,320.51 2783.82,403.57 2860.49,456.13 " fill="none" id="Object-backto-Authority" style="stroke:#181818;stroke-width:1.0;"/><polygon fill="none" points="1678.75,198.5,1696.4732,205.2741,1696.993,193.2854,1678.75,198.5" style="stroke:#181818;stroke-width:1.0;"/></g><!--reverse link Object to Email--><g id="link_Object_Email"><path codeLine="113" d="M1588.046,198.3063 C1444.886,202.0163 939.67,219.16 787.5,281 C776.22,285.59 765.22,292.12 755.05,299.37 " fill="none" id="Object-backto-Email" style="stroke:#181818;stroke-width:1.0;"/><polygon fill="none" points="1606.04,197.84,1587.8906,192.3083,1588.2015,204.3043,1606.04,197.84" style="stroke:#181818;stroke-width:1.0;"/></g><!--reverse link Object to Requester--><g id="link_Object_Requester"><path codeLine="114" d="M1590.4011,221.1395 C1563.1811,235.0895 1543.27,249.82 1523.5,281 C1465.58,372.35 1449.63,496.15 1446.63,585.83 " fill="none" id="Object-backto-Requester" style="stroke:#181818;stroke-width:1.0;"/><polygon fill="none" points="1606.42,212.93,1587.6646,215.7999,1593.1376,226.4791,1606.42,212.93" style="stroke:#181818;stroke-width:1.0;"/></g><!--reverse link Object to Request--><g id="link_Object_Request"><path codeLine="115" d="M1642.5,238.31 C1642.5,259.2 1642.5,272.56 1642.5,299.27 " fill="none" id="Object-backto-Request" style="stroke:#181818;stroke-width:1.0;"/><polygon fill="none" points="1642.5,220.31,1636.5,238.31,1648.5,238.31,1642.5,220.31" style="stroke:#181818;stroke-width:1.0;"/></g><!--link Request to CodelistRequestStatus--><g id="link_Request_CodelistRequestStatus"><path codeLine="116" d="M1692.16,403.69 C1762.78,476.5 1886.0423,603.5934 1945.3523,664.7334 " fill="none" id="Request-to-CodelistRequestStatus" style="stroke:#181818;stroke-width:1.0;"/><polygon fill="#181818" points="1949.53,669.04,1946.1345,659.795,1946.0486,665.4512,1940.3924,665.3652,1949.53,669.04" style="stroke:#181818;stroke-width:1.0;"/><text fill="#000000" font-family="sans-serif" font-size="13" lengthAdjust="spacing" textLength="34.6836" x="1832.5" y="509.5283">status</text></g><!--link Request to Requester--><g id="link_Request_Requester"><path codeLine="117" d="M1595.86,403.68 C1583.49,418.64 1570.74,435.43 1560.5,452 C1534.72,493.71 1514.0175,536.914 1495.6975,580.224 " fill="none" id="Request-to-Requester" style="stroke:#181818;stroke-width:1.0;"/><polygon fill="#181818" points="1493.36,585.75,1500.5502,579.0194,1495.3079,581.145,1493.1822,575.9027,1493.36,585.75" style="stroke:#181818;stroke-width:1.0;"/><text fill="#000000" font-family="sans-serif" font-size="13" lengthAdjust="spacing" textLength="54.9199" x="1561.5" y="509.5283">requester</text></g><!--reverse link Request to CleanupEventRequest--><g id="link_Request_CleanupEventRequest"><path codeLine="118" d="M1660.1234,421.2623 C1681.8834,515.9023 1708.4,701.76 1606.5,820 C1561.59,872.11 1385.36,902.45 1257.79,918 " fill="none" id="Request-backto-CleanupEventRequest" style="stroke:#181818;stroke-width:1.0;"/><polygon fill="none" points="1656.09,403.72,1654.276,422.6067,1665.9708,419.9178,1656.09,403.72" style="stroke:#181818;stroke-width:1.0;"/></g><!--link CleanupEventRequest to CleanupEventResponsibilities--><g id="link_CleanupEventRequest_CleanupEventResponsibilities"><path codeLine="119" d="M1257.83,955.13 C1431.77,982.33 1728.72,1028.77 1903.46,1056.1 " fill="none" id="CleanupEventRequest-CleanupEventResponsibilities" style="stroke:#181818;stroke-width:1.0;"/><text fill="#000000" font-family="sans-serif" font-size="13" lengthAdjust="spacing" textLength="7.23" x="1265.1549" y="952.9042">1</text><text fill="#000000" font-family="sans-serif" font-size="13" lengthAdjust="spacing" textLength="19.5127" x="1875.8152" y="1051.3254">0..*</text></g><!--link Authority to CleanupEventResponsibilities--><g id="link_Authority_CleanupEventResponsibilities"><path codeLine="120" d="M2944.24,556.08 C2965.47,623.68 2990.15,743.24 2932.5,820 C2842.38,939.99 2410.66,1022.21 2183.68,1057.92 " fill="none" id="Authority-CleanupEventResponsibilities" style="stroke:#181818;stroke-width:1.0;"/><text fill="#000000" font-family="sans-serif" font-size="13" lengthAdjust="spacing" textLength="7.23" x="2939.1897" y="577.8975">1</text><text fill="#000000" font-family="sans-serif" font-size="13" lengthAdjust="spacing" textLength="19.5127" x="2191.8661" y="1053.3424">0..*</text></g><!--reverse link GeometryObject to CleanupEventEvent--><g id="link_GeometryObject_CleanupEventEvent"><path codeLine="121" d="M899.2879,390.4 C937.1579,443.99 1021.33,563.09 1076.89,641.71 " fill="none" id="GeometryObject-backto-CleanupEventEvent" style="stroke:#181818;stroke-width:1.0;"/><polygon fill="none" points="888.9,375.7,894.3879,393.8627,904.1879,386.9374,888.9,375.7" style="stroke:#181818;stroke-width:1.0;"/></g><!--link CleanupEventEvent to CleanupEventRequest--><g id="link_CleanupEventEvent_CleanupEventRequest"><path codeLine="122" d="M1119.5,764.07 C1119.5,807.25 1119.5,857.82 1119.5,892.9 " fill="none" id="CleanupEventEvent-to-CleanupEventRequest" style="stroke:#181818;stroke-width:1.0;"/><polygon fill="#181818" points="1119.5,898.9,1123.5,889.9,1119.5,893.9,1115.5,889.9,1119.5,898.9" style="stroke:#181818;stroke-width:1.0;"/><text fill="#000000" font-family="sans-serif" font-size="13" lengthAdjust="spacing" textLength="127.9307" x="1120.5" y="865.0283">cleanupevent_request</text></g><!--reverse link GeometryObject to CleanupEventVenue--><g id="link_GeometryObject_CleanupEventVenue"><path codeLine="123" d="M861.2469,393.0446 C845.1269,451.1346 807.66,586.11 787.09,660.26 " fill="none" id="GeometryObject-backto-CleanupEventVenue" style="stroke:#181818;stroke-width:1.0;"/><polygon fill="none" points="866.06,375.7,855.4654,391.4402,867.0284,394.6489,866.06,375.7" style="stroke:#181818;stroke-width:1.0;"/></g><!--link CleanupEventVenue to CleanupEventRequest--><g id="link_CleanupEventVenue_CleanupEventRequest"><path codeLine="124" d="M821.15,745.83 C861.56,781.48 923.16,832.58 982.5,869 C1000.21,879.87 1014.6953,887.4991 1033.7453,896.3191 " fill="none" id="CleanupEventVenue-to-CleanupEventRequest" style="stroke:#181818;stroke-width:1.0;"/><polygon fill="#181818" points="1039.19,898.84,1032.7035,891.4289,1034.6527,896.7393,1029.3423,898.6885,1039.19,898.84" style="stroke:#181818;stroke-width:1.0;"/><text fill="#000000" font-family="sans-serif" font-size="13" lengthAdjust="spacing" textLength="127.9307" x="983.5" y="865.0283">cleanupevent_request</text></g><!--reverse link Object to CleanupEventDetails--><g id="link_Object_CleanupEventDetails"><path codeLine="125" d="M1695.5365,217.1529 C1743.4665,235.3629 1814.18,262.23 1891.83,291.73 " fill="none" id="Object-backto-CleanupEventDetails" style="stroke:#181818;stroke-width:1.0;"/><polygon fill="none" points="1678.71,210.76,1693.4055,222.7617,1697.6675,211.544,1678.71,210.76" style="stroke:#181818;stroke-width:1.0;"/></g><!--link CleanupEventDetails to CleanupEventRequest--><g id="link_CleanupEventDetails_CleanupEventRequest"><path codeLine="126" d="M1891.88,373.87 C1841.11,388.19 1788.52,412.11 1752.5,452 C1640.07,576.51 1773.66,689.28 1668.5,820 C1618.02,882.76 1409.0393,910.4823 1263.5593,922.5923 " fill="none" id="CleanupEventDetails-to-CleanupEventRequest" style="stroke:#181818;stroke-width:1.0;"/><polygon fill="#181818" points="1257.58,923.09,1266.8808,926.3296,1262.5628,922.6752,1266.2172,918.3572,1257.58,923.09" style="stroke:#181818;stroke-width:1.0;"/><text fill="#000000" font-family="sans-serif" font-size="13" lengthAdjust="spacing" textLength="127.9307" x="1713.5" y="708.5283">cleanupevent_request</text></g><!--link CleanupEventDetails to CleanupEventCodelistWasteQuantity--><g id="link_CleanupEventDetails_CleanupEventCodelistWasteQuantity"><path codeLine="127" d="M2185.82,422.13 C2200.4,431.44 2214.59,441.44 2227.5,452 C2274.37,490.34 2269.91,516.15 2315.5,556 C2334.16,572.31 2342.26,571.71 2362.5,586 C2405.88,616.63 2449.3765,651.1625 2478.8765,675.1725 " fill="none" id="CleanupEventDetails-to-CleanupEventCodelistWasteQuantity" style="stroke:#181818;stroke-width:1.0;"/><polygon fill="#181818" points="2483.53,678.96,2479.0747,670.1765,2479.6521,675.8038,2474.0248,676.3811,2483.53,678.96" style="stroke:#181818;stroke-width:1.0;"/><text fill="#000000" font-family="sans-serif" font-size="13" lengthAdjust="spacing" textLength="86.7217" x="2316.5" y="509.5283">waste_quantity</text></g><!--link CleanupEventDetails to CleanupEventCodelistWasteType--><g id="link_CleanupEventDetails_CleanupEventCodelistWasteType"><path codeLine="128" d="M2087.5361,433.083 C2128.0161,512.563 2181.0047,616.5866 2207.2247,668.0766 " fill="none" id="CleanupEventDetails-CleanupEventCodelistWasteType" style="stroke:#181818;stroke-width:1.0;"/><polygon fill="#181818" points="2082.09,422.39,2081.2487,429.5519,2087.5361,433.083,2088.3774,425.9212,2082.09,422.39" style="stroke:#181818;stroke-width:1.0;"/><polygon fill="#181818" points="2212.67,678.77,2213.5118,671.6082,2207.2247,668.0766,2206.3829,675.2384,2212.67,678.77" style="stroke:#181818;stroke-width:1.0;"/><text fill="#000000" font-family="sans-serif" font-size="13" lengthAdjust="spacing" textLength="72.2617" x="2146.5" y="509.5283">waste_types</text></g><!--link CleanupEventDetails to CleanupEventCodelistEquipment--><g id="link_CleanupEventDetails_CleanupEventCodelistEquipment"><path codeLine="129" d="M2212.551,420.4582 C2218.391,422.2882 2212.76,420.42 2218.5,422 C2302.18,445.08 2329.21,424.37 2411.5,452 C2441.28,462 2634.57,568.26 2660.5,586 C2702.51,614.74 2737.7785,646.0283 2763.9785,670.7283 " fill="none" id="CleanupEventDetails-CleanupEventCodelistEquipment" style="stroke:#181818;stroke-width:1.0;"/><polygon fill="#181818" points="2201.1,416.87,2205.6294,422.4811,2212.551,420.4582,2208.0216,414.8471,2201.1,416.87" style="stroke:#181818;stroke-width:1.0;"/><polygon fill="#181818" points="2772.71,678.96,2771.0881,671.9337,2763.9785,670.7283,2765.6003,677.7547,2772.71,678.96" style="stroke:#181818;stroke-width:1.0;"/><text fill="#000000" font-family="sans-serif" font-size="13" lengthAdjust="spacing" textLength="67.209" x="2607.5" y="509.5283">equipments</text></g><!--reverse link GeometryObject to CleanupEventContainer--><g id="link_GeometryObject_CleanupEventContainer"><path codeLine="130" d="M837.5918,388.2944 C821.5818,403.8044 811.52,410.81 787.5,422 C722.31,452.37 697.5,431.74 628.5,452 C476.22,496.71 435.49,507.6 297.5,586 C269.39,601.97 240.61,622.5 215.71,641.83 " fill="none" id="GeometryObject-backto-CleanupEventContainer" style="stroke:#181818;stroke-width:1.0;"/><polygon fill="none" points="850.52,375.77,833.417,383.985,841.7666,392.6038,850.52,375.77" style="stroke:#181818;stroke-width:1.0;"/></g><!--link CleanupEventContainer to CleanupEventRequest--><g id="link_CleanupEventContainer_CleanupEventRequest"><path codeLine="131" d="M209.93,764.03 C235.58,784.64 266.32,806.02 297.5,820 C416.75,873.47 774.1168,906.7219 975.4868,921.8019 " fill="none" id="CleanupEventContainer-to-CleanupEventRequest" style="stroke:#181818;stroke-width:1.0;"/><polygon fill="#181818" points="981.47,922.25,972.7938,917.5891,976.484,921.8766,972.1964,925.5667,981.47,922.25" style="stroke:#181818;stroke-width:1.0;"/><text fill="#000000" font-family="sans-serif" font-size="13" lengthAdjust="spacing" textLength="127.9307" x="488.5" y="865.0283">cleanupevent_request</text></g><!--reverse link GeometryObject to CleanupEventDump--><g id="link_GeometryObject_CleanupEventDump"><path codeLine="132" d="M830.6179,387.1822 C760.4879,445.2722 590.43,586.11 500.9,660.26 " fill="none" id="GeometryObject-backto-CleanupEventDump" style="stroke:#181818;stroke-width:1.0;"/><polygon fill="none" points="844.48,375.7,826.7905,382.5615,834.4453,391.8029,844.48,375.7" style="stroke:#181818;stroke-width:1.0;"/></g><!--link CleanupEventDump to CleanupEventRequest--><g id="link_CleanupEventDump_CleanupEventRequest"><path codeLine="133" d="M494.67,745.67 C523.57,770.74 563.29,801.32 603.5,820 C724.33,876.14 868.3807,903.6915 975.4507,917.7015 " fill="none" id="CleanupEventDump-to-CleanupEventRequest" style="stroke:#181818;stroke-width:1.0;"/><polygon fill="#181818" points="981.4,918.48,972.995,913.3461,976.4423,917.8313,971.9571,921.2785,981.4,918.48" style="stroke:#181818;stroke-width:1.0;"/><text fill="#000000" font-family="sans-serif" font-size="13" lengthAdjust="spacing" textLength="127.9307" x="726.5" y="865.0283">cleanupevent_request</text></g><!--SRC=[hLPRJzim57xFhx3A6rFHU8qGqYWmJMY2GRKzJ5Fa9eVM8_49jiEMNVhRPxjEcelJj6WlYNJEvtFtTqmNKWaQAnAdL4foGIMGtm4XRmXBGdB1bkyAXTSCqeISdTtTd9zRNIo0Aj20I_sRimmimgeoJDWZw-l-1W5j-vfX0YcJolb3aJ1Eqv3SeMIAlS13HjFq0rUm1B69uElRavFJRnRDQGOXcQse639_k_WEiJ7ULxq7p429iWbfntGFpmL8zQ2eAcHLa1XvmsKLpVPi2fGN-TKBS5NP-KAbWay5vOgfikLe23mlSnW3NZqNBC-qe0dKZLgXsBWnuIu55dcpHBwo6HbabAMTMcvCNXcDC_S4PVUWB6pzkk859XewXv-gOyuL5OGpMKWGaHcpgkD3pKQnf9pzeefvEs0WZqn85NNIQm9q13lrhWesvMqk2bB8LyXxHQD98a3AICyLW1gmMO5Mg5EDU94jG8n0SvIAfb6iEps6J6aC_ddiZBkhkwtwcaWxqo6vHW5ioM-Wr3VxkhxPc9d1ylfU4r5rq7VSEx9DtqVwlCoHIxPWgMuuw2W-KbxEqNp7BzLzvxHBADv0m40Y5w4_lJMXrIKPob-tNu_O1Q8nsfdVPYpsipE0Mmvpr9-AF6iNZmApAD7akA78nh1XLzpgk-PSSrNISecx8liCl83NHUP6wWuPLpiyN8BIbqI-niUQ_30a5pqxIlItuSYXbER2uHan4JTm4UKSrJ17716eQFF0kPiXrmbpnrjxPMo3CsJz0gBqDZjdyLEH-rLxjg78yWCZybgsE__iptHQRx-6QBCY0xSfhQYzFODwZRTCj1Pe5pEsAFV5crsv1xPUbwqqwdtPabh-RqdghUMJ1XM_JQVd0u-7q35k2xfTXU6ML6j4BvFAcuzP9wSJRP9Cz00VJtRoPR1z8XnmgFDOwiLcFq6V6sr5FF66tcaTTMDfBUWJtO5kXimxJWjyF7UWYtrC-D-7OOSTlQQEfzFZaUTZsEJ5munidvPXWoz7krDJPE0dplyy38RwWXuN7kZa7m00]--></g></svg>