<svg xmlns="http://www.w3.org/2000/svg" xmlns:xlink="http://www.w3.org/1999/xlink" contentStyleType="text/css" height="1302px" preserveAspectRatio="none" style="width:3119px;height:1302px;background:#FFFFFF;" version="1.1" viewBox="0 0 3119 1302" width="3119px" zoomAndPan="magnify"><defs/><g><!--class Base--><g id="elem_Base"><rect codeLine="2" fill="#F1F1F1" height="103.8633" id="Base" rx="2.5" ry="2.5" style="stroke:#181818;stroke-width:0.5;" width="177.7236" x="613.5" y="7"/><ellipse cx="682.1567" cy="23" fill="#A9DCDF" rx="11" ry="11" style="stroke:#181818;stroke-width:1.0;"/><path d="M684.3442,24.7656 L680.2036,24.7656 L679.7817,25.7969 L680.2036,25.7969 Q680.813,25.7969 681.0786,26.0313 Q681.3442,26.2656 681.3442,26.6563 Q681.3442,27.0313 681.0786,27.2656 Q680.813,27.5 680.2036,27.5 L677.9067,27.5 Q677.2974,27.5 677.0474,27.2656 Q676.7817,27.0313 676.7817,26.6406 Q676.7817,26.2656 677.063,26.0313 Q677.3286,25.7813 677.9536,25.7969 L680.6255,19.1406 L679.5161,19.1406 Q678.9067,19.1406 678.6411,18.9063 Q678.3755,18.6719 678.3755,18.2813 Q678.3755,17.9063 678.6411,17.6719 Q678.9067,17.4375 679.5161,17.4375 L683.188,17.4375 L686.5786,25.7969 Q687.1724,25.7969 687.3599,25.9375 Q687.7505,26.2031 687.7505,26.6563 Q687.7505,27.0313 687.4849,27.2656 Q687.2349,27.5 686.6255,27.5 L684.3286,27.5 Q683.7192,27.5 683.4536,27.2656 Q683.188,27.0313 683.188,26.6406 Q683.188,26.2656 683.4536,26.0313 Q683.7192,25.7969 684.3286,25.7969 L684.7505,25.7969 L684.3442,24.7656 Z M683.6255,23.0625 L682.2661,19.6875 L680.8911,23.0625 L683.6255,23.0625 Z " fill="#000000"/><text fill="#000000" font-family="sans-serif" font-size="14" font-style="italic" lengthAdjust="spacing" textLength="31.9102" x="702.6567" y="28.7969">Base</text><line style="stroke:#181818;stroke-width:0.5;" x1="614.5" x2="790.2236" y1="39" y2="39"/><ellipse cx="624.5" cy="53.8105" fill="none" rx="3" ry="3" style="stroke:#038048;stroke-width:1.0;"/><text fill="#000000" font-family="sans-serif" font-size="14" lengthAdjust="spacing" textLength="136.1924" x="633.5" y="58.1074">id: BigAutoField &#171;PK&#187;</text><ellipse cx="624.5" cy="72.4316" fill="none" rx="3" ry="3" style="stroke:#038048;stroke-width:1.0;"/><text fill="#000000" font-family="sans-serif" font-size="14" lengthAdjust="spacing" textLength="145.5029" x="633.5" y="76.7285">created: DateTimeField</text><ellipse cx="624.5" cy="91.0527" fill="none" rx="3" ry="3" style="stroke:#038048;stroke-width:1.0;"/><text fill="#000000" font-family="sans-serif" font-size="14" lengthAdjust="spacing" textLength="151.7236" x="633.5" y="95.3496">modified: DateTimeField</text><line style="stroke:#181818;stroke-width:0.5;" x1="614.5" x2="790.2236" y1="102.8633" y2="102.8633"/></g><!--class Codelist--><g id="elem_Codelist"><rect codeLine="8" fill="#F1F1F1" height="85.2422" id="Codelist" rx="2.5" ry="2.5" style="stroke:#181818;stroke-width:0.5;" width="268.7852" x="381" y="309"/><ellipse cx="485.853" cy="325" fill="#A9DCDF" rx="11" ry="11" style="stroke:#181818;stroke-width:1.0;"/><path d="M488.0405,326.7656 L483.8999,326.7656 L483.478,327.7969 L483.8999,327.7969 Q484.5093,327.7969 484.7749,328.0313 Q485.0405,328.2656 485.0405,328.6563 Q485.0405,329.0313 484.7749,329.2656 Q484.5093,329.5 483.8999,329.5 L481.603,329.5 Q480.9937,329.5 480.7437,329.2656 Q480.478,329.0313 480.478,328.6406 Q480.478,328.2656 480.7593,328.0313 Q481.0249,327.7813 481.6499,327.7969 L484.3218,321.1406 L483.2124,321.1406 Q482.603,321.1406 482.3374,320.9063 Q482.0718,320.6719 482.0718,320.2813 Q482.0718,319.9063 482.3374,319.6719 Q482.603,319.4375 483.2124,319.4375 L486.8843,319.4375 L490.2749,327.7969 Q490.8687,327.7969 491.0562,327.9375 Q491.4468,328.2031 491.4468,328.6563 Q491.4468,329.0313 491.1812,329.2656 Q490.9312,329.5 490.3218,329.5 L488.0249,329.5 Q487.4155,329.5 487.1499,329.2656 Q486.8843,329.0313 486.8843,328.6406 Q486.8843,328.2656 487.1499,328.0313 Q487.4155,327.7969 488.0249,327.7969 L488.4468,327.7969 L488.0405,326.7656 Z M487.3218,325.0625 L485.9624,321.6875 L484.5874,325.0625 L487.3218,325.0625 Z " fill="#000000"/><text fill="#000000" font-family="sans-serif" font-size="14" font-style="italic" lengthAdjust="spacing" textLength="50.5791" x="506.353" y="330.7969">Codelist</text><line style="stroke:#181818;stroke-width:0.5;" x1="382" x2="648.7852" y1="341" y2="341"/><ellipse cx="392" cy="355.8105" fill="none" rx="3" ry="3" style="stroke:#038048;stroke-width:1.0;"/><text fill="#000000" font-family="sans-serif" font-size="14" lengthAdjust="spacing" textLength="242.7852" x="401" y="360.1074">ordinal: PositiveSmallIntegerField [0..1]</text><ellipse cx="392" cy="374.4316" fill="none" rx="3" ry="3" style="stroke:#038048;stroke-width:1.0;"/><text fill="#000000" font-family="sans-serif" font-size="14" lengthAdjust="spacing" textLength="103.4893" x="401" y="378.7285">name: CharField</text><line style="stroke:#181818;stroke-width:0.5;" x1="382" x2="648.7852" y1="386.2422" y2="386.2422"/></g><!--class Object--><g id="elem_Object"><rect codeLine="13" fill="#F1F1F1" height="48" id="Object" rx="2.5" ry="2.5" style="stroke:#181818;stroke-width:0.5;" width="72.4619" x="1245.5" y="172"/><ellipse cx="1260.5" cy="188" fill="#A9DCDF" rx="11" ry="11" style="stroke:#181818;stroke-width:1.0;"/><path d="M1262.6875,189.7656 L1258.5469,189.7656 L1258.125,190.7969 L1258.5469,190.7969 Q1259.1563,190.7969 1259.4219,191.0313 Q1259.6875,191.2656 1259.6875,191.6563 Q1259.6875,192.0313 1259.4219,192.2656 Q1259.1563,192.5 1258.5469,192.5 L1256.25,192.5 Q1255.6406,192.5 1255.3906,192.2656 Q1255.125,192.0313 1255.125,191.6406 Q1255.125,191.2656 1255.4063,191.0313 Q1255.6719,190.7813 1256.2969,190.7969 L1258.9688,184.1406 L1257.8594,184.1406 Q1257.25,184.1406 1256.9844,183.9063 Q1256.7188,183.6719 1256.7188,183.2813 Q1256.7188,182.9063 1256.9844,182.6719 Q1257.25,182.4375 1257.8594,182.4375 L1261.5313,182.4375 L1264.9219,190.7969 Q1265.5156,190.7969 1265.7031,190.9375 Q1266.0938,191.2031 1266.0938,191.6563 Q1266.0938,192.0313 1265.8281,192.2656 Q1265.5781,192.5 1264.9688,192.5 L1262.6719,192.5 Q1262.0625,192.5 1261.7969,192.2656 Q1261.5313,192.0313 1261.5313,191.6406 Q1261.5313,191.2656 1261.7969,191.0313 Q1262.0625,190.7969 1262.6719,190.7969 L1263.0938,190.7969 L1262.6875,189.7656 Z M1261.9688,188.0625 L1260.6094,184.6875 L1259.2344,188.0625 L1261.9688,188.0625 Z " fill="#000000"/><text fill="#000000" font-family="sans-serif" font-size="14" font-style="italic" lengthAdjust="spacing" textLength="40.4619" x="1274.5" y="193.7969">Object</text><line style="stroke:#181818;stroke-width:0.5;" x1="1246.5" x2="1316.9619" y1="204" y2="204"/><line style="stroke:#181818;stroke-width:0.5;" x1="1246.5" x2="1316.9619" y1="212" y2="212"/></g><!--class GeometryObject--><g id="elem_GeometryObject"><rect codeLine="16" fill="#F1F1F1" height="48" id="GeometryObject" rx="2.5" ry="2.5" style="stroke:#181818;stroke-width:0.5;" width="133.9238" x="2149.5" y="327.5"/><ellipse cx="2164.5" cy="343.5" fill="#A9DCDF" rx="11" ry="11" style="stroke:#181818;stroke-width:1.0;"/><path d="M2166.6875,345.2656 L2162.5469,345.2656 L2162.125,346.2969 L2162.5469,346.2969 Q2163.1563,346.2969 2163.4219,346.5313 Q2163.6875,346.7656 2163.6875,347.1563 Q2163.6875,347.5313 2163.4219,347.7656 Q2163.1563,348 2162.5469,348 L2160.25,348 Q2159.6406,348 2159.3906,347.7656 Q2159.125,347.5313 2159.125,347.1406 Q2159.125,346.7656 2159.4063,346.5313 Q2159.6719,346.2813 2160.2969,346.2969 L2162.9688,339.6406 L2161.8594,339.6406 Q2161.25,339.6406 2160.9844,339.4063 Q2160.7188,339.1719 2160.7188,338.7813 Q2160.7188,338.4063 2160.9844,338.1719 Q2161.25,337.9375 2161.8594,337.9375 L2165.5313,337.9375 L2168.9219,346.2969 Q2169.5156,346.2969 2169.7031,346.4375 Q2170.0938,346.7031 2170.0938,347.1563 Q2170.0938,347.5313 2169.8281,347.7656 Q2169.5781,348 2168.9688,348 L2166.6719,348 Q2166.0625,348 2165.7969,347.7656 Q2165.5313,347.5313 2165.5313,347.1406 Q2165.5313,346.7656 2165.7969,346.5313 Q2166.0625,346.2969 2166.6719,346.2969 L2167.0938,346.2969 L2166.6875,345.2656 Z M2165.9688,343.5625 L2164.6094,340.1875 L2163.2344,343.5625 L2165.9688,343.5625 Z " fill="#000000"/><text fill="#000000" font-family="sans-serif" font-size="14" font-style="italic" lengthAdjust="spacing" textLength="101.9238" x="2178.5" y="349.2969">GeometryObject</text><line style="stroke:#181818;stroke-width:0.5;" x1="2150.5" x2="2282.4238" y1="359.5" y2="359.5"/><line style="stroke:#181818;stroke-width:0.5;" x1="2150.5" x2="2282.4238" y1="367.5" y2="367.5"/></g><!--class CodelistRequestStatus--><g id="elem_CodelistRequestStatus"><rect codeLine="19" fill="#F1F1F1" height="66.6211" id="CodelistRequestStatus" rx="2.5" ry="2.5" style="stroke:#181818;stroke-width:0.5;" width="174.4131" x="852.5" y="669.5"/><ellipse cx="867.5" cy="685.5" fill="#ADD1B2" rx="11" ry="11" style="stroke:#181818;stroke-width:1.0;"/><path d="M870.2656,681.375 Q870.4219,681.1563 870.6094,681.0469 Q870.7969,680.9375 871.0156,680.9375 Q871.3906,680.9375 871.625,681.2031 Q871.8594,681.4531 871.8594,682.0625 L871.8594,683.5156 Q871.8594,684.125 871.625,684.3906 Q871.3906,684.6563 871.0156,684.6563 Q870.6719,684.6563 870.4688,684.4531 Q870.2656,684.2656 870.1563,683.75 Q870.1094,683.3906 869.9219,683.2031 Q869.5938,682.8281 868.9844,682.6094 Q868.375,682.3906 867.75,682.3906 Q866.9844,682.3906 866.3438,682.7188 Q865.7188,683.0469 865.2188,683.7969 Q864.7344,684.5469 864.7344,685.5781 L864.7344,686.6719 Q864.7344,687.9063 865.625,688.7344 Q866.5156,689.5469 868.1094,689.5469 Q869.0469,689.5469 869.7031,689.2969 Q870.0938,689.1406 870.5156,688.7031 Q870.7813,688.4375 870.9219,688.3594 Q871.0781,688.2813 871.2813,688.2813 Q871.6094,688.2813 871.8594,688.5469 Q872.125,688.7969 872.125,689.1406 Q872.125,689.4844 871.7813,689.8906 Q871.2813,690.4688 870.4844,690.7969 Q869.4063,691.25 868.1094,691.25 Q866.5938,691.25 865.3906,690.625 Q864.4063,690.125 863.7188,689.0625 Q863.0313,687.9844 863.0313,686.7031 L863.0313,685.5469 Q863.0313,684.2188 863.6406,683.0781 Q864.2656,681.9219 865.3594,681.3125 Q866.4531,680.6875 867.6875,680.6875 Q868.4219,680.6875 869.0625,680.8594 Q869.7188,681.0156 870.2656,681.375 Z " fill="#000000"/><text fill="#000000" font-family="sans-serif" font-size="14" lengthAdjust="spacing" textLength="142.4131" x="881.5" y="691.2969">CodelistRequestStatus</text><line style="stroke:#181818;stroke-width:0.5;" x1="853.5" x2="1025.9131" y1="701.5" y2="701.5"/><ellipse cx="863.5" cy="716.3105" fill="none" rx="3" ry="3" style="stroke:#038048;stroke-width:1.0;"/><text fill="#000000" font-family="sans-serif" font-size="14" lengthAdjust="spacing" textLength="129.1719" x="872.5" y="720.6074">icon: CharField [0..1]</text><line style="stroke:#181818;stroke-width:0.5;" x1="853.5" x2="1025.9131" y1="728.1211" y2="728.1211"/></g><!--class CleanupEventCodelistWasteQuantity--><g id="elem_CleanupEventCodelistWasteQuantity"><rect codeLine="23" fill="#F1F1F1" height="48" id="CleanupEventCodelistWasteQuantity" rx="2.5" ry="2.5" style="stroke:#181818;stroke-width:0.5;" width="262.3438" x="555.5" y="679"/><ellipse cx="570.5" cy="695" fill="#ADD1B2" rx="11" ry="11" style="stroke:#181818;stroke-width:1.0;"/><path d="M573.2656,690.875 Q573.4219,690.6563 573.6094,690.5469 Q573.7969,690.4375 574.0156,690.4375 Q574.3906,690.4375 574.625,690.7031 Q574.8594,690.9531 574.8594,691.5625 L574.8594,693.0156 Q574.8594,693.625 574.625,693.8906 Q574.3906,694.1563 574.0156,694.1563 Q573.6719,694.1563 573.4688,693.9531 Q573.2656,693.7656 573.1563,693.25 Q573.1094,692.8906 572.9219,692.7031 Q572.5938,692.3281 571.9844,692.1094 Q571.375,691.8906 570.75,691.8906 Q569.9844,691.8906 569.3438,692.2188 Q568.7188,692.5469 568.2188,693.2969 Q567.7344,694.0469 567.7344,695.0781 L567.7344,696.1719 Q567.7344,697.4063 568.625,698.2344 Q569.5156,699.0469 571.1094,699.0469 Q572.0469,699.0469 572.7031,698.7969 Q573.0938,698.6406 573.5156,698.2031 Q573.7813,697.9375 573.9219,697.8594 Q574.0781,697.7813 574.2813,697.7813 Q574.6094,697.7813 574.8594,698.0469 Q575.125,698.2969 575.125,698.6406 Q575.125,698.9844 574.7813,699.3906 Q574.2813,699.9688 573.4844,700.2969 Q572.4063,700.75 571.1094,700.75 Q569.5938,700.75 568.3906,700.125 Q567.4063,699.625 566.7188,698.5625 Q566.0313,697.4844 566.0313,696.2031 L566.0313,695.0469 Q566.0313,693.7188 566.6406,692.5781 Q567.2656,691.4219 568.3594,690.8125 Q569.4531,690.1875 570.6875,690.1875 Q571.4219,690.1875 572.0625,690.3594 Q572.7188,690.5156 573.2656,690.875 Z " fill="#000000"/><text fill="#000000" font-family="sans-serif" font-size="14" lengthAdjust="spacing" textLength="230.3438" x="584.5" y="700.7969">CleanupEventCodelistWasteQuantity</text><line style="stroke:#181818;stroke-width:0.5;" x1="556.5" x2="816.8438" y1="711" y2="711"/><line style="stroke:#181818;stroke-width:0.5;" x1="556.5" x2="816.8438" y1="719" y2="719"/></g><!--class CleanupEventCodelistWasteType--><g id="elem_CleanupEventCodelistWasteType"><rect codeLine="26" fill="#F1F1F1" height="48" id="CleanupEventCodelistWasteType" rx="2.5" ry="2.5" style="stroke:#181818;stroke-width:0.5;" width="241.3301" x="279" y="679"/><ellipse cx="294" cy="695" fill="#ADD1B2" rx="11" ry="11" style="stroke:#181818;stroke-width:1.0;"/><path d="M296.7656,690.875 Q296.9219,690.6563 297.1094,690.5469 Q297.2969,690.4375 297.5156,690.4375 Q297.8906,690.4375 298.125,690.7031 Q298.3594,690.9531 298.3594,691.5625 L298.3594,693.0156 Q298.3594,693.625 298.125,693.8906 Q297.8906,694.1563 297.5156,694.1563 Q297.1719,694.1563 296.9688,693.9531 Q296.7656,693.7656 296.6563,693.25 Q296.6094,692.8906 296.4219,692.7031 Q296.0938,692.3281 295.4844,692.1094 Q294.875,691.8906 294.25,691.8906 Q293.4844,691.8906 292.8438,692.2188 Q292.2188,692.5469 291.7188,693.2969 Q291.2344,694.0469 291.2344,695.0781 L291.2344,696.1719 Q291.2344,697.4063 292.125,698.2344 Q293.0156,699.0469 294.6094,699.0469 Q295.5469,699.0469 296.2031,698.7969 Q296.5938,698.6406 297.0156,698.2031 Q297.2813,697.9375 297.4219,697.8594 Q297.5781,697.7813 297.7813,697.7813 Q298.1094,697.7813 298.3594,698.0469 Q298.625,698.2969 298.625,698.6406 Q298.625,698.9844 298.2813,699.3906 Q297.7813,699.9688 296.9844,700.2969 Q295.9063,700.75 294.6094,700.75 Q293.0938,700.75 291.8906,700.125 Q290.9063,699.625 290.2188,698.5625 Q289.5313,697.4844 289.5313,696.2031 L289.5313,695.0469 Q289.5313,693.7188 290.1406,692.5781 Q290.7656,691.4219 291.8594,690.8125 Q292.9531,690.1875 294.1875,690.1875 Q294.9219,690.1875 295.5625,690.3594 Q296.2188,690.5156 296.7656,690.875 Z " fill="#000000"/><text fill="#000000" font-family="sans-serif" font-size="14" lengthAdjust="spacing" textLength="209.3301" x="308" y="700.7969">CleanupEventCodelistWasteType</text><line style="stroke:#181818;stroke-width:0.5;" x1="280" x2="519.3301" y1="711" y2="711"/><line style="stroke:#181818;stroke-width:0.5;" x1="280" x2="519.3301" y1="719" y2="719"/></g><!--class CleanupEventCodelistEquipment--><g id="elem_CleanupEventCodelistEquipment"><rect codeLine="29" fill="#F1F1F1" height="48" id="CleanupEventCodelistEquipment" rx="2.5" ry="2.5" style="stroke:#181818;stroke-width:0.5;" width="237.4609" x="7" y="679"/><ellipse cx="22" cy="695" fill="#ADD1B2" rx="11" ry="11" style="stroke:#181818;stroke-width:1.0;"/><path d="M24.7656,690.875 Q24.9219,690.6563 25.1094,690.5469 Q25.2969,690.4375 25.5156,690.4375 Q25.8906,690.4375 26.125,690.7031 Q26.3594,690.9531 26.3594,691.5625 L26.3594,693.0156 Q26.3594,693.625 26.125,693.8906 Q25.8906,694.1563 25.5156,694.1563 Q25.1719,694.1563 24.9688,693.9531 Q24.7656,693.7656 24.6563,693.25 Q24.6094,692.8906 24.4219,692.7031 Q24.0938,692.3281 23.4844,692.1094 Q22.875,691.8906 22.25,691.8906 Q21.4844,691.8906 20.8438,692.2188 Q20.2188,692.5469 19.7188,693.2969 Q19.2344,694.0469 19.2344,695.0781 L19.2344,696.1719 Q19.2344,697.4063 20.125,698.2344 Q21.0156,699.0469 22.6094,699.0469 Q23.5469,699.0469 24.2031,698.7969 Q24.5938,698.6406 25.0156,698.2031 Q25.2813,697.9375 25.4219,697.8594 Q25.5781,697.7813 25.7813,697.7813 Q26.1094,697.7813 26.3594,698.0469 Q26.625,698.2969 26.625,698.6406 Q26.625,698.9844 26.2813,699.3906 Q25.7813,699.9688 24.9844,700.2969 Q23.9063,700.75 22.6094,700.75 Q21.0938,700.75 19.8906,700.125 Q18.9063,699.625 18.2188,698.5625 Q17.5313,697.4844 17.5313,696.2031 L17.5313,695.0469 Q17.5313,693.7188 18.1406,692.5781 Q18.7656,691.4219 19.8594,690.8125 Q20.9531,690.1875 22.1875,690.1875 Q22.9219,690.1875 23.5625,690.3594 Q24.2188,690.5156 24.7656,690.875 Z " fill="#000000"/><text fill="#000000" font-family="sans-serif" font-size="14" lengthAdjust="spacing" textLength="205.4609" x="36" y="700.7969">CleanupEventCodelistEquipment</text><line style="stroke:#181818;stroke-width:0.5;" x1="8" x2="243.4609" y1="711" y2="711"/><line style="stroke:#181818;stroke-width:0.5;" x1="8" x2="243.4609" y1="719" y2="719"/></g><!--class Authority--><g id="elem_Authority"><rect codeLine="32" fill="#F1F1F1" height="103.8633" id="Authority" rx="2.5" ry="2.5" style="stroke:#181818;stroke-width:0.5;" width="130.2754" x="1014.5" y="452"/><ellipse cx="1048.8623" cy="468" fill="#ADD1B2" rx="11" ry="11" style="stroke:#181818;stroke-width:1.0;"/><path d="M1051.6279,463.875 Q1051.7842,463.6563 1051.9717,463.5469 Q1052.1592,463.4375 1052.3779,463.4375 Q1052.7529,463.4375 1052.9873,463.7031 Q1053.2217,463.9531 1053.2217,464.5625 L1053.2217,466.0156 Q1053.2217,466.625 1052.9873,466.8906 Q1052.7529,467.1563 1052.3779,467.1563 Q1052.0342,467.1563 1051.8311,466.9531 Q1051.6279,466.7656 1051.5186,466.25 Q1051.4717,465.8906 1051.2842,465.7031 Q1050.9561,465.3281 1050.3467,465.1094 Q1049.7373,464.8906 1049.1123,464.8906 Q1048.3467,464.8906 1047.7061,465.2188 Q1047.0811,465.5469 1046.5811,466.2969 Q1046.0967,467.0469 1046.0967,468.0781 L1046.0967,469.1719 Q1046.0967,470.4063 1046.9873,471.2344 Q1047.8779,472.0469 1049.4717,472.0469 Q1050.4092,472.0469 1051.0654,471.7969 Q1051.4561,471.6406 1051.8779,471.2031 Q1052.1436,470.9375 1052.2842,470.8594 Q1052.4404,470.7813 1052.6436,470.7813 Q1052.9717,470.7813 1053.2217,471.0469 Q1053.4873,471.2969 1053.4873,471.6406 Q1053.4873,471.9844 1053.1436,472.3906 Q1052.6436,472.9688 1051.8467,473.2969 Q1050.7686,473.75 1049.4717,473.75 Q1047.9561,473.75 1046.7529,473.125 Q1045.7686,472.625 1045.0811,471.5625 Q1044.3936,470.4844 1044.3936,469.2031 L1044.3936,468.0469 Q1044.3936,466.7188 1045.0029,465.5781 Q1045.6279,464.4219 1046.7217,463.8125 Q1047.8154,463.1875 1049.0498,463.1875 Q1049.7842,463.1875 1050.4248,463.3594 Q1051.0811,463.5156 1051.6279,463.875 Z " fill="#000000"/><text fill="#000000" font-family="sans-serif" font-size="14" lengthAdjust="spacing" textLength="55.248" x="1067.165" y="473.7969">Authority</text><line style="stroke:#181818;stroke-width:0.5;" x1="1015.5" x2="1143.7754" y1="484" y2="484"/><ellipse cx="1025.5" cy="498.8105" fill="none" rx="3" ry="3" style="stroke:#038048;stroke-width:1.0;"/><text fill="#000000" font-family="sans-serif" font-size="14" lengthAdjust="spacing" textLength="104.2754" x="1034.5" y="503.1074">group: CharField</text><ellipse cx="1025.5" cy="517.4316" fill="none" rx="3" ry="3" style="stroke:#038048;stroke-width:1.0;"/><text fill="#000000" font-family="sans-serif" font-size="14" lengthAdjust="spacing" textLength="103.4893" x="1034.5" y="521.7285">name: CharField</text><ellipse cx="1025.5" cy="536.0527" fill="none" rx="3" ry="3" style="stroke:#038048;stroke-width:1.0;"/><text fill="#000000" font-family="sans-serif" font-size="14" lengthAdjust="spacing" textLength="101.9238" x="1034.5" y="540.3496">email: CharField</text><line style="stroke:#181818;stroke-width:0.5;" x1="1015.5" x2="1143.7754" y1="547.8633" y2="547.8633"/></g><!--class Email--><g id="elem_Email"><rect codeLine="38" fill="#F1F1F1" height="103.8633" id="Email" rx="2.5" ry="2.5" style="stroke:#181818;stroke-width:0.5;" width="138.8271" x="1054" y="299.5"/><ellipse cx="1101.6602" cy="315.5" fill="#ADD1B2" rx="11" ry="11" style="stroke:#181818;stroke-width:1.0;"/><path d="M1104.4258,311.375 Q1104.582,311.1563 1104.7695,311.0469 Q1104.957,310.9375 1105.1758,310.9375 Q1105.5508,310.9375 1105.7852,311.2031 Q1106.0195,311.4531 1106.0195,312.0625 L1106.0195,313.5156 Q1106.0195,314.125 1105.7852,314.3906 Q1105.5508,314.6563 1105.1758,314.6563 Q1104.832,314.6563 1104.6289,314.4531 Q1104.4258,314.2656 1104.3164,313.75 Q1104.2695,313.3906 1104.082,313.2031 Q1103.7539,312.8281 1103.1445,312.6094 Q1102.5352,312.3906 1101.9102,312.3906 Q1101.1445,312.3906 1100.5039,312.7188 Q1099.8789,313.0469 1099.3789,313.7969 Q1098.8945,314.5469 1098.8945,315.5781 L1098.8945,316.6719 Q1098.8945,317.9063 1099.7852,318.7344 Q1100.6758,319.5469 1102.2695,319.5469 Q1103.207,319.5469 1103.8633,319.2969 Q1104.2539,319.1406 1104.6758,318.7031 Q1104.9414,318.4375 1105.082,318.3594 Q1105.2383,318.2813 1105.4414,318.2813 Q1105.7695,318.2813 1106.0195,318.5469 Q1106.2852,318.7969 1106.2852,319.1406 Q1106.2852,319.4844 1105.9414,319.8906 Q1105.4414,320.4688 1104.6445,320.7969 Q1103.5664,321.25 1102.2695,321.25 Q1100.7539,321.25 1099.5508,320.625 Q1098.5664,320.125 1097.8789,319.0625 Q1097.1914,317.9844 1097.1914,316.7031 L1097.1914,315.5469 Q1097.1914,314.2188 1097.8008,313.0781 Q1098.4258,311.9219 1099.5195,311.3125 Q1100.6133,310.6875 1101.8477,310.6875 Q1102.582,310.6875 1103.2227,310.8594 Q1103.8789,311.0156 1104.4258,311.375 Z " fill="#000000"/><text fill="#000000" font-family="sans-serif" font-size="14" lengthAdjust="spacing" textLength="35.0068" x="1122.1602" y="321.2969">Email</text><line style="stroke:#181818;stroke-width:0.5;" x1="1055" x2="1191.8271" y1="331.5" y2="331.5"/><ellipse cx="1065" cy="346.3105" fill="none" rx="3" ry="3" style="stroke:#038048;stroke-width:1.0;"/><text fill="#000000" font-family="sans-serif" font-size="14" lengthAdjust="spacing" textLength="90.2549" x="1074" y="350.6074">key: CharField</text><ellipse cx="1065" cy="364.9316" fill="none" rx="3" ry="3" style="stroke:#038048;stroke-width:1.0;"/><text fill="#000000" font-family="sans-serif" font-size="14" lengthAdjust="spacing" textLength="112.8271" x="1074" y="369.2285">subject: CharField</text><ellipse cx="1065" cy="383.5527" fill="none" rx="3" ry="3" style="stroke:#038048;stroke-width:1.0;"/><text fill="#000000" font-family="sans-serif" font-size="14" lengthAdjust="spacing" textLength="95.71" x="1074" y="387.8496">body: TextField</text><line style="stroke:#181818;stroke-width:0.5;" x1="1055" x2="1191.8271" y1="395.3633" y2="395.3633"/></g><!--class Requester--><g id="elem_Requester"><rect codeLine="44" fill="#F1F1F1" height="234.2109" id="Requester" rx="2.5" ry="2.5" style="stroke:#181818;stroke-width:0.5;" width="280.4814" x="1331.5" y="586"/><ellipse cx="1435.1943" cy="602" fill="#ADD1B2" rx="11" ry="11" style="stroke:#181818;stroke-width:1.0;"/><path d="M1437.96,597.875 Q1438.1162,597.6563 1438.3037,597.5469 Q1438.4912,597.4375 1438.71,597.4375 Q1439.085,597.4375 1439.3193,597.7031 Q1439.5537,597.9531 1439.5537,598.5625 L1439.5537,600.0156 Q1439.5537,600.625 1439.3193,600.8906 Q1439.085,601.1563 1438.71,601.1563 Q1438.3662,601.1563 1438.1631,600.9531 Q1437.96,600.7656 1437.8506,600.25 Q1437.8037,599.8906 1437.6162,599.7031 Q1437.2881,599.3281 1436.6787,599.1094 Q1436.0693,598.8906 1435.4443,598.8906 Q1434.6787,598.8906 1434.0381,599.2188 Q1433.4131,599.5469 1432.9131,600.2969 Q1432.4287,601.0469 1432.4287,602.0781 L1432.4287,603.1719 Q1432.4287,604.4063 1433.3193,605.2344 Q1434.21,606.0469 1435.8037,606.0469 Q1436.7412,606.0469 1437.3975,605.7969 Q1437.7881,605.6406 1438.21,605.2031 Q1438.4756,604.9375 1438.6162,604.8594 Q1438.7725,604.7813 1438.9756,604.7813 Q1439.3037,604.7813 1439.5537,605.0469 Q1439.8193,605.2969 1439.8193,605.6406 Q1439.8193,605.9844 1439.4756,606.3906 Q1438.9756,606.9688 1438.1787,607.2969 Q1437.1006,607.75 1435.8037,607.75 Q1434.2881,607.75 1433.085,607.125 Q1432.1006,606.625 1431.4131,605.5625 Q1430.7256,604.4844 1430.7256,603.2031 L1430.7256,602.0469 Q1430.7256,600.7188 1431.335,599.5781 Q1431.96,598.4219 1433.0537,597.8125 Q1434.1475,597.1875 1435.3818,597.1875 Q1436.1162,597.1875 1436.7568,597.3594 Q1437.4131,597.5156 1437.96,597.875 Z " fill="#000000"/><text fill="#000000" font-family="sans-serif" font-size="14" lengthAdjust="spacing" textLength="64.5928" x="1455.6943" y="607.7969">Requester</text><line style="stroke:#181818;stroke-width:0.5;" x1="1332.5" x2="1610.9814" y1="618" y2="618"/><ellipse cx="1342.5" cy="632.8105" fill="none" rx="3" ry="3" style="stroke:#038048;stroke-width:1.0;"/><text fill="#000000" font-family="sans-serif" font-size="14" lengthAdjust="spacing" textLength="211.668" x="1351.5" y="637.1074">user_id: PositiveIntegerField [0..1]</text><ellipse cx="1342.5" cy="651.4316" fill="none" rx="3" ry="3" style="stroke:#038048;stroke-width:1.0;"/><text fill="#000000" font-family="sans-serif" font-size="14" lengthAdjust="spacing" textLength="179.7646" x="1351.5" y="655.7285">organization: CharField [0..1]</text><ellipse cx="1342.5" cy="670.0527" fill="none" rx="3" ry="3" style="stroke:#038048;stroke-width:1.0;"/><text fill="#000000" font-family="sans-serif" font-size="14" lengthAdjust="spacing" textLength="168.8477" x="1351.5" y="674.3496">first_name: CharField [0..1]</text><ellipse cx="1342.5" cy="688.6738" fill="none" rx="3" ry="3" style="stroke:#038048;stroke-width:1.0;"/><text fill="#000000" font-family="sans-serif" font-size="14" lengthAdjust="spacing" textLength="168.082" x="1351.5" y="692.9707">last_name: CharField [0..1]</text><ellipse cx="1342.5" cy="707.2949" fill="none" rx="3" ry="3" style="stroke:#038048;stroke-width:1.0;"/><text fill="#000000" font-family="sans-serif" font-size="14" lengthAdjust="spacing" textLength="106.5859" x="1351.5" y="711.5918">email: EmailField</text><ellipse cx="1342.5" cy="725.916" fill="none" rx="3" ry="3" style="stroke:#038048;stroke-width:1.0;"/><text fill="#000000" font-family="sans-serif" font-size="14" lengthAdjust="spacing" textLength="129.9717" x="1351.5" y="730.2129">telephone: CharField</text><ellipse cx="1342.5" cy="744.5371" fill="none" rx="3" ry="3" style="stroke:#038048;stroke-width:1.0;"/><text fill="#000000" font-family="sans-serif" font-size="14" lengthAdjust="spacing" textLength="196.0957" x="1351.5" y="748.834">address_street: CharField [0..1]</text><ellipse cx="1342.5" cy="763.1582" fill="none" rx="3" ry="3" style="stroke:#038048;stroke-width:1.0;"/><text fill="#000000" font-family="sans-serif" font-size="14" lengthAdjust="spacing" textLength="254.4814" x="1351.5" y="767.4551">address_house_number: CharField [0..1]</text><ellipse cx="1342.5" cy="781.7793" fill="none" rx="3" ry="3" style="stroke:#038048;stroke-width:1.0;"/><text fill="#000000" font-family="sans-serif" font-size="14" lengthAdjust="spacing" textLength="236.585" x="1351.5" y="786.0762">address_postal_code: CharField [0..1]</text><ellipse cx="1342.5" cy="800.4004" fill="none" rx="3" ry="3" style="stroke:#038048;stroke-width:1.0;"/><text fill="#000000" font-family="sans-serif" font-size="14" lengthAdjust="spacing" textLength="194.5508" x="1351.5" y="804.6973">address_place: CharField [0..1]</text><line style="stroke:#181818;stroke-width:0.5;" x1="1332.5" x2="1610.9814" y1="812.2109" y2="812.2109"/></g><!--class Request--><g id="elem_Request"><rect codeLine="57" fill="#F1F1F1" height="103.8633" id="Request" rx="2.5" ry="2.5" style="stroke:#181818;stroke-width:0.5;" width="201.8682" x="1370.5" y="299.5"/><ellipse cx="1441.1118" cy="315.5" fill="#A9DCDF" rx="11" ry="11" style="stroke:#181818;stroke-width:1.0;"/><path d="M1443.2993,317.2656 L1439.1587,317.2656 L1438.7368,318.2969 L1439.1587,318.2969 Q1439.7681,318.2969 1440.0337,318.5313 Q1440.2993,318.7656 1440.2993,319.1563 Q1440.2993,319.5313 1440.0337,319.7656 Q1439.7681,320 1439.1587,320 L1436.8618,320 Q1436.2524,320 1436.0024,319.7656 Q1435.7368,319.5313 1435.7368,319.1406 Q1435.7368,318.7656 1436.0181,318.5313 Q1436.2837,318.2813 1436.9087,318.2969 L1439.5806,311.6406 L1438.4712,311.6406 Q1437.8618,311.6406 1437.5962,311.4063 Q1437.3306,311.1719 1437.3306,310.7813 Q1437.3306,310.4063 1437.5962,310.1719 Q1437.8618,309.9375 1438.4712,309.9375 L1442.1431,309.9375 L1445.5337,318.2969 Q1446.1274,318.2969 1446.3149,318.4375 Q1446.7056,318.7031 1446.7056,319.1563 Q1446.7056,319.5313 1446.4399,319.7656 Q1446.1899,320 1445.5806,320 L1443.2837,320 Q1442.6743,320 1442.4087,319.7656 Q1442.1431,319.5313 1442.1431,319.1406 Q1442.1431,318.7656 1442.4087,318.5313 Q1442.6743,318.2969 1443.2837,318.2969 L1443.7056,318.2969 L1443.2993,317.2656 Z M1442.5806,315.5625 L1441.2212,312.1875 L1439.8462,315.5625 L1442.5806,315.5625 Z " fill="#000000"/><text fill="#000000" font-family="sans-serif" font-size="14" font-style="italic" lengthAdjust="spacing" textLength="52.1445" x="1461.6118" y="321.2969">Request</text><line style="stroke:#181818;stroke-width:0.5;" x1="1371.5" x2="1571.3682" y1="331.5" y2="331.5"/><polygon fill="none" points="1381.5,342.3105,1377.5,348.3105,1385.5,348.3105" style="stroke:#1963A0;stroke-width:1.0;"/><text fill="#000000" font-family="sans-serif" font-size="14" lengthAdjust="spacing" textLength="154.0752" x="1390.5" y="350.6074">status: ForeignKey &#171;FK&#187;</text><ellipse cx="1381.5" cy="364.9316" fill="none" rx="3" ry="3" style="stroke:#038048;stroke-width:1.0;"/><text fill="#000000" font-family="sans-serif" font-size="14" lengthAdjust="spacing" textLength="161.0615" x="1390.5" y="369.2285">comment: CharField [0..1]</text><polygon fill="none" points="1381.5,379.5527,1377.5,385.5527,1385.5,385.5527" style="stroke:#1963A0;stroke-width:1.0;"/><text fill="#000000" font-family="sans-serif" font-size="14" lengthAdjust="spacing" textLength="175.8682" x="1390.5" y="387.8496">requester: ForeignKey &#171;FK&#187;</text><line style="stroke:#181818;stroke-width:0.5;" x1="1371.5" x2="1571.3682" y1="395.3633" y2="395.3633"/></g><!--class RequestComment--><g id="elem_RequestComment"><rect codeLine="63" fill="#F1F1F1" height="103.8633" id="RequestComment" rx="2.5" ry="2.5" style="stroke:#181818;stroke-width:0.5;" width="237.668" x="2545.5" y="1192"/><ellipse cx="2603.6704" cy="1208" fill="#A9DCDF" rx="11" ry="11" style="stroke:#181818;stroke-width:1.0;"/><path d="M2605.8579,1209.7656 L2601.7173,1209.7656 L2601.2954,1210.7969 L2601.7173,1210.7969 Q2602.3267,1210.7969 2602.5923,1211.0313 Q2602.8579,1211.2656 2602.8579,1211.6563 Q2602.8579,1212.0313 2602.5923,1212.2656 Q2602.3267,1212.5 2601.7173,1212.5 L2599.4204,1212.5 Q2598.811,1212.5 2598.561,1212.2656 Q2598.2954,1212.0313 2598.2954,1211.6406 Q2598.2954,1211.2656 2598.5767,1211.0313 Q2598.8423,1210.7813 2599.4673,1210.7969 L2602.1392,1204.1406 L2601.0298,1204.1406 Q2600.4204,1204.1406 2600.1548,1203.9063 Q2599.8892,1203.6719 2599.8892,1203.2813 Q2599.8892,1202.9063 2600.1548,1202.6719 Q2600.4204,1202.4375 2601.0298,1202.4375 L2604.7017,1202.4375 L2608.0923,1210.7969 Q2608.686,1210.7969 2608.8735,1210.9375 Q2609.2642,1211.2031 2609.2642,1211.6563 Q2609.2642,1212.0313 2608.9985,1212.2656 Q2608.7485,1212.5 2608.1392,1212.5 L2605.8423,1212.5 Q2605.2329,1212.5 2604.9673,1212.2656 Q2604.7017,1212.0313 2604.7017,1211.6406 Q2604.7017,1211.2656 2604.9673,1211.0313 Q2605.2329,1210.7969 2605.8423,1210.7969 L2606.2642,1210.7969 L2605.8579,1209.7656 Z M2605.1392,1208.0625 L2603.7798,1204.6875 L2602.4048,1208.0625 L2605.1392,1208.0625 Z " fill="#000000"/><text fill="#000000" font-family="sans-serif" font-size="14" font-style="italic" lengthAdjust="spacing" textLength="112.8271" x="2624.1704" y="1213.7969">RequestComment</text><line style="stroke:#181818;stroke-width:0.5;" x1="2546.5" x2="2782.168" y1="1224" y2="1224"/><ellipse cx="2556.5" cy="1238.8105" fill="none" rx="3" ry="3" style="stroke:#038048;stroke-width:1.0;"/><text fill="#000000" font-family="sans-serif" font-size="14" lengthAdjust="spacing" textLength="211.668" x="2565.5" y="1243.1074">user_id: PositiveIntegerField [0..1]</text><ellipse cx="2556.5" cy="1257.4316" fill="none" rx="3" ry="3" style="stroke:#038048;stroke-width:1.0;"/><text fill="#000000" font-family="sans-serif" font-size="14" lengthAdjust="spacing" textLength="111.2754" x="2565.5" y="1261.7285">content: TextField</text><ellipse cx="2556.5" cy="1276.0527" fill="none" rx="3" ry="3" style="stroke:#038048;stroke-width:1.0;"/><text fill="#000000" font-family="sans-serif" font-size="14" lengthAdjust="spacing" textLength="206.2539" x="2565.5" y="1280.3496">send_to_requester: BooleanField</text><line style="stroke:#181818;stroke-width:0.5;" x1="2546.5" x2="2782.168" y1="1287.8633" y2="1287.8633"/></g><!--class CleanupEventRequest--><g id="elem_CleanupEventRequest"><rect codeLine="69" fill="#F1F1F1" height="66.6211" id="CleanupEventRequest" rx="2.5" ry="2.5" style="stroke:#181818;stroke-width:0.5;" width="275.7715" x="1820.5" y="899"/><ellipse cx="1884.0879" cy="915" fill="#ADD1B2" rx="11" ry="11" style="stroke:#181818;stroke-width:1.0;"/><path d="M1886.8535,910.875 Q1887.0098,910.6563 1887.1973,910.5469 Q1887.3848,910.4375 1887.6035,910.4375 Q1887.9785,910.4375 1888.2129,910.7031 Q1888.4473,910.9531 1888.4473,911.5625 L1888.4473,913.0156 Q1888.4473,913.625 1888.2129,913.8906 Q1887.9785,914.1563 1887.6035,914.1563 Q1887.2598,914.1563 1887.0566,913.9531 Q1886.8535,913.7656 1886.7441,913.25 Q1886.6973,912.8906 1886.5098,912.7031 Q1886.1816,912.3281 1885.5723,912.1094 Q1884.9629,911.8906 1884.3379,911.8906 Q1883.5723,911.8906 1882.9316,912.2188 Q1882.3066,912.5469 1881.8066,913.2969 Q1881.3223,914.0469 1881.3223,915.0781 L1881.3223,916.1719 Q1881.3223,917.4063 1882.2129,918.2344 Q1883.1035,919.0469 1884.6973,919.0469 Q1885.6348,919.0469 1886.291,918.7969 Q1886.6816,918.6406 1887.1035,918.2031 Q1887.3691,917.9375 1887.5098,917.8594 Q1887.666,917.7813 1887.8691,917.7813 Q1888.1973,917.7813 1888.4473,918.0469 Q1888.7129,918.2969 1888.7129,918.6406 Q1888.7129,918.9844 1888.3691,919.3906 Q1887.8691,919.9688 1887.0723,920.2969 Q1885.9941,920.75 1884.6973,920.75 Q1883.1816,920.75 1881.9785,920.125 Q1880.9941,919.625 1880.3066,918.5625 Q1879.6191,917.4844 1879.6191,916.2031 L1879.6191,915.0469 Q1879.6191,913.7188 1880.2285,912.5781 Q1880.8535,911.4219 1881.9473,910.8125 Q1883.041,910.1875 1884.2754,910.1875 Q1885.0098,910.1875 1885.6504,910.3594 Q1886.3066,910.5156 1886.8535,910.875 Z " fill="#000000"/><text fill="#000000" font-family="sans-serif" font-size="14" lengthAdjust="spacing" textLength="140.0957" x="1904.5879" y="920.7969">CleanupEventRequest</text><line style="stroke:#181818;stroke-width:0.5;" x1="1821.5" x2="2095.2715" y1="931" y2="931"/><polygon fill="none" points="1831.5,940.8105,1835.5,944.8105,1831.5,948.8105,1827.5,944.8105" style="stroke:#B38D22;stroke-width:1.0;"/><text fill="#000000" font-family="sans-serif" font-size="14" lengthAdjust="spacing" textLength="249.7715" x="1840.5" y="950.1074">responsibilities: ManyToManyField [0..1]</text><line style="stroke:#181818;stroke-width:0.5;" x1="1821.5" x2="2095.2715" y1="957.6211" y2="957.6211"/></g><!--class CleanupEventResponsibilities--><g id="elem_CleanupEventResponsibilities"><rect codeLine="73" fill="#F1F1F1" height="103.8633" id="CleanupEventResponsibilities" rx="2.5" ry="2.5" style="stroke:#181818;stroke-width:0.5;" width="280.4951" x="1454.5" y="1027"/><ellipse cx="1497.9739" cy="1043" fill="#ADD1B2" rx="11" ry="11" style="stroke:#181818;stroke-width:1.0;"/><path d="M1500.7396,1038.875 Q1500.8958,1038.6563 1501.0833,1038.5469 Q1501.2708,1038.4375 1501.4896,1038.4375 Q1501.8646,1038.4375 1502.0989,1038.7031 Q1502.3333,1038.9531 1502.3333,1039.5625 L1502.3333,1041.0156 Q1502.3333,1041.625 1502.0989,1041.8906 Q1501.8646,1042.1563 1501.4896,1042.1563 Q1501.1458,1042.1563 1500.9427,1041.9531 Q1500.7396,1041.7656 1500.6302,1041.25 Q1500.5833,1040.8906 1500.3958,1040.7031 Q1500.0677,1040.3281 1499.4583,1040.1094 Q1498.8489,1039.8906 1498.2239,1039.8906 Q1497.4583,1039.8906 1496.8177,1040.2188 Q1496.1927,1040.5469 1495.6927,1041.2969 Q1495.2083,1042.0469 1495.2083,1043.0781 L1495.2083,1044.1719 Q1495.2083,1045.4063 1496.0989,1046.2344 Q1496.9896,1047.0469 1498.5833,1047.0469 Q1499.5208,1047.0469 1500.1771,1046.7969 Q1500.5677,1046.6406 1500.9896,1046.2031 Q1501.2552,1045.9375 1501.3958,1045.8594 Q1501.5521,1045.7813 1501.7552,1045.7813 Q1502.0833,1045.7813 1502.3333,1046.0469 Q1502.5989,1046.2969 1502.5989,1046.6406 Q1502.5989,1046.9844 1502.2552,1047.3906 Q1501.7552,1047.9688 1500.9583,1048.2969 Q1499.8802,1048.75 1498.5833,1048.75 Q1497.0677,1048.75 1495.8646,1048.125 Q1494.8802,1047.625 1494.1927,1046.5625 Q1493.5052,1045.4844 1493.5052,1044.2031 L1493.5052,1043.0469 Q1493.5052,1041.7188 1494.1146,1040.5781 Q1494.7396,1039.4219 1495.8333,1038.8125 Q1496.9271,1038.1875 1498.1614,1038.1875 Q1498.8958,1038.1875 1499.5364,1038.3594 Q1500.1927,1038.5156 1500.7396,1038.875 Z " fill="#000000"/><text fill="#000000" font-family="sans-serif" font-size="14" lengthAdjust="spacing" textLength="185.2197" x="1518.3015" y="1048.7969">CleanupEventResponsibilities</text><line style="stroke:#181818;stroke-width:0.5;" x1="1455.5" x2="1733.9951" y1="1059" y2="1059"/><polygon fill="none" points="1465.5,1069.8105,1461.5,1075.8105,1469.5,1075.8105" style="stroke:#1963A0;stroke-width:1.0;"/><text fill="#000000" font-family="sans-serif" font-size="14" lengthAdjust="spacing" textLength="254.4951" x="1474.5" y="1078.1074">cleanupevent_request: ForeignKey &#171;FK&#187;</text><polygon fill="none" points="1465.5,1088.4316,1461.5,1094.4316,1469.5,1094.4316" style="stroke:#1963A0;stroke-width:1.0;"/><text fill="#000000" font-family="sans-serif" font-size="14" lengthAdjust="spacing" textLength="170.4199" x="1474.5" y="1096.7285">authority: ForeignKey &#171;FK&#187;</text><ellipse cx="1465.5" cy="1111.0527" fill="none" rx="3" ry="3" style="stroke:#038048;stroke-width:1.0;"/><text fill="#000000" font-family="sans-serif" font-size="14" lengthAdjust="spacing" textLength="119.8477" x="1474.5" y="1115.3496">main: BooleanField</text><line style="stroke:#181818;stroke-width:0.5;" x1="1455.5" x2="1733.9951" y1="1122.8633" y2="1122.8633"/></g><!--class CleanupEventEvent--><g id="elem_CleanupEventEvent"><rect codeLine="79" fill="#F1F1F1" height="122.4844" id="CleanupEventEvent" rx="2.5" ry="2.5" style="stroke:#181818;stroke-width:0.5;" width="308.5088" x="2406" y="642"/><ellipse cx="2494.1289" cy="658" fill="#ADD1B2" rx="11" ry="11" style="stroke:#181818;stroke-width:1.0;"/><path d="M2496.8945,653.875 Q2497.0508,653.6563 2497.2383,653.5469 Q2497.4258,653.4375 2497.6445,653.4375 Q2498.0195,653.4375 2498.2539,653.7031 Q2498.4883,653.9531 2498.4883,654.5625 L2498.4883,656.0156 Q2498.4883,656.625 2498.2539,656.8906 Q2498.0195,657.1563 2497.6445,657.1563 Q2497.3008,657.1563 2497.0977,656.9531 Q2496.8945,656.7656 2496.7852,656.25 Q2496.7383,655.8906 2496.5508,655.7031 Q2496.2227,655.3281 2495.6133,655.1094 Q2495.0039,654.8906 2494.3789,654.8906 Q2493.6133,654.8906 2492.9727,655.2188 Q2492.3477,655.5469 2491.8477,656.2969 Q2491.3633,657.0469 2491.3633,658.0781 L2491.3633,659.1719 Q2491.3633,660.4063 2492.2539,661.2344 Q2493.1445,662.0469 2494.7383,662.0469 Q2495.6758,662.0469 2496.332,661.7969 Q2496.7227,661.6406 2497.1445,661.2031 Q2497.4102,660.9375 2497.5508,660.8594 Q2497.707,660.7813 2497.9102,660.7813 Q2498.2383,660.7813 2498.4883,661.0469 Q2498.7539,661.2969 2498.7539,661.6406 Q2498.7539,661.9844 2498.4102,662.3906 Q2497.9102,662.9688 2497.1133,663.2969 Q2496.0352,663.75 2494.7383,663.75 Q2493.2227,663.75 2492.0195,663.125 Q2491.0352,662.625 2490.3477,661.5625 Q2489.6602,660.4844 2489.6602,659.2031 L2489.6602,658.0469 Q2489.6602,656.7188 2490.2695,655.5781 Q2490.8945,654.4219 2491.9883,653.8125 Q2493.082,653.1875 2494.3164,653.1875 Q2495.0508,653.1875 2495.6914,653.3594 Q2496.3477,653.5156 2496.8945,653.875 Z " fill="#000000"/><text fill="#000000" font-family="sans-serif" font-size="14" lengthAdjust="spacing" textLength="123.751" x="2514.6289" y="663.7969">CleanupEventEvent</text><line style="stroke:#181818;stroke-width:0.5;" x1="2407" x2="2713.5088" y1="674" y2="674"/><polygon fill="none" points="2417,684.8105,2413,690.8105,2421,690.8105" style="stroke:#1963A0;stroke-width:1.0;"/><text fill="#000000" font-family="sans-serif" font-size="14" lengthAdjust="spacing" textLength="282.5088" x="2426" y="693.1074">cleanupevent_request: OneToOneField &#171;FK&#187;</text><ellipse cx="2417" cy="707.4316" fill="none" rx="3" ry="3" style="stroke:#038048;stroke-width:1.0;"/><text fill="#000000" font-family="sans-serif" font-size="14" lengthAdjust="spacing" textLength="130.7305" x="2426" y="711.7285">from_date: DateField</text><ellipse cx="2417" cy="726.0527" fill="none" rx="3" ry="3" style="stroke:#038048;stroke-width:1.0;"/><text fill="#000000" font-family="sans-serif" font-size="14" lengthAdjust="spacing" textLength="149.4268" x="2426" y="730.3496">to_date: DateField [0..1]</text><ellipse cx="2417" cy="744.6738" fill="none" rx="3" ry="3" style="stroke:#038048;stroke-width:1.0;"/><text fill="#000000" font-family="sans-serif" font-size="14" lengthAdjust="spacing" textLength="116.7373" x="2426" y="748.9707">area: PolygonField</text><line style="stroke:#181818;stroke-width:0.5;" x1="2407" x2="2713.5088" y1="756.4844" y2="756.4844"/></g><!--class CleanupEventVenue--><g id="elem_CleanupEventVenue"><rect codeLine="86" fill="#F1F1F1" height="85.2422" id="CleanupEventVenue" rx="2.5" ry="2.5" style="stroke:#181818;stroke-width:0.5;" width="308.5088" x="2750" y="660.5"/><ellipse cx="2835.7876" cy="676.5" fill="#ADD1B2" rx="11" ry="11" style="stroke:#181818;stroke-width:1.0;"/><path d="M2838.5532,672.375 Q2838.7095,672.1563 2838.897,672.0469 Q2839.0845,671.9375 2839.3032,671.9375 Q2839.6782,671.9375 2839.9126,672.2031 Q2840.147,672.4531 2840.147,673.0625 L2840.147,674.5156 Q2840.147,675.125 2839.9126,675.3906 Q2839.6782,675.6563 2839.3032,675.6563 Q2838.9595,675.6563 2838.7563,675.4531 Q2838.5532,675.2656 2838.4438,674.75 Q2838.397,674.3906 2838.2095,674.2031 Q2837.8813,673.8281 2837.272,673.6094 Q2836.6626,673.3906 2836.0376,673.3906 Q2835.272,673.3906 2834.6313,673.7188 Q2834.0063,674.0469 2833.5063,674.7969 Q2833.022,675.5469 2833.022,676.5781 L2833.022,677.6719 Q2833.022,678.9063 2833.9126,679.7344 Q2834.8032,680.5469 2836.397,680.5469 Q2837.3345,680.5469 2837.9907,680.2969 Q2838.3813,680.1406 2838.8032,679.7031 Q2839.0688,679.4375 2839.2095,679.3594 Q2839.3657,679.2813 2839.5688,679.2813 Q2839.897,679.2813 2840.147,679.5469 Q2840.4126,679.7969 2840.4126,680.1406 Q2840.4126,680.4844 2840.0688,680.8906 Q2839.5688,681.4688 2838.772,681.7969 Q2837.6938,682.25 2836.397,682.25 Q2834.8813,682.25 2833.6782,681.625 Q2832.6938,681.125 2832.0063,680.0625 Q2831.3188,678.9844 2831.3188,677.7031 L2831.3188,676.5469 Q2831.3188,675.2188 2831.9282,674.0781 Q2832.5532,672.9219 2833.647,672.3125 Q2834.7407,671.6875 2835.9751,671.6875 Q2836.7095,671.6875 2837.3501,671.8594 Q2838.0063,672.0156 2838.5532,672.375 Z " fill="#000000"/><text fill="#000000" font-family="sans-serif" font-size="14" lengthAdjust="spacing" textLength="128.4336" x="2856.2876" y="682.2969">CleanupEventVenue</text><line style="stroke:#181818;stroke-width:0.5;" x1="2751" x2="3057.5088" y1="692.5" y2="692.5"/><polygon fill="none" points="2761,703.3105,2757,709.3105,2765,709.3105" style="stroke:#1963A0;stroke-width:1.0;"/><text fill="#000000" font-family="sans-serif" font-size="14" lengthAdjust="spacing" textLength="282.5088" x="2770" y="711.6074">cleanupevent_request: OneToOneField &#171;FK&#187;</text><ellipse cx="2761" cy="725.9316" fill="none" rx="3" ry="3" style="stroke:#038048;stroke-width:1.0;"/><text fill="#000000" font-family="sans-serif" font-size="14" lengthAdjust="spacing" textLength="103.5029" x="2770" y="730.2285">place: PointField</text><line style="stroke:#181818;stroke-width:0.5;" x1="2751" x2="3057.5088" y1="737.7422" y2="737.7422"/></g><!--class CleanupEventDetails--><g id="elem_CleanupEventDetails"><rect codeLine="91" fill="#F1F1F1" height="141.1055" id="CleanupEventDetails" rx="2.5" ry="2.5" style="stroke:#181818;stroke-width:0.5;" width="308.5088" x="685" y="281"/><ellipse cx="769.6323" cy="297" fill="#ADD1B2" rx="11" ry="11" style="stroke:#181818;stroke-width:1.0;"/><path d="M772.3979,292.875 Q772.5542,292.6563 772.7417,292.5469 Q772.9292,292.4375 773.1479,292.4375 Q773.5229,292.4375 773.7573,292.7031 Q773.9917,292.9531 773.9917,293.5625 L773.9917,295.0156 Q773.9917,295.625 773.7573,295.8906 Q773.5229,296.1563 773.1479,296.1563 Q772.8042,296.1563 772.6011,295.9531 Q772.3979,295.7656 772.2886,295.25 Q772.2417,294.8906 772.0542,294.7031 Q771.7261,294.3281 771.1167,294.1094 Q770.5073,293.8906 769.8823,293.8906 Q769.1167,293.8906 768.4761,294.2188 Q767.8511,294.5469 767.3511,295.2969 Q766.8667,296.0469 766.8667,297.0781 L766.8667,298.1719 Q766.8667,299.4063 767.7573,300.2344 Q768.6479,301.0469 770.2417,301.0469 Q771.1792,301.0469 771.8354,300.7969 Q772.2261,300.6406 772.6479,300.2031 Q772.9136,299.9375 773.0542,299.8594 Q773.2104,299.7813 773.4136,299.7813 Q773.7417,299.7813 773.9917,300.0469 Q774.2573,300.2969 774.2573,300.6406 Q774.2573,300.9844 773.9136,301.3906 Q773.4136,301.9688 772.6167,302.2969 Q771.5386,302.75 770.2417,302.75 Q768.7261,302.75 767.5229,302.125 Q766.5386,301.625 765.8511,300.5625 Q765.1636,299.4844 765.1636,298.2031 L765.1636,297.0469 Q765.1636,295.7188 765.7729,294.5781 Q766.3979,293.4219 767.4917,292.8125 Q768.5854,292.1875 769.8198,292.1875 Q770.5542,292.1875 771.1948,292.3594 Q771.8511,292.5156 772.3979,292.875 Z " fill="#000000"/><text fill="#000000" font-family="sans-serif" font-size="14" lengthAdjust="spacing" textLength="130.7441" x="790.1323" y="302.7969">CleanupEventDetails</text><line style="stroke:#181818;stroke-width:0.5;" x1="686" x2="992.5088" y1="313" y2="313"/><polygon fill="none" points="696,323.8105,692,329.8105,700,329.8105" style="stroke:#1963A0;stroke-width:1.0;"/><text fill="#000000" font-family="sans-serif" font-size="14" lengthAdjust="spacing" textLength="282.5088" x="705" y="332.1074">cleanupevent_request: OneToOneField &#171;FK&#187;</text><polygon fill="none" points="696,342.4316,692,348.4316,700,348.4316" style="stroke:#1963A0;stroke-width:1.0;"/><text fill="#000000" font-family="sans-serif" font-size="14" lengthAdjust="spacing" textLength="210.1162" x="705" y="350.7285">waste_quantity: ForeignKey &#171;FK&#187;</text><polygon fill="none" points="696,360.0527,700,364.0527,696,368.0527,692,364.0527" style="stroke:#B38D22;stroke-width:1.0;"/><text fill="#000000" font-family="sans-serif" font-size="14" lengthAdjust="spacing" textLength="235.7715" x="705" y="369.3496">waste_types: ManyToManyField [0..1]</text><ellipse cx="696" cy="383.6738" fill="none" rx="3" ry="3" style="stroke:#038048;stroke-width:1.0;"/><text fill="#000000" font-family="sans-serif" font-size="14" lengthAdjust="spacing" textLength="254.4883" x="705" y="387.9707">waste_types_annotation: CharField [0..1]</text><polygon fill="none" points="696,397.2949,700,401.2949,696,405.2949,692,401.2949" style="stroke:#B38D22;stroke-width:1.0;"/><text fill="#000000" font-family="sans-serif" font-size="14" lengthAdjust="spacing" textLength="230.3301" x="705" y="406.5918">equipments: ManyToManyField [0..1]</text><line style="stroke:#181818;stroke-width:0.5;" x1="686" x2="992.5088" y1="414.1055" y2="414.1055"/></g><!--class CleanupEventContainer--><g id="elem_CleanupEventContainer"><rect codeLine="99" fill="#F1F1F1" height="122.4844" id="CleanupEventContainer" rx="2.5" ry="2.5" style="stroke:#181818;stroke-width:0.5;" width="308.5088" x="1718" y="642"/><ellipse cx="1793.6772" cy="658" fill="#ADD1B2" rx="11" ry="11" style="stroke:#181818;stroke-width:1.0;"/><path d="M1796.4429,653.875 Q1796.5991,653.6563 1796.7866,653.5469 Q1796.9741,653.4375 1797.1929,653.4375 Q1797.5679,653.4375 1797.8022,653.7031 Q1798.0366,653.9531 1798.0366,654.5625 L1798.0366,656.0156 Q1798.0366,656.625 1797.8022,656.8906 Q1797.5679,657.1563 1797.1929,657.1563 Q1796.8491,657.1563 1796.646,656.9531 Q1796.4429,656.7656 1796.3335,656.25 Q1796.2866,655.8906 1796.0991,655.7031 Q1795.771,655.3281 1795.1616,655.1094 Q1794.5522,654.8906 1793.9272,654.8906 Q1793.1616,654.8906 1792.521,655.2188 Q1791.896,655.5469 1791.396,656.2969 Q1790.9116,657.0469 1790.9116,658.0781 L1790.9116,659.1719 Q1790.9116,660.4063 1791.8022,661.2344 Q1792.6929,662.0469 1794.2866,662.0469 Q1795.2241,662.0469 1795.8804,661.7969 Q1796.271,661.6406 1796.6929,661.2031 Q1796.9585,660.9375 1797.0991,660.8594 Q1797.2554,660.7813 1797.4585,660.7813 Q1797.7866,660.7813 1798.0366,661.0469 Q1798.3022,661.2969 1798.3022,661.6406 Q1798.3022,661.9844 1797.9585,662.3906 Q1797.4585,662.9688 1796.6616,663.2969 Q1795.5835,663.75 1794.2866,663.75 Q1792.771,663.75 1791.5679,663.125 Q1790.5835,662.625 1789.896,661.5625 Q1789.2085,660.4844 1789.2085,659.2031 L1789.2085,658.0469 Q1789.2085,656.7188 1789.8179,655.5781 Q1790.4429,654.4219 1791.5366,653.8125 Q1792.6304,653.1875 1793.8647,653.1875 Q1794.5991,653.1875 1795.2397,653.3594 Q1795.896,653.5156 1796.4429,653.875 Z " fill="#000000"/><text fill="#000000" font-family="sans-serif" font-size="14" lengthAdjust="spacing" textLength="148.6543" x="1814.1772" y="663.7969">CleanupEventContainer</text><line style="stroke:#181818;stroke-width:0.5;" x1="1719" x2="2025.5088" y1="674" y2="674"/><polygon fill="none" points="1729,684.8105,1725,690.8105,1733,690.8105" style="stroke:#1963A0;stroke-width:1.0;"/><text fill="#000000" font-family="sans-serif" font-size="14" lengthAdjust="spacing" textLength="282.5088" x="1738" y="693.1074">cleanupevent_request: OneToOneField &#171;FK&#187;</text><ellipse cx="1729" cy="707.4316" fill="none" rx="3" ry="3" style="stroke:#038048;stroke-width:1.0;"/><text fill="#000000" font-family="sans-serif" font-size="14" lengthAdjust="spacing" textLength="150.9717" x="1738" y="711.7285">delivery_date: DateField</text><ellipse cx="1729" cy="726.0527" fill="none" rx="3" ry="3" style="stroke:#038048;stroke-width:1.0;"/><text fill="#000000" font-family="sans-serif" font-size="14" lengthAdjust="spacing" textLength="143.1992" x="1738" y="730.3496">pickup_date: DateField</text><ellipse cx="1729" cy="744.6738" fill="none" rx="3" ry="3" style="stroke:#038048;stroke-width:1.0;"/><text fill="#000000" font-family="sans-serif" font-size="14" lengthAdjust="spacing" textLength="103.5029" x="1738" y="748.9707">place: PointField</text><line style="stroke:#181818;stroke-width:0.5;" x1="1719" x2="2025.5088" y1="756.4844" y2="756.4844"/></g><!--class CleanupEventDump--><g id="elem_CleanupEventDump"><rect codeLine="106" fill="#F1F1F1" height="85.2422" id="CleanupEventDump" rx="2.5" ry="2.5" style="stroke:#181818;stroke-width:0.5;" width="308.5088" x="2062" y="660.5"/><ellipse cx="2149.3564" cy="676.5" fill="#ADD1B2" rx="11" ry="11" style="stroke:#181818;stroke-width:1.0;"/><path d="M2152.1221,672.375 Q2152.2783,672.1563 2152.4658,672.0469 Q2152.6533,671.9375 2152.8721,671.9375 Q2153.2471,671.9375 2153.4814,672.2031 Q2153.7158,672.4531 2153.7158,673.0625 L2153.7158,674.5156 Q2153.7158,675.125 2153.4814,675.3906 Q2153.2471,675.6563 2152.8721,675.6563 Q2152.5283,675.6563 2152.3252,675.4531 Q2152.1221,675.2656 2152.0127,674.75 Q2151.9658,674.3906 2151.7783,674.2031 Q2151.4502,673.8281 2150.8408,673.6094 Q2150.2314,673.3906 2149.6064,673.3906 Q2148.8408,673.3906 2148.2002,673.7188 Q2147.5752,674.0469 2147.0752,674.7969 Q2146.5908,675.5469 2146.5908,676.5781 L2146.5908,677.6719 Q2146.5908,678.9063 2147.4814,679.7344 Q2148.3721,680.5469 2149.9658,680.5469 Q2150.9033,680.5469 2151.5596,680.2969 Q2151.9502,680.1406 2152.3721,679.7031 Q2152.6377,679.4375 2152.7783,679.3594 Q2152.9346,679.2813 2153.1377,679.2813 Q2153.4658,679.2813 2153.7158,679.5469 Q2153.9814,679.7969 2153.9814,680.1406 Q2153.9814,680.4844 2153.6377,680.8906 Q2153.1377,681.4688 2152.3408,681.7969 Q2151.2627,682.25 2149.9658,682.25 Q2148.4502,682.25 2147.2471,681.625 Q2146.2627,681.125 2145.5752,680.0625 Q2144.8877,678.9844 2144.8877,677.7031 L2144.8877,676.5469 Q2144.8877,675.2188 2145.4971,674.0781 Q2146.1221,672.9219 2147.2158,672.3125 Q2148.3096,671.6875 2149.5439,671.6875 Q2150.2783,671.6875 2150.9189,671.8594 Q2151.5752,672.0156 2152.1221,672.375 Z " fill="#000000"/><text fill="#000000" font-family="sans-serif" font-size="14" lengthAdjust="spacing" textLength="125.2959" x="2169.8564" y="682.2969">CleanupEventDump</text><line style="stroke:#181818;stroke-width:0.5;" x1="2063" x2="2369.5088" y1="692.5" y2="692.5"/><polygon fill="none" points="2073,703.3105,2069,709.3105,2077,709.3105" style="stroke:#1963A0;stroke-width:1.0;"/><text fill="#000000" font-family="sans-serif" font-size="14" lengthAdjust="spacing" textLength="282.5088" x="2082" y="711.6074">cleanupevent_request: OneToOneField &#171;FK&#187;</text><ellipse cx="2073" cy="725.9316" fill="none" rx="3" ry="3" style="stroke:#038048;stroke-width:1.0;"/><text fill="#000000" font-family="sans-serif" font-size="14" lengthAdjust="spacing" textLength="103.5029" x="2082" y="730.2285">place: PointField</text><line style="stroke:#181818;stroke-width:0.5;" x1="2063" x2="2369.5088" y1="737.7422" y2="737.7422"/></g><!--class CleanupEventRequestComment--><g id="elem_CleanupEventRequestComment"><rect codeLine="111" fill="#F1F1F1" height="66.6211" id="CleanupEventRequestComment" rx="2.5" ry="2.5" style="stroke:#181818;stroke-width:0.5;" width="280.4951" x="2180.5" y="1045.5"/><ellipse cx="2216.9726" cy="1061.5" fill="#ADD1B2" rx="11" ry="11" style="stroke:#181818;stroke-width:1.0;"/><path d="M2219.7382,1057.375 Q2219.8944,1057.1563 2220.0819,1057.0469 Q2220.2694,1056.9375 2220.4882,1056.9375 Q2220.8632,1056.9375 2221.0976,1057.2031 Q2221.3319,1057.4531 2221.3319,1058.0625 L2221.3319,1059.5156 Q2221.3319,1060.125 2221.0976,1060.3906 Q2220.8632,1060.6563 2220.4882,1060.6563 Q2220.1444,1060.6563 2219.9413,1060.4531 Q2219.7382,1060.2656 2219.6288,1059.75 Q2219.5819,1059.3906 2219.3944,1059.2031 Q2219.0663,1058.8281 2218.4569,1058.6094 Q2217.8476,1058.3906 2217.2226,1058.3906 Q2216.4569,1058.3906 2215.8163,1058.7188 Q2215.1913,1059.0469 2214.6913,1059.7969 Q2214.2069,1060.5469 2214.2069,1061.5781 L2214.2069,1062.6719 Q2214.2069,1063.9063 2215.0976,1064.7344 Q2215.9882,1065.5469 2217.5819,1065.5469 Q2218.5194,1065.5469 2219.1757,1065.2969 Q2219.5663,1065.1406 2219.9882,1064.7031 Q2220.2538,1064.4375 2220.3944,1064.3594 Q2220.5507,1064.2813 2220.7538,1064.2813 Q2221.0819,1064.2813 2221.3319,1064.5469 Q2221.5976,1064.7969 2221.5976,1065.1406 Q2221.5976,1065.4844 2221.2538,1065.8906 Q2220.7538,1066.4688 2219.9569,1066.7969 Q2218.8788,1067.25 2217.5819,1067.25 Q2216.0663,1067.25 2214.8632,1066.625 Q2213.8788,1066.125 2213.1913,1065.0625 Q2212.5038,1063.9844 2212.5038,1062.7031 L2212.5038,1061.5469 Q2212.5038,1060.2188 2213.1132,1059.0781 Q2213.7382,1057.9219 2214.8319,1057.3125 Q2215.9257,1056.6875 2217.1601,1056.6875 Q2217.8944,1056.6875 2218.5351,1056.8594 Q2219.1913,1057.0156 2219.7382,1057.375 Z " fill="#000000"/><text fill="#000000" font-family="sans-serif" font-size="14" lengthAdjust="spacing" textLength="200.7783" x="2235.7442" y="1067.2969">CleanupEventRequestComment</text><line style="stroke:#181818;stroke-width:0.5;" x1="2181.5" x2="2459.9951" y1="1077.5" y2="1077.5"/><polygon fill="none" points="2191.5,1088.3105,2187.5,1094.3105,2195.5,1094.3105" style="stroke:#1963A0;stroke-width:1.0;"/><text fill="#000000" font-family="sans-serif" font-size="14" lengthAdjust="spacing" textLength="254.4951" x="2200.5" y="1096.6074">cleanupevent_request: ForeignKey &#171;FK&#187;</text><line style="stroke:#181818;stroke-width:0.5;" x1="2181.5" x2="2459.9951" y1="1104.1211" y2="1104.1211"/></g><!--reverse link Base to Codelist--><g id="link_Base_Codelist"><path codeLine="115" d="M659.7553,126.4041 C623.5753,182.5941 575.98,256.55 542.42,308.68 " fill="none" id="Base-backto-Codelist" style="stroke:#181818;stroke-width:1.0;"/><polygon fill="none" points="669.5,111.27,654.7106,123.1559,664.8,129.6523,669.5,111.27" style="stroke:#181818;stroke-width:1.0;"/></g><!--reverse link Base to Object--><g id="link_Base_Object"><path codeLine="116" d="M809.2299,84.8869 C938.8099,115.0969 1155.88,165.71 1245.43,186.59 " fill="none" id="Base-backto-Object" style="stroke:#181818;stroke-width:1.0;"/><polygon fill="none" points="791.7,80.8,807.8676,90.7302,810.5922,79.0436,791.7,80.8" style="stroke:#181818;stroke-width:1.0;"/></g><!--reverse link Object to GeometryObject--><g id="link_Object_GeometryObject"><path codeLine="117" d="M1335.342,205.8372 C1475.202,228.8072 1965.19,309.24 2149.26,339.46 " fill="none" id="Object-backto-GeometryObject" style="stroke:#181818;stroke-width:1.0;"/><polygon fill="none" points="1317.58,202.92,1334.3697,211.7578,1336.3144,199.9165,1317.58,202.92" style="stroke:#181818;stroke-width:1.0;"/></g><!--reverse link Codelist to CodelistRequestStatus--><g id="link_Codelist_CodelistRequestStatus"><path codeLine="118" d="M610.5653,401.5586 C633.6353,412.1986 642.93,415.05 667.5,422 C719.85,436.82 872.17,413.39 910.5,452 C967.76,509.68 957.12,615.52 947.02,669.08 " fill="none" id="Codelist-backto-CodelistRequestStatus" style="stroke:#181818;stroke-width:1.0;"/><polygon fill="none" points="594.22,394.02,608.0525,407.007,613.0782,396.1101,594.22,394.02" style="stroke:#181818;stroke-width:1.0;"/></g><!--reverse link Codelist to CleanupEventCodelistWasteQuantity--><g id="link_Codelist_CleanupEventCodelistWasteQuantity"><path codeLine="119" d="M562.2524,408.4446 C575.7424,425.5846 579.38,431.95 590.5,452 C634.24,530.88 666.82,633.78 680.03,678.99 " fill="none" id="Codelist-backto-CleanupEventCodelistWasteQuantity" style="stroke:#181818;stroke-width:1.0;"/><polygon fill="none" points="551.12,394.3,557.5376,412.1554,566.9673,404.7337,551.12,394.3" style="stroke:#181818;stroke-width:1.0;"/></g><!--reverse link Codelist to CleanupEventCodelistWasteType--><g id="link_Codelist_CleanupEventCodelistWasteType"><path codeLine="120" d="M487.4249,410.3551 C479.1849,427.9751 477.6,432.59 470.5,452 C440.58,533.78 415.42,634.34 404.85,678.89 " fill="none" id="Codelist-backto-CleanupEventCodelistWasteType" style="stroke:#181818;stroke-width:1.0;"/><polygon fill="none" points="495.05,394.05,481.9898,407.8134,492.8599,412.8968,495.05,394.05" style="stroke:#181818;stroke-width:1.0;"/></g><!--reverse link Codelist to CleanupEventCodelistEquipment--><g id="link_Codelist_CleanupEventCodelistEquipment"><path codeLine="121" d="M455.4357,406.3235 C372.7457,480.4335 216.48,620.47 151.56,678.65 " fill="none" id="Codelist-backto-CleanupEventCodelistEquipment" style="stroke:#181818;stroke-width:1.0;"/><polygon fill="none" points="468.84,394.31,451.4312,401.8554,459.4402,410.7916,468.84,394.31" style="stroke:#181818;stroke-width:1.0;"/></g><!--reverse link Object to Authority--><g id="link_Object_Authority"><path codeLine="122" d="M1277.5239,238.0712 C1272.6939,281.8012 1258.93,359.77 1210.5,422 C1193.34,444.05 1168.36,461.6 1144.8,474.64 " fill="none" id="Object-backto-Authority" style="stroke:#181818;stroke-width:1.0;"/><polygon fill="none" points="1279.5,220.18,1271.5602,237.4125,1283.4876,238.7299,1279.5,220.18" style="stroke:#181818;stroke-width:1.0;"/></g><!--reverse link Object to Email--><g id="link_Object_Email"><path codeLine="123" d="M1240.0671,231.9702 C1229.4871,241.0602 1231.08,239.96 1220.5,250 C1204.05,265.61 1186.68,283.22 1171.25,299.29 " fill="none" id="Object-backto-Email" style="stroke:#181818;stroke-width:1.0;"/><polygon fill="none" points="1253.72,220.24,1236.157,227.4192,1243.9771,236.5212,1253.72,220.24" style="stroke:#181818;stroke-width:1.0;"/></g><!--reverse link Object to Requester--><g id="link_Object_Requester"><path codeLine="124" d="M1292.9513,237.447 C1295.4713,246.697 1293.49,240.11 1295.5,250 C1322.87,384.65 1281.11,431.63 1339.5,556 C1344.29,566.21 1350.04,576.21 1356.42,585.89 " fill="none" id="Object-backto-Requester" style="stroke:#181818;stroke-width:1.0;"/><polygon fill="none" points="1288.22,220.08,1287.1623,239.0242,1298.7404,235.8699,1288.22,220.08" style="stroke:#181818;stroke-width:1.0;"/></g><!--reverse link Object to Request--><g id="link_Object_Request"><path codeLine="125" d="M1324.36,231.6237 C1350.21,252.5137 1375.03,272.56 1408.09,299.27 " fill="none" id="Object-backto-Request" style="stroke:#181818;stroke-width:1.0;"/><polygon fill="none" points="1310.36,220.31,1320.5887,236.2904,1328.1312,226.9571,1310.36,220.31" style="stroke:#181818;stroke-width:1.0;"/></g><!--reverse link Object to RequestComment--><g id="link_Object_RequestComment"><path codeLine="126" d="M1335.6516,198.6306 C1592.4916,206.4906 3112.5,256.94 3112.5,350.5 C3112.5,350.5 3112.5,350.5 3112.5,1080 C3112.5,1150.09 2916.39,1198.79 2783.67,1223.72 " fill="none" id="Object-backto-RequestComment" style="stroke:#181818;stroke-width:1.0;"/><polygon fill="none" points="1317.66,198.08,1335.468,204.6278,1335.8351,192.6334,1317.66,198.08" style="stroke:#181818;stroke-width:1.0;"/></g><!--link Request to CodelistRequestStatus--><g id="link_Request_CodelistRequestStatus"><path codeLine="127" d="M1394.08,403.57 C1331.6,444.77 1241.43,504.17 1162.5,556 C1103.12,594.99 1039.8013,636.4258 994.5913,665.9958 " fill="none" id="Request-to-CodelistRequestStatus" style="stroke:#181818;stroke-width:1.0;"/><polygon fill="#181818" points="989.57,669.28,999.2915,667.7012,993.7544,666.5431,994.9125,661.0061,989.57,669.28" style="stroke:#181818;stroke-width:1.0;"/><text fill="#000000" font-family="sans-serif" font-size="13" lengthAdjust="spacing" textLength="34.6836" x="1315.5" y="509.5283">status</text></g><!--link Request to Requester--><g id="link_Request_Requester"><path codeLine="128" d="M1471.5,403.69 C1471.5,451.38 1471.5,518.2 1471.5,579.95 " fill="none" id="Request-to-Requester" style="stroke:#181818;stroke-width:1.0;"/><polygon fill="#181818" points="1471.5,585.95,1475.5,576.95,1471.5,580.95,1467.5,576.95,1471.5,585.95" style="stroke:#181818;stroke-width:1.0;"/><text fill="#000000" font-family="sans-serif" font-size="13" lengthAdjust="spacing" textLength="54.9199" x="1472.5" y="509.5283">requester</text></g><!--reverse link Request to CleanupEventRequest--><g id="link_Request_CleanupEventRequest"><path codeLine="129" d="M1523.6754,417.8091 C1558.7754,463.3691 1597.49,518.84 1629.5,586 C1676.26,684.11 1628.13,738.92 1700.5,820 C1733.4,856.86 1780.63,882 1825.72,898.93 " fill="none" id="Request-backto-CleanupEventRequest" style="stroke:#181818;stroke-width:1.0;"/><polygon fill="none" points="1512.69,403.55,1518.9224,421.4709,1528.4284,414.1473,1512.69,403.55" style="stroke:#181818;stroke-width:1.0;"/></g><!--link CleanupEventRequest to CleanupEventResponsibilities--><g id="link_CleanupEventRequest_CleanupEventResponsibilities"><path codeLine="130" d="M1876.36,966.11 C1831.17,984.05 1774.09,1006.71 1723.13,1026.94 " fill="none" id="CleanupEventRequest-CleanupEventResponsibilities" style="stroke:#181818;stroke-width:1.0;"/><text fill="#000000" font-family="sans-serif" font-size="13" lengthAdjust="spacing" textLength="7.23" x="1854.1462" y="987.6988">1</text><text fill="#000000" font-family="sans-serif" font-size="13" lengthAdjust="spacing" textLength="19.5127" x="1720.1393" y="1015.8593">0..*</text></g><!--link Authority to CleanupEventResponsibilities--><g id="link_Authority_CleanupEventResponsibilities"><path codeLine="131" d="M1076.5,556.26 C1075.17,622.99 1081.93,740.45 1137.5,820 C1213.29,928.49 1350.19,996.92 1454.47,1035.83 " fill="none" id="Authority-CleanupEventResponsibilities" style="stroke:#181818;stroke-width:1.0;"/><text fill="#000000" font-family="sans-serif" font-size="13" lengthAdjust="spacing" textLength="7.23" x="1068.705" y="577.7195">1</text><text fill="#000000" font-family="sans-serif" font-size="13" lengthAdjust="spacing" textLength="19.5127" x="1426.8258" y="1029.8835">0..*</text></g><!--reverse link GeometryObject to CleanupEventEvent--><g id="link_GeometryObject_CleanupEventEvent"><path codeLine="132" d="M2251.9658,388.5293 C2304.7058,442.1193 2423.78,563.09 2501.16,641.71 " fill="none" id="GeometryObject-backto-CleanupEventEvent" style="stroke:#181818;stroke-width:1.0;"/><polygon fill="none" points="2239.34,375.7,2247.6894,392.7378,2256.2422,384.3207,2239.34,375.7" style="stroke:#181818;stroke-width:1.0;"/></g><!--link CleanupEventEvent to CleanupEventRequest--><g id="link_CleanupEventEvent_CleanupEventRequest"><path codeLine="133" d="M2482.14,764.17 C2453.76,783.95 2420.73,804.75 2388.5,820 C2295.78,863.86 2189.2258,891.0751 2102.5758,908.2251 " fill="none" id="CleanupEventEvent-to-CleanupEventRequest" style="stroke:#181818;stroke-width:1.0;"/><polygon fill="#181818" points="2096.69,909.39,2106.2954,911.5665,2101.5949,908.4192,2104.7421,903.7187,2096.69,909.39" style="stroke:#181818;stroke-width:1.0;"/><text fill="#000000" font-family="sans-serif" font-size="13" lengthAdjust="spacing" textLength="127.9307" x="2310.5" y="865.0283">cleanupevent_request</text></g><!--reverse link GeometryObject to CleanupEventVenue--><g id="link_GeometryObject_CleanupEventVenue"><path codeLine="134" d="M2292.8406,382.2799 C2390.5806,421.0699 2573.24,497.09 2732.5,586 C2772.44,608.3 2815.08,637.02 2847.92,660.3 " fill="none" id="GeometryObject-backto-CleanupEventVenue" style="stroke:#181818;stroke-width:1.0;"/><polygon fill="none" points="2276.11,375.64,2290.6273,387.8567,2295.0539,376.703,2276.11,375.64" style="stroke:#181818;stroke-width:1.0;"/></g><!--link CleanupEventVenue to CleanupEventRequest--><g id="link_CleanupEventVenue_CleanupEventRequest"><path codeLine="135" d="M2855.06,745.68 C2822.32,771.09 2777.29,802.03 2732.5,820 C2521.61,904.6 2261.6172,926.0573 2102.7272,930.8973 " fill="none" id="CleanupEventVenue-to-CleanupEventRequest" style="stroke:#181818;stroke-width:1.0;"/><polygon fill="#181818" points="2096.73,931.08,2105.8476,934.8041,2101.7277,930.9278,2105.604,926.8078,2096.73,931.08" style="stroke:#181818;stroke-width:1.0;"/><text fill="#000000" font-family="sans-serif" font-size="13" lengthAdjust="spacing" textLength="127.9307" x="2632.5" y="865.0283">cleanupevent_request</text></g><!--reverse link Object to CleanupEventDetails--><g id="link_Object_CleanupEventDetails"><path codeLine="136" d="M1228.31,215.0799 C1180.48,231.3599 1110.61,255.22 1036.5,281 C1022.71,285.8 1008.39,290.8 994.04,295.83 " fill="none" id="Object-backto-CleanupEventDetails" style="stroke:#181818;stroke-width:1.0;"/><polygon fill="none" points="1245.35,209.28,1226.3767,209.3999,1230.2433,220.7599,1245.35,209.28" style="stroke:#181818;stroke-width:1.0;"/></g><!--link CleanupEventDetails to CleanupEventRequest--><g id="link_CleanupEventDetails_CleanupEventRequest"><path codeLine="137" d="M994.01,408.17 C1008.33,412.98 1022.66,417.66 1036.5,422 C1084.44,437.03 1112.93,413.74 1145.5,452 C1252.14,577.27 1071.22,701.65 1185.5,820 C1270.74,908.27 1615.861,927.349 1814.281,931.019 " fill="none" id="CleanupEventDetails-to-CleanupEventRequest" style="stroke:#181818;stroke-width:1.0;"/><polygon fill="#181818" points="1820.28,931.13,1811.3555,926.9642,1815.2809,931.0375,1811.2076,934.9629,1820.28,931.13" style="stroke:#181818;stroke-width:1.0;"/><text fill="#000000" font-family="sans-serif" font-size="13" lengthAdjust="spacing" textLength="127.9307" x="1186.5" y="708.5283">cleanupevent_request</text></g><!--link CleanupEventDetails to CleanupEventCodelistWasteQuantity--><g id="link_CleanupEventDetails_CleanupEventCodelistWasteQuantity"><path codeLine="138" d="M824.63,422.11 C814.75,462.27 800,513.15 780.5,556 C759.4,602.37 728.7864,646.3473 707.9764,674.1373 " fill="none" id="CleanupEventDetails-to-CleanupEventCodelistWasteQuantity" style="stroke:#181818;stroke-width:1.0;"/><polygon fill="#181818" points="704.38,678.94,712.9764,674.1336,707.377,674.9378,706.5728,669.3384,704.38,678.94" style="stroke:#181818;stroke-width:1.0;"/><text fill="#000000" font-family="sans-serif" font-size="13" lengthAdjust="spacing" textLength="86.7217" x="818.5" y="509.5283">waste_quantity</text></g><!--link CleanupEventDetails to CleanupEventCodelistWasteType--><g id="link_CleanupEventDetails_CleanupEventCodelistWasteType"><path codeLine="139" d="M727.1952,429.3099 C714.0652,439.0299 710.63,441.98 698.5,452 C647.13,494.44 643.92,516.16 590.5,556 C568.8,572.18 559.73,570.56 537.5,586 C495.6,615.1 459.9586,646.0643 433.1586,670.6143 " fill="none" id="CleanupEventDetails-CleanupEventCodelistWasteType" style="stroke:#181818;stroke-width:1.0;"/><polygon fill="#181818" points="736.84,422.17,729.6376,422.525,727.1952,429.3099,734.3976,428.9549,736.84,422.17" style="stroke:#181818;stroke-width:1.0;"/><polygon fill="#181818" points="424.31,678.72,431.4362,677.6167,433.1586,670.6143,426.0324,671.7176,424.31,678.72" style="stroke:#181818;stroke-width:1.0;"/><text fill="#000000" font-family="sans-serif" font-size="13" lengthAdjust="spacing" textLength="72.2617" x="699.5" y="509.5283">waste_types</text></g><!--link CleanupEventDetails to CleanupEventCodelistEquipment--><g id="link_CleanupEventDetails_CleanupEventCodelistEquipment"><path codeLine="140" d="M673.4125,420.3141 C667.5925,422.2141 673.21,420.31 667.5,422 C600.64,441.82 577.2,423.62 513.5,452 C443.35,483.25 444.6,522.49 375.5,556 C328.36,578.86 307.93,561.72 261.5,586 C215.3,610.16 179.4168,643.8427 154.5268,670.1527 " fill="none" id="CleanupEventDetails-CleanupEventCodelistEquipment" style="stroke:#181818;stroke-width:1.0;"/><polygon fill="#181818" points="684.82,416.59,677.8749,414.6495,673.4125,420.3141,680.3576,422.2545,684.82,416.59" style="stroke:#181818;stroke-width:1.0;"/><polygon fill="#181818" points="146.28,678.87,153.3091,677.2603,154.5268,670.1527,147.4976,671.7624,146.28,678.87" style="stroke:#181818;stroke-width:1.0;"/><text fill="#000000" font-family="sans-serif" font-size="13" lengthAdjust="spacing" textLength="67.209" x="514.5" y="509.5283">equipments</text></g><!--reverse link GeometryObject to CleanupEventContainer--><g id="link_GeometryObject_CleanupEventContainer"><path codeLine="141" d="M2181.0342,388.5293 C2128.2942,442.1193 2009.22,563.09 1931.84,641.71 " fill="none" id="GeometryObject-backto-CleanupEventContainer" style="stroke:#181818;stroke-width:1.0;"/><polygon fill="none" points="2193.66,375.7,2176.7578,384.3207,2185.3106,392.7378,2193.66,375.7" style="stroke:#181818;stroke-width:1.0;"/></g><!--link CleanupEventContainer to CleanupEventRequest--><g id="link_CleanupEventContainer_CleanupEventRequest"><path codeLine="142" d="M1895.21,764.07 C1911.53,807.25 1930.7871,858.2081 1944.0571,893.2881 " fill="none" id="CleanupEventContainer-to-CleanupEventRequest" style="stroke:#181818;stroke-width:1.0;"/><polygon fill="#181818" points="1946.18,898.9,1946.737,889.0669,1944.4109,894.2234,1939.2544,891.8974,1946.18,898.9" style="stroke:#181818;stroke-width:1.0;"/><text fill="#000000" font-family="sans-serif" font-size="13" lengthAdjust="spacing" textLength="127.9307" x="1933.5" y="865.0283">cleanupevent_request</text></g><!--reverse link GeometryObject to CleanupEventDump--><g id="link_GeometryObject_CleanupEventDump"><path codeLine="143" d="M2216.5,393.7 C2216.5,451.79 2216.5,586.11 2216.5,660.26 " fill="none" id="GeometryObject-backto-CleanupEventDump" style="stroke:#181818;stroke-width:1.0;"/><polygon fill="none" points="2216.5,375.7,2210.5,393.7,2222.5,393.7,2216.5,375.7" style="stroke:#181818;stroke-width:1.0;"/></g><!--link CleanupEventDump to CleanupEventRequest--><g id="link_CleanupEventDump_CleanupEventRequest"><path codeLine="144" d="M2185.64,745.81 C2157.94,781.45 2114.77,832.55 2069.5,869 C2055.89,879.96 2045.3119,887.11 2030.0019,895.91 " fill="none" id="CleanupEventDump-to-CleanupEventRequest" style="stroke:#181818;stroke-width:1.0;"/><polygon fill="#181818" points="2024.8,898.9,2034.5962,897.8829,2029.1349,896.4083,2030.6095,890.9471,2024.8,898.9" style="stroke:#181818;stroke-width:1.0;"/><text fill="#000000" font-family="sans-serif" font-size="13" lengthAdjust="spacing" textLength="127.9307" x="2088.5" y="865.0283">cleanupevent_request</text></g><!--reverse link CleanupEventRequestComment to RequestComment--><g id="link_CleanupEventRequestComment_RequestComment"><path codeLine="145" d="M2405.5561,1120.298 C2453.3961,1142.968 2501.87,1165.94 2556.55,1191.85 " fill="none" id="CleanupEventRequestComment-backto-RequestComment" style="stroke:#181818;stroke-width:1.0;"/><polygon fill="none" points="2389.29,1112.59,2402.9868,1125.7201,2408.1255,1114.876,2389.29,1112.59" style="stroke:#181818;stroke-width:1.0;"/></g><!--link CleanupEventRequest to CleanupEventRequestComment--><g id="link_CleanupEventRequest_CleanupEventRequestComment"><path codeLine="146" d="M2040.19,966.11 C2099.52,989.79 2179.46,1021.7 2238.79,1045.39 " fill="none" id="CleanupEventRequest-CleanupEventRequestComment" style="stroke:#181818;stroke-width:1.0;"/><text fill="#000000" font-family="sans-serif" font-size="13" lengthAdjust="spacing" textLength="7.23" x="2047.1584" y="987.6988">1</text><text fill="#000000" font-family="sans-serif" font-size="13" lengthAdjust="spacing" textLength="19.5127" x="2201.8348" y="1034.1939">0..*</text></g><!--SRC=[jLPRRzCm57xFhx2wjw5Ex3MQ9h6kGsX26ri53mX5RdBMcYLsPZk3SEblntQSkzCq0ruIwVZpkP_F1w-5v3YKA8on4EW22q0_FOHU8HBvw89itcIINH688tHsTdjzVcxEGWvOWW9Sgj-A960GvYXX4NaW_RFVdeVRjXOiWfW8QUqn7X6AOn_TCa4aUORx1CVnEofX0xpmuFFhavFJBmPDSG8-Mcmn7r9_i_uAeLRUFteBB079yoQaxTCTF6KWvBt4CXDbGa966oPBR-gxCM2QfSjdeBBKymaB2HyoJ2MHUSlG47YLfp06N3vb94sKe0bKXTeoNfZHxcuuoz9cYbnfqp98C8axkInKBlM9LVS8UVUYo4p-kk8rYnHq1TzbHvrDAd2hCXF00zrcPSM7Yitu1bFo0qlYh826F10kPD09hmbG7kmzjram8TUnI8WXtJBQIngE8Wv21Agl0EI0pXAqPIhKW6R96lW8D6L2uZW8LQN7a34EmTsFdNQtUJTPto5XUjf7Lum3sT1hoDLaNrMJpHBTM4xREyJB2hgk3nfU53gdLbsDcpIkrArakWve54WMD7ovO4nFIQVTcfFJJC6H2aEaZ0go9h7o05GotcEQhvZ-Zi_sNUUspMjOG413IkVSMTuXNCxgK1bK5z93uZAVlGxSK5WnzIavl3Bnm5aIH8gZ2wPkz3phYbljfwXVroxEDsoVPn-1Pl0opsndtp92vHuBbo3Lh8gNsDYXRvfhWoVBpEuo75cKL9Gyt2FQumOkm9GoEKnLHmXAzfxOTmir3wejB7rEpgf-Efw1vywQfoHyp5BtqO7Lo9BqlvRRGIQ73vtIQ5QRir_pUVN8DqJ59k3PXS28sak2LsqhBHMjFQ6B6Ti73iNhbU00RBKLjCAereAMr3npBKdrEBkaBfajX5TIwtn-Fh0- -VRDQK7hPS2ldvKAqGkoTCH5whFJcLA9PcfsZcTxgTghbwG9bphhOiyty_7wj6moul3NTxRjg1d3g5wVOoUQ6L9lwTHpKUn44uUeS6_8VeUOdQgEv_FZaGNQRrBoD2NrSkqtg7gqEXKxUsxE_iVDeEdMw_7lNzIfGw-kIPywUwtBVm00]--></g></svg>