<?xml version="1.0" encoding="UTF-8" standalone="no"?>
<!-- Generator: Adobe Illustrator 15.0.2, SVG Export Plug-In . SVG Version: 6.00 Build 0)  -->

<svg
   version="1.1"
   id="Layer_1"
   x="0px"
   y="0px"
   width="45"
   height="30"
   viewBox="0 0 42.187503 28.125003"
   enable-background="new 0 0 363 227"
   xml:space="preserve"
   inkscape:version="1.2.1 (9c6d41e410, 2022-07-14)"
   sodipodi:docname="logo.svg"
   inkscape:export-filename="D:\favicon.png"
   inkscape:export-xdpi="614.40002"
   inkscape:export-ydpi="614.40002"
   xmlns:inkscape="http://www.inkscape.org/namespaces/inkscape"
   xmlns:sodipodi="http://sodipodi.sourceforge.net/DTD/sodipodi-0.dtd"
   xmlns="http://www.w3.org/2000/svg"
   xmlns:svg="http://www.w3.org/2000/svg"
   xmlns:rdf="http://www.w3.org/1999/02/22-rdf-syntax-ns#"
   xmlns:cc="http://creativecommons.org/ns#"
   xmlns:dc="http://purl.org/dc/elements/1.1/"><metadata
     id="metadata3108"><rdf:RDF><cc:Work
         rdf:about=""><dc:format>image/svg+xml</dc:format><dc:type
           rdf:resource="http://purl.org/dc/dcmitype/StillImage" /></cc:Work></rdf:RDF></metadata><defs
     id="defs3106" /><sodipodi:namedview
     pagecolor="#ffffff"
     bordercolor="#666666"
     borderopacity="1"
     objecttolerance="10"
     gridtolerance="10"
     guidetolerance="10"
     inkscape:pageopacity="0"
     inkscape:pageshadow="2"
     inkscape:window-width="1920"
     inkscape:window-height="1177"
     id="namedview3104"
     showgrid="false"
     fit-margin-top="0"
     fit-margin-left="0"
     fit-margin-right="0"
     fit-margin-bottom="0"
     inkscape:zoom="31.066667"
     inkscape:cx="22.5"
     inkscape:cy="15"
     inkscape:window-x="-8"
     inkscape:window-y="-8"
     inkscape:window-maximized="1"
     inkscape:current-layer="g3943"
     showguides="true"
     inkscape:guide-bbox="true"
     units="mm"
     inkscape:showpageshadow="2"
     inkscape:pagecheckerboard="0"
     inkscape:deskcolor="#d1d1d1" /><g
     id="g3943"
     transform="translate(-58.65625,-300.15625)"><path
       id="rect1017"
       style="fill:#0d6efd;fill-opacity:1;stroke:#ffffff;stroke-width:0.843538;stroke-linecap:square;stroke-dasharray:none;stroke-opacity:1"
       d="m 75.979389,300.57802 a 10.041851,9.6536687 0 0 0 -10.042065,9.65363 10.041851,9.6536687 0 0 0 0.012,0.1497 c -3.963915,1.00209 -6.871305,4.45786 -6.871305,8.59171 0,4.92296 4.122645,8.88647 9.24357,8.88647 h 10.4976 13.997745 c 4.213095,0 7.605046,-3.26084 7.605046,-7.31111 0,-3.34924 -2.320171,-6.15646 -5.505376,-7.02859 a 6.2092766,5.9692476 0 0 0 0.55206,-2.45672 6.2092766,5.9692476 0 0 0 -6.20922,-5.9694 6.2092766,5.9692476 0 0 0 -4.01454,1.42088 10.041851,9.6536687 0 0 0 -9.264795,-5.93646 z" /><path
       fill="#000000"
       d="m 80.003274,318.32497 -6.662745,6.66276 c -0.24099,0.24098 -0.53406,0.36147 -0.879255,0.36147 -0.338685,0 -0.63501,-0.1206 -0.88902,-0.36147 l -1.03557,-1.0551 c -0.247485,-0.23446 -0.371235,-0.52756 -0.371235,-0.87924 0,-0.34519 0.1239,-0.64155 0.371235,-0.88903 l 6.652995,-6.653 c 0.25401,0.63827 0.62688,1.20327 1.118595,1.695 0.49173,0.49173 1.056735,0.8646 1.695,1.11861 z m 6.193845,-4.24972 c 0,0.25401 -0.07485,0.59919 -0.2247,1.03557 -0.30612,0.87274 -0.841815,1.58101 -1.60707,2.12485 -0.765285,0.54384 -1.60707,0.81575 -2.525415,0.81575 -1.20489,0 -2.23557,-0.42822 -3.092025,-1.28468 -0.856455,-0.85645 -1.284675,-1.88715 -1.284675,-3.09204 0,-1.2049 0.42822,-2.23557 1.284675,-3.09202 0.856455,-0.85646 1.887135,-1.28469 3.092025,-1.28469 0.37776,0 0.77343,0.0537 1.186995,0.16119 0.41358,0.1074 0.76365,0.25888 1.050225,0.45429 0.10425,0.0716 0.1563,0.16282 0.1563,0.27354 0,0.1107 -0.05205,0.20191 -0.1563,0.27354 l -2.862465,1.65103 v 2.18835 l 1.8855,1.04535 c 0.03255,-0.0195 0.28983,-0.17748 0.771795,-0.47382 0.481965,-0.29634 0.923205,-0.5601 1.323765,-0.79132 0.400545,-0.23121 0.630135,-0.34682 0.68874,-0.34682 0.09765,0 0.174225,0.0326 0.22959,0.0978 0.05535,0.0652 0.0831,0.14655 0.0831,0.24423 z"
       id="path295"
       style="fill:#ffffff;fill-opacity:1;stroke:none;stroke-width:0.258384;stroke-dasharray:none;stroke-opacity:1"
       sodipodi:nodetypes="ccsccsccscscssssssscsccccsssss" /></g></svg>
