<?xml version="1.0" encoding="us-ascii" standalone="no"?><svg xmlns="http://www.w3.org/2000/svg" xmlns:xlink="http://www.w3.org/1999/xlink" contentStyleType="text/css" height="721px" preserveAspectRatio="none" style="width:3007px;height:721px;background:#FFFFFF;" version="1.1" viewBox="0 0 3007 721" width="3007px" zoomAndPan="magnify"><defs/><g><!--cluster datenwerft--><g id="cluster_datenwerft"><path d="M8.5,6.0137 L85.5,6.0137 A3.75,3.75 0 0 1 88,8.5137 L95,30.6348 L685.5,30.6348 A2.5,2.5 0 0 1 688,33.1348 L688,510.5137 A2.5,2.5 0 0 1 685.5,513.0137 L8.5,513.0137 A2.5,2.5 0 0 1 6,510.5137 L6,8.5137 A2.5,2.5 0 0 1 8.5,6.0137 " fill="none" style="stroke:#000000;stroke-width:1.5;"/><line style="stroke:#000000;stroke-width:1.5;" x1="6" x2="95" y1="30.6348" y2="30.6348"/><text fill="#000000" font-family="sans-serif" font-size="14" font-weight="bold" lengthAdjust="spacing" textLength="76" x="10" y="23.1211">datenwerft</text></g><!--cluster bemas--><g id="cluster_bemas"><path d="M714.5,282.0137 L761.5,282.0137 A3.75,3.75 0 0 1 764,284.5137 L771,306.6348 L2997.5,306.6348 A2.5,2.5 0 0 1 3000,309.1348 L3000,711.5137 A2.5,2.5 0 0 1 2997.5,714.0137 L714.5,714.0137 A2.5,2.5 0 0 1 712,711.5137 L712,284.5137 A2.5,2.5 0 0 1 714.5,282.0137 " fill="none" style="stroke:#000000;stroke-width:1.5;"/><line style="stroke:#000000;stroke-width:1.5;" x1="712" x2="771" y1="306.6348" y2="306.6348"/><text fill="#000000" font-family="sans-serif" font-size="14" font-weight="bold" lengthAdjust="spacing" textLength="46" x="716" y="299.1211">bemas</text></g><!--class base--><g id="elem_base"><rect codeLine="2" fill="#F1F1F1" height="215.5898" id="base" rx="2.5" ry="2.5" style="stroke:#181818;stroke-width:0.5;" width="139" x="22.5" y="43.0137"/><ellipse cx="72.25" cy="59.0137" fill="#ADD1B2" rx="11" ry="11" style="stroke:#181818;stroke-width:1.0;"/><path d="M75.0156,54.8887 Q75.1719,54.6699 75.3594,54.5605 Q75.5469,54.4512 75.7656,54.4512 Q76.1406,54.4512 76.375,54.7168 Q76.6094,54.9668 76.6094,55.5762 L76.6094,57.0293 Q76.6094,57.6387 76.375,57.9043 Q76.1406,58.1699 75.7656,58.1699 Q75.4219,58.1699 75.2188,57.9668 Q75.0156,57.7793 74.9063,57.2637 Q74.8594,56.9043 74.6719,56.7168 Q74.3438,56.3418 73.7344,56.123 Q73.125,55.9043 72.5,55.9043 Q71.7344,55.9043 71.0938,56.2324 Q70.4688,56.5605 69.9688,57.3105 Q69.4844,58.0605 69.4844,59.0918 L69.4844,60.1855 Q69.4844,61.4199 70.375,62.248 Q71.2656,63.0605 72.8594,63.0605 Q73.7969,63.0605 74.4531,62.8105 Q74.8438,62.6543 75.2656,62.2168 Q75.5313,61.9512 75.6719,61.873 Q75.8281,61.7949 76.0313,61.7949 Q76.3594,61.7949 76.6094,62.0605 Q76.875,62.3105 76.875,62.6543 Q76.875,62.998 76.5313,63.4043 Q76.0313,63.9824 75.2344,64.3105 Q74.1563,64.7637 72.8594,64.7637 Q71.3438,64.7637 70.1406,64.1387 Q69.1563,63.6387 68.4688,62.5762 Q67.7813,61.498 67.7813,60.2168 L67.7813,59.0605 Q67.7813,57.7324 68.3906,56.5918 Q69.0156,55.4355 70.1094,54.8262 Q71.2031,54.2012 72.4375,54.2012 Q73.1719,54.2012 73.8125,54.373 Q74.4688,54.5293 75.0156,54.8887 Z " fill="#000000"/><text fill="#000000" font-family="sans-serif" font-size="14" lengthAdjust="spacing" textLength="31" x="92.75" y="64.8105">base</text><line style="stroke:#181818;stroke-width:0.5;" x1="23.5" x2="160.5" y1="75.0137" y2="75.0137"/><text fill="#000000" font-family="sans-serif" font-size="14" lengthAdjust="spacing" textLength="32" x="28.5" y="94.1211">head</text><text fill="#000000" font-family="sans-serif" font-size="14" lengthAdjust="spacing" textLength="31" x="28.5" y="112.7422">meta</text><text fill="#000000" font-family="sans-serif" font-size="14" lengthAdjust="spacing" textLength="22" x="28.5" y="131.3633">title</text><text fill="#000000" font-family="sans-serif" font-size="14" lengthAdjust="spacing" textLength="29" x="28.5" y="149.9844">style</text><text fill="#000000" font-family="sans-serif" font-size="14" lengthAdjust="spacing" textLength="41" x="28.5" y="168.6055">scripts</text><text fill="#000000" font-family="sans-serif" font-size="14" lengthAdjust="spacing" textLength="44" x="28.5" y="187.2266">navbar</text><text fill="#000000" font-family="sans-serif" font-size="14" lengthAdjust="spacing" textLength="47" x="28.5" y="205.8477">content</text><text fill="#000000" font-family="sans-serif" font-size="14" lengthAdjust="spacing" textLength="37" x="28.5" y="224.4688">footer</text><line style="stroke:#181818;stroke-width:0.5;" x1="23.5" x2="160.5" y1="231.9824" y2="231.9824"/><text fill="#000000" font-family="sans-serif" font-size="14" lengthAdjust="spacing" textLength="127" x="28.5" y="251.0898">include navbar_html</text></g><!--class navbar_html--><g id="elem_navbar_html"><rect codeLine="14" fill="#F1F1F1" height="66.6211" id="navbar_html" rx="2.5" ry="2.5" style="stroke:#181818;stroke-width:0.5;" width="110" x="121" y="421.0137"/><ellipse cx="136" cy="437.0137" fill="#ADD1B2" rx="11" ry="11" style="stroke:#181818;stroke-width:1.0;"/><path d="M138.7656,432.8887 Q138.9219,432.6699 139.1094,432.5605 Q139.2969,432.4512 139.5156,432.4512 Q139.8906,432.4512 140.125,432.7168 Q140.3594,432.9668 140.3594,433.5762 L140.3594,435.0293 Q140.3594,435.6387 140.125,435.9043 Q139.8906,436.1699 139.5156,436.1699 Q139.1719,436.1699 138.9688,435.9668 Q138.7656,435.7793 138.6563,435.2637 Q138.6094,434.9043 138.4219,434.7168 Q138.0938,434.3418 137.4844,434.123 Q136.875,433.9043 136.25,433.9043 Q135.4844,433.9043 134.8438,434.2324 Q134.2188,434.5605 133.7188,435.3105 Q133.2344,436.0605 133.2344,437.0918 L133.2344,438.1855 Q133.2344,439.4199 134.125,440.248 Q135.0156,441.0605 136.6094,441.0605 Q137.5469,441.0605 138.2031,440.8105 Q138.5938,440.6543 139.0156,440.2168 Q139.2813,439.9512 139.4219,439.873 Q139.5781,439.7949 139.7813,439.7949 Q140.1094,439.7949 140.3594,440.0605 Q140.625,440.3105 140.625,440.6543 Q140.625,440.998 140.2813,441.4043 Q139.7813,441.9824 138.9844,442.3105 Q137.9063,442.7637 136.6094,442.7637 Q135.0938,442.7637 133.8906,442.1387 Q132.9063,441.6387 132.2188,440.5762 Q131.5313,439.498 131.5313,438.2168 L131.5313,437.0605 Q131.5313,435.7324 132.1406,434.5918 Q132.7656,433.4355 133.8594,432.8262 Q134.9531,432.2012 136.1875,432.2012 Q136.9219,432.2012 137.5625,432.373 Q138.2188,432.5293 138.7656,432.8887 Z " fill="#000000"/><text fill="#000000" font-family="sans-serif" font-size="14" lengthAdjust="spacing" textLength="78" x="150" y="442.8105">navbar_html</text><line style="stroke:#181818;stroke-width:0.5;" x1="122" x2="230" y1="453.0137" y2="453.0137"/><text fill="#000000" font-family="sans-serif" font-size="14" lengthAdjust="spacing" textLength="44" x="127" y="472.1211">navbar</text><line style="stroke:#181818;stroke-width:0.5;" x1="122" x2="230" y1="479.6348" y2="479.6348"/></g><!--class index--><g id="elem_index"><rect codeLine="18" fill="#F1F1F1" height="85.2422" id="index" rx="2.5" ry="2.5" style="stroke:#181818;stroke-width:0.5;" width="65" x="266.5" y="412.0137"/><ellipse cx="281.5" cy="428.0137" fill="#ADD1B2" rx="11" ry="11" style="stroke:#181818;stroke-width:1.0;"/><path d="M284.2656,423.8887 Q284.4219,423.6699 284.6094,423.5605 Q284.7969,423.4512 285.0156,423.4512 Q285.3906,423.4512 285.625,423.7168 Q285.8594,423.9668 285.8594,424.5762 L285.8594,426.0293 Q285.8594,426.6387 285.625,426.9043 Q285.3906,427.1699 285.0156,427.1699 Q284.6719,427.1699 284.4688,426.9668 Q284.2656,426.7793 284.1563,426.2637 Q284.1094,425.9043 283.9219,425.7168 Q283.5938,425.3418 282.9844,425.123 Q282.375,424.9043 281.75,424.9043 Q280.9844,424.9043 280.3438,425.2324 Q279.7188,425.5605 279.2188,426.3105 Q278.7344,427.0605 278.7344,428.0918 L278.7344,429.1855 Q278.7344,430.4199 279.625,431.248 Q280.5156,432.0605 282.1094,432.0605 Q283.0469,432.0605 283.7031,431.8105 Q284.0938,431.6543 284.5156,431.2168 Q284.7813,430.9512 284.9219,430.873 Q285.0781,430.7949 285.2813,430.7949 Q285.6094,430.7949 285.8594,431.0605 Q286.125,431.3105 286.125,431.6543 Q286.125,431.998 285.7813,432.4043 Q285.2813,432.9824 284.4844,433.3105 Q283.4063,433.7637 282.1094,433.7637 Q280.5938,433.7637 279.3906,433.1387 Q278.4063,432.6387 277.7188,431.5762 Q277.0313,430.498 277.0313,429.2168 L277.0313,428.0605 Q277.0313,426.7324 277.6406,425.5918 Q278.2656,424.4355 279.3594,423.8262 Q280.4531,423.2012 281.6875,423.2012 Q282.4219,423.2012 283.0625,423.373 Q283.7188,423.5293 284.2656,423.8887 Z " fill="#000000"/><text fill="#000000" font-family="sans-serif" font-size="14" lengthAdjust="spacing" textLength="33" x="295.5" y="433.8105">index</text><line style="stroke:#181818;stroke-width:0.5;" x1="267.5" x2="330.5" y1="444.0137" y2="444.0137"/><text fill="#000000" font-family="sans-serif" font-size="14" lengthAdjust="spacing" textLength="22" x="272.5" y="463.1211">title</text><text fill="#000000" font-family="sans-serif" font-size="14" lengthAdjust="spacing" textLength="47" x="272.5" y="481.7422">content</text><line style="stroke:#181818;stroke-width:0.5;" x1="267.5" x2="330.5" y1="489.2559" y2="489.2559"/></g><!--class error--><g id="elem_error"><rect codeLine="23" fill="#F1F1F1" height="85.2422" id="error" rx="2.5" ry="2.5" style="stroke:#181818;stroke-width:0.5;" width="63" x="22.5" y="412.0137"/><ellipse cx="37.5" cy="428.0137" fill="#ADD1B2" rx="11" ry="11" style="stroke:#181818;stroke-width:1.0;"/><path d="M40.2656,423.8887 Q40.4219,423.6699 40.6094,423.5605 Q40.7969,423.4512 41.0156,423.4512 Q41.3906,423.4512 41.625,423.7168 Q41.8594,423.9668 41.8594,424.5762 L41.8594,426.0293 Q41.8594,426.6387 41.625,426.9043 Q41.3906,427.1699 41.0156,427.1699 Q40.6719,427.1699 40.4688,426.9668 Q40.2656,426.7793 40.1563,426.2637 Q40.1094,425.9043 39.9219,425.7168 Q39.5938,425.3418 38.9844,425.123 Q38.375,424.9043 37.75,424.9043 Q36.9844,424.9043 36.3438,425.2324 Q35.7188,425.5605 35.2188,426.3105 Q34.7344,427.0605 34.7344,428.0918 L34.7344,429.1855 Q34.7344,430.4199 35.625,431.248 Q36.5156,432.0605 38.1094,432.0605 Q39.0469,432.0605 39.7031,431.8105 Q40.0938,431.6543 40.5156,431.2168 Q40.7813,430.9512 40.9219,430.873 Q41.0781,430.7949 41.2813,430.7949 Q41.6094,430.7949 41.8594,431.0605 Q42.125,431.3105 42.125,431.6543 Q42.125,431.998 41.7813,432.4043 Q41.2813,432.9824 40.4844,433.3105 Q39.4063,433.7637 38.1094,433.7637 Q36.5938,433.7637 35.3906,433.1387 Q34.4063,432.6387 33.7188,431.5762 Q33.0313,430.498 33.0313,429.2168 L33.0313,428.0605 Q33.0313,426.7324 33.6406,425.5918 Q34.2656,424.4355 35.3594,423.8262 Q36.4531,423.2012 37.6875,423.2012 Q38.4219,423.2012 39.0625,423.373 Q39.7188,423.5293 40.2656,423.8887 Z " fill="#000000"/><text fill="#000000" font-family="sans-serif" font-size="14" lengthAdjust="spacing" textLength="31" x="51.5" y="433.8105">error</text><line style="stroke:#181818;stroke-width:0.5;" x1="23.5" x2="84.5" y1="444.0137" y2="444.0137"/><text fill="#000000" font-family="sans-serif" font-size="14" lengthAdjust="spacing" textLength="22" x="28.5" y="463.1211">title</text><text fill="#000000" font-family="sans-serif" font-size="14" lengthAdjust="spacing" textLength="47" x="28.5" y="481.7422">content</text><line style="stroke:#181818;stroke-width:0.5;" x1="23.5" x2="84.5" y1="489.2559" y2="489.2559"/></g><!--class modal_confirm_export--><g id="elem_modal_confirm_export"><rect codeLine="28" fill="#F1F1F1" height="48" id="modal_confirm_export" rx="2.5" ry="2.5" style="stroke:#181818;stroke-width:0.5;" width="171" x="356.5" y="127.0137"/><ellipse cx="371.5" cy="143.0137" fill="#ADD1B2" rx="11" ry="11" style="stroke:#181818;stroke-width:1.0;"/><path d="M374.2656,138.8887 Q374.4219,138.6699 374.6094,138.5605 Q374.7969,138.4512 375.0156,138.4512 Q375.3906,138.4512 375.625,138.7168 Q375.8594,138.9668 375.8594,139.5762 L375.8594,141.0293 Q375.8594,141.6387 375.625,141.9043 Q375.3906,142.1699 375.0156,142.1699 Q374.6719,142.1699 374.4688,141.9668 Q374.2656,141.7793 374.1563,141.2637 Q374.1094,140.9043 373.9219,140.7168 Q373.5938,140.3418 372.9844,140.123 Q372.375,139.9043 371.75,139.9043 Q370.9844,139.9043 370.3438,140.2324 Q369.7188,140.5605 369.2188,141.3105 Q368.7344,142.0605 368.7344,143.0918 L368.7344,144.1855 Q368.7344,145.4199 369.625,146.248 Q370.5156,147.0605 372.1094,147.0605 Q373.0469,147.0605 373.7031,146.8105 Q374.0938,146.6543 374.5156,146.2168 Q374.7813,145.9512 374.9219,145.873 Q375.0781,145.7949 375.2813,145.7949 Q375.6094,145.7949 375.8594,146.0605 Q376.125,146.3105 376.125,146.6543 Q376.125,146.998 375.7813,147.4043 Q375.2813,147.9824 374.4844,148.3105 Q373.4063,148.7637 372.1094,148.7637 Q370.5938,148.7637 369.3906,148.1387 Q368.4063,147.6387 367.7188,146.5762 Q367.0313,145.498 367.0313,144.2168 L367.0313,143.0605 Q367.0313,141.7324 367.6406,140.5918 Q368.2656,139.4355 369.3594,138.8262 Q370.4531,138.2012 371.6875,138.2012 Q372.4219,138.2012 373.0625,138.373 Q373.7188,138.5293 374.2656,138.8887 Z " fill="#000000"/><text fill="#000000" font-family="sans-serif" font-size="14" lengthAdjust="spacing" textLength="139" x="385.5" y="148.8105">modal_confirm_export</text><line style="stroke:#181818;stroke-width:0.5;" x1="357.5" x2="526.5" y1="159.0137" y2="159.0137"/><line style="stroke:#181818;stroke-width:0.5;" x1="357.5" x2="526.5" y1="167.0137" y2="167.0137"/></g><!--class modal_error--><g id="elem_modal_error"><rect codeLine="29" fill="#F1F1F1" height="48" id="modal_error" rx="2.5" ry="2.5" style="stroke:#181818;stroke-width:0.5;" width="109" x="562.5" y="127.0137"/><ellipse cx="577.5" cy="143.0137" fill="#ADD1B2" rx="11" ry="11" style="stroke:#181818;stroke-width:1.0;"/><path d="M580.2656,138.8887 Q580.4219,138.6699 580.6094,138.5605 Q580.7969,138.4512 581.0156,138.4512 Q581.3906,138.4512 581.625,138.7168 Q581.8594,138.9668 581.8594,139.5762 L581.8594,141.0293 Q581.8594,141.6387 581.625,141.9043 Q581.3906,142.1699 581.0156,142.1699 Q580.6719,142.1699 580.4688,141.9668 Q580.2656,141.7793 580.1563,141.2637 Q580.1094,140.9043 579.9219,140.7168 Q579.5938,140.3418 578.9844,140.123 Q578.375,139.9043 577.75,139.9043 Q576.9844,139.9043 576.3438,140.2324 Q575.7188,140.5605 575.2188,141.3105 Q574.7344,142.0605 574.7344,143.0918 L574.7344,144.1855 Q574.7344,145.4199 575.625,146.248 Q576.5156,147.0605 578.1094,147.0605 Q579.0469,147.0605 579.7031,146.8105 Q580.0938,146.6543 580.5156,146.2168 Q580.7813,145.9512 580.9219,145.873 Q581.0781,145.7949 581.2813,145.7949 Q581.6094,145.7949 581.8594,146.0605 Q582.125,146.3105 582.125,146.6543 Q582.125,146.998 581.7813,147.4043 Q581.2813,147.9824 580.4844,148.3105 Q579.4063,148.7637 578.1094,148.7637 Q576.5938,148.7637 575.3906,148.1387 Q574.4063,147.6387 573.7188,146.5762 Q573.0313,145.498 573.0313,144.2168 L573.0313,143.0605 Q573.0313,141.7324 573.6406,140.5918 Q574.2656,139.4355 575.3594,138.8262 Q576.4531,138.2012 577.6875,138.2012 Q578.4219,138.2012 579.0625,138.373 Q579.7188,138.5293 580.2656,138.8887 Z " fill="#000000"/><text fill="#000000" font-family="sans-serif" font-size="14" lengthAdjust="spacing" textLength="77" x="591.5" y="148.8105">modal_error</text><line style="stroke:#181818;stroke-width:0.5;" x1="563.5" x2="670.5" y1="159.0137" y2="159.0137"/><line style="stroke:#181818;stroke-width:0.5;" x1="563.5" x2="670.5" y1="167.0137" y2="167.0137"/></g><!--class modal_loading--><g id="elem_modal_loading"><rect codeLine="30" fill="#F1F1F1" height="48" id="modal_loading" rx="2.5" ry="2.5" style="stroke:#181818;stroke-width:0.5;" width="124" x="197" y="127.0137"/><ellipse cx="212" cy="143.0137" fill="#ADD1B2" rx="11" ry="11" style="stroke:#181818;stroke-width:1.0;"/><path d="M214.7656,138.8887 Q214.9219,138.6699 215.1094,138.5605 Q215.2969,138.4512 215.5156,138.4512 Q215.8906,138.4512 216.125,138.7168 Q216.3594,138.9668 216.3594,139.5762 L216.3594,141.0293 Q216.3594,141.6387 216.125,141.9043 Q215.8906,142.1699 215.5156,142.1699 Q215.1719,142.1699 214.9688,141.9668 Q214.7656,141.7793 214.6563,141.2637 Q214.6094,140.9043 214.4219,140.7168 Q214.0938,140.3418 213.4844,140.123 Q212.875,139.9043 212.25,139.9043 Q211.4844,139.9043 210.8438,140.2324 Q210.2188,140.5605 209.7188,141.3105 Q209.2344,142.0605 209.2344,143.0918 L209.2344,144.1855 Q209.2344,145.4199 210.125,146.248 Q211.0156,147.0605 212.6094,147.0605 Q213.5469,147.0605 214.2031,146.8105 Q214.5938,146.6543 215.0156,146.2168 Q215.2813,145.9512 215.4219,145.873 Q215.5781,145.7949 215.7813,145.7949 Q216.1094,145.7949 216.3594,146.0605 Q216.625,146.3105 216.625,146.6543 Q216.625,146.998 216.2813,147.4043 Q215.7813,147.9824 214.9844,148.3105 Q213.9063,148.7637 212.6094,148.7637 Q211.0938,148.7637 209.8906,148.1387 Q208.9063,147.6387 208.2188,146.5762 Q207.5313,145.498 207.5313,144.2168 L207.5313,143.0605 Q207.5313,141.7324 208.1406,140.5918 Q208.7656,139.4355 209.8594,138.8262 Q210.9531,138.2012 212.1875,138.2012 Q212.9219,138.2012 213.5625,138.373 Q214.2188,138.5293 214.7656,138.8887 Z " fill="#000000"/><text fill="#000000" font-family="sans-serif" font-size="14" lengthAdjust="spacing" textLength="92" x="226" y="148.8105">modal_loading</text><line style="stroke:#181818;stroke-width:0.5;" x1="198" x2="320" y1="159.0137" y2="159.0137"/><line style="stroke:#181818;stroke-width:0.5;" x1="198" x2="320" y1="167.0137" y2="167.0137"/></g><!--class codelists--><g id="elem_codelists"><rect codeLine="35" fill="#F1F1F1" height="103.8633" id="codelists" rx="2.5" ry="2.5" style="stroke:#181818;stroke-width:0.5;" width="155" x="1935.5" y="402.5137"/><ellipse cx="1981.25" cy="418.5137" fill="#ADD1B2" rx="11" ry="11" style="stroke:#181818;stroke-width:1.0;"/><path d="M1984.0156,414.3887 Q1984.1719,414.1699 1984.3594,414.0605 Q1984.5469,413.9512 1984.7656,413.9512 Q1985.1406,413.9512 1985.375,414.2168 Q1985.6094,414.4668 1985.6094,415.0762 L1985.6094,416.5293 Q1985.6094,417.1387 1985.375,417.4043 Q1985.1406,417.6699 1984.7656,417.6699 Q1984.4219,417.6699 1984.2188,417.4668 Q1984.0156,417.2793 1983.9063,416.7637 Q1983.8594,416.4043 1983.6719,416.2168 Q1983.3438,415.8418 1982.7344,415.623 Q1982.125,415.4043 1981.5,415.4043 Q1980.7344,415.4043 1980.0938,415.7324 Q1979.4688,416.0605 1978.9688,416.8105 Q1978.4844,417.5605 1978.4844,418.5918 L1978.4844,419.6855 Q1978.4844,420.9199 1979.375,421.748 Q1980.2656,422.5605 1981.8594,422.5605 Q1982.7969,422.5605 1983.4531,422.3105 Q1983.8438,422.1543 1984.2656,421.7168 Q1984.5313,421.4512 1984.6719,421.373 Q1984.8281,421.2949 1985.0313,421.2949 Q1985.3594,421.2949 1985.6094,421.5605 Q1985.875,421.8105 1985.875,422.1543 Q1985.875,422.498 1985.5313,422.9043 Q1985.0313,423.4824 1984.2344,423.8105 Q1983.1563,424.2637 1981.8594,424.2637 Q1980.3438,424.2637 1979.1406,423.6387 Q1978.1563,423.1387 1977.4688,422.0762 Q1976.7813,420.998 1976.7813,419.7168 L1976.7813,418.5605 Q1976.7813,417.2324 1977.3906,416.0918 Q1978.0156,414.9355 1979.1094,414.3262 Q1980.2031,413.7012 1981.4375,413.7012 Q1982.1719,413.7012 1982.8125,413.873 Q1983.4688,414.0293 1984.0156,414.3887 Z " fill="#000000"/><text fill="#000000" font-family="sans-serif" font-size="14" lengthAdjust="spacing" textLength="55" x="2001.75" y="424.3105">codelists</text><line style="stroke:#181818;stroke-width:0.5;" x1="1936.5" x2="2089.5" y1="434.5137" y2="434.5137"/><text fill="#000000" font-family="sans-serif" font-size="14" lengthAdjust="spacing" textLength="22" x="1941.5" y="453.6211">title</text><text fill="#000000" font-family="sans-serif" font-size="14" lengthAdjust="spacing" textLength="47" x="1941.5" y="472.2422">content</text><line style="stroke:#181818;stroke-width:0.5;" x1="1936.5" x2="2089.5" y1="479.7559" y2="479.7559"/><text fill="#000000" font-family="sans-serif" font-size="14" lengthAdjust="spacing" textLength="143" x="1941.5" y="498.8633">include notice-norights</text></g><!--class codelist_delete--><g id="elem_codelist_delete"><rect codeLine="41" fill="#F1F1F1" height="122.4844" id="codelist_delete" rx="2.5" ry="2.5" style="stroke:#181818;stroke-width:0.5;" width="192" x="1708" y="393.5137"/><ellipse cx="1752.25" cy="409.5137" fill="#ADD1B2" rx="11" ry="11" style="stroke:#181818;stroke-width:1.0;"/><path d="M1755.0156,405.3887 Q1755.1719,405.1699 1755.3594,405.0605 Q1755.5469,404.9512 1755.7656,404.9512 Q1756.1406,404.9512 1756.375,405.2168 Q1756.6094,405.4668 1756.6094,406.0762 L1756.6094,407.5293 Q1756.6094,408.1387 1756.375,408.4043 Q1756.1406,408.6699 1755.7656,408.6699 Q1755.4219,408.6699 1755.2188,408.4668 Q1755.0156,408.2793 1754.9063,407.7637 Q1754.8594,407.4043 1754.6719,407.2168 Q1754.3438,406.8418 1753.7344,406.623 Q1753.125,406.4043 1752.5,406.4043 Q1751.7344,406.4043 1751.0938,406.7324 Q1750.4688,407.0605 1749.9688,407.8105 Q1749.4844,408.5605 1749.4844,409.5918 L1749.4844,410.6855 Q1749.4844,411.9199 1750.375,412.748 Q1751.2656,413.5605 1752.8594,413.5605 Q1753.7969,413.5605 1754.4531,413.3105 Q1754.8438,413.1543 1755.2656,412.7168 Q1755.5313,412.4512 1755.6719,412.373 Q1755.8281,412.2949 1756.0313,412.2949 Q1756.3594,412.2949 1756.6094,412.5605 Q1756.875,412.8105 1756.875,413.1543 Q1756.875,413.498 1756.5313,413.9043 Q1756.0313,414.4824 1755.2344,414.8105 Q1754.1563,415.2637 1752.8594,415.2637 Q1751.3438,415.2637 1750.1406,414.6387 Q1749.1563,414.1387 1748.4688,413.0762 Q1747.7813,411.998 1747.7813,410.7168 L1747.7813,409.5605 Q1747.7813,408.2324 1748.3906,407.0918 Q1749.0156,405.9355 1750.1094,405.3262 Q1751.2031,404.7012 1752.4375,404.7012 Q1753.1719,404.7012 1753.8125,404.873 Q1754.4688,405.0293 1755.0156,405.3887 Z " fill="#000000"/><text fill="#000000" font-family="sans-serif" font-size="14" lengthAdjust="spacing" textLength="95" x="1772.75" y="415.3105">codelist_delete</text><line style="stroke:#181818;stroke-width:0.5;" x1="1709" x2="1899" y1="425.5137" y2="425.5137"/><text fill="#000000" font-family="sans-serif" font-size="14" lengthAdjust="spacing" textLength="22" x="1714" y="444.6211">title</text><text fill="#000000" font-family="sans-serif" font-size="14" lengthAdjust="spacing" textLength="47" x="1714" y="463.2422">content</text><line style="stroke:#181818;stroke-width:0.5;" x1="1709" x2="1899" y1="470.7559" y2="470.7559"/><text fill="#000000" font-family="sans-serif" font-size="14" lengthAdjust="spacing" textLength="180" x="1714" y="489.8633">include container_messages</text><text fill="#000000" font-family="sans-serif" font-size="14" lengthAdjust="spacing" textLength="143" x="1714" y="508.4844">include notice-norights</text></g><!--class codelist_form--><g id="elem_codelist_form"><rect codeLine="48" fill="#F1F1F1" height="196.9688" id="codelist_form" rx="2.5" ry="2.5" style="stroke:#181818;stroke-width:0.5;" width="166" x="2316" y="356.0137"/><ellipse cx="2353.5" cy="372.0137" fill="#ADD1B2" rx="11" ry="11" style="stroke:#181818;stroke-width:1.0;"/><path d="M2356.2656,367.8887 Q2356.4219,367.6699 2356.6094,367.5605 Q2356.7969,367.4512 2357.0156,367.4512 Q2357.3906,367.4512 2357.625,367.7168 Q2357.8594,367.9668 2357.8594,368.5762 L2357.8594,370.0293 Q2357.8594,370.6387 2357.625,370.9043 Q2357.3906,371.1699 2357.0156,371.1699 Q2356.6719,371.1699 2356.4688,370.9668 Q2356.2656,370.7793 2356.1563,370.2637 Q2356.1094,369.9043 2355.9219,369.7168 Q2355.5938,369.3418 2354.9844,369.123 Q2354.375,368.9043 2353.75,368.9043 Q2352.9844,368.9043 2352.3438,369.2324 Q2351.7188,369.5605 2351.2188,370.3105 Q2350.7344,371.0605 2350.7344,372.0918 L2350.7344,373.1855 Q2350.7344,374.4199 2351.625,375.248 Q2352.5156,376.0605 2354.1094,376.0605 Q2355.0469,376.0605 2355.7031,375.8105 Q2356.0938,375.6543 2356.5156,375.2168 Q2356.7813,374.9512 2356.9219,374.873 Q2357.0781,374.7949 2357.2813,374.7949 Q2357.6094,374.7949 2357.8594,375.0605 Q2358.125,375.3105 2358.125,375.6543 Q2358.125,375.998 2357.7813,376.4043 Q2357.2813,376.9824 2356.4844,377.3105 Q2355.4063,377.7637 2354.1094,377.7637 Q2352.5938,377.7637 2351.3906,377.1387 Q2350.4063,376.6387 2349.7188,375.5762 Q2349.0313,374.498 2349.0313,373.2168 L2349.0313,372.0605 Q2349.0313,370.7324 2349.6406,369.5918 Q2350.2656,368.4355 2351.3594,367.8262 Q2352.4531,367.2012 2353.6875,367.2012 Q2354.4219,367.2012 2355.0625,367.373 Q2355.7188,367.5293 2356.2656,367.8887 Z " fill="#000000"/><text fill="#000000" font-family="sans-serif" font-size="14" lengthAdjust="spacing" textLength="84" x="2372.5" y="377.8105">codelist_form</text><line style="stroke:#181818;stroke-width:0.5;" x1="2317" x2="2481" y1="388.0137" y2="388.0137"/><text fill="#000000" font-family="sans-serif" font-size="14" lengthAdjust="spacing" textLength="22" x="2322" y="407.1211">title</text><text fill="#000000" font-family="sans-serif" font-size="14" lengthAdjust="spacing" textLength="29" x="2322" y="425.7422">style</text><text fill="#000000" font-family="sans-serif" font-size="14" lengthAdjust="spacing" textLength="41" x="2322" y="444.3633">scripts</text><text fill="#000000" font-family="sans-serif" font-size="14" lengthAdjust="spacing" textLength="47" x="2322" y="462.9844">content</text><line style="stroke:#181818;stroke-width:0.5;" x1="2317" x2="2481" y1="470.498" y2="470.498"/><text fill="#000000" font-family="sans-serif" font-size="14" lengthAdjust="spacing" textLength="75" x="2322" y="489.6055">extend style</text><text fill="#000000" font-family="sans-serif" font-size="14" lengthAdjust="spacing" textLength="87" x="2322" y="508.2266">extend scripts</text><text fill="#000000" font-family="sans-serif" font-size="14" lengthAdjust="spacing" textLength="154" x="2322" y="526.8477">include container_errors</text><text fill="#000000" font-family="sans-serif" font-size="14" lengthAdjust="spacing" textLength="143" x="2322" y="545.4688">include notice-norights</text></g><!--class codelist_table--><g id="elem_codelist_table"><rect codeLine="59" fill="#F1F1F1" height="215.5898" id="codelist_table" rx="2.5" ry="2.5" style="stroke:#181818;stroke-width:0.5;" width="216" x="979" y="346.5137"/><ellipse cx="1039.25" cy="362.5137" fill="#ADD1B2" rx="11" ry="11" style="stroke:#181818;stroke-width:1.0;"/><path d="M1042.0156,358.3887 Q1042.1719,358.1699 1042.3594,358.0605 Q1042.5469,357.9512 1042.7656,357.9512 Q1043.1406,357.9512 1043.375,358.2168 Q1043.6094,358.4668 1043.6094,359.0762 L1043.6094,360.5293 Q1043.6094,361.1387 1043.375,361.4043 Q1043.1406,361.6699 1042.7656,361.6699 Q1042.4219,361.6699 1042.2188,361.4668 Q1042.0156,361.2793 1041.9063,360.7637 Q1041.8594,360.4043 1041.6719,360.2168 Q1041.3438,359.8418 1040.7344,359.623 Q1040.125,359.4043 1039.5,359.4043 Q1038.7344,359.4043 1038.0938,359.7324 Q1037.4688,360.0605 1036.9688,360.8105 Q1036.4844,361.5605 1036.4844,362.5918 L1036.4844,363.6855 Q1036.4844,364.9199 1037.375,365.748 Q1038.2656,366.5605 1039.8594,366.5605 Q1040.7969,366.5605 1041.4531,366.3105 Q1041.8438,366.1543 1042.2656,365.7168 Q1042.5313,365.4512 1042.6719,365.373 Q1042.8281,365.2949 1043.0313,365.2949 Q1043.3594,365.2949 1043.6094,365.5605 Q1043.875,365.8105 1043.875,366.1543 Q1043.875,366.498 1043.5313,366.9043 Q1043.0313,367.4824 1042.2344,367.8105 Q1041.1563,368.2637 1039.8594,368.2637 Q1038.3438,368.2637 1037.1406,367.6387 Q1036.1563,367.1387 1035.4688,366.0762 Q1034.7813,364.998 1034.7813,363.7168 L1034.7813,362.5605 Q1034.7813,361.2324 1035.3906,360.0918 Q1036.0156,358.9355 1037.1094,358.3262 Q1038.2031,357.7012 1039.4375,357.7012 Q1040.1719,357.7012 1040.8125,357.873 Q1041.4688,358.0293 1042.0156,358.3887 Z " fill="#000000"/><text fill="#000000" font-family="sans-serif" font-size="14" lengthAdjust="spacing" textLength="87" x="1059.75" y="368.3105">codelist_table</text><line style="stroke:#181818;stroke-width:0.5;" x1="980" x2="1194" y1="378.5137" y2="378.5137"/><text fill="#000000" font-family="sans-serif" font-size="14" lengthAdjust="spacing" textLength="22" x="985" y="397.6211">title</text><text fill="#000000" font-family="sans-serif" font-size="14" lengthAdjust="spacing" textLength="29" x="985" y="416.2422">style</text><text fill="#000000" font-family="sans-serif" font-size="14" lengthAdjust="spacing" textLength="41" x="985" y="434.8633">scripts</text><text fill="#000000" font-family="sans-serif" font-size="14" lengthAdjust="spacing" textLength="47" x="985" y="453.4844">content</text><line style="stroke:#181818;stroke-width:0.5;" x1="980" x2="1194" y1="460.998" y2="460.998"/><text fill="#000000" font-family="sans-serif" font-size="14" lengthAdjust="spacing" textLength="75" x="985" y="480.1055">extend style</text><text fill="#000000" font-family="sans-serif" font-size="14" lengthAdjust="spacing" textLength="87" x="985" y="498.7266">extend scripts</text><text fill="#000000" font-family="sans-serif" font-size="14" lengthAdjust="spacing" textLength="180" x="985" y="517.3477">include container_messages</text><text fill="#000000" font-family="sans-serif" font-size="14" lengthAdjust="spacing" textLength="204" x="985" y="535.9688">include container_table_warning</text><text fill="#000000" font-family="sans-serif" font-size="14" lengthAdjust="spacing" textLength="143" x="985" y="554.5898">include notice-norights</text></g><!--class container_contacts--><g id="elem_container_contacts"><rect codeLine="71" fill="#F1F1F1" height="48" id="container_contacts" rx="2.5" ry="2.5" style="stroke:#181818;stroke-width:0.5;" width="152" x="2655" y="650.0137"/><ellipse cx="2670" cy="666.0137" fill="#ADD1B2" rx="11" ry="11" style="stroke:#181818;stroke-width:1.0;"/><path d="M2672.7656,661.8887 Q2672.9219,661.6699 2673.1094,661.5605 Q2673.2969,661.4512 2673.5156,661.4512 Q2673.8906,661.4512 2674.125,661.7168 Q2674.3594,661.9668 2674.3594,662.5762 L2674.3594,664.0293 Q2674.3594,664.6387 2674.125,664.9043 Q2673.8906,665.1699 2673.5156,665.1699 Q2673.1719,665.1699 2672.9688,664.9668 Q2672.7656,664.7793 2672.6563,664.2637 Q2672.6094,663.9043 2672.4219,663.7168 Q2672.0938,663.3418 2671.4844,663.123 Q2670.875,662.9043 2670.25,662.9043 Q2669.4844,662.9043 2668.8438,663.2324 Q2668.2188,663.5605 2667.7188,664.3105 Q2667.2344,665.0605 2667.2344,666.0918 L2667.2344,667.1855 Q2667.2344,668.4199 2668.125,669.248 Q2669.0156,670.0605 2670.6094,670.0605 Q2671.5469,670.0605 2672.2031,669.8105 Q2672.5938,669.6543 2673.0156,669.2168 Q2673.2813,668.9512 2673.4219,668.873 Q2673.5781,668.7949 2673.7813,668.7949 Q2674.1094,668.7949 2674.3594,669.0605 Q2674.625,669.3105 2674.625,669.6543 Q2674.625,669.998 2674.2813,670.4043 Q2673.7813,670.9824 2672.9844,671.3105 Q2671.9063,671.7637 2670.6094,671.7637 Q2669.0938,671.7637 2667.8906,671.1387 Q2666.9063,670.6387 2666.2188,669.5762 Q2665.5313,668.498 2665.5313,667.2168 L2665.5313,666.0605 Q2665.5313,664.7324 2666.1406,663.5918 Q2666.7656,662.4355 2667.8594,661.8262 Q2668.9531,661.2012 2670.1875,661.2012 Q2670.9219,661.2012 2671.5625,661.373 Q2672.2188,661.5293 2672.7656,661.8887 Z " fill="#000000"/><text fill="#000000" font-family="sans-serif" font-size="14" lengthAdjust="spacing" textLength="120" x="2684" y="671.8105">container_contacts</text><line style="stroke:#181818;stroke-width:0.5;" x1="2656" x2="2806" y1="682.0137" y2="682.0137"/><line style="stroke:#181818;stroke-width:0.5;" x1="2656" x2="2806" y1="690.0137" y2="690.0137"/></g><!--class container_deletion_hints--><g id="elem_container_deletion_hints"><rect codeLine="72" fill="#F1F1F1" height="48" id="container_deletion_hints" rx="2.5" ry="2.5" style="stroke:#181818;stroke-width:0.5;" width="187" x="742.5" y="650.0137"/><ellipse cx="757.5" cy="666.0137" fill="#ADD1B2" rx="11" ry="11" style="stroke:#181818;stroke-width:1.0;"/><path d="M760.2656,661.8887 Q760.4219,661.6699 760.6094,661.5605 Q760.7969,661.4512 761.0156,661.4512 Q761.3906,661.4512 761.625,661.7168 Q761.8594,661.9668 761.8594,662.5762 L761.8594,664.0293 Q761.8594,664.6387 761.625,664.9043 Q761.3906,665.1699 761.0156,665.1699 Q760.6719,665.1699 760.4688,664.9668 Q760.2656,664.7793 760.1563,664.2637 Q760.1094,663.9043 759.9219,663.7168 Q759.5938,663.3418 758.9844,663.123 Q758.375,662.9043 757.75,662.9043 Q756.9844,662.9043 756.3438,663.2324 Q755.7188,663.5605 755.2188,664.3105 Q754.7344,665.0605 754.7344,666.0918 L754.7344,667.1855 Q754.7344,668.4199 755.625,669.248 Q756.5156,670.0605 758.1094,670.0605 Q759.0469,670.0605 759.7031,669.8105 Q760.0938,669.6543 760.5156,669.2168 Q760.7813,668.9512 760.9219,668.873 Q761.0781,668.7949 761.2813,668.7949 Q761.6094,668.7949 761.8594,669.0605 Q762.125,669.3105 762.125,669.6543 Q762.125,669.998 761.7813,670.4043 Q761.2813,670.9824 760.4844,671.3105 Q759.4063,671.7637 758.1094,671.7637 Q756.5938,671.7637 755.3906,671.1387 Q754.4063,670.6387 753.7188,669.5762 Q753.0313,668.498 753.0313,667.2168 L753.0313,666.0605 Q753.0313,664.7324 753.6406,663.5918 Q754.2656,662.4355 755.3594,661.8262 Q756.4531,661.2012 757.6875,661.2012 Q758.4219,661.2012 759.0625,661.373 Q759.7188,661.5293 760.2656,661.8887 Z " fill="#000000"/><text fill="#000000" font-family="sans-serif" font-size="14" lengthAdjust="spacing" textLength="155" x="771.5" y="671.8105">container_deletion_hints</text><line style="stroke:#181818;stroke-width:0.5;" x1="743.5" x2="928.5" y1="682.0137" y2="682.0137"/><line style="stroke:#181818;stroke-width:0.5;" x1="743.5" x2="928.5" y1="690.0137" y2="690.0137"/></g><!--class container_errors--><g id="elem_container_errors"><rect codeLine="73" fill="#F1F1F1" height="48" id="container_errors" rx="2.5" ry="2.5" style="stroke:#181818;stroke-width:0.5;" width="137" x="2268.5" y="650.0137"/><ellipse cx="2283.5" cy="666.0137" fill="#ADD1B2" rx="11" ry="11" style="stroke:#181818;stroke-width:1.0;"/><path d="M2286.2656,661.8887 Q2286.4219,661.6699 2286.6094,661.5605 Q2286.7969,661.4512 2287.0156,661.4512 Q2287.3906,661.4512 2287.625,661.7168 Q2287.8594,661.9668 2287.8594,662.5762 L2287.8594,664.0293 Q2287.8594,664.6387 2287.625,664.9043 Q2287.3906,665.1699 2287.0156,665.1699 Q2286.6719,665.1699 2286.4688,664.9668 Q2286.2656,664.7793 2286.1563,664.2637 Q2286.1094,663.9043 2285.9219,663.7168 Q2285.5938,663.3418 2284.9844,663.123 Q2284.375,662.9043 2283.75,662.9043 Q2282.9844,662.9043 2282.3438,663.2324 Q2281.7188,663.5605 2281.2188,664.3105 Q2280.7344,665.0605 2280.7344,666.0918 L2280.7344,667.1855 Q2280.7344,668.4199 2281.625,669.248 Q2282.5156,670.0605 2284.1094,670.0605 Q2285.0469,670.0605 2285.7031,669.8105 Q2286.0938,669.6543 2286.5156,669.2168 Q2286.7813,668.9512 2286.9219,668.873 Q2287.0781,668.7949 2287.2813,668.7949 Q2287.6094,668.7949 2287.8594,669.0605 Q2288.125,669.3105 2288.125,669.6543 Q2288.125,669.998 2287.7813,670.4043 Q2287.2813,670.9824 2286.4844,671.3105 Q2285.4063,671.7637 2284.1094,671.7637 Q2282.5938,671.7637 2281.3906,671.1387 Q2280.4063,670.6387 2279.7188,669.5762 Q2279.0313,668.498 2279.0313,667.2168 L2279.0313,666.0605 Q2279.0313,664.7324 2279.6406,663.5918 Q2280.2656,662.4355 2281.3594,661.8262 Q2282.4531,661.2012 2283.6875,661.2012 Q2284.4219,661.2012 2285.0625,661.373 Q2285.7188,661.5293 2286.2656,661.8887 Z " fill="#000000"/><text fill="#000000" font-family="sans-serif" font-size="14" lengthAdjust="spacing" textLength="105" x="2297.5" y="671.8105">container_errors</text><line style="stroke:#181818;stroke-width:0.5;" x1="2269.5" x2="2404.5" y1="682.0137" y2="682.0137"/><line style="stroke:#181818;stroke-width:0.5;" x1="2269.5" x2="2404.5" y1="690.0137" y2="690.0137"/></g><!--class container_events--><g id="elem_container_events"><rect codeLine="74" fill="#F1F1F1" height="48" id="container_events" rx="2.5" ry="2.5" style="stroke:#181818;stroke-width:0.5;" width="141" x="2842.5" y="650.0137"/><ellipse cx="2857.5" cy="666.0137" fill="#ADD1B2" rx="11" ry="11" style="stroke:#181818;stroke-width:1.0;"/><path d="M2860.2656,661.8887 Q2860.4219,661.6699 2860.6094,661.5605 Q2860.7969,661.4512 2861.0156,661.4512 Q2861.3906,661.4512 2861.625,661.7168 Q2861.8594,661.9668 2861.8594,662.5762 L2861.8594,664.0293 Q2861.8594,664.6387 2861.625,664.9043 Q2861.3906,665.1699 2861.0156,665.1699 Q2860.6719,665.1699 2860.4688,664.9668 Q2860.2656,664.7793 2860.1563,664.2637 Q2860.1094,663.9043 2859.9219,663.7168 Q2859.5938,663.3418 2858.9844,663.123 Q2858.375,662.9043 2857.75,662.9043 Q2856.9844,662.9043 2856.3438,663.2324 Q2855.7188,663.5605 2855.2188,664.3105 Q2854.7344,665.0605 2854.7344,666.0918 L2854.7344,667.1855 Q2854.7344,668.4199 2855.625,669.248 Q2856.5156,670.0605 2858.1094,670.0605 Q2859.0469,670.0605 2859.7031,669.8105 Q2860.0938,669.6543 2860.5156,669.2168 Q2860.7813,668.9512 2860.9219,668.873 Q2861.0781,668.7949 2861.2813,668.7949 Q2861.6094,668.7949 2861.8594,669.0605 Q2862.125,669.3105 2862.125,669.6543 Q2862.125,669.998 2861.7813,670.4043 Q2861.2813,670.9824 2860.4844,671.3105 Q2859.4063,671.7637 2858.1094,671.7637 Q2856.5938,671.7637 2855.3906,671.1387 Q2854.4063,670.6387 2853.7188,669.5762 Q2853.0313,668.498 2853.0313,667.2168 L2853.0313,666.0605 Q2853.0313,664.7324 2853.6406,663.5918 Q2854.2656,662.4355 2855.3594,661.8262 Q2856.4531,661.2012 2857.6875,661.2012 Q2858.4219,661.2012 2859.0625,661.373 Q2859.7188,661.5293 2860.2656,661.8887 Z " fill="#000000"/><text fill="#000000" font-family="sans-serif" font-size="14" lengthAdjust="spacing" textLength="109" x="2871.5" y="671.8105">container_events</text><line style="stroke:#181818;stroke-width:0.5;" x1="2843.5" x2="2982.5" y1="682.0137" y2="682.0137"/><line style="stroke:#181818;stroke-width:0.5;" x1="2843.5" x2="2982.5" y1="690.0137" y2="690.0137"/></g><!--class container_map_danger--><g id="elem_container_map_danger"><rect codeLine="75" fill="#F1F1F1" height="48" id="container_map_danger" rx="2.5" ry="2.5" style="stroke:#181818;stroke-width:0.5;" width="179" x="2440.5" y="650.0137"/><ellipse cx="2455.5" cy="666.0137" fill="#ADD1B2" rx="11" ry="11" style="stroke:#181818;stroke-width:1.0;"/><path d="M2458.2656,661.8887 Q2458.4219,661.6699 2458.6094,661.5605 Q2458.7969,661.4512 2459.0156,661.4512 Q2459.3906,661.4512 2459.625,661.7168 Q2459.8594,661.9668 2459.8594,662.5762 L2459.8594,664.0293 Q2459.8594,664.6387 2459.625,664.9043 Q2459.3906,665.1699 2459.0156,665.1699 Q2458.6719,665.1699 2458.4688,664.9668 Q2458.2656,664.7793 2458.1563,664.2637 Q2458.1094,663.9043 2457.9219,663.7168 Q2457.5938,663.3418 2456.9844,663.123 Q2456.375,662.9043 2455.75,662.9043 Q2454.9844,662.9043 2454.3438,663.2324 Q2453.7188,663.5605 2453.2188,664.3105 Q2452.7344,665.0605 2452.7344,666.0918 L2452.7344,667.1855 Q2452.7344,668.4199 2453.625,669.248 Q2454.5156,670.0605 2456.1094,670.0605 Q2457.0469,670.0605 2457.7031,669.8105 Q2458.0938,669.6543 2458.5156,669.2168 Q2458.7813,668.9512 2458.9219,668.873 Q2459.0781,668.7949 2459.2813,668.7949 Q2459.6094,668.7949 2459.8594,669.0605 Q2460.125,669.3105 2460.125,669.6543 Q2460.125,669.998 2459.7813,670.4043 Q2459.2813,670.9824 2458.4844,671.3105 Q2457.4063,671.7637 2456.1094,671.7637 Q2454.5938,671.7637 2453.3906,671.1387 Q2452.4063,670.6387 2451.7188,669.5762 Q2451.0313,668.498 2451.0313,667.2168 L2451.0313,666.0605 Q2451.0313,664.7324 2451.6406,663.5918 Q2452.2656,662.4355 2453.3594,661.8262 Q2454.4531,661.2012 2455.6875,661.2012 Q2456.4219,661.2012 2457.0625,661.373 Q2457.7188,661.5293 2458.2656,661.8887 Z " fill="#000000"/><text fill="#000000" font-family="sans-serif" font-size="14" lengthAdjust="spacing" textLength="147" x="2469.5" y="671.8105">container_map_danger</text><line style="stroke:#181818;stroke-width:0.5;" x1="2441.5" x2="2618.5" y1="682.0137" y2="682.0137"/><line style="stroke:#181818;stroke-width:0.5;" x1="2441.5" x2="2618.5" y1="690.0137" y2="690.0137"/></g><!--class container_messages--><g id="elem_container_messages"><rect codeLine="76" fill="#F1F1F1" height="48" id="container_messages" rx="2.5" ry="2.5" style="stroke:#181818;stroke-width:0.5;" width="163" x="1480.5" y="650.0137"/><ellipse cx="1495.5" cy="666.0137" fill="#ADD1B2" rx="11" ry="11" style="stroke:#181818;stroke-width:1.0;"/><path d="M1498.2656,661.8887 Q1498.4219,661.6699 1498.6094,661.5605 Q1498.7969,661.4512 1499.0156,661.4512 Q1499.3906,661.4512 1499.625,661.7168 Q1499.8594,661.9668 1499.8594,662.5762 L1499.8594,664.0293 Q1499.8594,664.6387 1499.625,664.9043 Q1499.3906,665.1699 1499.0156,665.1699 Q1498.6719,665.1699 1498.4688,664.9668 Q1498.2656,664.7793 1498.1563,664.2637 Q1498.1094,663.9043 1497.9219,663.7168 Q1497.5938,663.3418 1496.9844,663.123 Q1496.375,662.9043 1495.75,662.9043 Q1494.9844,662.9043 1494.3438,663.2324 Q1493.7188,663.5605 1493.2188,664.3105 Q1492.7344,665.0605 1492.7344,666.0918 L1492.7344,667.1855 Q1492.7344,668.4199 1493.625,669.248 Q1494.5156,670.0605 1496.1094,670.0605 Q1497.0469,670.0605 1497.7031,669.8105 Q1498.0938,669.6543 1498.5156,669.2168 Q1498.7813,668.9512 1498.9219,668.873 Q1499.0781,668.7949 1499.2813,668.7949 Q1499.6094,668.7949 1499.8594,669.0605 Q1500.125,669.3105 1500.125,669.6543 Q1500.125,669.998 1499.7813,670.4043 Q1499.2813,670.9824 1498.4844,671.3105 Q1497.4063,671.7637 1496.1094,671.7637 Q1494.5938,671.7637 1493.3906,671.1387 Q1492.4063,670.6387 1491.7188,669.5762 Q1491.0313,668.498 1491.0313,667.2168 L1491.0313,666.0605 Q1491.0313,664.7324 1491.6406,663.5918 Q1492.2656,662.4355 1493.3594,661.8262 Q1494.4531,661.2012 1495.6875,661.2012 Q1496.4219,661.2012 1497.0625,661.373 Q1497.7188,661.5293 1498.2656,661.8887 Z " fill="#000000"/><text fill="#000000" font-family="sans-serif" font-size="14" lengthAdjust="spacing" textLength="131" x="1509.5" y="671.8105">container_messages</text><line style="stroke:#181818;stroke-width:0.5;" x1="1481.5" x2="1642.5" y1="682.0137" y2="682.0137"/><line style="stroke:#181818;stroke-width:0.5;" x1="1481.5" x2="1642.5" y1="690.0137" y2="690.0137"/></g><!--class container_table_danger--><g id="elem_container_table_danger"><rect codeLine="77" fill="#F1F1F1" height="48" id="container_table_danger" rx="2.5" ry="2.5" style="stroke:#181818;stroke-width:0.5;" width="183" x="1246.5" y="650.0137"/><ellipse cx="1261.5" cy="666.0137" fill="#ADD1B2" rx="11" ry="11" style="stroke:#181818;stroke-width:1.0;"/><path d="M1264.2656,661.8887 Q1264.4219,661.6699 1264.6094,661.5605 Q1264.7969,661.4512 1265.0156,661.4512 Q1265.3906,661.4512 1265.625,661.7168 Q1265.8594,661.9668 1265.8594,662.5762 L1265.8594,664.0293 Q1265.8594,664.6387 1265.625,664.9043 Q1265.3906,665.1699 1265.0156,665.1699 Q1264.6719,665.1699 1264.4688,664.9668 Q1264.2656,664.7793 1264.1563,664.2637 Q1264.1094,663.9043 1263.9219,663.7168 Q1263.5938,663.3418 1262.9844,663.123 Q1262.375,662.9043 1261.75,662.9043 Q1260.9844,662.9043 1260.3438,663.2324 Q1259.7188,663.5605 1259.2188,664.3105 Q1258.7344,665.0605 1258.7344,666.0918 L1258.7344,667.1855 Q1258.7344,668.4199 1259.625,669.248 Q1260.5156,670.0605 1262.1094,670.0605 Q1263.0469,670.0605 1263.7031,669.8105 Q1264.0938,669.6543 1264.5156,669.2168 Q1264.7813,668.9512 1264.9219,668.873 Q1265.0781,668.7949 1265.2813,668.7949 Q1265.6094,668.7949 1265.8594,669.0605 Q1266.125,669.3105 1266.125,669.6543 Q1266.125,669.998 1265.7813,670.4043 Q1265.2813,670.9824 1264.4844,671.3105 Q1263.4063,671.7637 1262.1094,671.7637 Q1260.5938,671.7637 1259.3906,671.1387 Q1258.4063,670.6387 1257.7188,669.5762 Q1257.0313,668.498 1257.0313,667.2168 L1257.0313,666.0605 Q1257.0313,664.7324 1257.6406,663.5918 Q1258.2656,662.4355 1259.3594,661.8262 Q1260.4531,661.2012 1261.6875,661.2012 Q1262.4219,661.2012 1263.0625,661.373 Q1263.7188,661.5293 1264.2656,661.8887 Z " fill="#000000"/><text fill="#000000" font-family="sans-serif" font-size="14" lengthAdjust="spacing" textLength="151" x="1275.5" y="671.8105">container_table_danger</text><line style="stroke:#181818;stroke-width:0.5;" x1="1247.5" x2="1428.5" y1="682.0137" y2="682.0137"/><line style="stroke:#181818;stroke-width:0.5;" x1="1247.5" x2="1428.5" y1="690.0137" y2="690.0137"/></g><!--class container_table_warning--><g id="elem_container_table_warning"><rect codeLine="78" fill="#F1F1F1" height="48" id="container_table_warning" rx="2.5" ry="2.5" style="stroke:#181818;stroke-width:0.5;" width="187" x="1008.5" y="650.0137"/><ellipse cx="1023.5" cy="666.0137" fill="#ADD1B2" rx="11" ry="11" style="stroke:#181818;stroke-width:1.0;"/><path d="M1026.2656,661.8887 Q1026.4219,661.6699 1026.6094,661.5605 Q1026.7969,661.4512 1027.0156,661.4512 Q1027.3906,661.4512 1027.625,661.7168 Q1027.8594,661.9668 1027.8594,662.5762 L1027.8594,664.0293 Q1027.8594,664.6387 1027.625,664.9043 Q1027.3906,665.1699 1027.0156,665.1699 Q1026.6719,665.1699 1026.4688,664.9668 Q1026.2656,664.7793 1026.1563,664.2637 Q1026.1094,663.9043 1025.9219,663.7168 Q1025.5938,663.3418 1024.9844,663.123 Q1024.375,662.9043 1023.75,662.9043 Q1022.9844,662.9043 1022.3438,663.2324 Q1021.7188,663.5605 1021.2188,664.3105 Q1020.7344,665.0605 1020.7344,666.0918 L1020.7344,667.1855 Q1020.7344,668.4199 1021.625,669.248 Q1022.5156,670.0605 1024.1094,670.0605 Q1025.0469,670.0605 1025.7031,669.8105 Q1026.0938,669.6543 1026.5156,669.2168 Q1026.7813,668.9512 1026.9219,668.873 Q1027.0781,668.7949 1027.2813,668.7949 Q1027.6094,668.7949 1027.8594,669.0605 Q1028.125,669.3105 1028.125,669.6543 Q1028.125,669.998 1027.7813,670.4043 Q1027.2813,670.9824 1026.4844,671.3105 Q1025.4063,671.7637 1024.1094,671.7637 Q1022.5938,671.7637 1021.3906,671.1387 Q1020.4063,670.6387 1019.7188,669.5762 Q1019.0313,668.498 1019.0313,667.2168 L1019.0313,666.0605 Q1019.0313,664.7324 1019.6406,663.5918 Q1020.2656,662.4355 1021.3594,661.8262 Q1022.4531,661.2012 1023.6875,661.2012 Q1024.4219,661.2012 1025.0625,661.373 Q1025.7188,661.5293 1026.2656,661.8887 Z " fill="#000000"/><text fill="#000000" font-family="sans-serif" font-size="14" lengthAdjust="spacing" textLength="155" x="1037.5" y="671.8105">container_table_warning</text><line style="stroke:#181818;stroke-width:0.5;" x1="1009.5" x2="1194.5" y1="682.0137" y2="682.0137"/><line style="stroke:#181818;stroke-width:0.5;" x1="1009.5" x2="1194.5" y1="690.0137" y2="690.0137"/></g><!--class generic_objectclass_delete--><g id="elem_generic_objectclass_delete"><rect codeLine="80" fill="#F1F1F1" height="141.1055" id="generic_objectclass_delete" rx="2.5" ry="2.5" style="stroke:#181818;stroke-width:0.5;" width="216" x="728" y="384.0137"/><ellipse cx="748.4" cy="400.0137" fill="#ADD1B2" rx="11" ry="11" style="stroke:#181818;stroke-width:1.0;"/><path d="M751.1656,395.8887 Q751.3219,395.6699 751.5094,395.5605 Q751.6969,395.4512 751.9156,395.4512 Q752.2906,395.4512 752.525,395.7168 Q752.7594,395.9668 752.7594,396.5762 L752.7594,398.0293 Q752.7594,398.6387 752.525,398.9043 Q752.2906,399.1699 751.9156,399.1699 Q751.5719,399.1699 751.3688,398.9668 Q751.1656,398.7793 751.0563,398.2637 Q751.0094,397.9043 750.8219,397.7168 Q750.4938,397.3418 749.8844,397.123 Q749.275,396.9043 748.65,396.9043 Q747.8844,396.9043 747.2438,397.2324 Q746.6188,397.5605 746.1188,398.3105 Q745.6344,399.0605 745.6344,400.0918 L745.6344,401.1855 Q745.6344,402.4199 746.525,403.248 Q747.4156,404.0605 749.0094,404.0605 Q749.9469,404.0605 750.6031,403.8105 Q750.9938,403.6543 751.4156,403.2168 Q751.6813,402.9512 751.8219,402.873 Q751.9781,402.7949 752.1813,402.7949 Q752.5094,402.7949 752.7594,403.0605 Q753.025,403.3105 753.025,403.6543 Q753.025,403.998 752.6813,404.4043 Q752.1813,404.9824 751.3844,405.3105 Q750.3063,405.7637 749.0094,405.7637 Q747.4938,405.7637 746.2906,405.1387 Q745.3063,404.6387 744.6188,403.5762 Q743.9313,402.498 743.9313,401.2168 L743.9313,400.0605 Q743.9313,398.7324 744.5406,397.5918 Q745.1656,396.4355 746.2594,395.8262 Q747.3531,395.2012 748.5875,395.2012 Q749.3219,395.2012 749.9625,395.373 Q750.6188,395.5293 751.1656,395.8887 Z " fill="#000000"/><text fill="#000000" font-family="sans-serif" font-size="14" lengthAdjust="spacing" textLength="172" x="763.6" y="405.8105">generic_objectclass_delete</text><line style="stroke:#181818;stroke-width:0.5;" x1="729" x2="943" y1="416.0137" y2="416.0137"/><text fill="#000000" font-family="sans-serif" font-size="14" lengthAdjust="spacing" textLength="22" x="734" y="435.1211">title</text><text fill="#000000" font-family="sans-serif" font-size="14" lengthAdjust="spacing" textLength="47" x="734" y="453.7422">content</text><line style="stroke:#181818;stroke-width:0.5;" x1="729" x2="943" y1="461.2559" y2="461.2559"/><text fill="#000000" font-family="sans-serif" font-size="14" lengthAdjust="spacing" textLength="180" x="734" y="480.3633">include container_messages</text><text fill="#000000" font-family="sans-serif" font-size="14" lengthAdjust="spacing" textLength="204" x="734" y="498.9844">include container_deletion_hints</text><text fill="#000000" font-family="sans-serif" font-size="14" lengthAdjust="spacing" textLength="143" x="734" y="517.6055">include notice-norights</text></g><!--class generic_objectclass_form--><g id="elem_generic_objectclass_form"><rect codeLine="87" fill="#F1F1F1" height="271.4531" id="generic_objectclass_form" rx="2.5" ry="2.5" style="stroke:#181818;stroke-width:0.5;" width="208" x="2776" y="319.0137"/><ellipse cx="2797.75" cy="335.0137" fill="#ADD1B2" rx="11" ry="11" style="stroke:#181818;stroke-width:1.0;"/><path d="M2800.5156,330.8887 Q2800.6719,330.6699 2800.8594,330.5605 Q2801.0469,330.4512 2801.2656,330.4512 Q2801.6406,330.4512 2801.875,330.7168 Q2802.1094,330.9668 2802.1094,331.5762 L2802.1094,333.0293 Q2802.1094,333.6387 2801.875,333.9043 Q2801.6406,334.1699 2801.2656,334.1699 Q2800.9219,334.1699 2800.7188,333.9668 Q2800.5156,333.7793 2800.4063,333.2637 Q2800.3594,332.9043 2800.1719,332.7168 Q2799.8438,332.3418 2799.2344,332.123 Q2798.625,331.9043 2798,331.9043 Q2797.2344,331.9043 2796.5938,332.2324 Q2795.9688,332.5605 2795.4688,333.3105 Q2794.9844,334.0605 2794.9844,335.0918 L2794.9844,336.1855 Q2794.9844,337.4199 2795.875,338.248 Q2796.7656,339.0605 2798.3594,339.0605 Q2799.2969,339.0605 2799.9531,338.8105 Q2800.3438,338.6543 2800.7656,338.2168 Q2801.0313,337.9512 2801.1719,337.873 Q2801.3281,337.7949 2801.5313,337.7949 Q2801.8594,337.7949 2802.1094,338.0605 Q2802.375,338.3105 2802.375,338.6543 Q2802.375,338.998 2802.0313,339.4043 Q2801.5313,339.9824 2800.7344,340.3105 Q2799.6563,340.7637 2798.3594,340.7637 Q2796.8438,340.7637 2795.6406,340.1387 Q2794.6563,339.6387 2793.9688,338.5762 Q2793.2813,337.498 2793.2813,336.2168 L2793.2813,335.0605 Q2793.2813,333.7324 2793.8906,332.5918 Q2794.5156,331.4355 2795.6094,330.8262 Q2796.7031,330.2012 2797.9375,330.2012 Q2798.6719,330.2012 2799.3125,330.373 Q2799.9688,330.5293 2800.5156,330.8887 Z " fill="#000000"/><text fill="#000000" font-family="sans-serif" font-size="14" lengthAdjust="spacing" textLength="161" x="2813.25" y="340.8105">generic_objectclass_form</text><line style="stroke:#181818;stroke-width:0.5;" x1="2777" x2="2983" y1="351.0137" y2="351.0137"/><text fill="#000000" font-family="sans-serif" font-size="14" lengthAdjust="spacing" textLength="22" x="2782" y="370.1211">title</text><text fill="#000000" font-family="sans-serif" font-size="14" lengthAdjust="spacing" textLength="29" x="2782" y="388.7422">style</text><text fill="#000000" font-family="sans-serif" font-size="14" lengthAdjust="spacing" textLength="41" x="2782" y="407.3633">scripts</text><text fill="#000000" font-family="sans-serif" font-size="14" lengthAdjust="spacing" textLength="47" x="2782" y="425.9844">content</text><line style="stroke:#181818;stroke-width:0.5;" x1="2777" x2="2983" y1="433.498" y2="433.498"/><text fill="#000000" font-family="sans-serif" font-size="14" lengthAdjust="spacing" textLength="75" x="2782" y="452.6055">extend style</text><text fill="#000000" font-family="sans-serif" font-size="14" lengthAdjust="spacing" textLength="87" x="2782" y="471.2266">extend scripts</text><text fill="#000000" font-family="sans-serif" font-size="14" lengthAdjust="spacing" textLength="154" x="2782" y="489.8477">include container_errors</text><text fill="#000000" font-family="sans-serif" font-size="14" lengthAdjust="spacing" textLength="180" x="2782" y="508.4688">include container_messages</text><text fill="#000000" font-family="sans-serif" font-size="14" lengthAdjust="spacing" textLength="169" x="2782" y="527.0898">include container_contacts</text><text fill="#000000" font-family="sans-serif" font-size="14" lengthAdjust="spacing" textLength="158" x="2782" y="545.7109">include container_events</text><text fill="#000000" font-family="sans-serif" font-size="14" lengthAdjust="spacing" textLength="196" x="2782" y="564.332">include datenwerft.modal_error</text><text fill="#000000" font-family="sans-serif" font-size="14" lengthAdjust="spacing" textLength="143" x="2782" y="582.9531">include notice-norights</text></g><!--class generic_objectclass_table--><g id="elem_generic_objectclass_table"><rect codeLine="102" fill="#F1F1F1" height="252.832" id="generic_objectclass_table" rx="2.5" ry="2.5" style="stroke:#181818;stroke-width:0.5;" width="216" x="1230" y="328.0137"/><ellipse cx="1254" cy="344.0137" fill="#ADD1B2" rx="11" ry="11" style="stroke:#181818;stroke-width:1.0;"/><path d="M1256.7656,339.8887 Q1256.9219,339.6699 1257.1094,339.5605 Q1257.2969,339.4512 1257.5156,339.4512 Q1257.8906,339.4512 1258.125,339.7168 Q1258.3594,339.9668 1258.3594,340.5762 L1258.3594,342.0293 Q1258.3594,342.6387 1258.125,342.9043 Q1257.8906,343.1699 1257.5156,343.1699 Q1257.1719,343.1699 1256.9688,342.9668 Q1256.7656,342.7793 1256.6563,342.2637 Q1256.6094,341.9043 1256.4219,341.7168 Q1256.0938,341.3418 1255.4844,341.123 Q1254.875,340.9043 1254.25,340.9043 Q1253.4844,340.9043 1252.8438,341.2324 Q1252.2188,341.5605 1251.7188,342.3105 Q1251.2344,343.0605 1251.2344,344.0918 L1251.2344,345.1855 Q1251.2344,346.4199 1252.125,347.248 Q1253.0156,348.0605 1254.6094,348.0605 Q1255.5469,348.0605 1256.2031,347.8105 Q1256.5938,347.6543 1257.0156,347.2168 Q1257.2813,346.9512 1257.4219,346.873 Q1257.5781,346.7949 1257.7813,346.7949 Q1258.1094,346.7949 1258.3594,347.0605 Q1258.625,347.3105 1258.625,347.6543 Q1258.625,347.998 1258.2813,348.4043 Q1257.7813,348.9824 1256.9844,349.3105 Q1255.9063,349.7637 1254.6094,349.7637 Q1253.0938,349.7637 1251.8906,349.1387 Q1250.9063,348.6387 1250.2188,347.5762 Q1249.5313,346.498 1249.5313,345.2168 L1249.5313,344.0605 Q1249.5313,342.7324 1250.1406,341.5918 Q1250.7656,340.4355 1251.8594,339.8262 Q1252.9531,339.2012 1254.1875,339.2012 Q1254.9219,339.2012 1255.5625,339.373 Q1256.2188,339.5293 1256.7656,339.8887 Z " fill="#000000"/><text fill="#000000" font-family="sans-serif" font-size="14" lengthAdjust="spacing" textLength="164" x="1270" y="349.8105">generic_objectclass_table</text><line style="stroke:#181818;stroke-width:0.5;" x1="1231" x2="1445" y1="360.0137" y2="360.0137"/><text fill="#000000" font-family="sans-serif" font-size="14" lengthAdjust="spacing" textLength="22" x="1236" y="379.1211">title</text><text fill="#000000" font-family="sans-serif" font-size="14" lengthAdjust="spacing" textLength="29" x="1236" y="397.7422">style</text><text fill="#000000" font-family="sans-serif" font-size="14" lengthAdjust="spacing" textLength="41" x="1236" y="416.3633">scripts</text><text fill="#000000" font-family="sans-serif" font-size="14" lengthAdjust="spacing" textLength="47" x="1236" y="434.9844">content</text><line style="stroke:#181818;stroke-width:0.5;" x1="1231" x2="1445" y1="442.498" y2="442.498"/><text fill="#000000" font-family="sans-serif" font-size="14" lengthAdjust="spacing" textLength="75" x="1236" y="461.6055">extend style</text><text fill="#000000" font-family="sans-serif" font-size="14" lengthAdjust="spacing" textLength="87" x="1236" y="480.2266">extend scripts</text><text fill="#000000" font-family="sans-serif" font-size="14" lengthAdjust="spacing" textLength="180" x="1236" y="498.8477">include container_messages</text><text fill="#000000" font-family="sans-serif" font-size="14" lengthAdjust="spacing" textLength="200" x="1236" y="517.4688">include container_table_danger</text><text fill="#000000" font-family="sans-serif" font-size="14" lengthAdjust="spacing" textLength="204" x="1236" y="536.0898">include container_table_warning</text><text fill="#000000" font-family="sans-serif" font-size="14" lengthAdjust="spacing" textLength="196" x="1236" y="554.7109">include datenwerft.modal_error</text><text fill="#000000" font-family="sans-serif" font-size="14" lengthAdjust="spacing" textLength="143" x="1236" y="573.332">include notice-norights</text></g><!--class index--><g id="elem_index"><rect codeLine="116" fill="#F1F1F1" height="122.4844" id="index" rx="2.5" ry="2.5" style="stroke:#181818;stroke-width:0.5;" width="192" x="1481" y="393.5137"/><ellipse cx="1556.25" cy="409.5137" fill="#ADD1B2" rx="11" ry="11" style="stroke:#181818;stroke-width:1.0;"/><path d="M1559.0156,405.3887 Q1559.1719,405.1699 1559.3594,405.0605 Q1559.5469,404.9512 1559.7656,404.9512 Q1560.1406,404.9512 1560.375,405.2168 Q1560.6094,405.4668 1560.6094,406.0762 L1560.6094,407.5293 Q1560.6094,408.1387 1560.375,408.4043 Q1560.1406,408.6699 1559.7656,408.6699 Q1559.4219,408.6699 1559.2188,408.4668 Q1559.0156,408.2793 1558.9063,407.7637 Q1558.8594,407.4043 1558.6719,407.2168 Q1558.3438,406.8418 1557.7344,406.623 Q1557.125,406.4043 1556.5,406.4043 Q1555.7344,406.4043 1555.0938,406.7324 Q1554.4688,407.0605 1553.9688,407.8105 Q1553.4844,408.5605 1553.4844,409.5918 L1553.4844,410.6855 Q1553.4844,411.9199 1554.375,412.748 Q1555.2656,413.5605 1556.8594,413.5605 Q1557.7969,413.5605 1558.4531,413.3105 Q1558.8438,413.1543 1559.2656,412.7168 Q1559.5313,412.4512 1559.6719,412.373 Q1559.8281,412.2949 1560.0313,412.2949 Q1560.3594,412.2949 1560.6094,412.5605 Q1560.875,412.8105 1560.875,413.1543 Q1560.875,413.498 1560.5313,413.9043 Q1560.0313,414.4824 1559.2344,414.8105 Q1558.1563,415.2637 1556.8594,415.2637 Q1555.3438,415.2637 1554.1406,414.6387 Q1553.1563,414.1387 1552.4688,413.0762 Q1551.7813,411.998 1551.7813,410.7168 L1551.7813,409.5605 Q1551.7813,408.2324 1552.3906,407.0918 Q1553.0156,405.9355 1554.1094,405.3262 Q1555.2031,404.7012 1556.4375,404.7012 Q1557.1719,404.7012 1557.8125,404.873 Q1558.4688,405.0293 1559.0156,405.3887 Z " fill="#000000"/><text fill="#000000" font-family="sans-serif" font-size="14" lengthAdjust="spacing" textLength="33" x="1576.75" y="415.3105">index</text><line style="stroke:#181818;stroke-width:0.5;" x1="1482" x2="1672" y1="425.5137" y2="425.5137"/><text fill="#000000" font-family="sans-serif" font-size="14" lengthAdjust="spacing" textLength="22" x="1487" y="444.6211">title</text><text fill="#000000" font-family="sans-serif" font-size="14" lengthAdjust="spacing" textLength="47" x="1487" y="463.2422">content</text><line style="stroke:#181818;stroke-width:0.5;" x1="1482" x2="1672" y1="470.7559" y2="470.7559"/><text fill="#000000" font-family="sans-serif" font-size="14" lengthAdjust="spacing" textLength="180" x="1487" y="489.8633">include container_messages</text><text fill="#000000" font-family="sans-serif" font-size="14" lengthAdjust="spacing" textLength="143" x="1487" y="508.4844">include notice-norights</text></g><!--class map--><g id="elem_map"><rect codeLine="123" fill="#F1F1F1" height="234.2109" id="map" rx="2.5" ry="2.5" style="stroke:#181818;stroke-width:0.5;" width="223" x="2517.5" y="337.5137"/><ellipse cx="2611.25" cy="353.5137" fill="#ADD1B2" rx="11" ry="11" style="stroke:#181818;stroke-width:1.0;"/><path d="M2614.0156,349.3887 Q2614.1719,349.1699 2614.3594,349.0605 Q2614.5469,348.9512 2614.7656,348.9512 Q2615.1406,348.9512 2615.375,349.2168 Q2615.6094,349.4668 2615.6094,350.0762 L2615.6094,351.5293 Q2615.6094,352.1387 2615.375,352.4043 Q2615.1406,352.6699 2614.7656,352.6699 Q2614.4219,352.6699 2614.2188,352.4668 Q2614.0156,352.2793 2613.9063,351.7637 Q2613.8594,351.4043 2613.6719,351.2168 Q2613.3438,350.8418 2612.7344,350.623 Q2612.125,350.4043 2611.5,350.4043 Q2610.7344,350.4043 2610.0938,350.7324 Q2609.4688,351.0605 2608.9688,351.8105 Q2608.4844,352.5605 2608.4844,353.5918 L2608.4844,354.6855 Q2608.4844,355.9199 2609.375,356.748 Q2610.2656,357.5605 2611.8594,357.5605 Q2612.7969,357.5605 2613.4531,357.3105 Q2613.8438,357.1543 2614.2656,356.7168 Q2614.5313,356.4512 2614.6719,356.373 Q2614.8281,356.2949 2615.0313,356.2949 Q2615.3594,356.2949 2615.6094,356.5605 Q2615.875,356.8105 2615.875,357.1543 Q2615.875,357.498 2615.5313,357.9043 Q2615.0313,358.4824 2614.2344,358.8105 Q2613.1563,359.2637 2611.8594,359.2637 Q2610.3438,359.2637 2609.1406,358.6387 Q2608.1563,358.1387 2607.4688,357.0762 Q2606.7813,355.998 2606.7813,354.7168 L2606.7813,353.5605 Q2606.7813,352.2324 2607.3906,351.0918 Q2608.0156,349.9355 2609.1094,349.3262 Q2610.2031,348.7012 2611.4375,348.7012 Q2612.1719,348.7012 2612.8125,348.873 Q2613.4688,349.0293 2614.0156,349.3887 Z " fill="#000000"/><text fill="#000000" font-family="sans-serif" font-size="14" lengthAdjust="spacing" textLength="27" x="2631.75" y="359.3105">map</text><line style="stroke:#181818;stroke-width:0.5;" x1="2518.5" x2="2739.5" y1="369.5137" y2="369.5137"/><text fill="#000000" font-family="sans-serif" font-size="14" lengthAdjust="spacing" textLength="22" x="2523.5" y="388.6211">title</text><text fill="#000000" font-family="sans-serif" font-size="14" lengthAdjust="spacing" textLength="29" x="2523.5" y="407.2422">style</text><text fill="#000000" font-family="sans-serif" font-size="14" lengthAdjust="spacing" textLength="41" x="2523.5" y="425.8633">scripts</text><text fill="#000000" font-family="sans-serif" font-size="14" lengthAdjust="spacing" textLength="47" x="2523.5" y="444.4844">content</text><line style="stroke:#181818;stroke-width:0.5;" x1="2518.5" x2="2739.5" y1="451.998" y2="451.998"/><text fill="#000000" font-family="sans-serif" font-size="14" lengthAdjust="spacing" textLength="75" x="2523.5" y="471.1055">extend style</text><text fill="#000000" font-family="sans-serif" font-size="14" lengthAdjust="spacing" textLength="87" x="2523.5" y="489.7266">extend scripts</text><text fill="#000000" font-family="sans-serif" font-size="14" lengthAdjust="spacing" textLength="196" x="2523.5" y="508.3477">include container_map_danger</text><text fill="#000000" font-family="sans-serif" font-size="14" lengthAdjust="spacing" textLength="196" x="2523.5" y="526.9688">include datenwerft.modal_error</text><text fill="#000000" font-family="sans-serif" font-size="14" lengthAdjust="spacing" textLength="211" x="2523.5" y="545.5898">include datenwerft.modal_loading</text><text fill="#000000" font-family="sans-serif" font-size="14" lengthAdjust="spacing" textLength="143" x="2523.5" y="564.2109">include notice-norights</text></g><!--class notice_norights--><g id="elem_notice_norights"><rect codeLine="136" fill="#F1F1F1" height="48" id="notice_norights" rx="2.5" ry="2.5" style="stroke:#181818;stroke-width:0.5;" width="129" x="1843.5" y="650.0137"/><ellipse cx="1858.5" cy="666.0137" fill="#ADD1B2" rx="11" ry="11" style="stroke:#181818;stroke-width:1.0;"/><path d="M1861.2656,661.8887 Q1861.4219,661.6699 1861.6094,661.5605 Q1861.7969,661.4512 1862.0156,661.4512 Q1862.3906,661.4512 1862.625,661.7168 Q1862.8594,661.9668 1862.8594,662.5762 L1862.8594,664.0293 Q1862.8594,664.6387 1862.625,664.9043 Q1862.3906,665.1699 1862.0156,665.1699 Q1861.6719,665.1699 1861.4688,664.9668 Q1861.2656,664.7793 1861.1563,664.2637 Q1861.1094,663.9043 1860.9219,663.7168 Q1860.5938,663.3418 1859.9844,663.123 Q1859.375,662.9043 1858.75,662.9043 Q1857.9844,662.9043 1857.3438,663.2324 Q1856.7188,663.5605 1856.2188,664.3105 Q1855.7344,665.0605 1855.7344,666.0918 L1855.7344,667.1855 Q1855.7344,668.4199 1856.625,669.248 Q1857.5156,670.0605 1859.1094,670.0605 Q1860.0469,670.0605 1860.7031,669.8105 Q1861.0938,669.6543 1861.5156,669.2168 Q1861.7813,668.9512 1861.9219,668.873 Q1862.0781,668.7949 1862.2813,668.7949 Q1862.6094,668.7949 1862.8594,669.0605 Q1863.125,669.3105 1863.125,669.6543 Q1863.125,669.998 1862.7813,670.4043 Q1862.2813,670.9824 1861.4844,671.3105 Q1860.4063,671.7637 1859.1094,671.7637 Q1857.5938,671.7637 1856.3906,671.1387 Q1855.4063,670.6387 1854.7188,669.5762 Q1854.0313,668.498 1854.0313,667.2168 L1854.0313,666.0605 Q1854.0313,664.7324 1854.6406,663.5918 Q1855.2656,662.4355 1856.3594,661.8262 Q1857.4531,661.2012 1858.6875,661.2012 Q1859.4219,661.2012 1860.0625,661.373 Q1860.7188,661.5293 1861.2656,661.8887 Z " fill="#000000"/><text fill="#000000" font-family="sans-serif" font-size="14" lengthAdjust="spacing" textLength="97" x="1872.5" y="671.8105">notice_norights</text><line style="stroke:#181818;stroke-width:0.5;" x1="1844.5" x2="1971.5" y1="682.0137" y2="682.0137"/><line style="stroke:#181818;stroke-width:0.5;" x1="1844.5" x2="1971.5" y1="690.0137" y2="690.0137"/></g><!--class orphaned_data--><g id="elem_orphaned_data"><rect codeLine="138" fill="#F1F1F1" height="103.8633" id="orphaned_data" rx="2.5" ry="2.5" style="stroke:#181818;stroke-width:0.5;" width="155" x="2125.5" y="402.5137"/><ellipse cx="2152.2" cy="418.5137" fill="#ADD1B2" rx="11" ry="11" style="stroke:#181818;stroke-width:1.0;"/><path d="M2154.9656,414.3887 Q2155.1219,414.1699 2155.3094,414.0605 Q2155.4969,413.9512 2155.7156,413.9512 Q2156.0906,413.9512 2156.325,414.2168 Q2156.5594,414.4668 2156.5594,415.0762 L2156.5594,416.5293 Q2156.5594,417.1387 2156.325,417.4043 Q2156.0906,417.6699 2155.7156,417.6699 Q2155.3719,417.6699 2155.1688,417.4668 Q2154.9656,417.2793 2154.8563,416.7637 Q2154.8094,416.4043 2154.6219,416.2168 Q2154.2938,415.8418 2153.6844,415.623 Q2153.075,415.4043 2152.45,415.4043 Q2151.6844,415.4043 2151.0438,415.7324 Q2150.4188,416.0605 2149.9188,416.8105 Q2149.4344,417.5605 2149.4344,418.5918 L2149.4344,419.6855 Q2149.4344,420.9199 2150.325,421.748 Q2151.2156,422.5605 2152.8094,422.5605 Q2153.7469,422.5605 2154.4031,422.3105 Q2154.7938,422.1543 2155.2156,421.7168 Q2155.4813,421.4512 2155.6219,421.373 Q2155.7781,421.2949 2155.9813,421.2949 Q2156.3094,421.2949 2156.5594,421.5605 Q2156.825,421.8105 2156.825,422.1543 Q2156.825,422.498 2156.4813,422.9043 Q2155.9813,423.4824 2155.1844,423.8105 Q2154.1063,424.2637 2152.8094,424.2637 Q2151.2938,424.2637 2150.0906,423.6387 Q2149.1063,423.1387 2148.4188,422.0762 Q2147.7313,420.998 2147.7313,419.7168 L2147.7313,418.5605 Q2147.7313,417.2324 2148.3406,416.0918 Q2148.9656,414.9355 2150.0594,414.3262 Q2151.1531,413.7012 2152.3875,413.7012 Q2153.1219,413.7012 2153.7625,413.873 Q2154.4188,414.0293 2154.9656,414.3887 Z " fill="#000000"/><text fill="#000000" font-family="sans-serif" font-size="14" lengthAdjust="spacing" textLength="97" x="2168.8" y="424.3105">orphaned_data</text><line style="stroke:#181818;stroke-width:0.5;" x1="2126.5" x2="2279.5" y1="434.5137" y2="434.5137"/><text fill="#000000" font-family="sans-serif" font-size="14" lengthAdjust="spacing" textLength="22" x="2131.5" y="453.6211">title</text><text fill="#000000" font-family="sans-serif" font-size="14" lengthAdjust="spacing" textLength="47" x="2131.5" y="472.2422">content</text><line style="stroke:#181818;stroke-width:0.5;" x1="2126.5" x2="2279.5" y1="479.7559" y2="479.7559"/><text fill="#000000" font-family="sans-serif" font-size="14" lengthAdjust="spacing" textLength="143" x="2131.5" y="498.8633">include notice-norights</text></g><!--link base to navbar_html--><g id="link_base_navbar_html"><path codeLine="146" d="M121.85,259.1637 C137.74,316.2037 154.5587,376.5741 165.3087,415.1341 " fill="none" id="base-to-navbar_html" style="stroke:#181818;stroke-width:1.0;stroke-dasharray:7.0,7.0;"/><polygon fill="#181818" points="166.92,420.9137,168.3562,411.1701,165.5773,416.0973,160.65,413.3185,166.92,420.9137" style="stroke:#181818;stroke-width:1.0;"/></g><!--reverse link base to index--><g id="link_base_index"><path codeLine="147" d="M175.4468,257.9781 C180.9768,262.6281 172.98,255.3137 179,259.0137 C205.74,275.4437 225.12,252.5337 248,274.0137 C285.78,309.4937 296.26,370.7437 298.8,411.6937 " fill="none" id="base-backto-index" style="stroke:#181818;stroke-width:1.0;"/><polygon fill="none" points="161.67,246.3937,171.5853,262.5704,179.3083,253.3859,161.67,246.3937" style="stroke:#181818;stroke-width:1.0;"/></g><!--reverse link base to error--><g id="link_base_error"><path codeLine="148" d="M76.2474,277.0222 C69.5874,329.8222 64.2,372.5837 59.25,411.8837 " fill="none" id="base-backto-error" style="stroke:#181818;stroke-width:1.0;"/><polygon fill="none" points="78.5,259.1637,70.2946,276.2713,82.2002,277.773,78.5,259.1637" style="stroke:#181818;stroke-width:1.0;"/></g><!--reverse link base to codelists--><g id="link_base_codelists"><path codeLine="150" d="M176.2343,259.1932 C181.7043,263.2132 172.96,256.1037 179,259.0137 C222.53,279.9537 1876.72,248.9137 1918,274.0137 C1963.79,301.8537 1988.7,359.9137 2001.38,402.4937 " fill="none" id="base-backto-codelists" style="stroke:#181818;stroke-width:1.0;"/><polygon fill="none" points="161.73,248.5337,172.6812,264.0279,179.7875,254.3584,161.73,248.5337" style="stroke:#181818;stroke-width:1.0;"/></g><!--reverse link base to codelist_delete--><g id="link_base_codelist_delete"><path codeLine="151" d="M176.2343,259.1932 C181.7043,263.2132 172.96,256.1037 179,259.0137 C254.68,295.4837 1617.66,233.0437 1691,274.0137 C1736.49,299.4237 1766.22,351.5837 1783.71,393.1637 " fill="none" id="base-backto-codelist_delete" style="stroke:#181818;stroke-width:1.0;"/><polygon fill="none" points="161.73,248.5337,172.6812,264.0279,179.7875,254.3584,161.73,248.5337" style="stroke:#181818;stroke-width:1.0;"/></g><!--reverse link base to codelist_form--><g id="link_base_codelist_form"><path codeLine="152" d="M176.237,259.1959 C181.707,263.2059 172.96,256.1137 179,259.0137 C232.06,284.4937 2247.29,244.1237 2298,274.0137 C2329.11,292.3537 2351.4,324.1637 2366.97,355.9537 " fill="none" id="base-backto-codelist_form" style="stroke:#181818;stroke-width:1.0;"/><polygon fill="none" points="161.72,248.5537,172.6896,264.0349,179.7844,254.3569,161.72,248.5537" style="stroke:#181818;stroke-width:1.0;"/></g><!--reverse link base to codelist_table--><g id="link_base_codelist_table"><path codeLine="153" d="M176.2397,259.1702 C181.6997,263.2102 172.97,256.0737 179,259.0137 C257.21,297.1437 885.26,232.9937 962,274.0137 C992.48,290.3037 1017.08,317.6937 1036.14,346.2337 " fill="none" id="base-backto-codelist_table" style="stroke:#181818;stroke-width:1.0;"/><polygon fill="none" points="161.77,248.4637,172.6708,263.9934,179.8085,254.3469,161.77,248.4637" style="stroke:#181818;stroke-width:1.0;"/></g><!--reverse link base to generic_objectclass_delete--><g id="link_base_generic_objectclass_delete"><path codeLine="154" d="M175.9287,258.9487 C181.4687,263.0887 172.88,255.9937 179,259.0137 C229.73,284.0737 637.19,249.1337 688,274.0137 C735.52,297.2837 773.16,343.7437 798.59,383.5637 " fill="none" id="base-backto-generic_objectclass_delete" style="stroke:#181818;stroke-width:1.0;"/><polygon fill="none" points="161.51,248.1737,172.3371,263.7549,179.5204,254.1424,161.51,248.1737" style="stroke:#181818;stroke-width:1.0;"/></g><!--reverse link base to generic_objectclass_form--><g id="link_base_generic_objectclass_form"><path codeLine="155" d="M176.2243,259.2132 C181.6943,263.2332 172.95,256.1137 179,259.0137 C243.6,289.9837 2694.78,240.3037 2758,274.0137 C2778.45,284.9137 2796.11,300.9437 2811.15,318.9937 " fill="none" id="base-backto-generic_objectclass_form" style="stroke:#181818;stroke-width:1.0;"/><polygon fill="none" points="161.72,248.5537,172.6712,264.0479,179.7775,254.3784,161.72,248.5537" style="stroke:#181818;stroke-width:1.0;"/></g><!--reverse link base to generic_objectclass_table--><g id="link_base_generic_objectclass_table"><path codeLine="156" d="M176.2323,259.183 C181.6923,263.213 172.97,256.0937 179,259.0137 C230.7,284.0737 1162.27,247.0537 1213,274.0137 C1236.81,286.6637 1257.03,306.1137 1273.81,327.6037 " fill="none" id="base-backto-generic_objectclass_table" style="stroke:#181818;stroke-width:1.0;"/><polygon fill="none" points="161.75,248.4937,172.6692,264.0105,179.7954,254.3556,161.75,248.4937" style="stroke:#181818;stroke-width:1.0;"/></g><!--reverse link base to index--><g id="link_base_index"><path codeLine="157" d="M176.2317,259.1904 C181.7017,263.2204 172.96,256.0937 179,259.0137 C243.29,290.0637 1401.7,239.1437 1464,274.0137 C1509.47,299.4637 1539.2,351.6237 1556.69,393.1837 " fill="none" id="base-backto-index-1" style="stroke:#181818;stroke-width:1.0;"/><polygon fill="none" points="161.74,248.5137,172.6728,264.0209,179.7906,254.3598,161.74,248.5137" style="stroke:#181818;stroke-width:1.0;"/></g><!--reverse link base to map--><g id="link_base_map"><path codeLine="158" d="M176.2243,259.2132 C181.6943,263.2332 172.96,256.1137 179,259.0137 C237.13,286.9037 2442.72,244.4137 2500,274.0137 C2527.95,288.4637 2551.24,312.0737 2569.97,337.4937 " fill="none" id="base-backto-map" style="stroke:#181818;stroke-width:1.0;"/><polygon fill="none" points="161.72,248.5537,172.6712,264.0479,179.7775,254.3784,161.72,248.5537" style="stroke:#181818;stroke-width:1.0;"/></g><!--reverse link base to orphaned_data--><g id="link_base_orphaned_data"><path codeLine="159" d="M176.2343,259.2032 C181.7043,263.2232 172.96,256.1137 179,259.0137 C227.3,282.2237 2062.2,246.1937 2108,274.0137 C2153.8,301.8337 2178.71,359.9037 2191.38,402.4837 " fill="none" id="base-backto-orphaned_data" style="stroke:#181818;stroke-width:1.0;"/><polygon fill="none" points="161.73,248.5437,172.6812,264.0379,179.7875,254.3684,161.73,248.5437" style="stroke:#181818;stroke-width:1.0;"/></g><!--link codelists to notice_norights--><g id="link_codelists_notice_norights"><path codeLine="162" d="M1988.25,506.7837 C1966.36,552.1237 1938.0483,610.7603 1921.7183,644.5903 " fill="none" id="codelists-to-notice_norights" style="stroke:#181818;stroke-width:1.0;stroke-dasharray:7.0,7.0;"/><polygon fill="#181818" points="1919.11,649.9937,1926.6247,643.6274,1921.2836,645.4908,1919.4201,640.1497,1919.11,649.9937" style="stroke:#181818;stroke-width:1.0;"/></g><!--link codelist_delete to container_messages--><g id="link_codelist_delete_container_messages"><path codeLine="163" d="M1759.96,515.5637 C1740.36,540.1537 1716.07,567.9437 1691,590.0137 C1664.52,613.3337 1636.0804,631.7337 1609.8004,646.9737 " fill="none" id="codelist_delete-to-container_messages" style="stroke:#181818;stroke-width:1.0;stroke-dasharray:7.0,7.0;"/><polygon fill="#181818" points="1604.61,649.9837,1614.4022,648.929,1608.9353,647.4754,1610.389,642.0085,1604.61,649.9837" style="stroke:#181818;stroke-width:1.0;"/></g><!--link codelist_delete to notice_norights--><g id="link_codelist_delete_notice_norights"><path codeLine="164" d="M1832.69,515.5237 C1853.98,560.0337 1879.2421,612.8705 1894.4021,644.5805 " fill="none" id="codelist_delete-to-notice_norights" style="stroke:#181818;stroke-width:1.0;stroke-dasharray:7.0,7.0;"/><polygon fill="#181818" points="1896.99,649.9937,1896.7169,640.1486,1894.8334,645.4827,1889.4993,643.5992,1896.99,649.9937" style="stroke:#181818;stroke-width:1.0;"/></g><!--link codelist_form to container_errors--><g id="link_codelist_form_container_errors"><path codeLine="165" d="M2371.17,553.1337 C2360.94,589.0437 2351.8744,620.8234 2345.2344,644.1234 " fill="none" id="codelist_form-to-container_errors" style="stroke:#181818;stroke-width:1.0;stroke-dasharray:7.0,7.0;"/><polygon fill="#181818" points="2343.59,649.8937,2349.9034,642.3345,2344.9603,645.0851,2342.2098,640.142,2343.59,649.8937" style="stroke:#181818;stroke-width:1.0;"/></g><!--link codelist_form to notice_norights--><g id="link_codelist_form_notice_norights"><path codeLine="166" d="M2339.49,553.0437 C2327.28,567.1537 2313.38,580.1937 2298,590.0137 C2197.06,654.4537 2060.4356,669.4752 1978.5656,672.5952 " fill="none" id="codelist_form-to-notice_norights" style="stroke:#181818;stroke-width:1.0;stroke-dasharray:7.0,7.0;"/><polygon fill="#181818" points="1972.57,672.8237,1981.7158,676.478,1977.5664,672.6333,1981.4111,668.4838,1972.57,672.8237" style="stroke:#181818;stroke-width:1.0;"/></g><!--link codelist_table to container_messages--><g id="link_codelist_table_container_messages"><path codeLine="167" d="M1175.44,562.6637 C1187.25,572.9637 1199.85,582.3837 1213,590.0137 C1236.06,603.3937 1378.5684,634.7789 1474.2884,654.9089 " fill="none" id="codelist_table-to-container_messages" style="stroke:#181818;stroke-width:1.0;stroke-dasharray:7.0,7.0;"/><polygon fill="#181818" points="1480.16,656.1437,1472.1758,650.3771,1475.267,655.1147,1470.5295,658.2059,1480.16,656.1437" style="stroke:#181818;stroke-width:1.0;"/></g><!--link codelist_table to container_table_warning--><g id="link_codelist_table_container_table_warning"><path codeLine="168" d="M1094.39,562.6737 C1096.65,595.4837 1098.5187,622.4978 1099.9787,643.7478 " fill="none" id="codelist_table-to-container_table_warning" style="stroke:#181818;stroke-width:1.0;stroke-dasharray:7.0,7.0;"/><polygon fill="#181818" points="1100.39,649.7337,1103.7637,640.4807,1100.0473,644.7454,1095.7825,641.029,1100.39,649.7337" style="stroke:#181818;stroke-width:1.0;"/></g><!--link codelist_table to notice_norights--><g id="link_codelist_table_notice_norights"><path codeLine="169" d="M1172.73,562.5937 C1185.22,573.2537 1198.73,582.7937 1213,590.0137 C1240.99,604.1737 1670.0708,648.8867 1837.2608,665.8867 " fill="none" id="codelist_table-to-notice_norights" style="stroke:#181818;stroke-width:1.0;stroke-dasharray:7.0,7.0;"/><polygon fill="#181818" points="1843.23,666.4937,1834.6808,661.6038,1838.2556,665.9879,1833.8715,669.5627,1843.23,666.4937" style="stroke:#181818;stroke-width:1.0;"/></g><!--link generic_objectclass_delete to container_messages--><g id="link_generic_objectclass_delete_container_messages"><path codeLine="170" d="M884.84,525.1437 C905.73,549.6637 932.2,574.8537 962,590.0137 C1155.59,688.4837 1232.58,615.3537 1447,650.0137 C1457.85,651.7637 1463.3553,652.6846 1474.5753,654.8146 " fill="none" id="generic_objectclass_delete-to-container_messages" style="stroke:#181818;stroke-width:1.0;stroke-dasharray:7.0,7.0;"/><polygon fill="#181818" points="1480.47,655.9337,1472.374,650.3253,1475.5577,655.0011,1470.8819,658.1849,1480.47,655.9337" style="stroke:#181818;stroke-width:1.0;"/></g><!--link generic_objectclass_delete to container_deletion_hints--><g id="link_generic_objectclass_delete_container_deletion_hints"><path codeLine="171" d="M836,525.2337 C836,568.0937 836,614.2937 836,643.7837 " fill="none" id="generic_objectclass_delete-to-container_deletion_hints" style="stroke:#181818;stroke-width:1.0;stroke-dasharray:7.0,7.0;"/><polygon fill="#181818" points="836,649.7837,840,640.7837,836,644.7837,832,640.7837,836,649.7837" style="stroke:#181818;stroke-width:1.0;"/></g><!--link generic_objectclass_delete to notice_norights--><g id="link_generic_objectclass_delete_notice_norights"><path codeLine="172" d="M883.95,525.0337 C904.89,549.8437 931.63,575.2737 962,590.0137 C1102.26,658.0837 1505.72,636.1237 1661,650.0137 C1722.88,655.5537 1787.4765,661.59 1837.2865,666.29 " fill="none" id="generic_objectclass_delete-to-notice_norights" style="stroke:#181818;stroke-width:1.0;stroke-dasharray:7.0,7.0;"/><polygon fill="#181818" points="1843.26,666.8537,1834.6756,662.0259,1838.2821,666.384,1833.924,669.9905,1843.26,666.8537" style="stroke:#181818;stroke-width:1.0;"/></g><!--link generic_objectclass_form to modal_error--><g id="link_generic_objectclass_form_modal_error"><path codeLine="173" d="M2809.92,319.0037 C2795.11,301.2037 2777.84,285.2537 2758,274.0137 C2571.48,168.3637 993.6799,154.0979 677.7099,152.2979 " fill="none" id="generic_objectclass_form-to-modal_error" style="stroke:#181818;stroke-width:1.0;stroke-dasharray:7.0,7.0;"/><polygon fill="#181818" points="671.71,152.2637,680.6871,156.3149,676.7099,152.2922,680.7326,148.315,671.71,152.2637" style="stroke:#181818;stroke-width:1.0;"/></g><!--link generic_objectclass_form to container_errors--><g id="link_generic_objectclass_form_container_errors"><path codeLine="174" d="M2775.76,578.7837 C2769.99,582.8837 2764.07,586.6537 2758,590.0137 C2625.67,663.2837 2570.64,617.1137 2423,650.0137 C2417.42,651.2537 2417.4762,651.1899 2411.7062,652.6099 " fill="none" id="generic_objectclass_form-to-container_errors" style="stroke:#181818;stroke-width:1.0;stroke-dasharray:7.0,7.0;"/><polygon fill="#181818" points="2405.88,654.0437,2415.5751,655.777,2410.7351,652.8488,2413.6634,648.0088,2405.88,654.0437" style="stroke:#181818;stroke-width:1.0;"/></g><!--link generic_objectclass_form to container_messages--><g id="link_generic_objectclass_form_container_messages"><path codeLine="175" d="M2775.81,579.9137 C2770.05,583.6737 2764.11,587.0737 2758,590.0137 C2571.05,680.1337 2032.95,634.3437 1826,650.0137 C1764.87,654.6437 1701.8255,660.1415 1649.6955,664.8715 " fill="none" id="generic_objectclass_form-to-container_messages" style="stroke:#181818;stroke-width:1.0;stroke-dasharray:7.0,7.0;"/><polygon fill="#181818" points="1643.72,665.4137,1653.0446,668.584,1648.6995,664.9619,1652.3217,660.6168,1643.72,665.4137" style="stroke:#181818;stroke-width:1.0;"/></g><!--link generic_objectclass_form to container_contacts--><g id="link_generic_objectclass_form_container_contacts"><path codeLine="176" d="M2787.76,590.1637 C2772.04,613.1037 2760.8286,629.4621 2750.3786,644.7321 " fill="none" id="generic_objectclass_form-to-container_contacts" style="stroke:#181818;stroke-width:1.0;stroke-dasharray:7.0,7.0;"/><polygon fill="#181818" points="2746.99,649.6837,2755.3739,644.5154,2749.8138,645.5574,2748.7718,639.9973,2746.99,649.6837" style="stroke:#181818;stroke-width:1.0;"/></g><!--link generic_objectclass_form to container_events--><g id="link_generic_objectclass_form_container_events"><path codeLine="177" d="M2900.43,590.1637 C2903.91,613.1037 2906.2388,628.4817 2908.5588,643.7517 " fill="none" id="generic_objectclass_form-to-container_events" style="stroke:#181818;stroke-width:1.0;stroke-dasharray:7.0,7.0;"/><polygon fill="#181818" points="2909.46,649.6837,2912.0627,640.1849,2908.709,644.7404,2904.1535,641.3866,2909.46,649.6837" style="stroke:#181818;stroke-width:1.0;"/></g><!--link generic_objectclass_form to notice_norights--><g id="link_generic_objectclass_form_notice_norights"><path codeLine="178" d="M2775.68,579.6637 C2769.96,583.4937 2764.06,586.9737 2758,590.0137 C2722.95,607.6237 2170.9715,652.3729 1978.5915,667.5129 " fill="none" id="generic_objectclass_form-to-notice_norights" style="stroke:#181818;stroke-width:1.0;stroke-dasharray:7.0,7.0;"/><polygon fill="#181818" points="1972.61,667.9837,1981.8961,671.2652,1977.5946,667.5914,1981.2684,663.2899,1972.61,667.9837" style="stroke:#181818;stroke-width:1.0;"/></g><!--link generic_objectclass_table to modal_error--><g id="link_generic_objectclass_table_modal_error"><path codeLine="179" d="M1269.31,327.7937 C1253.22,307.2537 1234.41,288.1037 1213,274.0137 C1123.46,215.0637 807.1205,173.5807 677.5105,158.6407 " fill="none" id="generic_objectclass_table-to-modal_error" style="stroke:#181818;stroke-width:1.0;stroke-dasharray:7.0,7.0;"/><polygon fill="#181818" points="671.55,157.9537,680.0328,162.958,676.5171,158.5262,680.9488,155.0106,671.55,157.9537" style="stroke:#181818;stroke-width:1.0;"/></g><!--link generic_objectclass_table to container_messages--><g id="link_generic_objectclass_table_container_messages"><path codeLine="180" d="M1446.12,572.6037 C1452.1,578.5537 1458.09,584.3937 1464,590.0137 C1486.29,611.2237 1508.376,629.8969 1528.286,646.0969 " fill="none" id="generic_objectclass_table-to-container_messages" style="stroke:#181818;stroke-width:1.0;stroke-dasharray:7.0,7.0;"/><polygon fill="#181818" points="1532.94,649.8837,1528.4835,641.1008,1529.0616,646.728,1523.4344,647.3061,1532.94,649.8837" style="stroke:#181818;stroke-width:1.0;"/></g><!--link generic_objectclass_table to container_table_danger--><g id="link_generic_objectclass_table_container_table_danger"><path codeLine="181" d="M1338,581.0937 C1338,607.4637 1338,626.4837 1338,643.7437 " fill="none" id="generic_objectclass_table-to-container_table_danger" style="stroke:#181818;stroke-width:1.0;stroke-dasharray:7.0,7.0;"/><polygon fill="#181818" points="1338,649.7437,1342,640.7437,1338,644.7437,1334,640.7437,1338,649.7437" style="stroke:#181818;stroke-width:1.0;"/></g><!--link generic_objectclass_table to container_table_warning--><g id="link_generic_objectclass_table_container_table_warning"><path codeLine="182" d="M1229.76,574.4337 C1224.17,579.7837 1218.57,585.0037 1213,590.0137 C1188.66,611.8837 1163.7596,630.4946 1141.1696,646.3646 " fill="none" id="generic_objectclass_table-to-container_table_warning" style="stroke:#181818;stroke-width:1.0;stroke-dasharray:7.0,7.0;"/><polygon fill="#181818" points="1136.26,649.8137,1145.9237,647.9131,1140.3513,646.9394,1141.325,641.367,1136.26,649.8137" style="stroke:#181818;stroke-width:1.0;"/></g><!--link generic_objectclass_table to notice_norights--><g id="link_generic_objectclass_table_notice_norights"><path codeLine="183" d="M1446.3,579.0037 C1452.06,583.0037 1457.97,586.7037 1464,590.0137 C1528.47,625.3537 1730.7207,652.7563 1837.5307,665.2563 " fill="none" id="generic_objectclass_table-to-notice_norights" style="stroke:#181818;stroke-width:1.0;stroke-dasharray:7.0,7.0;"/><polygon fill="#181818" points="1843.49,665.9537,1835.016,660.9347,1838.5239,665.3725,1834.0861,668.8804,1843.49,665.9537" style="stroke:#181818;stroke-width:1.0;"/></g><!--link index to container_messages--><g id="link_index_container_messages"><path codeLine="184" d="M1572.86,515.5237 C1569.79,560.0337 1566.1815,612.2978 1564.0015,644.0078 " fill="none" id="index-to-container_messages" style="stroke:#181818;stroke-width:1.0;stroke-dasharray:7.0,7.0;"/><polygon fill="#181818" points="1563.59,649.9937,1568.1979,641.2892,1563.9329,645.0054,1560.2167,640.7405,1563.59,649.9937" style="stroke:#181818;stroke-width:1.0;"/></g><!--link index to notice_norights--><g id="link_index_notice_norights"><path codeLine="185" d="M1617.56,515.8137 C1637.26,541.4637 1662.78,570.0137 1691,590.0137 C1737.07,622.6637 1791.8821,642.771 1837.3221,655.791 " fill="none" id="index-to-notice_norights" style="stroke:#181818;stroke-width:1.0;stroke-dasharray:7.0,7.0;"/><polygon fill="#181818" points="1843.09,657.4437,1835.5399,651.1194,1838.2834,656.0664,1833.3364,658.8099,1843.09,657.4437" style="stroke:#181818;stroke-width:1.0;"/></g><!--link map to modal_error--><g id="link_map_modal_error"><path codeLine="186" d="M2568.34,337.2137 C2549.8,312.3037 2527.02,288.9937 2500,274.0137 C2336.33,183.2837 970.6593,157.4165 677.8493,152.8865 " fill="none" id="map-to-modal_error" style="stroke:#181818;stroke-width:1.0;stroke-dasharray:7.0,7.0;"/><polygon fill="#181818" points="671.85,152.7937,680.787,156.9324,676.8494,152.871,680.9108,148.9334,671.85,152.7937" style="stroke:#181818;stroke-width:1.0;"/></g><!--link map to modal_loading--><g id="link_map_modal_loading"><path codeLine="187" d="M2569.97,337.5037 C2551.23,312.0837 2527.95,288.4737 2500,274.0137 C2446.68,246.4337 392.58,286.0837 339,259.0137 C304.22,241.4437 283.187,206.2862 271.077,180.4562 " fill="none" id="map-to-modal_loading" style="stroke:#181818;stroke-width:1.0;stroke-dasharray:7.0,7.0;"/><polygon fill="#181818" points="268.53,175.0237,268.7288,184.8705,270.6525,179.5508,275.9722,181.4746,268.53,175.0237" style="stroke:#181818;stroke-width:1.0;"/></g><!--link map to container_map_danger--><g id="link_map_container_map_danger"><path codeLine="188" d="M2576.17,571.5837 C2562.62,601.3437 2551.8971,624.9134 2543.0971,644.2334 " fill="none" id="map-to-container_map_danger" style="stroke:#181818;stroke-width:1.0;stroke-dasharray:7.0,7.0;"/><polygon fill="#181818" points="2540.61,649.6937,2547.9808,643.1613,2542.6826,645.1435,2540.7004,639.8452,2540.61,649.6937" style="stroke:#181818;stroke-width:1.0;"/></g><!--link map to notice_norights--><g id="link_map_notice_norights"><path codeLine="189" d="M2529.12,571.6337 C2519.82,578.5937 2510.08,584.8537 2500,590.0137 C2408.81,636.6537 2112.3177,660.33 1978.5577,668.9 " fill="none" id="map-to-notice_norights" style="stroke:#181818;stroke-width:1.0;stroke-dasharray:7.0,7.0;"/><polygon fill="#181818" points="1972.57,669.2837,1981.8073,672.7,1977.5598,668.964,1981.2958,664.7164,1972.57,669.2837" style="stroke:#181818;stroke-width:1.0;"/></g><!--link orphaned_data to notice_norights--><g id="link_orphaned_data_notice_norights"><path codeLine="190" d="M2176.35,506.6037 C2159.77,534.3237 2136.24,567.4237 2108,590.0137 C2068.22,621.8337 2020.2451,641.4182 1978.5051,654.5082 " fill="none" id="orphaned_data-to-notice_norights" style="stroke:#181818;stroke-width:1.0;stroke-dasharray:7.0,7.0;"/><polygon fill="#181818" points="1972.78,656.3037,1982.5646,657.4272,1977.5509,654.8075,1980.1707,649.7938,1972.78,656.3037" style="stroke:#181818;stroke-width:1.0;"/></g><!--SRC=[tLPhagCW4FwVKtY1v0HJUnKBfLLs5InWPhALpTqNmGSGK3JPhPhv5TFzTTClwAz7vIzKGuQH1Fe9l9AtKvQLBH8YAv20RFYRPRUAG8llMGC8Eu8E9784aiWM78cGltr9oKalXIEZwAD0t16LZAgWf2Eh69CmmjJP3LCoGils7SFe8czaroh0_JGdOYcyVEPJBJIX6AuUxZ6h9JZB53Xd_9Xfnp1gSwMg2EzokFQCo-nsz_JZ0RwuPGWJMWyAvVBKZqqje4CYMnfQCWmj4LBi235KPoP92MVAEAaRtKOhZ-cCNFs0XETE6fI8KE1v1qAebCGp4LMCTvlnf4rhC6guAXcsFVWQsrCyLztafpALg6ZXAwIwtjO5fnFAFn6dQimFLMRofB_AuGhS0rezj8JHl24qXZ7jYUW-86hNeJx7YDR08_gn5c6jgS2QlLEZ0J9ZQb1wKkQi-0cbrBB_UZrZzKrlv5ect-5Qxw_aDCURf-g93AEMfN-nrik1wnLgopTzWymDVC5xzRBYx-Kh_shFglVjIxHxVeQVxyi3TYHY1wfdbFcaTDvlnli6KS0gRebUpzq6ocXbecd_vVB3piwcrZxqxS_vR6FrF6wYJ5N3CCrRBpDRJG6D-om9EYoC9A2-nMl8-6BTQxKLK_I5NJDQwOG1gBkmfdRcJWs9rnSz94RcJUyfs1mB7tXmjamsZj0i87J0k7RNuHlEpIxR4txSmbqD6sRXk5RuN4ACEwqzohR3HthmSpSYZs-2vMhRTracb2jgExEo8n4RffPicLxUPQfsrpTvylSPErpgk0Ft5gLu21VDKAY4B7rWsDt0X3Qh7GLD7CA5FGIsq9WGC1oOIoJYwBy0]--></g></svg>