<svg xmlns="http://www.w3.org/2000/svg" xmlns:xlink="http://www.w3.org/1999/xlink" contentStyleType="text/css" height="1424px" preserveAspectRatio="none" style="width:1736px;height:1424px;background:#FFFFFF;" version="1.1" viewBox="0 0 1736 1424" width="1736px" zoomAndPan="magnify"><defs/><g><!--class Basemodel--><g id="elem_Basemodel"><rect codeLine="2" fill="#F1F1F1" height="103.8633" id="Basemodel" rx="2.5" ry="2.5" style="stroke:#181818;stroke-width:0.5;" width="194.875" x="230.52" y="25.5"/><ellipse cx="288.687" cy="41.5" fill="#A9DCDF" rx="11" ry="11" style="stroke:#181818;stroke-width:1.0;"/><path d="M290.8745,43.2656 L286.7339,43.2656 L286.312,44.2969 L286.7339,44.2969 Q287.3432,44.2969 287.6089,44.5313 Q287.8745,44.7656 287.8745,45.1563 Q287.8745,45.5313 287.6089,45.7656 Q287.3432,46 286.7339,46 L284.437,46 Q283.8276,46 283.5776,45.7656 Q283.312,45.5313 283.312,45.1406 Q283.312,44.7656 283.5932,44.5313 Q283.8589,44.2813 284.4839,44.2969 L287.1557,37.6406 L286.0464,37.6406 Q285.437,37.6406 285.1714,37.4063 Q284.9057,37.1719 284.9057,36.7813 Q284.9057,36.4063 285.1714,36.1719 Q285.437,35.9375 286.0464,35.9375 L289.7182,35.9375 L293.1089,44.2969 Q293.7026,44.2969 293.8901,44.4375 Q294.2807,44.7031 294.2807,45.1563 Q294.2807,45.5313 294.0151,45.7656 Q293.7651,46 293.1557,46 L290.8589,46 Q290.2495,46 289.9839,45.7656 Q289.7182,45.5313 289.7182,45.1406 Q289.7182,44.7656 289.9839,44.5313 Q290.2495,44.2969 290.8589,44.2969 L291.2807,44.2969 L290.8745,43.2656 Z M290.1557,41.5625 L288.7964,38.1875 L287.4214,41.5625 L290.1557,41.5625 Z " fill="#000000"/><text fill="#000000" font-family="sans-serif" font-size="14" font-style="italic" lengthAdjust="spacing" textLength="70.041" x="309.187" y="47.2969">Basemodel</text><line style="stroke:#181818;stroke-width:0.5;" x1="231.52" x2="424.395" y1="57.5" y2="57.5"/><ellipse cx="241.52" cy="72.3105" fill="none" rx="3" ry="3" style="stroke:#038048;stroke-width:1.0;"/><text fill="#000000" font-family="sans-serif" font-size="14" lengthAdjust="spacing" textLength="136.1924" x="250.52" y="76.6074">id: BigAutoField &#171;PK&#187;</text><ellipse cx="241.52" cy="90.9316" fill="none" rx="3" ry="3" style="stroke:#038048;stroke-width:1.0;"/><text fill="#000000" font-family="sans-serif" font-size="14" lengthAdjust="spacing" textLength="164.9648" x="250.52" y="95.2285">created_at: DateTimeField</text><ellipse cx="241.52" cy="109.5527" fill="none" rx="3" ry="3" style="stroke:#038048;stroke-width:1.0;"/><text fill="#000000" font-family="sans-serif" font-size="14" lengthAdjust="spacing" textLength="168.875" x="250.52" y="113.8496">updated_at: DateTimeField</text><line style="stroke:#181818;stroke-width:0.5;" x1="231.52" x2="424.395" y1="121.3633" y2="121.3633"/></g><!--class Codelist--><g id="elem_Codelist"><rect codeLine="8" fill="#F1F1F1" height="48" id="Codelist" rx="2.5" ry="2.5" style="stroke:#181818;stroke-width:0.5;" width="82.5791" x="230.52" y="687.5"/><ellipse cx="245.52" cy="703.5" fill="#A9DCDF" rx="11" ry="11" style="stroke:#181818;stroke-width:1.0;"/><path d="M247.7075,705.2656 L243.5669,705.2656 L243.145,706.2969 L243.5669,706.2969 Q244.1762,706.2969 244.4419,706.5313 Q244.7075,706.7656 244.7075,707.1563 Q244.7075,707.5313 244.4419,707.7656 Q244.1762,708 243.5669,708 L241.27,708 Q240.6606,708 240.4106,707.7656 Q240.145,707.5313 240.145,707.1406 Q240.145,706.7656 240.4262,706.5313 Q240.6919,706.2813 241.3169,706.2969 L243.9887,699.6406 L242.8794,699.6406 Q242.27,699.6406 242.0044,699.4063 Q241.7387,699.1719 241.7387,698.7813 Q241.7387,698.4063 242.0044,698.1719 Q242.27,697.9375 242.8794,697.9375 L246.5512,697.9375 L249.9419,706.2969 Q250.5356,706.2969 250.7231,706.4375 Q251.1137,706.7031 251.1137,707.1563 Q251.1137,707.5313 250.8481,707.7656 Q250.5981,708 249.9887,708 L247.6919,708 Q247.0825,708 246.8169,707.7656 Q246.5512,707.5313 246.5512,707.1406 Q246.5512,706.7656 246.8169,706.5313 Q247.0825,706.2969 247.6919,706.2969 L248.1137,706.2969 L247.7075,705.2656 Z M246.9887,703.5625 L245.6294,700.1875 L244.2544,703.5625 L246.9887,703.5625 Z " fill="#000000"/><text fill="#000000" font-family="sans-serif" font-size="14" font-style="italic" lengthAdjust="spacing" textLength="50.5791" x="259.52" y="709.2969">Codelist</text><line style="stroke:#181818;stroke-width:0.5;" x1="231.52" x2="312.0991" y1="719.5" y2="719.5"/><line style="stroke:#181818;stroke-width:0.5;" x1="231.52" x2="312.0991" y1="727.5" y2="727.5"/></g><!--class Objectclass--><g id="elem_Objectclass"><rect codeLine="11" fill="#F1F1F1" height="66.6211" id="Objectclass" rx="2.5" ry="2.5" style="stroke:#181818;stroke-width:0.5;" width="225.2197" x="1221.52" y="209"/><ellipse cx="1293.7007" cy="225" fill="#A9DCDF" rx="11" ry="11" style="stroke:#181818;stroke-width:1.0;"/><path d="M1295.8882,226.7656 L1291.7475,226.7656 L1291.3257,227.7969 L1291.7475,227.7969 Q1292.3569,227.7969 1292.6225,228.0313 Q1292.8882,228.2656 1292.8882,228.6563 Q1292.8882,229.0313 1292.6225,229.2656 Q1292.3569,229.5 1291.7475,229.5 L1289.4507,229.5 Q1288.8413,229.5 1288.5913,229.2656 Q1288.3257,229.0313 1288.3257,228.6406 Q1288.3257,228.2656 1288.6069,228.0313 Q1288.8725,227.7813 1289.4975,227.7969 L1292.1694,221.1406 L1291.06,221.1406 Q1290.4507,221.1406 1290.185,220.9063 Q1289.9194,220.6719 1289.9194,220.2813 Q1289.9194,219.9063 1290.185,219.6719 Q1290.4507,219.4375 1291.06,219.4375 L1294.7319,219.4375 L1298.1225,227.7969 Q1298.7163,227.7969 1298.9038,227.9375 Q1299.2944,228.2031 1299.2944,228.6563 Q1299.2944,229.0313 1299.0288,229.2656 Q1298.7788,229.5 1298.1694,229.5 L1295.8725,229.5 Q1295.2632,229.5 1294.9975,229.2656 Q1294.7319,229.0313 1294.7319,228.6406 Q1294.7319,228.2656 1294.9975,228.0313 Q1295.2632,227.7969 1295.8725,227.7969 L1296.2944,227.7969 L1295.8882,226.7656 Z M1295.1694,225.0625 L1293.81,221.6875 L1292.435,225.0625 L1295.1694,225.0625 Z " fill="#000000"/><text fill="#000000" font-family="sans-serif" font-size="14" font-style="italic" lengthAdjust="spacing" textLength="72.3584" x="1314.2007" y="230.7969">Objectclass</text><line style="stroke:#181818;stroke-width:0.5;" x1="1222.52" x2="1445.7397" y1="241" y2="241"/><ellipse cx="1232.52" cy="255.8105" fill="none" rx="3" ry="3" style="stroke:#038048;stroke-width:1.0;"/><text fill="#000000" font-family="sans-serif" font-size="14" lengthAdjust="spacing" textLength="199.2197" x="1241.52" y="260.1074">search_content: CharField [0..1]</text><line style="stroke:#181818;stroke-width:0.5;" x1="1222.52" x2="1445.7397" y1="267.6211" y2="267.6211"/></g><!--class GeometryObjectclass--><g id="elem_GeometryObjectclass"><rect codeLine="15" fill="#F1F1F1" height="48" id="GeometryObjectclass" rx="2.5" ry="2.5" style="stroke:#181818;stroke-width:0.5;" width="165.8203" x="1152.02" y="393"/><ellipse cx="1167.02" cy="409" fill="#A9DCDF" rx="11" ry="11" style="stroke:#181818;stroke-width:1.0;"/><path d="M1169.2075,410.7656 L1165.0669,410.7656 L1164.645,411.7969 L1165.0669,411.7969 Q1165.6763,411.7969 1165.9419,412.0313 Q1166.2075,412.2656 1166.2075,412.6563 Q1166.2075,413.0313 1165.9419,413.2656 Q1165.6763,413.5 1165.0669,413.5 L1162.77,413.5 Q1162.1606,413.5 1161.9106,413.2656 Q1161.645,413.0313 1161.645,412.6406 Q1161.645,412.2656 1161.9263,412.0313 Q1162.1919,411.7813 1162.8169,411.7969 L1165.4888,405.1406 L1164.3794,405.1406 Q1163.77,405.1406 1163.5044,404.9063 Q1163.2388,404.6719 1163.2388,404.2813 Q1163.2388,403.9063 1163.5044,403.6719 Q1163.77,403.4375 1164.3794,403.4375 L1168.0513,403.4375 L1171.4419,411.7969 Q1172.0356,411.7969 1172.2231,411.9375 Q1172.6138,412.2031 1172.6138,412.6563 Q1172.6138,413.0313 1172.3481,413.2656 Q1172.0981,413.5 1171.4888,413.5 L1169.1919,413.5 Q1168.5825,413.5 1168.3169,413.2656 Q1168.0513,413.0313 1168.0513,412.6406 Q1168.0513,412.2656 1168.3169,412.0313 Q1168.5825,411.7969 1169.1919,411.7969 L1169.6138,411.7969 L1169.2075,410.7656 Z M1168.4888,409.0625 L1167.1294,405.6875 L1165.7544,409.0625 L1168.4888,409.0625 Z " fill="#000000"/><text fill="#000000" font-family="sans-serif" font-size="14" font-style="italic" lengthAdjust="spacing" textLength="133.8203" x="1181.02" y="414.7969">GeometryObjectclass</text><line style="stroke:#181818;stroke-width:0.5;" x1="1153.02" x2="1316.8403" y1="425" y2="425"/><line style="stroke:#181818;stroke-width:0.5;" x1="1153.02" x2="1316.8403" y1="433" y2="433"/></g><!--class Sector--><g id="elem_Sector"><rect codeLine="18" fill="#F1F1F1" height="85.2422" id="Sector" rx="2.5" ry="2.5" style="stroke:#181818;stroke-width:0.5;" width="189.4063" x="276.52" y="1257.5"/><ellipse cx="346.7422" cy="1273.5" fill="#ADD1B2" rx="11" ry="11" style="stroke:#181818;stroke-width:1.0;"/><path d="M349.5078,1269.375 Q349.664,1269.1563 349.8515,1269.0469 Q350.039,1268.9375 350.2578,1268.9375 Q350.6328,1268.9375 350.8672,1269.2031 Q351.1015,1269.4531 351.1015,1270.0625 L351.1015,1271.5156 Q351.1015,1272.125 350.8672,1272.3906 Q350.6328,1272.6563 350.2578,1272.6563 Q349.914,1272.6563 349.7109,1272.4531 Q349.5078,1272.2656 349.3984,1271.75 Q349.3515,1271.3906 349.164,1271.2031 Q348.8359,1270.8281 348.2265,1270.6094 Q347.6172,1270.3906 346.9922,1270.3906 Q346.2265,1270.3906 345.5859,1270.7188 Q344.9609,1271.0469 344.4609,1271.7969 Q343.9765,1272.5469 343.9765,1273.5781 L343.9765,1274.6719 Q343.9765,1275.9063 344.8672,1276.7344 Q345.7578,1277.5469 347.3515,1277.5469 Q348.289,1277.5469 348.9453,1277.2969 Q349.3359,1277.1406 349.7578,1276.7031 Q350.0234,1276.4375 350.164,1276.3594 Q350.3203,1276.2813 350.5234,1276.2813 Q350.8515,1276.2813 351.1015,1276.5469 Q351.3672,1276.7969 351.3672,1277.1406 Q351.3672,1277.4844 351.0234,1277.8906 Q350.5234,1278.4688 349.7265,1278.7969 Q348.6484,1279.25 347.3515,1279.25 Q345.8359,1279.25 344.6328,1278.625 Q343.6484,1278.125 342.9609,1277.0625 Q342.2734,1275.9844 342.2734,1274.7031 L342.2734,1273.5469 Q342.2734,1272.2188 342.8828,1271.0781 Q343.5078,1269.9219 344.6015,1269.3125 Q345.6953,1268.6875 346.9297,1268.6875 Q347.664,1268.6875 348.3047,1268.8594 Q348.9609,1269.0156 349.5078,1269.375 Z " fill="#000000"/><text fill="#000000" font-family="sans-serif" font-size="14" lengthAdjust="spacing" textLength="40.4619" x="367.2422" y="1279.2969">Sector</text><line style="stroke:#181818;stroke-width:0.5;" x1="277.52" x2="464.9263" y1="1289.5" y2="1289.5"/><ellipse cx="287.52" cy="1304.3105" fill="none" rx="3" ry="3" style="stroke:#038048;stroke-width:1.0;"/><text fill="#000000" font-family="sans-serif" font-size="14" lengthAdjust="spacing" textLength="90.2549" x="296.52" y="1308.6074">title: CharField</text><ellipse cx="287.52" cy="1322.9316" fill="none" rx="3" ry="3" style="stroke:#038048;stroke-width:1.0;"/><text fill="#000000" font-family="sans-serif" font-size="14" lengthAdjust="spacing" textLength="163.4063" x="296.52" y="1327.2285">examples: CharField [0..1]</text><line style="stroke:#181818;stroke-width:0.5;" x1="277.52" x2="464.9263" y1="1334.7422" y2="1334.7422"/></g><!--class Status--><g id="elem_Status"><rect codeLine="23" fill="#F1F1F1" height="103.8633" id="Status" rx="2.5" ry="2.5" style="stroke:#181818;stroke-width:0.5;" width="184.7441" x="218.52" y="963"/><ellipse cx="286.7973" cy="979" fill="#ADD1B2" rx="11" ry="11" style="stroke:#181818;stroke-width:1.0;"/><path d="M289.563,974.875 Q289.7192,974.6563 289.9067,974.5469 Q290.0942,974.4375 290.313,974.4375 Q290.688,974.4375 290.9223,974.7031 Q291.1567,974.9531 291.1567,975.5625 L291.1567,977.0156 Q291.1567,977.625 290.9223,977.8906 Q290.688,978.1563 290.313,978.1563 Q289.9692,978.1563 289.7661,977.9531 Q289.563,977.7656 289.4536,977.25 Q289.4067,976.8906 289.2192,976.7031 Q288.8911,976.3281 288.2817,976.1094 Q287.6723,975.8906 287.0473,975.8906 Q286.2817,975.8906 285.6411,976.2188 Q285.0161,976.5469 284.5161,977.2969 Q284.0317,978.0469 284.0317,979.0781 L284.0317,980.1719 Q284.0317,981.4063 284.9223,982.2344 Q285.813,983.0469 287.4067,983.0469 Q288.3442,983.0469 289.0005,982.7969 Q289.3911,982.6406 289.813,982.2031 Q290.0786,981.9375 290.2192,981.8594 Q290.3755,981.7813 290.5786,981.7813 Q290.9067,981.7813 291.1567,982.0469 Q291.4223,982.2969 291.4223,982.6406 Q291.4223,982.9844 291.0786,983.3906 Q290.5786,983.9688 289.7817,984.2969 Q288.7036,984.75 287.4067,984.75 Q285.8911,984.75 284.688,984.125 Q283.7036,983.625 283.0161,982.5625 Q282.3286,981.4844 282.3286,980.2031 L282.3286,979.0469 Q282.3286,977.7188 282.938,976.5781 Q283.563,975.4219 284.6567,974.8125 Q285.7505,974.1875 286.9848,974.1875 Q287.7192,974.1875 288.3598,974.3594 Q289.0161,974.5156 289.563,974.875 Z " fill="#000000"/><text fill="#000000" font-family="sans-serif" font-size="14" lengthAdjust="spacing" textLength="39.6895" x="307.2973" y="984.7969">Status</text><line style="stroke:#181818;stroke-width:0.5;" x1="219.52" x2="402.2641" y1="995" y2="995"/><ellipse cx="229.52" cy="1009.8105" fill="none" rx="3" ry="3" style="stroke:#038048;stroke-width:1.0;"/><text fill="#000000" font-family="sans-serif" font-size="14" lengthAdjust="spacing" textLength="158.7441" x="238.52" y="1014.1074">ordinal: SmallIntegerField</text><ellipse cx="229.52" cy="1028.4316" fill="none" rx="3" ry="3" style="stroke:#038048;stroke-width:1.0;"/><text fill="#000000" font-family="sans-serif" font-size="14" lengthAdjust="spacing" textLength="90.2549" x="238.52" y="1032.7285">title: CharField</text><ellipse cx="229.52" cy="1047.0527" fill="none" rx="3" ry="3" style="stroke:#038048;stroke-width:1.0;"/><text fill="#000000" font-family="sans-serif" font-size="14" lengthAdjust="spacing" textLength="94.1514" x="238.52" y="1051.3496">icon: CharField</text><line style="stroke:#181818;stroke-width:0.5;" x1="219.52" x2="402.2641" y1="1058.8633" y2="1058.8633"/></g><!--class TypeOfEvent--><g id="elem_TypeOfEvent"><rect codeLine="29" fill="#F1F1F1" height="85.2422" id="TypeOfEvent" rx="2.5" ry="2.5" style="stroke:#181818;stroke-width:0.5;" width="120.1514" x="63.02" y="972.5"/><ellipse cx="80.9217" cy="988.5" fill="#ADD1B2" rx="11" ry="11" style="stroke:#181818;stroke-width:1.0;"/><path d="M83.6873,984.375 Q83.8436,984.1563 84.0311,984.0469 Q84.2186,983.9375 84.4373,983.9375 Q84.8123,983.9375 85.0467,984.2031 Q85.2811,984.4531 85.2811,985.0625 L85.2811,986.5156 Q85.2811,987.125 85.0467,987.3906 Q84.8123,987.6563 84.4373,987.6563 Q84.0936,987.6563 83.8905,987.4531 Q83.6873,987.2656 83.578,986.75 Q83.5311,986.3906 83.3436,986.2031 Q83.0155,985.8281 82.4061,985.6094 Q81.7967,985.3906 81.1717,985.3906 Q80.4061,985.3906 79.7655,985.7188 Q79.1405,986.0469 78.6405,986.7969 Q78.1561,987.5469 78.1561,988.5781 L78.1561,989.6719 Q78.1561,990.9063 79.0467,991.7344 Q79.9373,992.5469 81.5311,992.5469 Q82.4686,992.5469 83.1248,992.2969 Q83.5155,992.1406 83.9373,991.7031 Q84.203,991.4375 84.3436,991.3594 Q84.4998,991.2813 84.703,991.2813 Q85.0311,991.2813 85.2811,991.5469 Q85.5467,991.7969 85.5467,992.1406 Q85.5467,992.4844 85.203,992.8906 Q84.703,993.4688 83.9061,993.7969 Q82.828,994.25 81.5311,994.25 Q80.0155,994.25 78.8123,993.625 Q77.828,993.125 77.1405,992.0625 Q76.453,990.9844 76.453,989.7031 L76.453,988.5469 Q76.453,987.2188 77.0623,986.0781 Q77.6873,984.9219 78.7811,984.3125 Q79.8748,983.6875 81.1092,983.6875 Q81.8436,983.6875 82.4842,983.8594 Q83.1405,984.0156 83.6873,984.375 Z " fill="#000000"/><text fill="#000000" font-family="sans-serif" font-size="14" lengthAdjust="spacing" textLength="81.7031" x="95.5665" y="994.2969">TypeOfEvent</text><line style="stroke:#181818;stroke-width:0.5;" x1="64.02" x2="182.1714" y1="1004.5" y2="1004.5"/><ellipse cx="74.02" cy="1019.3105" fill="none" rx="3" ry="3" style="stroke:#038048;stroke-width:1.0;"/><text fill="#000000" font-family="sans-serif" font-size="14" lengthAdjust="spacing" textLength="90.2549" x="83.02" y="1023.6074">title: CharField</text><ellipse cx="74.02" cy="1037.9316" fill="none" rx="3" ry="3" style="stroke:#038048;stroke-width:1.0;"/><text fill="#000000" font-family="sans-serif" font-size="14" lengthAdjust="spacing" textLength="94.1514" x="83.02" y="1042.2285">icon: CharField</text><line style="stroke:#181818;stroke-width:0.5;" x1="64.02" x2="182.1714" y1="1049.7422" y2="1049.7422"/></g><!--class TypeOfImmission--><g id="elem_TypeOfImmission"><rect codeLine="34" fill="#F1F1F1" height="85.2422" id="TypeOfImmission" rx="2.5" ry="2.5" style="stroke:#181818;stroke-width:0.5;" width="140.9102" x="438.52" y="972.5"/><ellipse cx="453.52" cy="988.5" fill="#ADD1B2" rx="11" ry="11" style="stroke:#181818;stroke-width:1.0;"/><path d="M456.2856,984.375 Q456.4419,984.1563 456.6294,984.0469 Q456.8169,983.9375 457.0356,983.9375 Q457.4106,983.9375 457.645,984.2031 Q457.8794,984.4531 457.8794,985.0625 L457.8794,986.5156 Q457.8794,987.125 457.645,987.3906 Q457.4106,987.6563 457.0356,987.6563 Q456.6919,987.6563 456.4888,987.4531 Q456.2856,987.2656 456.1763,986.75 Q456.1294,986.3906 455.9419,986.2031 Q455.6138,985.8281 455.0044,985.6094 Q454.395,985.3906 453.77,985.3906 Q453.0044,985.3906 452.3638,985.7188 Q451.7388,986.0469 451.2388,986.7969 Q450.7544,987.5469 450.7544,988.5781 L450.7544,989.6719 Q450.7544,990.9063 451.645,991.7344 Q452.5356,992.5469 454.1294,992.5469 Q455.0669,992.5469 455.7231,992.2969 Q456.1138,992.1406 456.5356,991.7031 Q456.8013,991.4375 456.9419,991.3594 Q457.0981,991.2813 457.3013,991.2813 Q457.6294,991.2813 457.8794,991.5469 Q458.145,991.7969 458.145,992.1406 Q458.145,992.4844 457.8013,992.8906 Q457.3013,993.4688 456.5044,993.7969 Q455.4263,994.25 454.1294,994.25 Q452.6138,994.25 451.4106,993.625 Q450.4263,993.125 449.7388,992.0625 Q449.0513,990.9844 449.0513,989.7031 L449.0513,988.5469 Q449.0513,987.2188 449.6606,986.0781 Q450.2856,984.9219 451.3794,984.3125 Q452.4731,983.6875 453.7075,983.6875 Q454.4419,983.6875 455.0825,983.8594 Q455.7388,984.0156 456.2856,984.375 Z " fill="#000000"/><text fill="#000000" font-family="sans-serif" font-size="14" lengthAdjust="spacing" textLength="108.9102" x="467.52" y="994.2969">TypeOfImmission</text><line style="stroke:#181818;stroke-width:0.5;" x1="439.52" x2="578.4302" y1="1004.5" y2="1004.5"/><ellipse cx="449.52" cy="1019.3105" fill="none" rx="3" ry="3" style="stroke:#038048;stroke-width:1.0;"/><text fill="#000000" font-family="sans-serif" font-size="14" lengthAdjust="spacing" textLength="90.2549" x="458.52" y="1023.6074">title: CharField</text><ellipse cx="449.52" cy="1037.9316" fill="none" rx="3" ry="3" style="stroke:#038048;stroke-width:1.0;"/><text fill="#000000" font-family="sans-serif" font-size="14" lengthAdjust="spacing" textLength="94.1514" x="458.52" y="1042.2285">icon: CharField</text><line style="stroke:#181818;stroke-width:0.5;" x1="439.52" x2="578.4302" y1="1049.7422" y2="1049.7422"/></g><!--class Organization--><g id="elem_Organization"><rect codeLine="39" fill="#F1F1F1" height="196.9688" id="Organization" rx="2.5" ry="2.5" style="stroke:#181818;stroke-width:0.5;" width="280.4814" x="1225.02" y="1201.5"/><ellipse cx="1321.3213" cy="1217.5" fill="#ADD1B2" rx="11" ry="11" style="stroke:#181818;stroke-width:1.0;"/><path d="M1324.0869,1213.375 Q1324.2431,1213.1563 1324.4306,1213.0469 Q1324.6181,1212.9375 1324.8369,1212.9375 Q1325.2119,1212.9375 1325.4463,1213.2031 Q1325.6806,1213.4531 1325.6806,1214.0625 L1325.6806,1215.5156 Q1325.6806,1216.125 1325.4463,1216.3906 Q1325.2119,1216.6563 1324.8369,1216.6563 Q1324.4931,1216.6563 1324.29,1216.4531 Q1324.0869,1216.2656 1323.9775,1215.75 Q1323.9306,1215.3906 1323.7431,1215.2031 Q1323.415,1214.8281 1322.8056,1214.6094 Q1322.1963,1214.3906 1321.5713,1214.3906 Q1320.8056,1214.3906 1320.165,1214.7188 Q1319.54,1215.0469 1319.04,1215.7969 Q1318.5556,1216.5469 1318.5556,1217.5781 L1318.5556,1218.6719 Q1318.5556,1219.9063 1319.4463,1220.7344 Q1320.3369,1221.5469 1321.9306,1221.5469 Q1322.8681,1221.5469 1323.5244,1221.2969 Q1323.915,1221.1406 1324.3369,1220.7031 Q1324.6025,1220.4375 1324.7431,1220.3594 Q1324.8994,1220.2813 1325.1025,1220.2813 Q1325.4306,1220.2813 1325.6806,1220.5469 Q1325.9463,1220.7969 1325.9463,1221.1406 Q1325.9463,1221.4844 1325.6025,1221.8906 Q1325.1025,1222.4688 1324.3056,1222.7969 Q1323.2275,1223.25 1321.9306,1223.25 Q1320.415,1223.25 1319.2119,1222.625 Q1318.2275,1222.125 1317.54,1221.0625 Q1316.8525,1219.9844 1316.8525,1218.7031 L1316.8525,1217.5469 Q1316.8525,1216.2188 1317.4619,1215.0781 Q1318.0869,1213.9219 1319.1806,1213.3125 Q1320.2744,1212.6875 1321.5088,1212.6875 Q1322.2431,1212.6875 1322.8838,1212.8594 Q1323.54,1213.0156 1324.0869,1213.375 Z " fill="#000000"/><text fill="#000000" font-family="sans-serif" font-size="14" lengthAdjust="spacing" textLength="79.3789" x="1341.8213" y="1223.2969">Organization</text><line style="stroke:#181818;stroke-width:0.5;" x1="1226.02" x2="1504.5014" y1="1233.5" y2="1233.5"/><ellipse cx="1236.02" cy="1248.3105" fill="none" rx="3" ry="3" style="stroke:#038048;stroke-width:1.0;"/><text fill="#000000" font-family="sans-serif" font-size="14" lengthAdjust="spacing" textLength="103.4893" x="1245.02" y="1252.6074">name: CharField</text><ellipse cx="1236.02" cy="1266.9316" fill="none" rx="3" ry="3" style="stroke:#038048;stroke-width:1.0;"/><text fill="#000000" font-family="sans-serif" font-size="14" lengthAdjust="spacing" textLength="196.0957" x="1245.02" y="1271.2285">address_street: CharField [0..1]</text><ellipse cx="1236.02" cy="1285.5527" fill="none" rx="3" ry="3" style="stroke:#038048;stroke-width:1.0;"/><text fill="#000000" font-family="sans-serif" font-size="14" lengthAdjust="spacing" textLength="254.4814" x="1245.02" y="1289.8496">address_house_number: CharField [0..1]</text><ellipse cx="1236.02" cy="1304.1738" fill="none" rx="3" ry="3" style="stroke:#038048;stroke-width:1.0;"/><text fill="#000000" font-family="sans-serif" font-size="14" lengthAdjust="spacing" textLength="236.585" x="1245.02" y="1308.4707">address_postal_code: CharField [0..1]</text><ellipse cx="1236.02" cy="1322.7949" fill="none" rx="3" ry="3" style="stroke:#038048;stroke-width:1.0;"/><text fill="#000000" font-family="sans-serif" font-size="14" lengthAdjust="spacing" textLength="194.5508" x="1245.02" y="1327.0918">address_place: CharField [0..1]</text><ellipse cx="1236.02" cy="1341.416" fill="none" rx="3" ry="3" style="stroke:#038048;stroke-width:1.0;"/><text fill="#000000" font-family="sans-serif" font-size="14" lengthAdjust="spacing" textLength="212.4268" x="1245.02" y="1345.7129">email_addresses: ArrayField [0..1]</text><ellipse cx="1236.02" cy="1360.0371" fill="none" rx="3" ry="3" style="stroke:#038048;stroke-width:1.0;"/><text fill="#000000" font-family="sans-serif" font-size="14" lengthAdjust="spacing" textLength="230.3506" x="1245.02" y="1364.334">telephone_numbers: ArrayField [0..1]</text><ellipse cx="1236.02" cy="1378.6582" fill="none" rx="3" ry="3" style="stroke:#038048;stroke-width:1.0;"/><text fill="#000000" font-family="sans-serif" font-size="14" lengthAdjust="spacing" textLength="158.7305" x="1245.02" y="1382.9551">dms_link: CharField [0..1]</text><line style="stroke:#181818;stroke-width:0.5;" x1="1226.02" x2="1504.5014" y1="1390.4688" y2="1390.4688"/></g><!--class Person--><g id="elem_Person"><rect codeLine="50" fill="#F1F1F1" height="234.2109" id="Person" rx="2.5" ry="2.5" style="stroke:#181818;stroke-width:0.5;" width="280.4814" x="862.02" y="1183"/><ellipse cx="975.8315" cy="1199" fill="#ADD1B2" rx="11" ry="11" style="stroke:#181818;stroke-width:1.0;"/><path d="M978.5971,1194.875 Q978.7534,1194.6563 978.9409,1194.5469 Q979.1284,1194.4375 979.3471,1194.4375 Q979.7221,1194.4375 979.9565,1194.7031 Q980.1909,1194.9531 980.1909,1195.5625 L980.1909,1197.0156 Q980.1909,1197.625 979.9565,1197.8906 Q979.7221,1198.1563 979.3471,1198.1563 Q979.0034,1198.1563 978.8003,1197.9531 Q978.5971,1197.7656 978.4878,1197.25 Q978.4409,1196.8906 978.2534,1196.7031 Q977.9253,1196.3281 977.3159,1196.1094 Q976.7065,1195.8906 976.0815,1195.8906 Q975.3159,1195.8906 974.6753,1196.2188 Q974.0503,1196.5469 973.5503,1197.2969 Q973.0659,1198.0469 973.0659,1199.0781 L973.0659,1200.1719 Q973.0659,1201.4063 973.9565,1202.2344 Q974.8471,1203.0469 976.4409,1203.0469 Q977.3784,1203.0469 978.0346,1202.7969 Q978.4253,1202.6406 978.8471,1202.2031 Q979.1128,1201.9375 979.2534,1201.8594 Q979.4096,1201.7813 979.6128,1201.7813 Q979.9409,1201.7813 980.1909,1202.0469 Q980.4565,1202.2969 980.4565,1202.6406 Q980.4565,1202.9844 980.1128,1203.3906 Q979.6128,1203.9688 978.8159,1204.2969 Q977.7378,1204.75 976.4409,1204.75 Q974.9253,1204.75 973.7221,1204.125 Q972.7378,1203.625 972.0503,1202.5625 Q971.3628,1201.4844 971.3628,1200.2031 L971.3628,1199.0469 Q971.3628,1197.7188 971.9721,1196.5781 Q972.5971,1195.4219 973.6909,1194.8125 Q974.7846,1194.1875 976.019,1194.1875 Q976.7534,1194.1875 977.394,1194.3594 Q978.0503,1194.5156 978.5971,1194.875 Z " fill="#000000"/><text fill="#000000" font-family="sans-serif" font-size="14" lengthAdjust="spacing" textLength="44.3584" x="996.3315" y="1204.7969">Person</text><line style="stroke:#181818;stroke-width:0.5;" x1="863.02" x2="1141.5014" y1="1215" y2="1215"/><ellipse cx="873.02" cy="1229.8105" fill="none" rx="3" ry="3" style="stroke:#038048;stroke-width:1.0;"/><text fill="#000000" font-family="sans-serif" font-size="14" lengthAdjust="spacing" textLength="125.2754" x="882.02" y="1234.1074">title: CharField [0..1]</text><ellipse cx="873.02" cy="1248.4316" fill="none" rx="3" ry="3" style="stroke:#038048;stroke-width:1.0;"/><text fill="#000000" font-family="sans-serif" font-size="14" lengthAdjust="spacing" textLength="192.9785" x="882.02" y="1252.7285">academic_title: CharField [0..1]</text><ellipse cx="873.02" cy="1267.0527" fill="none" rx="3" ry="3" style="stroke:#038048;stroke-width:1.0;"/><text fill="#000000" font-family="sans-serif" font-size="14" lengthAdjust="spacing" textLength="168.8477" x="882.02" y="1271.3496">first_name: CharField [0..1]</text><ellipse cx="873.02" cy="1285.6738" fill="none" rx="3" ry="3" style="stroke:#038048;stroke-width:1.0;"/><text fill="#000000" font-family="sans-serif" font-size="14" lengthAdjust="spacing" textLength="133.0615" x="882.02" y="1289.9707">last_name: CharField</text><ellipse cx="873.02" cy="1304.2949" fill="none" rx="3" ry="3" style="stroke:#038048;stroke-width:1.0;"/><text fill="#000000" font-family="sans-serif" font-size="14" lengthAdjust="spacing" textLength="196.0957" x="882.02" y="1308.5918">address_street: CharField [0..1]</text><ellipse cx="873.02" cy="1322.916" fill="none" rx="3" ry="3" style="stroke:#038048;stroke-width:1.0;"/><text fill="#000000" font-family="sans-serif" font-size="14" lengthAdjust="spacing" textLength="254.4814" x="882.02" y="1327.2129">address_house_number: CharField [0..1]</text><ellipse cx="873.02" cy="1341.5371" fill="none" rx="3" ry="3" style="stroke:#038048;stroke-width:1.0;"/><text fill="#000000" font-family="sans-serif" font-size="14" lengthAdjust="spacing" textLength="236.585" x="882.02" y="1345.834">address_postal_code: CharField [0..1]</text><ellipse cx="873.02" cy="1360.1582" fill="none" rx="3" ry="3" style="stroke:#038048;stroke-width:1.0;"/><text fill="#000000" font-family="sans-serif" font-size="14" lengthAdjust="spacing" textLength="194.5508" x="882.02" y="1364.4551">address_place: CharField [0..1]</text><ellipse cx="873.02" cy="1378.7793" fill="none" rx="3" ry="3" style="stroke:#038048;stroke-width:1.0;"/><text fill="#000000" font-family="sans-serif" font-size="14" lengthAdjust="spacing" textLength="212.4268" x="882.02" y="1383.0762">email_addresses: ArrayField [0..1]</text><ellipse cx="873.02" cy="1397.4004" fill="none" rx="3" ry="3" style="stroke:#038048;stroke-width:1.0;"/><text fill="#000000" font-family="sans-serif" font-size="14" lengthAdjust="spacing" textLength="230.3506" x="882.02" y="1401.6973">telephone_numbers: ArrayField [0..1]</text><line style="stroke:#181818;stroke-width:0.5;" x1="863.02" x2="1141.5014" y1="1409.2109" y2="1409.2109"/></g><!--class Contact--><g id="elem_Contact"><rect codeLine="63" fill="#F1F1F1" height="103.8633" id="Contact" rx="2.5" ry="2.5" style="stroke:#181818;stroke-width:0.5;" width="218.999" x="1385.52" y="963"/><ellipse cx="1466.6455" cy="979" fill="#ADD1B2" rx="11" ry="11" style="stroke:#181818;stroke-width:1.0;"/><path d="M1469.4111,974.875 Q1469.5674,974.6563 1469.7549,974.5469 Q1469.9424,974.4375 1470.1611,974.4375 Q1470.5361,974.4375 1470.7705,974.7031 Q1471.0049,974.9531 1471.0049,975.5625 L1471.0049,977.0156 Q1471.0049,977.625 1470.7705,977.8906 Q1470.5361,978.1563 1470.1611,978.1563 Q1469.8174,978.1563 1469.6142,977.9531 Q1469.4111,977.7656 1469.3017,977.25 Q1469.2549,976.8906 1469.0674,976.7031 Q1468.7392,976.3281 1468.1299,976.1094 Q1467.5205,975.8906 1466.8955,975.8906 Q1466.1299,975.8906 1465.4892,976.2188 Q1464.8642,976.5469 1464.3642,977.2969 Q1463.8799,978.0469 1463.8799,979.0781 L1463.8799,980.1719 Q1463.8799,981.4063 1464.7705,982.2344 Q1465.6611,983.0469 1467.2549,983.0469 Q1468.1924,983.0469 1468.8486,982.7969 Q1469.2392,982.6406 1469.6611,982.2031 Q1469.9267,981.9375 1470.0674,981.8594 Q1470.2236,981.7813 1470.4267,981.7813 Q1470.7549,981.7813 1471.0049,982.0469 Q1471.2705,982.2969 1471.2705,982.6406 Q1471.2705,982.9844 1470.9267,983.3906 Q1470.4267,983.9688 1469.6299,984.2969 Q1468.5517,984.75 1467.2549,984.75 Q1465.7392,984.75 1464.5361,984.125 Q1463.5517,983.625 1462.8642,982.5625 Q1462.1767,981.4844 1462.1767,980.2031 L1462.1767,979.0469 Q1462.1767,977.7188 1462.7861,976.5781 Q1463.4111,975.4219 1464.5049,974.8125 Q1465.5986,974.1875 1466.833,974.1875 Q1467.5674,974.1875 1468.208,974.3594 Q1468.8642,974.5156 1469.4111,974.875 Z " fill="#000000"/><text fill="#000000" font-family="sans-serif" font-size="14" lengthAdjust="spacing" textLength="48.248" x="1487.1455" y="984.7969">Contact</text><line style="stroke:#181818;stroke-width:0.5;" x1="1386.52" x2="1603.519" y1="995" y2="995"/><polygon fill="none" points="1396.52,1005.8105,1392.52,1011.8105,1400.52,1011.8105" style="stroke:#1963A0;stroke-width:1.0;"/><text fill="#000000" font-family="sans-serif" font-size="14" lengthAdjust="spacing" textLength="192.999" x="1405.52" y="1014.1074">organization: ForeignKey &#171;FK&#187;</text><polygon fill="none" points="1396.52,1024.4316,1392.52,1030.4316,1400.52,1030.4316" style="stroke:#1963A0;stroke-width:1.0;"/><text fill="#000000" font-family="sans-serif" font-size="14" lengthAdjust="spacing" textLength="159.5303" x="1405.52" y="1032.7285">person: ForeignKey &#171;FK&#187;</text><ellipse cx="1396.52" cy="1047.0527" fill="none" rx="3" ry="3" style="stroke:#038048;stroke-width:1.0;"/><text fill="#000000" font-family="sans-serif" font-size="14" lengthAdjust="spacing" textLength="152.5234" x="1405.52" y="1051.3496">function: CharField [0..1]</text><line style="stroke:#181818;stroke-width:0.5;" x1="1386.52" x2="1603.519" y1="1058.8633" y2="1058.8633"/></g><!--class Originator--><g id="elem_Originator"><rect codeLine="69" fill="#F1F1F1" height="178.3477" id="Originator" rx="2.5" ry="2.5" style="stroke:#181818;stroke-width:0.5;" width="313.9502" x="810.02" y="926"/><ellipse cx="932.0107" cy="942" fill="#ADD1B2" rx="11" ry="11" style="stroke:#181818;stroke-width:1.0;"/><path d="M934.7763,937.875 Q934.9326,937.6563 935.1201,937.5469 Q935.3076,937.4375 935.5263,937.4375 Q935.9013,937.4375 936.1357,937.7031 Q936.3701,937.9531 936.3701,938.5625 L936.3701,940.0156 Q936.3701,940.625 936.1357,940.8906 Q935.9013,941.1563 935.5263,941.1563 Q935.1826,941.1563 934.9795,940.9531 Q934.7763,940.7656 934.667,940.25 Q934.6201,939.8906 934.4326,939.7031 Q934.1045,939.3281 933.4951,939.1094 Q932.8857,938.8906 932.2607,938.8906 Q931.4951,938.8906 930.8545,939.2188 Q930.2295,939.5469 929.7295,940.2969 Q929.2451,941.0469 929.2451,942.0781 L929.2451,943.1719 Q929.2451,944.4063 930.1357,945.2344 Q931.0263,946.0469 932.6201,946.0469 Q933.5576,946.0469 934.2138,945.7969 Q934.6045,945.6406 935.0263,945.2031 Q935.292,944.9375 935.4326,944.8594 Q935.5888,944.7813 935.792,944.7813 Q936.1201,944.7813 936.3701,945.0469 Q936.6357,945.2969 936.6357,945.6406 Q936.6357,945.9844 936.292,946.3906 Q935.792,946.9688 934.9951,947.2969 Q933.917,947.75 932.6201,947.75 Q931.1045,947.75 929.9013,947.125 Q928.917,946.625 928.2295,945.5625 Q927.542,944.4844 927.542,943.2031 L927.542,942.0469 Q927.542,940.7188 928.1513,939.5781 Q928.7763,938.4219 929.8701,937.8125 Q930.9638,937.1875 932.1982,937.1875 Q932.9326,937.1875 933.5732,937.3594 Q934.2295,937.5156 934.7763,937.875 Z " fill="#000000"/><text fill="#000000" font-family="sans-serif" font-size="14" lengthAdjust="spacing" textLength="61.4688" x="952.5107" y="947.7969">Originator</text><line style="stroke:#181818;stroke-width:0.5;" x1="811.02" x2="1122.9702" y1="958" y2="958"/><polygon fill="none" points="821.02,968.8105,817.02,974.8105,825.02,974.8105" style="stroke:#1963A0;stroke-width:1.0;"/><text fill="#000000" font-family="sans-serif" font-size="14" lengthAdjust="spacing" textLength="154.8477" x="830.02" y="977.1074">sector: ForeignKey &#171;FK&#187;</text><polygon fill="none" points="821.02,987.4316,817.02,993.4316,825.02,993.4316" style="stroke:#1963A0;stroke-width:1.0;"/><text fill="#000000" font-family="sans-serif" font-size="14" lengthAdjust="spacing" textLength="287.9502" x="830.02" y="995.7285">operator_organization: ForeignKey &#171;FK&#187; [0..1]</text><polygon fill="none" points="821.02,1006.0527,817.02,1012.0527,825.02,1012.0527" style="stroke:#1963A0;stroke-width:1.0;"/><text fill="#000000" font-family="sans-serif" font-size="14" lengthAdjust="spacing" textLength="254.4814" x="830.02" y="1014.3496">operator_person: ForeignKey &#171;FK&#187; [0..1]</text><ellipse cx="821.02" cy="1028.6738" fill="none" rx="3" ry="3" style="stroke:#038048;stroke-width:1.0;"/><text fill="#000000" font-family="sans-serif" font-size="14" lengthAdjust="spacing" textLength="133.0547" x="830.02" y="1032.9707">description: TextField</text><ellipse cx="821.02" cy="1047.2949" fill="none" rx="3" ry="3" style="stroke:#038048;stroke-width:1.0;"/><text fill="#000000" font-family="sans-serif" font-size="14" lengthAdjust="spacing" textLength="163.4199" x="830.02" y="1051.5918">emission_point: PointField</text><ellipse cx="821.02" cy="1065.916" fill="none" rx="3" ry="3" style="stroke:#038048;stroke-width:1.0;"/><text fill="#000000" font-family="sans-serif" font-size="14" lengthAdjust="spacing" textLength="153.2959" x="830.02" y="1070.2129">address: CharField [0..1]</text><ellipse cx="821.02" cy="1084.5371" fill="none" rx="3" ry="3" style="stroke:#038048;stroke-width:1.0;"/><text fill="#000000" font-family="sans-serif" font-size="14" lengthAdjust="spacing" textLength="158.7305" x="830.02" y="1088.834">dms_link: CharField [0..1]</text><line style="stroke:#181818;stroke-width:0.5;" x1="811.02" x2="1122.9702" y1="1096.3477" y2="1096.3477"/></g><!--class Complaint--><g id="elem_Complaint"><rect codeLine="79" fill="#F1F1F1" height="271.4531" id="Complaint" rx="2.5" ry="2.5" style="stroke:#181818;stroke-width:0.5;" width="350.4883" x="582.02" y="576"/><ellipse cx="721.5005" cy="592" fill="#ADD1B2" rx="11" ry="11" style="stroke:#181818;stroke-width:1.0;"/><path d="M724.2661,587.875 Q724.4223,587.6563 724.6098,587.5469 Q724.7973,587.4375 725.0161,587.4375 Q725.3911,587.4375 725.6255,587.7031 Q725.8598,587.9531 725.8598,588.5625 L725.8598,590.0156 Q725.8598,590.625 725.6255,590.8906 Q725.3911,591.1563 725.0161,591.1563 Q724.6723,591.1563 724.4692,590.9531 Q724.2661,590.7656 724.1567,590.25 Q724.1098,589.8906 723.9223,589.7031 Q723.5942,589.3281 722.9848,589.1094 Q722.3755,588.8906 721.7505,588.8906 Q720.9848,588.8906 720.3442,589.2188 Q719.7192,589.5469 719.2192,590.2969 Q718.7348,591.0469 718.7348,592.0781 L718.7348,593.1719 Q718.7348,594.4063 719.6255,595.2344 Q720.5161,596.0469 722.1098,596.0469 Q723.0473,596.0469 723.7036,595.7969 Q724.0942,595.6406 724.5161,595.2031 Q724.7817,594.9375 724.9223,594.8594 Q725.0786,594.7813 725.2817,594.7813 Q725.6098,594.7813 725.8598,595.0469 Q726.1255,595.2969 726.1255,595.6406 Q726.1255,595.9844 725.7817,596.3906 Q725.2817,596.9688 724.4848,597.2969 Q723.4067,597.75 722.1098,597.75 Q720.5942,597.75 719.3911,597.125 Q718.4067,596.625 717.7192,595.5625 Q717.0317,594.4844 717.0317,593.2031 L717.0317,592.0469 Q717.0317,590.7188 717.6411,589.5781 Q718.2661,588.4219 719.3598,587.8125 Q720.4536,587.1875 721.688,587.1875 Q722.4223,587.1875 723.063,587.3594 Q723.7192,587.5156 724.2661,587.875 Z " fill="#000000"/><text fill="#000000" font-family="sans-serif" font-size="14" lengthAdjust="spacing" textLength="63.0273" x="742.0005" y="597.7969">Complaint</text><line style="stroke:#181818;stroke-width:0.5;" x1="583.02" x2="931.5083" y1="608" y2="608"/><ellipse cx="593.02" cy="622.8105" fill="none" rx="3" ry="3" style="stroke:#038048;stroke-width:1.0;"/><text fill="#000000" font-family="sans-serif" font-size="14" lengthAdjust="spacing" textLength="164.2129" x="602.02" y="627.1074">date_of_receipt: DateField</text><polygon fill="none" points="593.02,637.4316,589.02,643.4316,597.02,643.4316" style="stroke:#1963A0;stroke-width:1.0;"/><text fill="#000000" font-family="sans-serif" font-size="14" lengthAdjust="spacing" textLength="154.0752" x="602.02" y="645.7285">status: ForeignKey &#171;FK&#187;</text><ellipse cx="593.02" cy="660.0527" fill="none" rx="3" ry="3" style="stroke:#038048;stroke-width:1.0;"/><text fill="#000000" font-family="sans-serif" font-size="14" lengthAdjust="spacing" textLength="214.0127" x="602.02" y="664.3496">status_updated_at: DateTimeField</text><polygon fill="none" points="593.02,674.6738,589.02,680.6738,597.02,680.6738" style="stroke:#1963A0;stroke-width:1.0;"/><text fill="#000000" font-family="sans-serif" font-size="14" lengthAdjust="spacing" textLength="232.6611" x="602.02" y="682.9707">type_of_immission: ForeignKey &#171;FK&#187;</text><ellipse cx="593.02" cy="697.2949" fill="none" rx="3" ry="3" style="stroke:#038048;stroke-width:1.0;"/><text fill="#000000" font-family="sans-serif" font-size="14" lengthAdjust="spacing" textLength="170.4063" x="602.02" y="701.5918">immission_point: PointField</text><ellipse cx="593.02" cy="715.916" fill="none" rx="3" ry="3" style="stroke:#038048;stroke-width:1.0;"/><text fill="#000000" font-family="sans-serif" font-size="14" lengthAdjust="spacing" textLength="153.2959" x="602.02" y="720.2129">address: CharField [0..1]</text><polygon fill="none" points="593.02,730.5371,589.02,736.5371,597.02,736.5371" style="stroke:#1963A0;stroke-width:1.0;"/><text fill="#000000" font-family="sans-serif" font-size="14" lengthAdjust="spacing" textLength="175.0889" x="602.02" y="738.834">originator: ForeignKey &#171;FK&#187;</text><polygon fill="none" points="593.02,748.1582,597.02,752.1582,593.02,756.1582,589.02,752.1582" style="stroke:#B38D22;stroke-width:1.0;"/><text fill="#000000" font-family="sans-serif" font-size="14" lengthAdjust="spacing" textLength="324.4883" x="602.02" y="757.4551">complainers_organizations: ManyToManyField [0..1]</text><polygon fill="none" points="593.02,766.7793,597.02,770.7793,593.02,774.7793,589.02,770.7793" style="stroke:#B38D22;stroke-width:1.0;"/><text fill="#000000" font-family="sans-serif" font-size="14" lengthAdjust="spacing" textLength="291.0195" x="602.02" y="776.0762">complainers_persons: ManyToManyField [0..1]</text><ellipse cx="593.02" cy="790.4004" fill="none" rx="3" ry="3" style="stroke:#038048;stroke-width:1.0;"/><text fill="#000000" font-family="sans-serif" font-size="14" lengthAdjust="spacing" textLength="133.0547" x="602.02" y="794.6973">description: TextField</text><ellipse cx="593.02" cy="809.0215" fill="none" rx="3" ry="3" style="stroke:#038048;stroke-width:1.0;"/><text fill="#000000" font-family="sans-serif" font-size="14" lengthAdjust="spacing" textLength="158.7305" x="602.02" y="813.3184">dms_link: CharField [0..1]</text><ellipse cx="593.02" cy="827.6426" fill="none" rx="3" ry="3" style="stroke:#038048;stroke-width:1.0;"/><text fill="#000000" font-family="sans-serif" font-size="14" lengthAdjust="spacing" textLength="206.2266" x="602.02" y="831.9395">storage_location: CharField [0..1]</text><line style="stroke:#181818;stroke-width:0.5;" x1="583.02" x2="931.5083" y1="839.4531" y2="839.4531"/></g><!--class Event--><g id="elem_Event"><rect codeLine="94" fill="#F1F1F1" height="159.7266" id="Event" rx="2.5" ry="2.5" style="stroke:#181818;stroke-width:0.5;" width="230.6816" x="641.52" y="337"/><ellipse cx="734.7109" cy="353" fill="#ADD1B2" rx="11" ry="11" style="stroke:#181818;stroke-width:1.0;"/><path d="M737.4765,348.875 Q737.6328,348.6563 737.8203,348.5469 Q738.0078,348.4375 738.2265,348.4375 Q738.6015,348.4375 738.8359,348.7031 Q739.0703,348.9531 739.0703,349.5625 L739.0703,351.0156 Q739.0703,351.625 738.8359,351.8906 Q738.6015,352.1563 738.2265,352.1563 Q737.8828,352.1563 737.6797,351.9531 Q737.4765,351.7656 737.3672,351.25 Q737.3203,350.8906 737.1328,350.7031 Q736.8047,350.3281 736.1953,350.1094 Q735.5859,349.8906 734.9609,349.8906 Q734.1953,349.8906 733.5547,350.2188 Q732.9297,350.5469 732.4297,351.2969 Q731.9453,352.0469 731.9453,353.0781 L731.9453,354.1719 Q731.9453,355.4063 732.8359,356.2344 Q733.7265,357.0469 735.3203,357.0469 Q736.2578,357.0469 736.914,356.7969 Q737.3047,356.6406 737.7265,356.2031 Q737.9922,355.9375 738.1328,355.8594 Q738.289,355.7813 738.4922,355.7813 Q738.8203,355.7813 739.0703,356.0469 Q739.3359,356.2969 739.3359,356.6406 Q739.3359,356.9844 738.9922,357.3906 Q738.4922,357.9688 737.6953,358.2969 Q736.6172,358.75 735.3203,358.75 Q733.8047,358.75 732.6015,358.125 Q731.6172,357.625 730.9297,356.5625 Q730.2422,355.4844 730.2422,354.2031 L730.2422,353.0469 Q730.2422,351.7188 730.8515,350.5781 Q731.4765,349.4219 732.5703,348.8125 Q733.664,348.1875 734.8984,348.1875 Q735.6328,348.1875 736.2734,348.3594 Q736.9297,348.5156 737.4765,348.875 Z " fill="#000000"/><text fill="#000000" font-family="sans-serif" font-size="14" lengthAdjust="spacing" textLength="35.7998" x="755.2109" y="358.7969">Event</text><line style="stroke:#181818;stroke-width:0.5;" x1="642.52" x2="871.2016" y1="369" y2="369"/><polygon fill="none" points="652.52,379.8105,648.52,385.8105,656.52,385.8105" style="stroke:#1963A0;stroke-width:1.0;"/><text fill="#000000" font-family="sans-serif" font-size="14" lengthAdjust="spacing" textLength="176.6406" x="661.52" y="388.1074">complaint: ForeignKey &#171;FK&#187;</text><polygon fill="none" points="652.52,398.4316,648.52,404.4316,656.52,404.4316" style="stroke:#1963A0;stroke-width:1.0;"/><text fill="#000000" font-family="sans-serif" font-size="14" lengthAdjust="spacing" textLength="204.6816" x="661.52" y="406.7285">type_of_event: ForeignKey &#171;FK&#187;</text><ellipse cx="652.52" cy="421.0527" fill="none" rx="3" ry="3" style="stroke:#038048;stroke-width:1.0;"/><text fill="#000000" font-family="sans-serif" font-size="14" lengthAdjust="spacing" textLength="129.9648" x="661.52" y="425.3496">date: DateField [0..1]</text><ellipse cx="652.52" cy="439.6738" fill="none" rx="3" ry="3" style="stroke:#038048;stroke-width:1.0;"/><text fill="#000000" font-family="sans-serif" font-size="14" lengthAdjust="spacing" textLength="95.7031" x="661.52" y="443.9707">user: CharField</text><ellipse cx="652.52" cy="458.2949" fill="none" rx="3" ry="3" style="stroke:#038048;stroke-width:1.0;"/><text fill="#000000" font-family="sans-serif" font-size="14" lengthAdjust="spacing" textLength="192.1924" x="661.52" y="462.5918">description: NullTextField [0..1]</text><ellipse cx="652.52" cy="476.916" fill="none" rx="3" ry="3" style="stroke:#038048;stroke-width:1.0;"/><text fill="#000000" font-family="sans-serif" font-size="14" lengthAdjust="spacing" textLength="158.7305" x="661.52" y="481.2129">dms_link: CharField [0..1]</text><line style="stroke:#181818;stroke-width:0.5;" x1="642.52" x2="871.2016" y1="488.7266" y2="488.7266"/></g><!--class LogEntry--><g id="elem_LogEntry"><rect codeLine="103" fill="#F1F1F1" height="141.1055" id="LogEntry" rx="2.5" ry="2.5" style="stroke:#181818;stroke-width:0.5;" width="187.875" x="461.02" y="7"/><ellipse cx="522.6904" cy="23" fill="#ADD1B2" rx="11" ry="11" style="stroke:#181818;stroke-width:1.0;"/><path d="M525.456,18.875 Q525.6123,18.6563 525.7998,18.5469 Q525.9873,18.4375 526.206,18.4375 Q526.581,18.4375 526.8154,18.7031 Q527.0498,18.9531 527.0498,19.5625 L527.0498,21.0156 Q527.0498,21.625 526.8154,21.8906 Q526.581,22.1563 526.206,22.1563 Q525.8623,22.1563 525.6592,21.9531 Q525.456,21.7656 525.3467,21.25 Q525.2998,20.8906 525.1123,20.7031 Q524.7842,20.3281 524.1748,20.1094 Q523.5654,19.8906 522.9404,19.8906 Q522.1748,19.8906 521.5342,20.2188 Q520.9092,20.5469 520.4092,21.2969 Q519.9248,22.0469 519.9248,23.0781 L519.9248,24.1719 Q519.9248,25.4063 520.8154,26.2344 Q521.706,27.0469 523.2998,27.0469 Q524.2373,27.0469 524.8935,26.7969 Q525.2842,26.6406 525.706,26.2031 Q525.9717,25.9375 526.1123,25.8594 Q526.2685,25.7813 526.4717,25.7813 Q526.7998,25.7813 527.0498,26.0469 Q527.3154,26.2969 527.3154,26.6406 Q527.3154,26.9844 526.9717,27.3906 Q526.4717,27.9688 525.6748,28.2969 Q524.5967,28.75 523.2998,28.75 Q521.7842,28.75 520.581,28.125 Q519.5967,27.625 518.9092,26.5625 Q518.2217,25.4844 518.2217,24.2031 L518.2217,23.0469 Q518.2217,21.7188 518.831,20.5781 Q519.456,19.4219 520.5498,18.8125 Q521.6435,18.1875 522.8779,18.1875 Q523.6123,18.1875 524.2529,18.3594 Q524.9092,18.5156 525.456,18.875 Z " fill="#000000"/><text fill="#000000" font-family="sans-serif" font-size="14" lengthAdjust="spacing" textLength="56.0342" x="543.1904" y="28.7969">LogEntry</text><line style="stroke:#181818;stroke-width:0.5;" x1="462.02" x2="647.895" y1="39" y2="39"/><ellipse cx="472.02" cy="53.8105" fill="none" rx="3" ry="3" style="stroke:#038048;stroke-width:1.0;"/><text fill="#000000" font-family="sans-serif" font-size="14" lengthAdjust="spacing" textLength="106.5996" x="481.02" y="58.1074">model: CharField</text><ellipse cx="472.02" cy="72.4316" fill="none" rx="3" ry="3" style="stroke:#038048;stroke-width:1.0;"/><text fill="#000000" font-family="sans-serif" font-size="14" lengthAdjust="spacing" textLength="161.875" x="481.02" y="76.7285">object_pk: BigIntegerField</text><ellipse cx="472.02" cy="91.0527" fill="none" rx="3" ry="3" style="stroke:#038048;stroke-width:1.0;"/><text fill="#000000" font-family="sans-serif" font-size="14" lengthAdjust="spacing" textLength="105.8271" x="481.02" y="95.3496">action: CharField</text><ellipse cx="472.02" cy="109.6738" fill="none" rx="3" ry="3" style="stroke:#038048;stroke-width:1.0;"/><text fill="#000000" font-family="sans-serif" font-size="14" lengthAdjust="spacing" textLength="149.4131" x="481.02" y="113.9707">content: CharField [0..1]</text><ellipse cx="472.02" cy="128.2949" fill="none" rx="3" ry="3" style="stroke:#038048;stroke-width:1.0;"/><text fill="#000000" font-family="sans-serif" font-size="14" lengthAdjust="spacing" textLength="95.7031" x="481.02" y="132.5918">user: CharField</text><line style="stroke:#181818;stroke-width:0.5;" x1="462.02" x2="647.895" y1="140.1055" y2="140.1055"/></g><!--reverse link Basemodel to Codelist--><g id="link_Basemodel_Codelist"><path codeLine="111" d="M321.9013,147.6098 C310.4313,277.0598 282.19,595.76 274.08,687.26 " fill="none" id="Basemodel-backto-Codelist" style="stroke:#181818;stroke-width:1.0;"/><polygon fill="none" points="323.49,129.68,315.9247,147.0802,327.8779,148.1393,323.49,129.68" style="stroke:#181818;stroke-width:1.0;"/></g><!--reverse link Basemodel to Objectclass--><g id="link_Basemodel_Objectclass"><path codeLine="112" d="M417.9111,138.2795 C431.0711,145.4795 429.2,143.36 443.02,148 C584.57,195.55 1014.98,224.37 1221.34,235.81 " fill="none" id="Basemodel-backto-Objectclass" style="stroke:#181818;stroke-width:1.0;"/><polygon fill="none" points="402.12,129.64,415.0313,143.5432,420.7909,133.0158,402.12,129.64" style="stroke:#181818;stroke-width:1.0;"/></g><!--reverse link Objectclass to GeometryObjectclass--><g id="link_Objectclass_GeometryObjectclass"><path codeLine="113" d="M1306.2109,291.962 C1286.6309,326.082 1265.47,362.96 1248.27,392.92 " fill="none" id="Objectclass-backto-GeometryObjectclass" style="stroke:#181818;stroke-width:1.0;"/><polygon fill="none" points="1315.17,276.35,1301.0069,288.9757,1311.4149,294.9484,1315.17,276.35" style="stroke:#181818;stroke-width:1.0;"/></g><!--reverse link Codelist to Sector--><g id="link_Codelist_Sector"><path codeLine="114" d="M216.5416,745.0507 C162.2316,778.8007 83.13,837.85 45.02,926 C13.63,998.62 6,1035.18 45.02,1104 C94.15,1190.62 198.74,1242.9 276.28,1271.21 " fill="none" id="Codelist-backto-Sector" style="stroke:#181818;stroke-width:1.0;"/><polygon fill="none" points="231.83,735.55,213.3747,739.9546,219.7085,750.1469,231.83,735.55" style="stroke:#181818;stroke-width:1.0;"/></g><!--reverse link Codelist to Status--><g id="link_Codelist_Status"><path codeLine="115" d="M277.3285,753.5114 C283.5785,801.8414 295.84,896.59 304.4,962.82 " fill="none" id="Codelist-backto-Status" style="stroke:#181818;stroke-width:1.0;"/><polygon fill="none" points="275.02,735.66,271.3781,754.2809,283.279,752.7418,275.02,735.66" style="stroke:#181818;stroke-width:1.0;"/></g><!--reverse link Codelist to TypeOfEvent--><g id="link_Codelist_TypeOfEvent"><path codeLine="116" d="M252.604,751.7964 C227.524,802.5364 175.41,907.99 143.6,972.37 " fill="none" id="Codelist-backto-TypeOfEvent" style="stroke:#181818;stroke-width:1.0;"/><polygon fill="none" points="260.58,735.66,247.2252,749.1378,257.9828,754.4551,260.58,735.66" style="stroke:#181818;stroke-width:1.0;"/></g><!--reverse link Codelist to TypeOfImmission--><g id="link_Codelist_TypeOfImmission"><path codeLine="117" d="M288.1642,752.2666 C299.8142,780.1266 314.64,811.02 341.02,847 C370.58,887.29 385.58,890.78 421.02,926 C436.2,941.08 452.79,957.65 467.45,972.32 " fill="none" id="Codelist-backto-TypeOfImmission" style="stroke:#181818;stroke-width:1.0;"/><polygon fill="none" points="281.22,735.66,282.6287,754.5813,293.6998,749.9518,281.22,735.66" style="stroke:#181818;stroke-width:1.0;"/></g><!--reverse link Objectclass to Organization--><g id="link_Objectclass_Organization"><path codeLine="118" d="M1464.6234,253.6531 C1552.7134,262.3231 1648.14,277 1684.02,306 C1725.11,339.2 1729.02,363.18 1729.02,416 C1729.02,416 1729.02,416 1729.02,1016 C1729.02,1080.09 1726.74,1105.22 1684.02,1153 C1637.04,1205.56 1567.33,1240.44 1505.04,1262.88 " fill="none" id="Objectclass-backto-Organization" style="stroke:#181818;stroke-width:1.0;"/><polygon fill="none" points="1446.71,251.89,1464.0358,259.6242,1465.2111,247.6819,1446.71,251.89" style="stroke:#181818;stroke-width:1.0;"/></g><!--reverse link Objectclass to Person--><g id="link_Objectclass_Person"><path codeLine="119" d="M1464.557,260.4465 C1558.057,278.6865 1658.02,317.7 1658.02,416 C1658.02,416 1658.02,416 1658.02,1016 C1658.02,1229.33 1411.52,1118.98 1208.02,1183 C1185.9,1189.96 1163.51,1199.5 1142.05,1210.14 " fill="none" id="Objectclass-backto-Person" style="stroke:#181818;stroke-width:1.0;"/><polygon fill="none" points="1446.89,257,1463.4081,266.3355,1465.7058,254.5575,1446.89,257" style="stroke:#181818;stroke-width:1.0;"/></g><!--reverse link Objectclass to Contact--><g id="link_Objectclass_Contact"><path codeLine="120" d="M1344.5221,293.7394 C1369.6621,414.0394 1453.63,815.88 1484.31,962.74 " fill="none" id="Objectclass-backto-Contact" style="stroke:#181818;stroke-width:1.0;"/><polygon fill="none" points="1340.84,276.12,1338.6489,294.9667,1350.3952,292.512,1340.84,276.12" style="stroke:#181818;stroke-width:1.0;"/></g><!--link Contact to Organization--><g id="link_Contact_Organization"><path codeLine="121" d="M1471.48,1067.25 C1454.32,1104.6 1433.0545,1150.8977 1412.3245,1196.0277 " fill="none" id="Contact-to-Organization" style="stroke:#181818;stroke-width:1.0;"/><polygon fill="#181818" points="1409.82,1201.48,1417.2116,1194.9712,1411.9071,1196.9364,1409.9418,1191.6319,1409.82,1201.48" style="stroke:#181818;stroke-width:1.0;"/><text fill="#000000" font-family="sans-serif" font-size="13" lengthAdjust="spacing" textLength="70.8271" x="1438.02" y="1149.0283">organization</text></g><!--link Contact to Person--><g id="link_Contact_Person"><path codeLine="122" d="M1417.86,1067.21 C1398.53,1079.58 1377.68,1092.54 1358.02,1104 C1292.93,1141.95 1274.19,1146.96 1208.02,1183 C1186.67,1194.63 1169.398,1204.1736 1147.418,1216.4536 " fill="none" id="Contact-to-Person" style="stroke:#181818;stroke-width:1.0;"/><polygon fill="#181818" points="1142.18,1219.38,1151.9879,1218.4824,1146.545,1216.9413,1148.086,1211.4984,1142.18,1219.38" style="stroke:#181818;stroke-width:1.0;"/><text fill="#000000" font-family="sans-serif" font-size="13" lengthAdjust="spacing" textLength="39.749" x="1302.02" y="1149.0283">person</text></g><!--reverse link GeometryObjectclass to Originator--><g id="link_GeometryObjectclass_Originator"><path codeLine="123" d="M1217.1373,457.7763 C1181.2273,537.6263 1069.54,786.01 1006.68,925.8 " fill="none" id="GeometryObjectclass-backto-Originator" style="stroke:#181818;stroke-width:1.0;"/><polygon fill="none" points="1224.52,441.36,1211.6652,455.3154,1222.6094,460.2372,1224.52,441.36" style="stroke:#181818;stroke-width:1.0;"/></g><!--link Originator to Sector--><g id="link_Originator_Sector"><path codeLine="124" d="M809.95,1091.17 C800.84,1095.52 791.82,1099.82 783.02,1104 C671.37,1157.12 547.9554,1215.4778 464.5054,1254.8878 " fill="none" id="Originator-to-Sector" style="stroke:#181818;stroke-width:1.0;"/><polygon fill="#181818" points="459.08,1257.45,468.9263,1257.2236,463.6012,1255.3148,465.51,1249.9898,459.08,1257.45" style="stroke:#181818;stroke-width:1.0;"/><text fill="#000000" font-family="sans-serif" font-size="13" lengthAdjust="spacing" textLength="35.4009" x="717.02" y="1149.0283">sector</text></g><!--link Originator to Organization--><g id="link_Originator_Organization"><path codeLine="125" d="M1000,1104.18 C1010.38,1122.51 1023.56,1140.14 1040.02,1153 C1083.35,1186.84 1108.97,1162.61 1160.02,1183 C1181.58,1191.61 1198.3312,1199.3232 1219.6312,1210.4432 " fill="none" id="Originator-to-Organization" style="stroke:#181818;stroke-width:1.0;"/><polygon fill="#181818" points="1224.95,1213.22,1218.823,1205.509,1220.5177,1210.906,1215.1206,1212.6007,1224.95,1213.22" style="stroke:#181818;stroke-width:1.0;"/><text fill="#000000" font-family="sans-serif" font-size="13" lengthAdjust="spacing" textLength="126.4771" x="1041.02" y="1149.0283">operator_organization</text></g><!--link Originator to Person--><g id="link_Originator_Person"><path codeLine="126" d="M904.82,1104.12 C899.65,1120.09 898.05,1136.81 903.02,1153 C906.13,1163.1 907.5888,1167.7232 912.2988,1177.5132 " fill="none" id="Originator-to-Person" style="stroke:#181818;stroke-width:1.0;"/><polygon fill="#181818" points="914.9,1182.92,914.6027,1173.0756,912.7323,1178.4143,907.3936,1176.5439,914.9,1182.92" style="stroke:#181818;stroke-width:1.0;"/><text fill="#000000" font-family="sans-serif" font-size="13" lengthAdjust="spacing" textLength="95.3989" x="904.02" y="1149.0283">operator_person</text></g><!--reverse link GeometryObjectclass to Complaint--><g id="link_GeometryObjectclass_Complaint"><path codeLine="127" d="M1181.7655,450.5936 C1124.7355,485.4836 1028.63,544.3 932.15,603.34 " fill="none" id="GeometryObjectclass-backto-Complaint" style="stroke:#181818;stroke-width:1.0;"/><polygon fill="none" points="1197.12,441.2,1178.6343,445.4755,1184.8967,455.7118,1197.12,441.2" style="stroke:#181818;stroke-width:1.0;"/></g><!--link Complaint to Status--><g id="link_Complaint_Status"><path codeLine="128" d="M581.96,802.54 C542.16,825.24 500.8,850.7 464.02,877 C428.06,902.72 395.393,931.5407 366.783,958.6807 " fill="none" id="Complaint-to-Status" style="stroke:#181818;stroke-width:1.0;"/><polygon fill="#181818" points="362.43,962.81,371.7124,959.518,366.0575,959.3689,366.2066,953.714,362.43,962.81" style="stroke:#181818;stroke-width:1.0;"/><text fill="#000000" font-family="sans-serif" font-size="13" lengthAdjust="spacing" textLength="34.6836" x="465.02" y="892.0283">status</text></g><!--link Complaint to TypeOfImmission--><g id="link_Complaint_TypeOfImmission"><path codeLine="129" d="M581.98,801.45 C555.35,822.6 531.36,847.72 515.02,877 C498.9,905.9 497.8902,937.8432 500.9102,966.4532 " fill="none" id="Complaint-to-TypeOfImmission" style="stroke:#181818;stroke-width:1.0;"/><polygon fill="#181818" points="501.54,972.42,504.5731,963.0498,501.0151,967.4476,496.6173,963.8896,501.54,972.42" style="stroke:#181818;stroke-width:1.0;"/><text fill="#000000" font-family="sans-serif" font-size="13" lengthAdjust="spacing" textLength="107.6563" x="516.02" y="892.0283">type_of_immission</text></g><!--link Complaint to Originator--><g id="link_Complaint_Originator"><path codeLine="130" d="M850.97,847.38 C869.53,874.03 885.1296,896.4274 902.2796,921.0374 " fill="none" id="Complaint-to-Originator" style="stroke:#181818;stroke-width:1.0;"/><polygon fill="#181818" points="905.71,925.96,903.8461,916.2891,902.8513,921.8578,897.2826,920.863,905.71,925.96" style="stroke:#181818;stroke-width:1.0;"/><text fill="#000000" font-family="sans-serif" font-size="13" lengthAdjust="spacing" textLength="54.1963" x="882.02" y="892.0283">originator</text></g><!--link Complaint to Organization--><g id="link_Complaint_Organization"><path codeLine="131" d="M943.2067,783.4343 C1016.0567,818.0843 1085.73,861.76 1142.02,926 C1198.05,989.93 1169.79,1030.23 1212.02,1104 C1231.16,1137.42 1248.1701,1161.9026 1271.8801,1191.8426 " fill="none" id="Complaint-Organization" style="stroke:#181818;stroke-width:1.0;"/><polygon fill="#181818" points="932.37,778.28,936.0702,784.4694,943.2067,783.4343,939.5064,777.2449,932.37,778.28" style="stroke:#181818;stroke-width:1.0;"/><polygon fill="#181818" points="1279.33,1201.25,1278.7409,1194.063,1271.8801,1191.8426,1272.4693,1199.0296,1279.33,1201.25" style="stroke:#181818;stroke-width:1.0;"/><text fill="#000000" font-family="sans-serif" font-size="13" lengthAdjust="spacing" textLength="154.6416" x="1213.02" y="1020.5283">complainers_organizations</text></g><!--link Complaint to Person--><g id="link_Complaint_Person"><path codeLine="132" d="M676.5837,858.029 C634.7437,952.339 608.06,1065.68 674.02,1153 C719.3,1212.93 783.1767,1245.1775 850.2367,1266.3475 " fill="none" id="Complaint-Person" style="stroke:#181818;stroke-width:1.0;"/><polygon fill="#181818" points="681.45,847.06,675.3605,850.9224,676.5837,858.029,682.6732,854.1666,681.45,847.06" style="stroke:#181818;stroke-width:1.0;"/><polygon fill="#181818" points="861.68,1269.96,857.1625,1264.3393,850.2367,1266.3475,854.7542,1271.9682,861.68,1269.96" style="stroke:#181818;stroke-width:1.0;"/><text fill="#000000" font-family="sans-serif" font-size="13" lengthAdjust="spacing" textLength="123.5635" x="653.02" y="1020.5283">complainers_persons</text></g><!--reverse link Objectclass to Event--><g id="link_Objectclass_Event"><path codeLine="133" d="M1207.9141,281.2054 C1107.3241,311.2754 975.59,350.66 872.85,381.37 " fill="none" id="Objectclass-backto-Event" style="stroke:#181818;stroke-width:1.0;"/><polygon fill="none" points="1225.16,276.05,1206.1956,275.4568,1209.6326,286.9541,1225.16,276.05" style="stroke:#181818;stroke-width:1.0;"/></g><!--link Event to Complaint--><g id="link_Event_Complaint"><path codeLine="134" d="M757.02,497.15 C757.02,521.43 757.02,542.86 757.02,569.77 " fill="none" id="Event-to-Complaint" style="stroke:#181818;stroke-width:1.0;"/><polygon fill="#181818" points="757.02,575.77,761.02,566.77,757.02,570.77,753.02,566.77,757.02,575.77" style="stroke:#181818;stroke-width:1.0;"/><text fill="#000000" font-family="sans-serif" font-size="13" lengthAdjust="spacing" textLength="55.6372" x="758.02" y="542.0283">complaint</text></g><!--link Event to TypeOfEvent--><g id="link_Event_TypeOfEvent"><path codeLine="135" d="M641.39,466.47 C587.92,493.04 526.37,529.99 481.02,576 C384.38,674.04 426.37,747.7 331.02,847 C284.2,895.77 252.92,882.66 201.02,926 C184.73,939.61 172.6894,952.1214 159.5194,967.5914 " fill="none" id="Event-to-TypeOfEvent" style="stroke:#181818;stroke-width:1.0;"/><polygon fill="#181818" points="155.63,972.16,164.5099,967.9,158.8712,968.3528,158.4183,962.7141,155.63,972.16" style="stroke:#181818;stroke-width:1.0;"/><text fill="#000000" font-family="sans-serif" font-size="13" lengthAdjust="spacing" textLength="81.6753" x="482.02" y="717.0283">type_of_event</text></g><!--SRC=[vLPBJzmm4BxdLqJgZMfHUuqG4coXGhHT9FPMLPPnXbqN9uvi1x5zx6_lECx3SUBTbciliFACPxvvvFD77xHHb9cK2QfrUaar5387aVvCqlHjolCilUIRYzh8QmuYJy_ExcxFpniRKq0Dv8IQBFs0lzQyWCQfiTPL7h7-JX8wphgq6Rasc7HgN3ry1sRSRmTA0rLiIvWi3PGOVhcbog7x-kxqzFstcI0VGHPWr6uS3FtSptiybAeDRxWHu4Lj3k655fK0FP-jZMAegJkGKkMyf29Bxmign0r2tO0NRpO9nvByipxoUbV1wl7g6Siz1FB8_PkYu5fpMRugnafjQCb_K3C4A6ankK_pN87M1DiFC3SStsahQmsah8i7K4TSAwaD5JZq78vv2ifYFb1GBaZhQQTveHJTJTmC2AYsikomHHtpGXF1owT3Qt67zwCz7nN0Q0u5P-IGqoDNsf2Wyxu3vfpO_xF9zArV8aLO4h2zt-CdEMnmbbvB1NnJti8EIUtQaTe-hPfXpLkn-NN9tEtuk5UAR_3Bx_XaZtHboIMMK696wqoEe1kQuDs9eXtjA6YcUENYhk75UApM4WBEa5iclRF_9XiJcTZVxFvI8cjItjEMVHE8V2GA620azpHq2R5L3OF6kk-i9Fwos106gSvcu1tPnQBr3gyetkvID-Nv-6zIrfQE8nhD5YD-fkLkBUtV8Exubflk8V-3mpqm7zTDgUW6Y92C7jlfuUNPzmXDRAEx2S0pn9pS8dZJzu4XyQYGkqPbVgc5w4lzruty93TN9Ig1TY4RiHDcaurA8DLJ8tucRpSDES39eQWScIiAyGnQw-pNOj6BeF3Saoo9BryQuuokINerrNWuQHCUDbzISEY9Z5bBBn-cC7njCBMw1t1wth9pqh7qOd4-LXdPYB97VksZchM4dSm9l1PQzw4c7ZFR4Ateorg23iqXaZcU3k_qg0A6ZiFh2J8PgB81vxHarf9UO0trN3QblU261pJpoClpEbaiJiAYenmMtkiBd-6lwU3TZZbIiU26O4C0t-xBtspCBqdo1m00]--></g></svg>