<?xml version="1.0" encoding="us-ascii" standalone="no"?><svg xmlns="http://www.w3.org/2000/svg" xmlns:xlink="http://www.w3.org/1999/xlink" contentStyleType="text/css" height="703px" preserveAspectRatio="none" style="width:3276px;height:703px;background:#FFFFFF;" version="1.1" viewBox="0 0 3276 703" width="3276px" zoomAndPan="magnify"><defs/><g><!--cluster datenwerft--><g id="cluster_datenwerft"><path d="M8.5,6.0137 L85.5,6.0137 A3.75,3.75 0 0 1 88,8.5137 L95,30.6348 L525.5,30.6348 A2.5,2.5 0 0 1 528,33.1348 L528,501.5137 A2.5,2.5 0 0 1 525.5,504.0137 L8.5,504.0137 A2.5,2.5 0 0 1 6,501.5137 L6,8.5137 A2.5,2.5 0 0 1 8.5,6.0137 " fill="none" style="stroke:#000000;stroke-width:1.5;"/><line style="stroke:#000000;stroke-width:1.5;" x1="6" x2="95" y1="30.6348" y2="30.6348"/><text fill="#000000" font-family="sans-serif" font-size="14" font-weight="bold" lengthAdjust="spacing" textLength="76" x="10" y="23.1211">datenwerft</text></g><!--cluster antragsmanagement--><g id="cluster_antragsmanagement"><path d="M554.5,282.0137 L698.5,282.0137 A3.75,3.75 0 0 1 701,284.5137 L708,306.6348 L3266.5,306.6348 A2.5,2.5 0 0 1 3269,309.1348 L3269,693.5137 A2.5,2.5 0 0 1 3266.5,696.0137 L554.5,696.0137 A2.5,2.5 0 0 1 552,693.5137 L552,284.5137 A2.5,2.5 0 0 1 554.5,282.0137 " fill="none" style="stroke:#000000;stroke-width:1.5;"/><line style="stroke:#000000;stroke-width:1.5;" x1="552" x2="708" y1="306.6348" y2="306.6348"/><text fill="#000000" font-family="sans-serif" font-size="14" font-weight="bold" lengthAdjust="spacing" textLength="143" x="556" y="299.1211">antragsmanagement</text></g><!--class base--><g id="elem_base"><rect codeLine="2" fill="#F1F1F1" height="215.5898" id="base" rx="2.5" ry="2.5" style="stroke:#181818;stroke-width:0.5;" width="139" x="372.5" y="43.0137"/><ellipse cx="422.25" cy="59.0137" fill="#ADD1B2" rx="11" ry="11" style="stroke:#181818;stroke-width:1.0;"/><path d="M425.0156,54.8887 Q425.1719,54.6699 425.3594,54.5605 Q425.5469,54.4512 425.7656,54.4512 Q426.1406,54.4512 426.375,54.7168 Q426.6094,54.9668 426.6094,55.5762 L426.6094,57.0293 Q426.6094,57.6387 426.375,57.9043 Q426.1406,58.1699 425.7656,58.1699 Q425.4219,58.1699 425.2188,57.9668 Q425.0156,57.7793 424.9063,57.2637 Q424.8594,56.9043 424.6719,56.7168 Q424.3438,56.3418 423.7344,56.123 Q423.125,55.9043 422.5,55.9043 Q421.7344,55.9043 421.0938,56.2324 Q420.4688,56.5605 419.9688,57.3105 Q419.4844,58.0605 419.4844,59.0918 L419.4844,60.1855 Q419.4844,61.4199 420.375,62.248 Q421.2656,63.0605 422.8594,63.0605 Q423.7969,63.0605 424.4531,62.8105 Q424.8438,62.6543 425.2656,62.2168 Q425.5313,61.9512 425.6719,61.873 Q425.8281,61.7949 426.0313,61.7949 Q426.3594,61.7949 426.6094,62.0605 Q426.875,62.3105 426.875,62.6543 Q426.875,62.998 426.5313,63.4043 Q426.0313,63.9824 425.2344,64.3105 Q424.1563,64.7637 422.8594,64.7637 Q421.3438,64.7637 420.1406,64.1387 Q419.1563,63.6387 418.4688,62.5762 Q417.7813,61.498 417.7813,60.2168 L417.7813,59.0605 Q417.7813,57.7324 418.3906,56.5918 Q419.0156,55.4355 420.1094,54.8262 Q421.2031,54.2012 422.4375,54.2012 Q423.1719,54.2012 423.8125,54.373 Q424.4688,54.5293 425.0156,54.8887 Z " fill="#000000"/><text fill="#000000" font-family="sans-serif" font-size="14" lengthAdjust="spacing" textLength="31" x="442.75" y="64.8105">base</text><line style="stroke:#181818;stroke-width:0.5;" x1="373.5" x2="510.5" y1="75.0137" y2="75.0137"/><text fill="#000000" font-family="sans-serif" font-size="14" lengthAdjust="spacing" textLength="32" x="378.5" y="94.1211">head</text><text fill="#000000" font-family="sans-serif" font-size="14" lengthAdjust="spacing" textLength="31" x="378.5" y="112.7422">meta</text><text fill="#000000" font-family="sans-serif" font-size="14" lengthAdjust="spacing" textLength="22" x="378.5" y="131.3633">title</text><text fill="#000000" font-family="sans-serif" font-size="14" lengthAdjust="spacing" textLength="29" x="378.5" y="149.9844">style</text><text fill="#000000" font-family="sans-serif" font-size="14" lengthAdjust="spacing" textLength="41" x="378.5" y="168.6055">scripts</text><text fill="#000000" font-family="sans-serif" font-size="14" lengthAdjust="spacing" textLength="44" x="378.5" y="187.2266">navbar</text><text fill="#000000" font-family="sans-serif" font-size="14" lengthAdjust="spacing" textLength="47" x="378.5" y="205.8477">content</text><text fill="#000000" font-family="sans-serif" font-size="14" lengthAdjust="spacing" textLength="37" x="378.5" y="224.4688">footer</text><line style="stroke:#181818;stroke-width:0.5;" x1="373.5" x2="510.5" y1="231.9824" y2="231.9824"/><text fill="#000000" font-family="sans-serif" font-size="14" lengthAdjust="spacing" textLength="127" x="378.5" y="251.0898">include navbar_html</text></g><!--class navbar_html--><g id="elem_navbar_html"><rect codeLine="14" fill="#F1F1F1" height="66.6211" id="navbar_html" rx="2.5" ry="2.5" style="stroke:#181818;stroke-width:0.5;" width="110" x="402" y="412.0137"/><ellipse cx="417" cy="428.0137" fill="#ADD1B2" rx="11" ry="11" style="stroke:#181818;stroke-width:1.0;"/><path d="M419.7656,423.8887 Q419.9219,423.6699 420.1094,423.5605 Q420.2969,423.4512 420.5156,423.4512 Q420.8906,423.4512 421.125,423.7168 Q421.3594,423.9668 421.3594,424.5762 L421.3594,426.0293 Q421.3594,426.6387 421.125,426.9043 Q420.8906,427.1699 420.5156,427.1699 Q420.1719,427.1699 419.9688,426.9668 Q419.7656,426.7793 419.6563,426.2637 Q419.6094,425.9043 419.4219,425.7168 Q419.0938,425.3418 418.4844,425.123 Q417.875,424.9043 417.25,424.9043 Q416.4844,424.9043 415.8438,425.2324 Q415.2188,425.5605 414.7188,426.3105 Q414.2344,427.0605 414.2344,428.0918 L414.2344,429.1855 Q414.2344,430.4199 415.125,431.248 Q416.0156,432.0605 417.6094,432.0605 Q418.5469,432.0605 419.2031,431.8105 Q419.5938,431.6543 420.0156,431.2168 Q420.2813,430.9512 420.4219,430.873 Q420.5781,430.7949 420.7813,430.7949 Q421.1094,430.7949 421.3594,431.0605 Q421.625,431.3105 421.625,431.6543 Q421.625,431.998 421.2813,432.4043 Q420.7813,432.9824 419.9844,433.3105 Q418.9063,433.7637 417.6094,433.7637 Q416.0938,433.7637 414.8906,433.1387 Q413.9063,432.6387 413.2188,431.5762 Q412.5313,430.498 412.5313,429.2168 L412.5313,428.0605 Q412.5313,426.7324 413.1406,425.5918 Q413.7656,424.4355 414.8594,423.8262 Q415.9531,423.2012 417.1875,423.2012 Q417.9219,423.2012 418.5625,423.373 Q419.2188,423.5293 419.7656,423.8887 Z " fill="#000000"/><text fill="#000000" font-family="sans-serif" font-size="14" lengthAdjust="spacing" textLength="78" x="431" y="433.8105">navbar_html</text><line style="stroke:#181818;stroke-width:0.5;" x1="403" x2="511" y1="444.0137" y2="444.0137"/><text fill="#000000" font-family="sans-serif" font-size="14" lengthAdjust="spacing" textLength="44" x="408" y="463.1211">navbar</text><line style="stroke:#181818;stroke-width:0.5;" x1="403" x2="511" y1="470.6348" y2="470.6348"/></g><!--class index--><g id="elem_index"><rect codeLine="18" fill="#F1F1F1" height="85.2422" id="index" rx="2.5" ry="2.5" style="stroke:#181818;stroke-width:0.5;" width="65" x="203.5" y="403.0137"/><ellipse cx="218.5" cy="419.0137" fill="#ADD1B2" rx="11" ry="11" style="stroke:#181818;stroke-width:1.0;"/><path d="M221.2656,414.8887 Q221.4219,414.6699 221.6094,414.5605 Q221.7969,414.4512 222.0156,414.4512 Q222.3906,414.4512 222.625,414.7168 Q222.8594,414.9668 222.8594,415.5762 L222.8594,417.0293 Q222.8594,417.6387 222.625,417.9043 Q222.3906,418.1699 222.0156,418.1699 Q221.6719,418.1699 221.4688,417.9668 Q221.2656,417.7793 221.1563,417.2637 Q221.1094,416.9043 220.9219,416.7168 Q220.5938,416.3418 219.9844,416.123 Q219.375,415.9043 218.75,415.9043 Q217.9844,415.9043 217.3438,416.2324 Q216.7188,416.5605 216.2188,417.3105 Q215.7344,418.0605 215.7344,419.0918 L215.7344,420.1855 Q215.7344,421.4199 216.625,422.248 Q217.5156,423.0605 219.1094,423.0605 Q220.0469,423.0605 220.7031,422.8105 Q221.0938,422.6543 221.5156,422.2168 Q221.7813,421.9512 221.9219,421.873 Q222.0781,421.7949 222.2813,421.7949 Q222.6094,421.7949 222.8594,422.0605 Q223.125,422.3105 223.125,422.6543 Q223.125,422.998 222.7813,423.4043 Q222.2813,423.9824 221.4844,424.3105 Q220.4063,424.7637 219.1094,424.7637 Q217.5938,424.7637 216.3906,424.1387 Q215.4063,423.6387 214.7188,422.5762 Q214.0313,421.498 214.0313,420.2168 L214.0313,419.0605 Q214.0313,417.7324 214.6406,416.5918 Q215.2656,415.4355 216.3594,414.8262 Q217.4531,414.2012 218.6875,414.2012 Q219.4219,414.2012 220.0625,414.373 Q220.7188,414.5293 221.2656,414.8887 Z " fill="#000000"/><text fill="#000000" font-family="sans-serif" font-size="14" lengthAdjust="spacing" textLength="33" x="232.5" y="424.8105">index</text><line style="stroke:#181818;stroke-width:0.5;" x1="204.5" x2="267.5" y1="435.0137" y2="435.0137"/><text fill="#000000" font-family="sans-serif" font-size="14" lengthAdjust="spacing" textLength="22" x="209.5" y="454.1211">title</text><text fill="#000000" font-family="sans-serif" font-size="14" lengthAdjust="spacing" textLength="47" x="209.5" y="472.7422">content</text><line style="stroke:#181818;stroke-width:0.5;" x1="204.5" x2="267.5" y1="480.2559" y2="480.2559"/></g><!--class error--><g id="elem_error"><rect codeLine="23" fill="#F1F1F1" height="85.2422" id="error" rx="2.5" ry="2.5" style="stroke:#181818;stroke-width:0.5;" width="63" x="303.5" y="403.0137"/><ellipse cx="318.5" cy="419.0137" fill="#ADD1B2" rx="11" ry="11" style="stroke:#181818;stroke-width:1.0;"/><path d="M321.2656,414.8887 Q321.4219,414.6699 321.6094,414.5605 Q321.7969,414.4512 322.0156,414.4512 Q322.3906,414.4512 322.625,414.7168 Q322.8594,414.9668 322.8594,415.5762 L322.8594,417.0293 Q322.8594,417.6387 322.625,417.9043 Q322.3906,418.1699 322.0156,418.1699 Q321.6719,418.1699 321.4688,417.9668 Q321.2656,417.7793 321.1563,417.2637 Q321.1094,416.9043 320.9219,416.7168 Q320.5938,416.3418 319.9844,416.123 Q319.375,415.9043 318.75,415.9043 Q317.9844,415.9043 317.3438,416.2324 Q316.7188,416.5605 316.2188,417.3105 Q315.7344,418.0605 315.7344,419.0918 L315.7344,420.1855 Q315.7344,421.4199 316.625,422.248 Q317.5156,423.0605 319.1094,423.0605 Q320.0469,423.0605 320.7031,422.8105 Q321.0938,422.6543 321.5156,422.2168 Q321.7813,421.9512 321.9219,421.873 Q322.0781,421.7949 322.2813,421.7949 Q322.6094,421.7949 322.8594,422.0605 Q323.125,422.3105 323.125,422.6543 Q323.125,422.998 322.7813,423.4043 Q322.2813,423.9824 321.4844,424.3105 Q320.4063,424.7637 319.1094,424.7637 Q317.5938,424.7637 316.3906,424.1387 Q315.4063,423.6387 314.7188,422.5762 Q314.0313,421.498 314.0313,420.2168 L314.0313,419.0605 Q314.0313,417.7324 314.6406,416.5918 Q315.2656,415.4355 316.3594,414.8262 Q317.4531,414.2012 318.6875,414.2012 Q319.4219,414.2012 320.0625,414.373 Q320.7188,414.5293 321.2656,414.8887 Z " fill="#000000"/><text fill="#000000" font-family="sans-serif" font-size="14" lengthAdjust="spacing" textLength="31" x="332.5" y="424.8105">error</text><line style="stroke:#181818;stroke-width:0.5;" x1="304.5" x2="365.5" y1="435.0137" y2="435.0137"/><text fill="#000000" font-family="sans-serif" font-size="14" lengthAdjust="spacing" textLength="22" x="309.5" y="454.1211">title</text><text fill="#000000" font-family="sans-serif" font-size="14" lengthAdjust="spacing" textLength="47" x="309.5" y="472.7422">content</text><line style="stroke:#181818;stroke-width:0.5;" x1="304.5" x2="365.5" y1="480.2559" y2="480.2559"/></g><!--class modal_confirm_export--><g id="elem_modal_confirm_export"><rect codeLine="28" fill="#F1F1F1" height="48" id="modal_confirm_export" rx="2.5" ry="2.5" style="stroke:#181818;stroke-width:0.5;" width="171" x="22.5" y="127.0137"/><ellipse cx="37.5" cy="143.0137" fill="#ADD1B2" rx="11" ry="11" style="stroke:#181818;stroke-width:1.0;"/><path d="M40.2656,138.8887 Q40.4219,138.6699 40.6094,138.5605 Q40.7969,138.4512 41.0156,138.4512 Q41.3906,138.4512 41.625,138.7168 Q41.8594,138.9668 41.8594,139.5762 L41.8594,141.0293 Q41.8594,141.6387 41.625,141.9043 Q41.3906,142.1699 41.0156,142.1699 Q40.6719,142.1699 40.4688,141.9668 Q40.2656,141.7793 40.1563,141.2637 Q40.1094,140.9043 39.9219,140.7168 Q39.5938,140.3418 38.9844,140.123 Q38.375,139.9043 37.75,139.9043 Q36.9844,139.9043 36.3438,140.2324 Q35.7188,140.5605 35.2188,141.3105 Q34.7344,142.0605 34.7344,143.0918 L34.7344,144.1855 Q34.7344,145.4199 35.625,146.248 Q36.5156,147.0605 38.1094,147.0605 Q39.0469,147.0605 39.7031,146.8105 Q40.0938,146.6543 40.5156,146.2168 Q40.7813,145.9512 40.9219,145.873 Q41.0781,145.7949 41.2813,145.7949 Q41.6094,145.7949 41.8594,146.0605 Q42.125,146.3105 42.125,146.6543 Q42.125,146.998 41.7813,147.4043 Q41.2813,147.9824 40.4844,148.3105 Q39.4063,148.7637 38.1094,148.7637 Q36.5938,148.7637 35.3906,148.1387 Q34.4063,147.6387 33.7188,146.5762 Q33.0313,145.498 33.0313,144.2168 L33.0313,143.0605 Q33.0313,141.7324 33.6406,140.5918 Q34.2656,139.4355 35.3594,138.8262 Q36.4531,138.2012 37.6875,138.2012 Q38.4219,138.2012 39.0625,138.373 Q39.7188,138.5293 40.2656,138.8887 Z " fill="#000000"/><text fill="#000000" font-family="sans-serif" font-size="14" lengthAdjust="spacing" textLength="139" x="51.5" y="148.8105">modal_confirm_export</text><line style="stroke:#181818;stroke-width:0.5;" x1="23.5" x2="192.5" y1="159.0137" y2="159.0137"/><line style="stroke:#181818;stroke-width:0.5;" x1="23.5" x2="192.5" y1="167.0137" y2="167.0137"/></g><!--class modal_error--><g id="elem_modal_error"><rect codeLine="29" fill="#F1F1F1" height="48" id="modal_error" rx="2.5" ry="2.5" style="stroke:#181818;stroke-width:0.5;" width="109" x="228.5" y="127.0137"/><ellipse cx="243.5" cy="143.0137" fill="#ADD1B2" rx="11" ry="11" style="stroke:#181818;stroke-width:1.0;"/><path d="M246.2656,138.8887 Q246.4219,138.6699 246.6094,138.5605 Q246.7969,138.4512 247.0156,138.4512 Q247.3906,138.4512 247.625,138.7168 Q247.8594,138.9668 247.8594,139.5762 L247.8594,141.0293 Q247.8594,141.6387 247.625,141.9043 Q247.3906,142.1699 247.0156,142.1699 Q246.6719,142.1699 246.4688,141.9668 Q246.2656,141.7793 246.1563,141.2637 Q246.1094,140.9043 245.9219,140.7168 Q245.5938,140.3418 244.9844,140.123 Q244.375,139.9043 243.75,139.9043 Q242.9844,139.9043 242.3438,140.2324 Q241.7188,140.5605 241.2188,141.3105 Q240.7344,142.0605 240.7344,143.0918 L240.7344,144.1855 Q240.7344,145.4199 241.625,146.248 Q242.5156,147.0605 244.1094,147.0605 Q245.0469,147.0605 245.7031,146.8105 Q246.0938,146.6543 246.5156,146.2168 Q246.7813,145.9512 246.9219,145.873 Q247.0781,145.7949 247.2813,145.7949 Q247.6094,145.7949 247.8594,146.0605 Q248.125,146.3105 248.125,146.6543 Q248.125,146.998 247.7813,147.4043 Q247.2813,147.9824 246.4844,148.3105 Q245.4063,148.7637 244.1094,148.7637 Q242.5938,148.7637 241.3906,148.1387 Q240.4063,147.6387 239.7188,146.5762 Q239.0313,145.498 239.0313,144.2168 L239.0313,143.0605 Q239.0313,141.7324 239.6406,140.5918 Q240.2656,139.4355 241.3594,138.8262 Q242.4531,138.2012 243.6875,138.2012 Q244.4219,138.2012 245.0625,138.373 Q245.7188,138.5293 246.2656,138.8887 Z " fill="#000000"/><text fill="#000000" font-family="sans-serif" font-size="14" lengthAdjust="spacing" textLength="77" x="257.5" y="148.8105">modal_error</text><line style="stroke:#181818;stroke-width:0.5;" x1="229.5" x2="336.5" y1="159.0137" y2="159.0137"/><line style="stroke:#181818;stroke-width:0.5;" x1="229.5" x2="336.5" y1="167.0137" y2="167.0137"/></g><!--class modal_loading--><g id="elem_modal_loading"><rect codeLine="30" fill="#F1F1F1" height="48" id="modal_loading" rx="2.5" ry="2.5" style="stroke:#181818;stroke-width:0.5;" width="124" x="44" y="421.5137"/><ellipse cx="59" cy="437.5137" fill="#ADD1B2" rx="11" ry="11" style="stroke:#181818;stroke-width:1.0;"/><path d="M61.7656,433.3887 Q61.9219,433.1699 62.1094,433.0605 Q62.2969,432.9512 62.5156,432.9512 Q62.8906,432.9512 63.125,433.2168 Q63.3594,433.4668 63.3594,434.0762 L63.3594,435.5293 Q63.3594,436.1387 63.125,436.4043 Q62.8906,436.6699 62.5156,436.6699 Q62.1719,436.6699 61.9688,436.4668 Q61.7656,436.2793 61.6563,435.7637 Q61.6094,435.4043 61.4219,435.2168 Q61.0938,434.8418 60.4844,434.623 Q59.875,434.4043 59.25,434.4043 Q58.4844,434.4043 57.8438,434.7324 Q57.2188,435.0605 56.7188,435.8105 Q56.2344,436.5605 56.2344,437.5918 L56.2344,438.6855 Q56.2344,439.9199 57.125,440.748 Q58.0156,441.5605 59.6094,441.5605 Q60.5469,441.5605 61.2031,441.3105 Q61.5938,441.1543 62.0156,440.7168 Q62.2813,440.4512 62.4219,440.373 Q62.5781,440.2949 62.7813,440.2949 Q63.1094,440.2949 63.3594,440.5605 Q63.625,440.8105 63.625,441.1543 Q63.625,441.498 63.2813,441.9043 Q62.7813,442.4824 61.9844,442.8105 Q60.9063,443.2637 59.6094,443.2637 Q58.0938,443.2637 56.8906,442.6387 Q55.9063,442.1387 55.2188,441.0762 Q54.5313,439.998 54.5313,438.7168 L54.5313,437.5605 Q54.5313,436.2324 55.1406,435.0918 Q55.7656,433.9355 56.8594,433.3262 Q57.9531,432.7012 59.1875,432.7012 Q59.9219,432.7012 60.5625,432.873 Q61.2188,433.0293 61.7656,433.3887 Z " fill="#000000"/><text fill="#000000" font-family="sans-serif" font-size="14" lengthAdjust="spacing" textLength="92" x="73" y="443.3105">modal_loading</text><line style="stroke:#181818;stroke-width:0.5;" x1="45" x2="167" y1="453.5137" y2="453.5137"/><line style="stroke:#181818;stroke-width:0.5;" x1="45" x2="167" y1="461.5137" y2="461.5137"/></g><!--class buttons_form_request_followup--><g id="elem_buttons_form_request_followup"><rect codeLine="34" fill="#F1F1F1" height="48" id="buttons_form_request_followup" rx="2.5" ry="2.5" style="stroke:#181818;stroke-width:0.5;" width="230" x="1254" y="632.0137"/><ellipse cx="1269" cy="648.0137" fill="#ADD1B2" rx="11" ry="11" style="stroke:#181818;stroke-width:1.0;"/><path d="M1271.7656,643.8887 Q1271.9219,643.6699 1272.1094,643.5605 Q1272.2969,643.4512 1272.5156,643.4512 Q1272.8906,643.4512 1273.125,643.7168 Q1273.3594,643.9668 1273.3594,644.5762 L1273.3594,646.0293 Q1273.3594,646.6387 1273.125,646.9043 Q1272.8906,647.1699 1272.5156,647.1699 Q1272.1719,647.1699 1271.9688,646.9668 Q1271.7656,646.7793 1271.6563,646.2637 Q1271.6094,645.9043 1271.4219,645.7168 Q1271.0938,645.3418 1270.4844,645.123 Q1269.875,644.9043 1269.25,644.9043 Q1268.4844,644.9043 1267.8438,645.2324 Q1267.2188,645.5605 1266.7188,646.3105 Q1266.2344,647.0605 1266.2344,648.0918 L1266.2344,649.1855 Q1266.2344,650.4199 1267.125,651.248 Q1268.0156,652.0605 1269.6094,652.0605 Q1270.5469,652.0605 1271.2031,651.8105 Q1271.5938,651.6543 1272.0156,651.2168 Q1272.2813,650.9512 1272.4219,650.873 Q1272.5781,650.7949 1272.7813,650.7949 Q1273.1094,650.7949 1273.3594,651.0605 Q1273.625,651.3105 1273.625,651.6543 Q1273.625,651.998 1273.2813,652.4043 Q1272.7813,652.9824 1271.9844,653.3105 Q1270.9063,653.7637 1269.6094,653.7637 Q1268.0938,653.7637 1266.8906,653.1387 Q1265.9063,652.6387 1265.2188,651.5762 Q1264.5313,650.498 1264.5313,649.2168 L1264.5313,648.0605 Q1264.5313,646.7324 1265.1406,645.5918 Q1265.7656,644.4355 1266.8594,643.8262 Q1267.9531,643.2012 1269.1875,643.2012 Q1269.9219,643.2012 1270.5625,643.373 Q1271.2188,643.5293 1271.7656,643.8887 Z " fill="#000000"/><text fill="#000000" font-family="sans-serif" font-size="14" lengthAdjust="spacing" textLength="198" x="1283" y="653.8105">buttons_form_request_followup</text><line style="stroke:#181818;stroke-width:0.5;" x1="1255" x2="1483" y1="664.0137" y2="664.0137"/><line style="stroke:#181818;stroke-width:0.5;" x1="1255" x2="1483" y1="672.0137" y2="672.0137"/></g><!--class container_errors--><g id="elem_container_errors"><rect codeLine="35" fill="#F1F1F1" height="48" id="container_errors" rx="2.5" ry="2.5" style="stroke:#181818;stroke-width:0.5;" width="137" x="1916.5" y="632.0137"/><ellipse cx="1931.5" cy="648.0137" fill="#ADD1B2" rx="11" ry="11" style="stroke:#181818;stroke-width:1.0;"/><path d="M1934.2656,643.8887 Q1934.4219,643.6699 1934.6094,643.5605 Q1934.7969,643.4512 1935.0156,643.4512 Q1935.3906,643.4512 1935.625,643.7168 Q1935.8594,643.9668 1935.8594,644.5762 L1935.8594,646.0293 Q1935.8594,646.6387 1935.625,646.9043 Q1935.3906,647.1699 1935.0156,647.1699 Q1934.6719,647.1699 1934.4688,646.9668 Q1934.2656,646.7793 1934.1563,646.2637 Q1934.1094,645.9043 1933.9219,645.7168 Q1933.5938,645.3418 1932.9844,645.123 Q1932.375,644.9043 1931.75,644.9043 Q1930.9844,644.9043 1930.3438,645.2324 Q1929.7188,645.5605 1929.2188,646.3105 Q1928.7344,647.0605 1928.7344,648.0918 L1928.7344,649.1855 Q1928.7344,650.4199 1929.625,651.248 Q1930.5156,652.0605 1932.1094,652.0605 Q1933.0469,652.0605 1933.7031,651.8105 Q1934.0938,651.6543 1934.5156,651.2168 Q1934.7813,650.9512 1934.9219,650.873 Q1935.0781,650.7949 1935.2813,650.7949 Q1935.6094,650.7949 1935.8594,651.0605 Q1936.125,651.3105 1936.125,651.6543 Q1936.125,651.998 1935.7813,652.4043 Q1935.2813,652.9824 1934.4844,653.3105 Q1933.4063,653.7637 1932.1094,653.7637 Q1930.5938,653.7637 1929.3906,653.1387 Q1928.4063,652.6387 1927.7188,651.5762 Q1927.0313,650.498 1927.0313,649.2168 L1927.0313,648.0605 Q1927.0313,646.7324 1927.6406,645.5918 Q1928.2656,644.4355 1929.3594,643.8262 Q1930.4531,643.2012 1931.6875,643.2012 Q1932.4219,643.2012 1933.0625,643.373 Q1933.7188,643.5293 1934.2656,643.8887 Z " fill="#000000"/><text fill="#000000" font-family="sans-serif" font-size="14" lengthAdjust="spacing" textLength="105" x="1945.5" y="653.8105">container_errors</text><line style="stroke:#181818;stroke-width:0.5;" x1="1917.5" x2="2052.5" y1="664.0137" y2="664.0137"/><line style="stroke:#181818;stroke-width:0.5;" x1="1917.5" x2="2052.5" y1="672.0137" y2="672.0137"/></g><!--class container_messages--><g id="elem_container_messages"><rect codeLine="36" fill="#F1F1F1" height="48" id="container_messages" rx="2.5" ry="2.5" style="stroke:#181818;stroke-width:0.5;" width="163" x="1055.5" y="632.0137"/><ellipse cx="1070.5" cy="648.0137" fill="#ADD1B2" rx="11" ry="11" style="stroke:#181818;stroke-width:1.0;"/><path d="M1073.2656,643.8887 Q1073.4219,643.6699 1073.6094,643.5605 Q1073.7969,643.4512 1074.0156,643.4512 Q1074.3906,643.4512 1074.625,643.7168 Q1074.8594,643.9668 1074.8594,644.5762 L1074.8594,646.0293 Q1074.8594,646.6387 1074.625,646.9043 Q1074.3906,647.1699 1074.0156,647.1699 Q1073.6719,647.1699 1073.4688,646.9668 Q1073.2656,646.7793 1073.1563,646.2637 Q1073.1094,645.9043 1072.9219,645.7168 Q1072.5938,645.3418 1071.9844,645.123 Q1071.375,644.9043 1070.75,644.9043 Q1069.9844,644.9043 1069.3438,645.2324 Q1068.7188,645.5605 1068.2188,646.3105 Q1067.7344,647.0605 1067.7344,648.0918 L1067.7344,649.1855 Q1067.7344,650.4199 1068.625,651.248 Q1069.5156,652.0605 1071.1094,652.0605 Q1072.0469,652.0605 1072.7031,651.8105 Q1073.0938,651.6543 1073.5156,651.2168 Q1073.7813,650.9512 1073.9219,650.873 Q1074.0781,650.7949 1074.2813,650.7949 Q1074.6094,650.7949 1074.8594,651.0605 Q1075.125,651.3105 1075.125,651.6543 Q1075.125,651.998 1074.7813,652.4043 Q1074.2813,652.9824 1073.4844,653.3105 Q1072.4063,653.7637 1071.1094,653.7637 Q1069.5938,653.7637 1068.3906,653.1387 Q1067.4063,652.6387 1066.7188,651.5762 Q1066.0313,650.498 1066.0313,649.2168 L1066.0313,648.0605 Q1066.0313,646.7324 1066.6406,645.5918 Q1067.2656,644.4355 1068.3594,643.8262 Q1069.4531,643.2012 1070.6875,643.2012 Q1071.4219,643.2012 1072.0625,643.373 Q1072.7188,643.5293 1073.2656,643.8887 Z " fill="#000000"/><text fill="#000000" font-family="sans-serif" font-size="14" lengthAdjust="spacing" textLength="131" x="1084.5" y="653.8105">container_messages</text><line style="stroke:#181818;stroke-width:0.5;" x1="1056.5" x2="1217.5" y1="664.0137" y2="664.0137"/><line style="stroke:#181818;stroke-width:0.5;" x1="1056.5" x2="1217.5" y1="672.0137" y2="672.0137"/></g><!--class container_table_warnings--><g id="elem_container_table_warnings"><rect codeLine="37" fill="#F1F1F1" height="48" id="container_table_warnings" rx="2.5" ry="2.5" style="stroke:#181818;stroke-width:0.5;" width="194" x="3059" y="421.5137"/><ellipse cx="3074" cy="437.5137" fill="#ADD1B2" rx="11" ry="11" style="stroke:#181818;stroke-width:1.0;"/><path d="M3076.7656,433.3887 Q3076.9219,433.1699 3077.1094,433.0605 Q3077.2969,432.9512 3077.5156,432.9512 Q3077.8906,432.9512 3078.125,433.2168 Q3078.3594,433.4668 3078.3594,434.0762 L3078.3594,435.5293 Q3078.3594,436.1387 3078.125,436.4043 Q3077.8906,436.6699 3077.5156,436.6699 Q3077.1719,436.6699 3076.9688,436.4668 Q3076.7656,436.2793 3076.6563,435.7637 Q3076.6094,435.4043 3076.4219,435.2168 Q3076.0938,434.8418 3075.4844,434.623 Q3074.875,434.4043 3074.25,434.4043 Q3073.4844,434.4043 3072.8438,434.7324 Q3072.2188,435.0605 3071.7188,435.8105 Q3071.2344,436.5605 3071.2344,437.5918 L3071.2344,438.6855 Q3071.2344,439.9199 3072.125,440.748 Q3073.0156,441.5605 3074.6094,441.5605 Q3075.5469,441.5605 3076.2031,441.3105 Q3076.5938,441.1543 3077.0156,440.7168 Q3077.2813,440.4512 3077.4219,440.373 Q3077.5781,440.2949 3077.7813,440.2949 Q3078.1094,440.2949 3078.3594,440.5605 Q3078.625,440.8105 3078.625,441.1543 Q3078.625,441.498 3078.2813,441.9043 Q3077.7813,442.4824 3076.9844,442.8105 Q3075.9063,443.2637 3074.6094,443.2637 Q3073.0938,443.2637 3071.8906,442.6387 Q3070.9063,442.1387 3070.2188,441.0762 Q3069.5313,439.998 3069.5313,438.7168 L3069.5313,437.5605 Q3069.5313,436.2324 3070.1406,435.0918 Q3070.7656,433.9355 3071.8594,433.3262 Q3072.9531,432.7012 3074.1875,432.7012 Q3074.9219,432.7012 3075.5625,432.873 Q3076.2188,433.0293 3076.7656,433.3887 Z " fill="#000000"/><text fill="#000000" font-family="sans-serif" font-size="14" lengthAdjust="spacing" textLength="162" x="3088" y="443.3105">container_table_warnings</text><line style="stroke:#181818;stroke-width:0.5;" x1="3060" x2="3252" y1="453.5137" y2="453.5137"/><line style="stroke:#181818;stroke-width:0.5;" x1="3060" x2="3252" y1="461.5137" y2="461.5137"/></g><!--class anonymous_map--><g id="elem_anonymous_map"><rect codeLine="39" fill="#F1F1F1" height="159.7266" id="anonymous_map" rx="2.5" ry="2.5" style="stroke:#181818;stroke-width:0.5;" width="140" x="2329" y="365.5137"/><ellipse cx="2344" cy="381.5137" fill="#ADD1B2" rx="11" ry="11" style="stroke:#181818;stroke-width:1.0;"/><path d="M2346.7656,377.3887 Q2346.9219,377.1699 2347.1094,377.0605 Q2347.2969,376.9512 2347.5156,376.9512 Q2347.8906,376.9512 2348.125,377.2168 Q2348.3594,377.4668 2348.3594,378.0762 L2348.3594,379.5293 Q2348.3594,380.1387 2348.125,380.4043 Q2347.8906,380.6699 2347.5156,380.6699 Q2347.1719,380.6699 2346.9688,380.4668 Q2346.7656,380.2793 2346.6563,379.7637 Q2346.6094,379.4043 2346.4219,379.2168 Q2346.0938,378.8418 2345.4844,378.623 Q2344.875,378.4043 2344.25,378.4043 Q2343.4844,378.4043 2342.8438,378.7324 Q2342.2188,379.0605 2341.7188,379.8105 Q2341.2344,380.5605 2341.2344,381.5918 L2341.2344,382.6855 Q2341.2344,383.9199 2342.125,384.748 Q2343.0156,385.5605 2344.6094,385.5605 Q2345.5469,385.5605 2346.2031,385.3105 Q2346.5938,385.1543 2347.0156,384.7168 Q2347.2813,384.4512 2347.4219,384.373 Q2347.5781,384.2949 2347.7813,384.2949 Q2348.1094,384.2949 2348.3594,384.5605 Q2348.625,384.8105 2348.625,385.1543 Q2348.625,385.498 2348.2813,385.9043 Q2347.7813,386.4824 2346.9844,386.8105 Q2345.9063,387.2637 2344.6094,387.2637 Q2343.0938,387.2637 2341.8906,386.6387 Q2340.9063,386.1387 2340.2188,385.0762 Q2339.5313,383.998 2339.5313,382.7168 L2339.5313,381.5605 Q2339.5313,380.2324 2340.1406,379.0918 Q2340.7656,377.9355 2341.8594,377.3262 Q2342.9531,376.7012 2344.1875,376.7012 Q2344.9219,376.7012 2345.5625,376.873 Q2346.2188,377.0293 2346.7656,377.3887 Z " fill="#000000"/><text fill="#000000" font-family="sans-serif" font-size="14" lengthAdjust="spacing" textLength="108" x="2358" y="387.3105">anonymous_map</text><line style="stroke:#181818;stroke-width:0.5;" x1="2330" x2="2468" y1="397.5137" y2="397.5137"/><text fill="#000000" font-family="sans-serif" font-size="14" lengthAdjust="spacing" textLength="22" x="2335" y="416.6211">title</text><text fill="#000000" font-family="sans-serif" font-size="14" lengthAdjust="spacing" textLength="29" x="2335" y="435.2422">style</text><text fill="#000000" font-family="sans-serif" font-size="14" lengthAdjust="spacing" textLength="41" x="2335" y="453.8633">scripts</text><text fill="#000000" font-family="sans-serif" font-size="14" lengthAdjust="spacing" textLength="47" x="2335" y="472.4844">content</text><line style="stroke:#181818;stroke-width:0.5;" x1="2330" x2="2468" y1="479.998" y2="479.998"/><text fill="#000000" font-family="sans-serif" font-size="14" lengthAdjust="spacing" textLength="75" x="2335" y="499.1055">extend style</text><text fill="#000000" font-family="sans-serif" font-size="14" lengthAdjust="spacing" textLength="87" x="2335" y="517.7266">extend scripts</text></g><!--class decision--><g id="elem_decision"><rect codeLine="48" fill="#F1F1F1" height="159.7266" id="decision" rx="2.5" ry="2.5" style="stroke:#181818;stroke-width:0.5;" width="206" x="1606" y="365.5137"/><ellipse cx="1678.75" cy="381.5137" fill="#ADD1B2" rx="11" ry="11" style="stroke:#181818;stroke-width:1.0;"/><path d="M1681.5156,377.3887 Q1681.6719,377.1699 1681.8594,377.0605 Q1682.0469,376.9512 1682.2656,376.9512 Q1682.6406,376.9512 1682.875,377.2168 Q1683.1094,377.4668 1683.1094,378.0762 L1683.1094,379.5293 Q1683.1094,380.1387 1682.875,380.4043 Q1682.6406,380.6699 1682.2656,380.6699 Q1681.9219,380.6699 1681.7188,380.4668 Q1681.5156,380.2793 1681.4063,379.7637 Q1681.3594,379.4043 1681.1719,379.2168 Q1680.8438,378.8418 1680.2344,378.623 Q1679.625,378.4043 1679,378.4043 Q1678.2344,378.4043 1677.5938,378.7324 Q1676.9688,379.0605 1676.4688,379.8105 Q1675.9844,380.5605 1675.9844,381.5918 L1675.9844,382.6855 Q1675.9844,383.9199 1676.875,384.748 Q1677.7656,385.5605 1679.3594,385.5605 Q1680.2969,385.5605 1680.9531,385.3105 Q1681.3438,385.1543 1681.7656,384.7168 Q1682.0313,384.4512 1682.1719,384.373 Q1682.3281,384.2949 1682.5313,384.2949 Q1682.8594,384.2949 1683.1094,384.5605 Q1683.375,384.8105 1683.375,385.1543 Q1683.375,385.498 1683.0313,385.9043 Q1682.5313,386.4824 1681.7344,386.8105 Q1680.6563,387.2637 1679.3594,387.2637 Q1677.8438,387.2637 1676.6406,386.6387 Q1675.6563,386.1387 1674.9688,385.0762 Q1674.2813,383.998 1674.2813,382.7168 L1674.2813,381.5605 Q1674.2813,380.2324 1674.8906,379.0918 Q1675.5156,377.9355 1676.6094,377.3262 Q1677.7031,376.7012 1678.9375,376.7012 Q1679.6719,376.7012 1680.3125,376.873 Q1680.9688,377.0293 1681.5156,377.3887 Z " fill="#000000"/><text fill="#000000" font-family="sans-serif" font-size="14" lengthAdjust="spacing" textLength="52" x="1699.25" y="387.3105">decision</text><line style="stroke:#181818;stroke-width:0.5;" x1="1607" x2="1811" y1="397.5137" y2="397.5137"/><text fill="#000000" font-family="sans-serif" font-size="14" lengthAdjust="spacing" textLength="22" x="1612" y="416.6211">title</text><text fill="#000000" font-family="sans-serif" font-size="14" lengthAdjust="spacing" textLength="47" x="1612" y="435.2422">content</text><line style="stroke:#181818;stroke-width:0.5;" x1="1607" x2="1811" y1="442.7559" y2="442.7559"/><text fill="#000000" font-family="sans-serif" font-size="14" lengthAdjust="spacing" textLength="180" x="1612" y="461.8633">include container_messages</text><text fill="#000000" font-family="sans-serif" font-size="14" lengthAdjust="spacing" textLength="154" x="1612" y="480.4844">include container_errors</text><text fill="#000000" font-family="sans-serif" font-size="14" lengthAdjust="spacing" textLength="167" x="1612" y="499.1055">include notice_no_request</text><text fill="#000000" font-family="sans-serif" font-size="14" lengthAdjust="spacing" textLength="194" x="1612" y="517.7266">include notice_no_permissions</text></g><!--class delete--><g id="elem_delete"><rect codeLine="57" fill="#F1F1F1" height="122.4844" id="delete" rx="2.5" ry="2.5" style="stroke:#181818;stroke-width:0.5;" width="206" x="1847" y="384.5137"/><ellipse cx="1926.25" cy="400.5137" fill="#ADD1B2" rx="11" ry="11" style="stroke:#181818;stroke-width:1.0;"/><path d="M1929.0156,396.3887 Q1929.1719,396.1699 1929.3594,396.0605 Q1929.5469,395.9512 1929.7656,395.9512 Q1930.1406,395.9512 1930.375,396.2168 Q1930.6094,396.4668 1930.6094,397.0762 L1930.6094,398.5293 Q1930.6094,399.1387 1930.375,399.4043 Q1930.1406,399.6699 1929.7656,399.6699 Q1929.4219,399.6699 1929.2188,399.4668 Q1929.0156,399.2793 1928.9063,398.7637 Q1928.8594,398.4043 1928.6719,398.2168 Q1928.3438,397.8418 1927.7344,397.623 Q1927.125,397.4043 1926.5,397.4043 Q1925.7344,397.4043 1925.0938,397.7324 Q1924.4688,398.0605 1923.9688,398.8105 Q1923.4844,399.5605 1923.4844,400.5918 L1923.4844,401.6855 Q1923.4844,402.9199 1924.375,403.748 Q1925.2656,404.5605 1926.8594,404.5605 Q1927.7969,404.5605 1928.4531,404.3105 Q1928.8438,404.1543 1929.2656,403.7168 Q1929.5313,403.4512 1929.6719,403.373 Q1929.8281,403.2949 1930.0313,403.2949 Q1930.3594,403.2949 1930.6094,403.5605 Q1930.875,403.8105 1930.875,404.1543 Q1930.875,404.498 1930.5313,404.9043 Q1930.0313,405.4824 1929.2344,405.8105 Q1928.1563,406.2637 1926.8594,406.2637 Q1925.3438,406.2637 1924.1406,405.6387 Q1923.1563,405.1387 1922.4688,404.0762 Q1921.7813,402.998 1921.7813,401.7168 L1921.7813,400.5605 Q1921.7813,399.2324 1922.3906,398.0918 Q1923.0156,396.9355 1924.1094,396.3262 Q1925.2031,395.7012 1926.4375,395.7012 Q1927.1719,395.7012 1927.8125,395.873 Q1928.4688,396.0293 1929.0156,396.3887 Z " fill="#000000"/><text fill="#000000" font-family="sans-serif" font-size="14" lengthAdjust="spacing" textLength="39" x="1946.75" y="406.3105">delete</text><line style="stroke:#181818;stroke-width:0.5;" x1="1848" x2="2052" y1="416.5137" y2="416.5137"/><text fill="#000000" font-family="sans-serif" font-size="14" lengthAdjust="spacing" textLength="22" x="1853" y="435.6211">title</text><text fill="#000000" font-family="sans-serif" font-size="14" lengthAdjust="spacing" textLength="47" x="1853" y="454.2422">content</text><line style="stroke:#181818;stroke-width:0.5;" x1="1848" x2="2052" y1="461.7559" y2="461.7559"/><text fill="#000000" font-family="sans-serif" font-size="14" lengthAdjust="spacing" textLength="154" x="1853" y="480.8633">include container_errors</text><text fill="#000000" font-family="sans-serif" font-size="14" lengthAdjust="spacing" textLength="194" x="1853" y="499.4844">include notice_no_permissions</text></g><!--class form_request--><g id="elem_form_request"><rect codeLine="64" fill="#F1F1F1" height="215.5898" id="form_request" rx="2.5" ry="2.5" style="stroke:#181818;stroke-width:0.5;" width="213" x="2504.5" y="337.5137"/><ellipse cx="2564.75" cy="353.5137" fill="#ADD1B2" rx="11" ry="11" style="stroke:#181818;stroke-width:1.0;"/><path d="M2567.5156,349.3887 Q2567.6719,349.1699 2567.8594,349.0605 Q2568.0469,348.9512 2568.2656,348.9512 Q2568.6406,348.9512 2568.875,349.2168 Q2569.1094,349.4668 2569.1094,350.0762 L2569.1094,351.5293 Q2569.1094,352.1387 2568.875,352.4043 Q2568.6406,352.6699 2568.2656,352.6699 Q2567.9219,352.6699 2567.7188,352.4668 Q2567.5156,352.2793 2567.4063,351.7637 Q2567.3594,351.4043 2567.1719,351.2168 Q2566.8438,350.8418 2566.2344,350.623 Q2565.625,350.4043 2565,350.4043 Q2564.2344,350.4043 2563.5938,350.7324 Q2562.9688,351.0605 2562.4688,351.8105 Q2561.9844,352.5605 2561.9844,353.5918 L2561.9844,354.6855 Q2561.9844,355.9199 2562.875,356.748 Q2563.7656,357.5605 2565.3594,357.5605 Q2566.2969,357.5605 2566.9531,357.3105 Q2567.3438,357.1543 2567.7656,356.7168 Q2568.0313,356.4512 2568.1719,356.373 Q2568.3281,356.2949 2568.5313,356.2949 Q2568.8594,356.2949 2569.1094,356.5605 Q2569.375,356.8105 2569.375,357.1543 Q2569.375,357.498 2569.0313,357.9043 Q2568.5313,358.4824 2567.7344,358.8105 Q2566.6563,359.2637 2565.3594,359.2637 Q2563.8438,359.2637 2562.6406,358.6387 Q2561.6563,358.1387 2560.9688,357.0762 Q2560.2813,355.998 2560.2813,354.7168 L2560.2813,353.5605 Q2560.2813,352.2324 2560.8906,351.0918 Q2561.5156,349.9355 2562.6094,349.3262 Q2563.7031,348.7012 2564.9375,348.7012 Q2565.6719,348.7012 2566.3125,348.873 Q2566.9688,349.0293 2567.5156,349.3887 Z " fill="#000000"/><text fill="#000000" font-family="sans-serif" font-size="14" lengthAdjust="spacing" textLength="84" x="2585.25" y="359.3105">form_request</text><line style="stroke:#181818;stroke-width:0.5;" x1="2505.5" x2="2716.5" y1="369.5137" y2="369.5137"/><text fill="#000000" font-family="sans-serif" font-size="14" lengthAdjust="spacing" textLength="22" x="2510.5" y="388.6211">title</text><text fill="#000000" font-family="sans-serif" font-size="14" lengthAdjust="spacing" textLength="29" x="2510.5" y="407.2422">style</text><text fill="#000000" font-family="sans-serif" font-size="14" lengthAdjust="spacing" textLength="41" x="2510.5" y="425.8633">scripts</text><text fill="#000000" font-family="sans-serif" font-size="14" lengthAdjust="spacing" textLength="47" x="2510.5" y="444.4844">content</text><line style="stroke:#181818;stroke-width:0.5;" x1="2505.5" x2="2716.5" y1="451.998" y2="451.998"/><text fill="#000000" font-family="sans-serif" font-size="14" lengthAdjust="spacing" textLength="75" x="2510.5" y="471.1055">extend style</text><text fill="#000000" font-family="sans-serif" font-size="14" lengthAdjust="spacing" textLength="87" x="2510.5" y="489.7266">extend scripts</text><text fill="#000000" font-family="sans-serif" font-size="14" lengthAdjust="spacing" textLength="154" x="2510.5" y="508.3477">include container_errors</text><text fill="#000000" font-family="sans-serif" font-size="14" lengthAdjust="spacing" textLength="201" x="2510.5" y="526.9688">include notice_no_contact_data</text><text fill="#000000" font-family="sans-serif" font-size="14" lengthAdjust="spacing" textLength="194" x="2510.5" y="545.5898">include notice_no_permissions</text></g><!--class form_request_followup--><g id="elem_form_request_followup"><rect codeLine="76" fill="#F1F1F1" height="252.832" id="form_request_followup" rx="2.5" ry="2.5" style="stroke:#181818;stroke-width:0.5;" width="259" x="1311.5" y="319.0137"/><ellipse cx="1365.25" cy="335.0137" fill="#ADD1B2" rx="11" ry="11" style="stroke:#181818;stroke-width:1.0;"/><path d="M1368.0156,330.8887 Q1368.1719,330.6699 1368.3594,330.5605 Q1368.5469,330.4512 1368.7656,330.4512 Q1369.1406,330.4512 1369.375,330.7168 Q1369.6094,330.9668 1369.6094,331.5762 L1369.6094,333.0293 Q1369.6094,333.6387 1369.375,333.9043 Q1369.1406,334.1699 1368.7656,334.1699 Q1368.4219,334.1699 1368.2188,333.9668 Q1368.0156,333.7793 1367.9063,333.2637 Q1367.8594,332.9043 1367.6719,332.7168 Q1367.3438,332.3418 1366.7344,332.123 Q1366.125,331.9043 1365.5,331.9043 Q1364.7344,331.9043 1364.0938,332.2324 Q1363.4688,332.5605 1362.9688,333.3105 Q1362.4844,334.0605 1362.4844,335.0918 L1362.4844,336.1855 Q1362.4844,337.4199 1363.375,338.248 Q1364.2656,339.0605 1365.8594,339.0605 Q1366.7969,339.0605 1367.4531,338.8105 Q1367.8438,338.6543 1368.2656,338.2168 Q1368.5313,337.9512 1368.6719,337.873 Q1368.8281,337.7949 1369.0313,337.7949 Q1369.3594,337.7949 1369.6094,338.0605 Q1369.875,338.3105 1369.875,338.6543 Q1369.875,338.998 1369.5313,339.4043 Q1369.0313,339.9824 1368.2344,340.3105 Q1367.1563,340.7637 1365.8594,340.7637 Q1364.3438,340.7637 1363.1406,340.1387 Q1362.1563,339.6387 1361.4688,338.5762 Q1360.7813,337.498 1360.7813,336.2168 L1360.7813,335.0605 Q1360.7813,333.7324 1361.3906,332.5918 Q1362.0156,331.4355 1363.1094,330.8262 Q1364.2031,330.2012 1365.4375,330.2012 Q1366.1719,330.2012 1366.8125,330.373 Q1367.4688,330.5293 1368.0156,330.8887 Z " fill="#000000"/><text fill="#000000" font-family="sans-serif" font-size="14" lengthAdjust="spacing" textLength="143" x="1385.75" y="340.8105">form_request_followup</text><line style="stroke:#181818;stroke-width:0.5;" x1="1312.5" x2="1569.5" y1="351.0137" y2="351.0137"/><text fill="#000000" font-family="sans-serif" font-size="14" lengthAdjust="spacing" textLength="22" x="1317.5" y="370.1211">title</text><text fill="#000000" font-family="sans-serif" font-size="14" lengthAdjust="spacing" textLength="29" x="1317.5" y="388.7422">style</text><text fill="#000000" font-family="sans-serif" font-size="14" lengthAdjust="spacing" textLength="41" x="1317.5" y="407.3633">scripts</text><text fill="#000000" font-family="sans-serif" font-size="14" lengthAdjust="spacing" textLength="47" x="1317.5" y="425.9844">content</text><line style="stroke:#181818;stroke-width:0.5;" x1="1312.5" x2="1569.5" y1="433.498" y2="433.498"/><text fill="#000000" font-family="sans-serif" font-size="14" lengthAdjust="spacing" textLength="75" x="1317.5" y="452.6055">extend style</text><text fill="#000000" font-family="sans-serif" font-size="14" lengthAdjust="spacing" textLength="87" x="1317.5" y="471.2266">extend scripts</text><text fill="#000000" font-family="sans-serif" font-size="14" lengthAdjust="spacing" textLength="247" x="1317.5" y="489.8477">include buttons_form_request_followup</text><text fill="#000000" font-family="sans-serif" font-size="14" lengthAdjust="spacing" textLength="180" x="1317.5" y="508.4688">include container_messages</text><text fill="#000000" font-family="sans-serif" font-size="14" lengthAdjust="spacing" textLength="154" x="1317.5" y="527.0898">include container_errors</text><text fill="#000000" font-family="sans-serif" font-size="14" lengthAdjust="spacing" textLength="167" x="1317.5" y="545.7109">include notice_no_request</text><text fill="#000000" font-family="sans-serif" font-size="14" lengthAdjust="spacing" textLength="194" x="1317.5" y="564.332">include notice_no_permissions</text></g><!--class form_simple--><g id="elem_form_simple"><rect codeLine="90" fill="#F1F1F1" height="196.9688" id="form_simple" rx="2.5" ry="2.5" style="stroke:#181818;stroke-width:0.5;" width="206" x="2088" y="347.0137"/><ellipse cx="2148.75" cy="363.0137" fill="#ADD1B2" rx="11" ry="11" style="stroke:#181818;stroke-width:1.0;"/><path d="M2151.5156,358.8887 Q2151.6719,358.6699 2151.8594,358.5605 Q2152.0469,358.4512 2152.2656,358.4512 Q2152.6406,358.4512 2152.875,358.7168 Q2153.1094,358.9668 2153.1094,359.5762 L2153.1094,361.0293 Q2153.1094,361.6387 2152.875,361.9043 Q2152.6406,362.1699 2152.2656,362.1699 Q2151.9219,362.1699 2151.7188,361.9668 Q2151.5156,361.7793 2151.4063,361.2637 Q2151.3594,360.9043 2151.1719,360.7168 Q2150.8438,360.3418 2150.2344,360.123 Q2149.625,359.9043 2149,359.9043 Q2148.2344,359.9043 2147.5938,360.2324 Q2146.9688,360.5605 2146.4688,361.3105 Q2145.9844,362.0605 2145.9844,363.0918 L2145.9844,364.1855 Q2145.9844,365.4199 2146.875,366.248 Q2147.7656,367.0605 2149.3594,367.0605 Q2150.2969,367.0605 2150.9531,366.8105 Q2151.3438,366.6543 2151.7656,366.2168 Q2152.0313,365.9512 2152.1719,365.873 Q2152.3281,365.7949 2152.5313,365.7949 Q2152.8594,365.7949 2153.1094,366.0605 Q2153.375,366.3105 2153.375,366.6543 Q2153.375,366.998 2153.0313,367.4043 Q2152.5313,367.9824 2151.7344,368.3105 Q2150.6563,368.7637 2149.3594,368.7637 Q2147.8438,368.7637 2146.6406,368.1387 Q2145.6563,367.6387 2144.9688,366.5762 Q2144.2813,365.498 2144.2813,364.2168 L2144.2813,363.0605 Q2144.2813,361.7324 2144.8906,360.5918 Q2145.5156,359.4355 2146.6094,358.8262 Q2147.7031,358.2012 2148.9375,358.2012 Q2149.6719,358.2012 2150.3125,358.373 Q2150.9688,358.5293 2151.5156,358.8887 Z " fill="#000000"/><text fill="#000000" font-family="sans-serif" font-size="14" lengthAdjust="spacing" textLength="76" x="2169.25" y="368.8105">form_simple</text><line style="stroke:#181818;stroke-width:0.5;" x1="2089" x2="2293" y1="379.0137" y2="379.0137"/><text fill="#000000" font-family="sans-serif" font-size="14" lengthAdjust="spacing" textLength="22" x="2094" y="398.1211">title</text><text fill="#000000" font-family="sans-serif" font-size="14" lengthAdjust="spacing" textLength="29" x="2094" y="416.7422">style</text><text fill="#000000" font-family="sans-serif" font-size="14" lengthAdjust="spacing" textLength="41" x="2094" y="435.3633">scripts</text><text fill="#000000" font-family="sans-serif" font-size="14" lengthAdjust="spacing" textLength="47" x="2094" y="453.9844">content</text><line style="stroke:#181818;stroke-width:0.5;" x1="2089" x2="2293" y1="461.498" y2="461.498"/><text fill="#000000" font-family="sans-serif" font-size="14" lengthAdjust="spacing" textLength="75" x="2094" y="480.6055">extend style</text><text fill="#000000" font-family="sans-serif" font-size="14" lengthAdjust="spacing" textLength="87" x="2094" y="499.2266">extend scripts</text><text fill="#000000" font-family="sans-serif" font-size="14" lengthAdjust="spacing" textLength="154" x="2094" y="517.8477">include container_errors</text><text fill="#000000" font-family="sans-serif" font-size="14" lengthAdjust="spacing" textLength="194" x="2094" y="536.4688">include notice_no_permissions</text></g><!--class index--><g id="elem_index"><rect codeLine="101" fill="#F1F1F1" height="122.4844" id="index" rx="2.5" ry="2.5" style="stroke:#181818;stroke-width:0.5;" width="206" x="1070" y="384.5137"/><ellipse cx="1152.25" cy="400.5137" fill="#ADD1B2" rx="11" ry="11" style="stroke:#181818;stroke-width:1.0;"/><path d="M1155.0156,396.3887 Q1155.1719,396.1699 1155.3594,396.0605 Q1155.5469,395.9512 1155.7656,395.9512 Q1156.1406,395.9512 1156.375,396.2168 Q1156.6094,396.4668 1156.6094,397.0762 L1156.6094,398.5293 Q1156.6094,399.1387 1156.375,399.4043 Q1156.1406,399.6699 1155.7656,399.6699 Q1155.4219,399.6699 1155.2188,399.4668 Q1155.0156,399.2793 1154.9063,398.7637 Q1154.8594,398.4043 1154.6719,398.2168 Q1154.3438,397.8418 1153.7344,397.623 Q1153.125,397.4043 1152.5,397.4043 Q1151.7344,397.4043 1151.0938,397.7324 Q1150.4688,398.0605 1149.9688,398.8105 Q1149.4844,399.5605 1149.4844,400.5918 L1149.4844,401.6855 Q1149.4844,402.9199 1150.375,403.748 Q1151.2656,404.5605 1152.8594,404.5605 Q1153.7969,404.5605 1154.4531,404.3105 Q1154.8438,404.1543 1155.2656,403.7168 Q1155.5313,403.4512 1155.6719,403.373 Q1155.8281,403.2949 1156.0313,403.2949 Q1156.3594,403.2949 1156.6094,403.5605 Q1156.875,403.8105 1156.875,404.1543 Q1156.875,404.498 1156.5313,404.9043 Q1156.0313,405.4824 1155.2344,405.8105 Q1154.1563,406.2637 1152.8594,406.2637 Q1151.3438,406.2637 1150.1406,405.6387 Q1149.1563,405.1387 1148.4688,404.0762 Q1147.7813,402.998 1147.7813,401.7168 L1147.7813,400.5605 Q1147.7813,399.2324 1148.3906,398.0918 Q1149.0156,396.9355 1150.1094,396.3262 Q1151.2031,395.7012 1152.4375,395.7012 Q1153.1719,395.7012 1153.8125,395.873 Q1154.4688,396.0293 1155.0156,396.3887 Z " fill="#000000"/><text fill="#000000" font-family="sans-serif" font-size="14" lengthAdjust="spacing" textLength="33" x="1172.75" y="406.3105">index</text><line style="stroke:#181818;stroke-width:0.5;" x1="1071" x2="1275" y1="416.5137" y2="416.5137"/><text fill="#000000" font-family="sans-serif" font-size="14" lengthAdjust="spacing" textLength="22" x="1076" y="435.6211">title</text><text fill="#000000" font-family="sans-serif" font-size="14" lengthAdjust="spacing" textLength="47" x="1076" y="454.2422">content</text><line style="stroke:#181818;stroke-width:0.5;" x1="1071" x2="1275" y1="461.7559" y2="461.7559"/><text fill="#000000" font-family="sans-serif" font-size="14" lengthAdjust="spacing" textLength="180" x="1076" y="480.8633">include container_messages</text><text fill="#000000" font-family="sans-serif" font-size="14" lengthAdjust="spacing" textLength="194" x="1076" y="499.4844">include notice_no_permissions</text></g><!--class map_filters_cleanupeventrequest--><g id="elem_map_filters_cleanupeventrequest"><rect codeLine="108" fill="#F1F1F1" height="48" id="map_filters_cleanupeventrequest" rx="2.5" ry="2.5" style="stroke:#181818;stroke-width:0.5;" width="242" x="2767" y="632.0137"/><ellipse cx="2782" cy="648.0137" fill="#ADD1B2" rx="11" ry="11" style="stroke:#181818;stroke-width:1.0;"/><path d="M2784.7656,643.8887 Q2784.9219,643.6699 2785.1094,643.5605 Q2785.2969,643.4512 2785.5156,643.4512 Q2785.8906,643.4512 2786.125,643.7168 Q2786.3594,643.9668 2786.3594,644.5762 L2786.3594,646.0293 Q2786.3594,646.6387 2786.125,646.9043 Q2785.8906,647.1699 2785.5156,647.1699 Q2785.1719,647.1699 2784.9688,646.9668 Q2784.7656,646.7793 2784.6563,646.2637 Q2784.6094,645.9043 2784.4219,645.7168 Q2784.0938,645.3418 2783.4844,645.123 Q2782.875,644.9043 2782.25,644.9043 Q2781.4844,644.9043 2780.8438,645.2324 Q2780.2188,645.5605 2779.7188,646.3105 Q2779.2344,647.0605 2779.2344,648.0918 L2779.2344,649.1855 Q2779.2344,650.4199 2780.125,651.248 Q2781.0156,652.0605 2782.6094,652.0605 Q2783.5469,652.0605 2784.2031,651.8105 Q2784.5938,651.6543 2785.0156,651.2168 Q2785.2813,650.9512 2785.4219,650.873 Q2785.5781,650.7949 2785.7813,650.7949 Q2786.1094,650.7949 2786.3594,651.0605 Q2786.625,651.3105 2786.625,651.6543 Q2786.625,651.998 2786.2813,652.4043 Q2785.7813,652.9824 2784.9844,653.3105 Q2783.9063,653.7637 2782.6094,653.7637 Q2781.0938,653.7637 2779.8906,653.1387 Q2778.9063,652.6387 2778.2188,651.5762 Q2777.5313,650.498 2777.5313,649.2168 L2777.5313,648.0605 Q2777.5313,646.7324 2778.1406,645.5918 Q2778.7656,644.4355 2779.8594,643.8262 Q2780.9531,643.2012 2782.1875,643.2012 Q2782.9219,643.2012 2783.5625,643.373 Q2784.2188,643.5293 2784.7656,643.8887 Z " fill="#000000"/><text fill="#000000" font-family="sans-serif" font-size="14" lengthAdjust="spacing" textLength="210" x="2796" y="653.8105">map_filters_cleanupeventrequest</text><line style="stroke:#181818;stroke-width:0.5;" x1="2768" x2="3008" y1="664.0137" y2="664.0137"/><line style="stroke:#181818;stroke-width:0.5;" x1="2768" x2="3008" y1="672.0137" y2="672.0137"/></g><!--class map_request--><g id="elem_map_request"><rect codeLine="110" fill="#F1F1F1" height="215.5898" id="map_request" rx="2.5" ry="2.5" style="stroke:#181818;stroke-width:0.5;" width="271" x="2752.5" y="337.5137"/><ellipse cx="2842.25" cy="353.5137" fill="#ADD1B2" rx="11" ry="11" style="stroke:#181818;stroke-width:1.0;"/><path d="M2845.0156,349.3887 Q2845.1719,349.1699 2845.3594,349.0605 Q2845.5469,348.9512 2845.7656,348.9512 Q2846.1406,348.9512 2846.375,349.2168 Q2846.6094,349.4668 2846.6094,350.0762 L2846.6094,351.5293 Q2846.6094,352.1387 2846.375,352.4043 Q2846.1406,352.6699 2845.7656,352.6699 Q2845.4219,352.6699 2845.2188,352.4668 Q2845.0156,352.2793 2844.9063,351.7637 Q2844.8594,351.4043 2844.6719,351.2168 Q2844.3438,350.8418 2843.7344,350.623 Q2843.125,350.4043 2842.5,350.4043 Q2841.7344,350.4043 2841.0938,350.7324 Q2840.4688,351.0605 2839.9688,351.8105 Q2839.4844,352.5605 2839.4844,353.5918 L2839.4844,354.6855 Q2839.4844,355.9199 2840.375,356.748 Q2841.2656,357.5605 2842.8594,357.5605 Q2843.7969,357.5605 2844.4531,357.3105 Q2844.8438,357.1543 2845.2656,356.7168 Q2845.5313,356.4512 2845.6719,356.373 Q2845.8281,356.2949 2846.0313,356.2949 Q2846.3594,356.2949 2846.6094,356.5605 Q2846.875,356.8105 2846.875,357.1543 Q2846.875,357.498 2846.5313,357.9043 Q2846.0313,358.4824 2845.2344,358.8105 Q2844.1563,359.2637 2842.8594,359.2637 Q2841.3438,359.2637 2840.1406,358.6387 Q2839.1563,358.1387 2838.4688,357.0762 Q2837.7813,355.998 2837.7813,354.7168 L2837.7813,353.5605 Q2837.7813,352.2324 2838.3906,351.0918 Q2839.0156,349.9355 2840.1094,349.3262 Q2841.2031,348.7012 2842.4375,348.7012 Q2843.1719,348.7012 2843.8125,348.873 Q2844.4688,349.0293 2845.0156,349.3887 Z " fill="#000000"/><text fill="#000000" font-family="sans-serif" font-size="14" lengthAdjust="spacing" textLength="83" x="2862.75" y="359.3105">map_request</text><line style="stroke:#181818;stroke-width:0.5;" x1="2753.5" x2="3022.5" y1="369.5137" y2="369.5137"/><text fill="#000000" font-family="sans-serif" font-size="14" lengthAdjust="spacing" textLength="22" x="2758.5" y="388.6211">title</text><text fill="#000000" font-family="sans-serif" font-size="14" lengthAdjust="spacing" textLength="29" x="2758.5" y="407.2422">style</text><text fill="#000000" font-family="sans-serif" font-size="14" lengthAdjust="spacing" textLength="41" x="2758.5" y="425.8633">scripts</text><text fill="#000000" font-family="sans-serif" font-size="14" lengthAdjust="spacing" textLength="47" x="2758.5" y="444.4844">content</text><line style="stroke:#181818;stroke-width:0.5;" x1="2753.5" x2="3022.5" y1="451.998" y2="451.998"/><text fill="#000000" font-family="sans-serif" font-size="14" lengthAdjust="spacing" textLength="75" x="2758.5" y="471.1055">extend style</text><text fill="#000000" font-family="sans-serif" font-size="14" lengthAdjust="spacing" textLength="87" x="2758.5" y="489.7266">extend scripts</text><text fill="#000000" font-family="sans-serif" font-size="14" lengthAdjust="spacing" textLength="180" x="2758.5" y="508.3477">include container_messages</text><text fill="#000000" font-family="sans-serif" font-size="14" lengthAdjust="spacing" textLength="259" x="2758.5" y="526.9688">include map_filters_cleanupeventrequest</text><text fill="#000000" font-family="sans-serif" font-size="14" lengthAdjust="spacing" textLength="194" x="2758.5" y="545.5898">include notice_no_permissions</text></g><!--class notice_no_contact_data--><g id="elem_notice_no_contact_data"><rect codeLine="122" fill="#F1F1F1" height="48" id="notice_no_contact_data" rx="2.5" ry="2.5" style="stroke:#181818;stroke-width:0.5;" width="184" x="2519" y="632.0137"/><ellipse cx="2534" cy="648.0137" fill="#ADD1B2" rx="11" ry="11" style="stroke:#181818;stroke-width:1.0;"/><path d="M2536.7656,643.8887 Q2536.9219,643.6699 2537.1094,643.5605 Q2537.2969,643.4512 2537.5156,643.4512 Q2537.8906,643.4512 2538.125,643.7168 Q2538.3594,643.9668 2538.3594,644.5762 L2538.3594,646.0293 Q2538.3594,646.6387 2538.125,646.9043 Q2537.8906,647.1699 2537.5156,647.1699 Q2537.1719,647.1699 2536.9688,646.9668 Q2536.7656,646.7793 2536.6563,646.2637 Q2536.6094,645.9043 2536.4219,645.7168 Q2536.0938,645.3418 2535.4844,645.123 Q2534.875,644.9043 2534.25,644.9043 Q2533.4844,644.9043 2532.8438,645.2324 Q2532.2188,645.5605 2531.7188,646.3105 Q2531.2344,647.0605 2531.2344,648.0918 L2531.2344,649.1855 Q2531.2344,650.4199 2532.125,651.248 Q2533.0156,652.0605 2534.6094,652.0605 Q2535.5469,652.0605 2536.2031,651.8105 Q2536.5938,651.6543 2537.0156,651.2168 Q2537.2813,650.9512 2537.4219,650.873 Q2537.5781,650.7949 2537.7813,650.7949 Q2538.1094,650.7949 2538.3594,651.0605 Q2538.625,651.3105 2538.625,651.6543 Q2538.625,651.998 2538.2813,652.4043 Q2537.7813,652.9824 2536.9844,653.3105 Q2535.9063,653.7637 2534.6094,653.7637 Q2533.0938,653.7637 2531.8906,653.1387 Q2530.9063,652.6387 2530.2188,651.5762 Q2529.5313,650.498 2529.5313,649.2168 L2529.5313,648.0605 Q2529.5313,646.7324 2530.1406,645.5918 Q2530.7656,644.4355 2531.8594,643.8262 Q2532.9531,643.2012 2534.1875,643.2012 Q2534.9219,643.2012 2535.5625,643.373 Q2536.2188,643.5293 2536.7656,643.8887 Z " fill="#000000"/><text fill="#000000" font-family="sans-serif" font-size="14" lengthAdjust="spacing" textLength="152" x="2548" y="653.8105">notice_no_contact_data</text><line style="stroke:#181818;stroke-width:0.5;" x1="2520" x2="2702" y1="664.0137" y2="664.0137"/><line style="stroke:#181818;stroke-width:0.5;" x1="2520" x2="2702" y1="672.0137" y2="672.0137"/></g><!--class notice_no_permissions--><g id="elem_notice_no_permissions"><rect codeLine="123" fill="#F1F1F1" height="48" id="notice_no_permissions" rx="2.5" ry="2.5" style="stroke:#181818;stroke-width:0.5;" width="177" x="1704.5" y="632.0137"/><ellipse cx="1719.5" cy="648.0137" fill="#ADD1B2" rx="11" ry="11" style="stroke:#181818;stroke-width:1.0;"/><path d="M1722.2656,643.8887 Q1722.4219,643.6699 1722.6094,643.5605 Q1722.7969,643.4512 1723.0156,643.4512 Q1723.3906,643.4512 1723.625,643.7168 Q1723.8594,643.9668 1723.8594,644.5762 L1723.8594,646.0293 Q1723.8594,646.6387 1723.625,646.9043 Q1723.3906,647.1699 1723.0156,647.1699 Q1722.6719,647.1699 1722.4688,646.9668 Q1722.2656,646.7793 1722.1563,646.2637 Q1722.1094,645.9043 1721.9219,645.7168 Q1721.5938,645.3418 1720.9844,645.123 Q1720.375,644.9043 1719.75,644.9043 Q1718.9844,644.9043 1718.3438,645.2324 Q1717.7188,645.5605 1717.2188,646.3105 Q1716.7344,647.0605 1716.7344,648.0918 L1716.7344,649.1855 Q1716.7344,650.4199 1717.625,651.248 Q1718.5156,652.0605 1720.1094,652.0605 Q1721.0469,652.0605 1721.7031,651.8105 Q1722.0938,651.6543 1722.5156,651.2168 Q1722.7813,650.9512 1722.9219,650.873 Q1723.0781,650.7949 1723.2813,650.7949 Q1723.6094,650.7949 1723.8594,651.0605 Q1724.125,651.3105 1724.125,651.6543 Q1724.125,651.998 1723.7813,652.4043 Q1723.2813,652.9824 1722.4844,653.3105 Q1721.4063,653.7637 1720.1094,653.7637 Q1718.5938,653.7637 1717.3906,653.1387 Q1716.4063,652.6387 1715.7188,651.5762 Q1715.0313,650.498 1715.0313,649.2168 L1715.0313,648.0605 Q1715.0313,646.7324 1715.6406,645.5918 Q1716.2656,644.4355 1717.3594,643.8262 Q1718.4531,643.2012 1719.6875,643.2012 Q1720.4219,643.2012 1721.0625,643.373 Q1721.7188,643.5293 1722.2656,643.8887 Z " fill="#000000"/><text fill="#000000" font-family="sans-serif" font-size="14" lengthAdjust="spacing" textLength="145" x="1733.5" y="653.8105">notice_no_permissions</text><line style="stroke:#181818;stroke-width:0.5;" x1="1705.5" x2="1880.5" y1="664.0137" y2="664.0137"/><line style="stroke:#181818;stroke-width:0.5;" x1="1705.5" x2="1880.5" y1="672.0137" y2="672.0137"/></g><!--class notice_no_request--><g id="elem_notice_no_request"><rect codeLine="124" fill="#F1F1F1" height="48" id="notice_no_request" rx="2.5" ry="2.5" style="stroke:#181818;stroke-width:0.5;" width="150" x="1519" y="632.0137"/><ellipse cx="1534" cy="648.0137" fill="#ADD1B2" rx="11" ry="11" style="stroke:#181818;stroke-width:1.0;"/><path d="M1536.7656,643.8887 Q1536.9219,643.6699 1537.1094,643.5605 Q1537.2969,643.4512 1537.5156,643.4512 Q1537.8906,643.4512 1538.125,643.7168 Q1538.3594,643.9668 1538.3594,644.5762 L1538.3594,646.0293 Q1538.3594,646.6387 1538.125,646.9043 Q1537.8906,647.1699 1537.5156,647.1699 Q1537.1719,647.1699 1536.9688,646.9668 Q1536.7656,646.7793 1536.6563,646.2637 Q1536.6094,645.9043 1536.4219,645.7168 Q1536.0938,645.3418 1535.4844,645.123 Q1534.875,644.9043 1534.25,644.9043 Q1533.4844,644.9043 1532.8438,645.2324 Q1532.2188,645.5605 1531.7188,646.3105 Q1531.2344,647.0605 1531.2344,648.0918 L1531.2344,649.1855 Q1531.2344,650.4199 1532.125,651.248 Q1533.0156,652.0605 1534.6094,652.0605 Q1535.5469,652.0605 1536.2031,651.8105 Q1536.5938,651.6543 1537.0156,651.2168 Q1537.2813,650.9512 1537.4219,650.873 Q1537.5781,650.7949 1537.7813,650.7949 Q1538.1094,650.7949 1538.3594,651.0605 Q1538.625,651.3105 1538.625,651.6543 Q1538.625,651.998 1538.2813,652.4043 Q1537.7813,652.9824 1536.9844,653.3105 Q1535.9063,653.7637 1534.6094,653.7637 Q1533.0938,653.7637 1531.8906,653.1387 Q1530.9063,652.6387 1530.2188,651.5762 Q1529.5313,650.498 1529.5313,649.2168 L1529.5313,648.0605 Q1529.5313,646.7324 1530.1406,645.5918 Q1530.7656,644.4355 1531.8594,643.8262 Q1532.9531,643.2012 1534.1875,643.2012 Q1534.9219,643.2012 1535.5625,643.373 Q1536.2188,643.5293 1536.7656,643.8887 Z " fill="#000000"/><text fill="#000000" font-family="sans-serif" font-size="14" lengthAdjust="spacing" textLength="118" x="1548" y="653.8105">notice_no_request</text><line style="stroke:#181818;stroke-width:0.5;" x1="1520" x2="1668" y1="664.0137" y2="664.0137"/><line style="stroke:#181818;stroke-width:0.5;" x1="1520" x2="1668" y1="672.0137" y2="672.0137"/></g><!--class table_request--><g id="elem_table_request"><rect codeLine="126" fill="#F1F1F1" height="215.5898" id="table_request" rx="2.5" ry="2.5" style="stroke:#181818;stroke-width:0.5;" width="216" x="568" y="337.5137"/><ellipse cx="628.25" cy="353.5137" fill="#ADD1B2" rx="11" ry="11" style="stroke:#181818;stroke-width:1.0;"/><path d="M631.0156,349.3887 Q631.1719,349.1699 631.3594,349.0605 Q631.5469,348.9512 631.7656,348.9512 Q632.1406,348.9512 632.375,349.2168 Q632.6094,349.4668 632.6094,350.0762 L632.6094,351.5293 Q632.6094,352.1387 632.375,352.4043 Q632.1406,352.6699 631.7656,352.6699 Q631.4219,352.6699 631.2188,352.4668 Q631.0156,352.2793 630.9063,351.7637 Q630.8594,351.4043 630.6719,351.2168 Q630.3438,350.8418 629.7344,350.623 Q629.125,350.4043 628.5,350.4043 Q627.7344,350.4043 627.0938,350.7324 Q626.4688,351.0605 625.9688,351.8105 Q625.4844,352.5605 625.4844,353.5918 L625.4844,354.6855 Q625.4844,355.9199 626.375,356.748 Q627.2656,357.5605 628.8594,357.5605 Q629.7969,357.5605 630.4531,357.3105 Q630.8438,357.1543 631.2656,356.7168 Q631.5313,356.4512 631.6719,356.373 Q631.8281,356.2949 632.0313,356.2949 Q632.3594,356.2949 632.6094,356.5605 Q632.875,356.8105 632.875,357.1543 Q632.875,357.498 632.5313,357.9043 Q632.0313,358.4824 631.2344,358.8105 Q630.1563,359.2637 628.8594,359.2637 Q627.3438,359.2637 626.1406,358.6387 Q625.1563,358.1387 624.4688,357.0762 Q623.7813,355.998 623.7813,354.7168 L623.7813,353.5605 Q623.7813,352.2324 624.3906,351.0918 Q625.0156,349.9355 626.1094,349.3262 Q627.2031,348.7012 628.4375,348.7012 Q629.1719,348.7012 629.8125,348.873 Q630.4688,349.0293 631.0156,349.3887 Z " fill="#000000"/><text fill="#000000" font-family="sans-serif" font-size="14" lengthAdjust="spacing" textLength="87" x="648.75" y="359.3105">table_request</text><line style="stroke:#181818;stroke-width:0.5;" x1="569" x2="783" y1="369.5137" y2="369.5137"/><text fill="#000000" font-family="sans-serif" font-size="14" lengthAdjust="spacing" textLength="22" x="574" y="388.6211">title</text><text fill="#000000" font-family="sans-serif" font-size="14" lengthAdjust="spacing" textLength="29" x="574" y="407.2422">style</text><text fill="#000000" font-family="sans-serif" font-size="14" lengthAdjust="spacing" textLength="41" x="574" y="425.8633">scripts</text><text fill="#000000" font-family="sans-serif" font-size="14" lengthAdjust="spacing" textLength="47" x="574" y="444.4844">content</text><line style="stroke:#181818;stroke-width:0.5;" x1="569" x2="783" y1="451.998" y2="451.998"/><text fill="#000000" font-family="sans-serif" font-size="14" lengthAdjust="spacing" textLength="75" x="574" y="471.1055">extend style</text><text fill="#000000" font-family="sans-serif" font-size="14" lengthAdjust="spacing" textLength="87" x="574" y="489.7266">extend scripts</text><text fill="#000000" font-family="sans-serif" font-size="14" lengthAdjust="spacing" textLength="180" x="574" y="508.3477">include container_messages</text><text fill="#000000" font-family="sans-serif" font-size="14" lengthAdjust="spacing" textLength="204" x="574" y="526.9688">include container_table_warning</text><text fill="#000000" font-family="sans-serif" font-size="14" lengthAdjust="spacing" textLength="194" x="574" y="545.5898">include notice_no_permissions</text></g><!--class table_simple--><g id="elem_table_simple"><rect codeLine="138" fill="#F1F1F1" height="215.5898" id="table_simple" rx="2.5" ry="2.5" style="stroke:#181818;stroke-width:0.5;" width="216" x="819" y="337.5137"/><ellipse cx="883.25" cy="353.5137" fill="#ADD1B2" rx="11" ry="11" style="stroke:#181818;stroke-width:1.0;"/><path d="M886.0156,349.3887 Q886.1719,349.1699 886.3594,349.0605 Q886.5469,348.9512 886.7656,348.9512 Q887.1406,348.9512 887.375,349.2168 Q887.6094,349.4668 887.6094,350.0762 L887.6094,351.5293 Q887.6094,352.1387 887.375,352.4043 Q887.1406,352.6699 886.7656,352.6699 Q886.4219,352.6699 886.2188,352.4668 Q886.0156,352.2793 885.9063,351.7637 Q885.8594,351.4043 885.6719,351.2168 Q885.3438,350.8418 884.7344,350.623 Q884.125,350.4043 883.5,350.4043 Q882.7344,350.4043 882.0938,350.7324 Q881.4688,351.0605 880.9688,351.8105 Q880.4844,352.5605 880.4844,353.5918 L880.4844,354.6855 Q880.4844,355.9199 881.375,356.748 Q882.2656,357.5605 883.8594,357.5605 Q884.7969,357.5605 885.4531,357.3105 Q885.8438,357.1543 886.2656,356.7168 Q886.5313,356.4512 886.6719,356.373 Q886.8281,356.2949 887.0313,356.2949 Q887.3594,356.2949 887.6094,356.5605 Q887.875,356.8105 887.875,357.1543 Q887.875,357.498 887.5313,357.9043 Q887.0313,358.4824 886.2344,358.8105 Q885.1563,359.2637 883.8594,359.2637 Q882.3438,359.2637 881.1406,358.6387 Q880.1563,358.1387 879.4688,357.0762 Q878.7813,355.998 878.7813,354.7168 L878.7813,353.5605 Q878.7813,352.2324 879.3906,351.0918 Q880.0156,349.9355 881.1094,349.3262 Q882.2031,348.7012 883.4375,348.7012 Q884.1719,348.7012 884.8125,348.873 Q885.4688,349.0293 886.0156,349.3887 Z " fill="#000000"/><text fill="#000000" font-family="sans-serif" font-size="14" lengthAdjust="spacing" textLength="79" x="903.75" y="359.3105">table_simple</text><line style="stroke:#181818;stroke-width:0.5;" x1="820" x2="1034" y1="369.5137" y2="369.5137"/><text fill="#000000" font-family="sans-serif" font-size="14" lengthAdjust="spacing" textLength="22" x="825" y="388.6211">title</text><text fill="#000000" font-family="sans-serif" font-size="14" lengthAdjust="spacing" textLength="29" x="825" y="407.2422">style</text><text fill="#000000" font-family="sans-serif" font-size="14" lengthAdjust="spacing" textLength="41" x="825" y="425.8633">scripts</text><text fill="#000000" font-family="sans-serif" font-size="14" lengthAdjust="spacing" textLength="47" x="825" y="444.4844">content</text><line style="stroke:#181818;stroke-width:0.5;" x1="820" x2="1034" y1="451.998" y2="451.998"/><text fill="#000000" font-family="sans-serif" font-size="14" lengthAdjust="spacing" textLength="75" x="825" y="471.1055">extend style</text><text fill="#000000" font-family="sans-serif" font-size="14" lengthAdjust="spacing" textLength="87" x="825" y="489.7266">extend scripts</text><text fill="#000000" font-family="sans-serif" font-size="14" lengthAdjust="spacing" textLength="180" x="825" y="508.3477">include container_messages</text><text fill="#000000" font-family="sans-serif" font-size="14" lengthAdjust="spacing" textLength="204" x="825" y="526.9688">include container_table_warning</text><text fill="#000000" font-family="sans-serif" font-size="14" lengthAdjust="spacing" textLength="194" x="825" y="545.5898">include notice_no_permissions</text></g><!--class container_table_warning--><g id="elem_container_table_warning"><rect fill="#F1F1F1" height="48" id="container_table_warning" rx="2.5" ry="2.5" style="stroke:#181818;stroke-width:0.5;" width="187" x="707.5" y="632.0137"/><ellipse cx="722.5" cy="648.0137" fill="#ADD1B2" rx="11" ry="11" style="stroke:#181818;stroke-width:1.0;"/><path d="M725.2656,643.8887 Q725.4219,643.6699 725.6094,643.5605 Q725.7969,643.4512 726.0156,643.4512 Q726.3906,643.4512 726.625,643.7168 Q726.8594,643.9668 726.8594,644.5762 L726.8594,646.0293 Q726.8594,646.6387 726.625,646.9043 Q726.3906,647.1699 726.0156,647.1699 Q725.6719,647.1699 725.4688,646.9668 Q725.2656,646.7793 725.1563,646.2637 Q725.1094,645.9043 724.9219,645.7168 Q724.5938,645.3418 723.9844,645.123 Q723.375,644.9043 722.75,644.9043 Q721.9844,644.9043 721.3438,645.2324 Q720.7188,645.5605 720.2188,646.3105 Q719.7344,647.0605 719.7344,648.0918 L719.7344,649.1855 Q719.7344,650.4199 720.625,651.248 Q721.5156,652.0605 723.1094,652.0605 Q724.0469,652.0605 724.7031,651.8105 Q725.0938,651.6543 725.5156,651.2168 Q725.7813,650.9512 725.9219,650.873 Q726.0781,650.7949 726.2813,650.7949 Q726.6094,650.7949 726.8594,651.0605 Q727.125,651.3105 727.125,651.6543 Q727.125,651.998 726.7813,652.4043 Q726.2813,652.9824 725.4844,653.3105 Q724.4063,653.7637 723.1094,653.7637 Q721.5938,653.7637 720.3906,653.1387 Q719.4063,652.6387 718.7188,651.5762 Q718.0313,650.498 718.0313,649.2168 L718.0313,648.0605 Q718.0313,646.7324 718.6406,645.5918 Q719.2656,644.4355 720.3594,643.8262 Q721.4531,643.2012 722.6875,643.2012 Q723.4219,643.2012 724.0625,643.373 Q724.7188,643.5293 725.2656,643.8887 Z " fill="#000000"/><text fill="#000000" font-family="sans-serif" font-size="14" lengthAdjust="spacing" textLength="155" x="736.5" y="653.8105">container_table_warning</text><line style="stroke:#181818;stroke-width:0.5;" x1="708.5" x2="893.5" y1="664.0137" y2="664.0137"/><line style="stroke:#181818;stroke-width:0.5;" x1="708.5" x2="893.5" y1="672.0137" y2="672.0137"/></g><!--link base to navbar_html--><g id="link_base_navbar_html"><path codeLine="151" d="M447.5,259.2737 C450.28,313.4037 453.1436,369.2315 455.0236,406.0015 " fill="none" id="base-to-navbar_html" style="stroke:#181818;stroke-width:1.0;stroke-dasharray:7.0,7.0;"/><polygon fill="#181818" points="455.33,411.9937,458.8652,402.8012,455.0747,407.0002,450.8757,403.2097,455.33,411.9937" style="stroke:#181818;stroke-width:1.0;"/></g><!--reverse link base to index--><g id="link_base_index"><path codeLine="152" d="M358.5532,257.9781 C353.0232,262.6281 361.02,255.3137 355,259.0137 C328.26,275.4437 308.97,252.6237 286,274.0137 C250.44,307.1237 239.71,364.0337 236.72,402.9137 " fill="none" id="base-backto-index" style="stroke:#181818;stroke-width:1.0;"/><polygon fill="none" points="372.33,246.3937,354.6917,253.3859,362.4147,262.5704,372.33,246.3937" style="stroke:#181818;stroke-width:1.0;"/></g><!--reverse link base to error--><g id="link_base_error"><path codeLine="153" d="M383.0798,275.6792 C366.7798,318.7392 353.73,367.9937 344.92,402.9037 " fill="none" id="base-backto-error" style="stroke:#181818;stroke-width:1.0;"/><polygon fill="none" points="389.93,259.0337,377.5313,273.3959,388.6284,277.9626,389.93,259.0337" style="stroke:#181818;stroke-width:1.0;"/></g><!--reverse link base to anonymous_map--><g id="link_base_anonymous_map"><path codeLine="155" d="M529.6993,152.6963 C850.6593,155.5963 2159.26,173.4937 2312,274.0137 C2343.92,295.0237 2364.72,331.5637 2377.95,365.4437 " fill="none" id="base-backto-anonymous_map" style="stroke:#181818;stroke-width:1.0;"/><polygon fill="none" points="511.7,152.5337,529.6451,158.6961,529.7535,146.6965,511.7,152.5337" style="stroke:#181818;stroke-width:1.0;"/></g><!--reverse link base to decision--><g id="link_base_decision"><path codeLine="156" d="M529.7997,152.1686 C749.3097,153.4486 1403.91,166.1937 1588,274.0137 C1623.86,295.0137 1651.85,331.3437 1671.83,365.0737 " fill="none" id="base-backto-decision" style="stroke:#181818;stroke-width:1.0;"/><polygon fill="none" points="511.8,152.0637,529.7647,158.1685,529.8347,146.1687,511.8,152.0637" style="stroke:#181818;stroke-width:1.0;"/></g><!--reverse link base to delete--><g id="link_base_delete"><path codeLine="157" d="M529.5753,155.4314 C794.7653,166.1614 1714.97,207.7537 1830,274.0137 C1872.97,298.7637 1904.32,345.8537 1924.17,384.2837 " fill="none" id="base-backto-delete" style="stroke:#181818;stroke-width:1.0;"/><polygon fill="none" points="511.59,154.7037,529.3327,161.4265,529.8179,149.4363,511.59,154.7037" style="stroke:#181818;stroke-width:1.0;"/></g><!--reverse link base to form_request--><g id="link_base_form_request"><path codeLine="158" d="M529.559,152.8565 C867.479,156.4765 2310.58,177.4537 2487,274.0137 C2514.13,288.8637 2536.86,312.4837 2555.14,337.4737 " fill="none" id="base-backto-form_request" style="stroke:#181818;stroke-width:1.0;"/><polygon fill="none" points="511.56,152.6637,529.4947,158.8561,529.6232,146.8568,511.56,152.6637" style="stroke:#181818;stroke-width:1.0;"/></g><!--reverse link base to form_request_followup--><g id="link_base_form_request_followup"><path codeLine="159" d="M529.6491,156.7779 C708.1091,167.2479 1159.07,200.1737 1294,274.0137 C1315.09,285.5537 1334.52,301.3837 1351.89,318.7937 " fill="none" id="base-backto-form_request_followup" style="stroke:#181818;stroke-width:1.0;"/><polygon fill="none" points="511.68,155.7237,529.2977,162.7676,530.0005,150.7882,511.68,155.7237" style="stroke:#181818;stroke-width:1.0;"/></g><!--reverse link base to form_simple--><g id="link_base_form_simple"><path codeLine="160" d="M529.8237,154.2193 C823.7937,161.9893 1933.87,196.2037 2071,274.0137 C2100.75,290.8937 2124.89,318.5437 2143.5,346.7137 " fill="none" id="base-backto-form_simple" style="stroke:#181818;stroke-width:1.0;"/><polygon fill="none" points="511.83,153.7437,529.6652,160.2172,529.9822,148.2214,511.83,153.7437" style="stroke:#181818;stroke-width:1.0;"/></g><!--reverse link base to index--><g id="link_base_index"><path codeLine="161" d="M529.3963,161.374 C669.8963,177.244 964,216.0437 1053,274.0137 C1093.95,300.6837 1125.08,346.6437 1145.36,384.1237 " fill="none" id="base-backto-index-1" style="stroke:#181818;stroke-width:1.0;"/><polygon fill="none" points="511.51,159.3537,528.7228,167.3361,530.0697,155.4119,511.51,159.3537" style="stroke:#181818;stroke-width:1.0;"/></g><!--reverse link base to map_request--><g id="link_base_map_request"><path codeLine="162" d="M529.5293,152.7159 C891.1393,155.9759 2530.14,175.9837 2735,274.0137 C2765.49,288.6037 2792.61,312.3037 2815.22,337.4537 " fill="none" id="base-backto-map_request" style="stroke:#181818;stroke-width:1.0;"/><polygon fill="none" points="511.53,152.5537,529.4752,158.7157,529.5834,146.7162,511.53,152.5537" style="stroke:#181818;stroke-width:1.0;"/></g><!--reverse link base to table_request--><g id="link_base_table_request"><path codeLine="163" d="M522.8173,253.0371 C547.5473,283.9371 564.42,305.0337 590.33,337.4237 " fill="none" id="base-backto-table_request" style="stroke:#181818;stroke-width:1.0;"/><polygon fill="none" points="511.57,238.9837,518.1328,256.7862,527.5018,249.288,511.57,238.9837" style="stroke:#181818;stroke-width:1.0;"/></g><!--reverse link base to table_simple--><g id="link_base_table_simple"><path codeLine="164" d="M529.4765,166.0487 C606.5665,180.6287 713.78,209.3537 802,274.0137 C825.39,291.1537 846.24,313.9537 863.9,337.2837 " fill="none" id="base-backto-table_simple" style="stroke:#181818;stroke-width:1.0;"/><polygon fill="none" points="511.79,162.7037,528.3614,171.9442,530.5915,160.1532,511.79,162.7037" style="stroke:#181818;stroke-width:1.0;"/></g><!--link decision to container_messages--><g id="link_decision_container_messages"><path codeLine="167" d="M1647.7,525.5537 C1630.24,543.3637 1609.94,560.4137 1588,572.0137 C1448.1,646.0037 1392.18,600.9337 1237,632.0137 C1230.97,633.2237 1230.6267,633.2659 1224.3767,634.6059 " fill="none" id="decision-to-container_messages" style="stroke:#181818;stroke-width:1.0;stroke-dasharray:7.0,7.0;"/><polygon fill="#181818" points="1218.51,635.8637,1228.1486,637.8881,1223.3989,634.8155,1226.4715,630.0658,1218.51,635.8637" style="stroke:#181818;stroke-width:1.0;"/></g><!--link decision to container_errors--><g id="link_decision_container_errors"><path codeLine="168" d="M1778.11,525.8037 C1794.25,542.0937 1812.02,558.4137 1830,572.0137 C1861.65,595.9537 1895.7057,614.398 1926.9057,629.298 " fill="none" id="decision-to-container_errors" style="stroke:#181818;stroke-width:1.0;stroke-dasharray:7.0,7.0;"/><polygon fill="#181818" points="1932.32,631.8837,1925.9224,624.3957,1927.8081,629.729,1922.4748,631.6147,1932.32,631.8837" style="stroke:#181818;stroke-width:1.0;"/></g><!--link decision to notice_no_request--><g id="link_decision_notice_no_request"><path codeLine="169" d="M1665.36,525.6337 C1644.39,563.6537 1623.7087,601.1603 1609.5887,626.7503 " fill="none" id="decision-to-notice_no_request" style="stroke:#181818;stroke-width:1.0;stroke-dasharray:7.0,7.0;"/><polygon fill="#181818" points="1606.69,632.0037,1614.5403,626.0561,1609.1056,627.6259,1607.5358,622.1912,1606.69,632.0037" style="stroke:#181818;stroke-width:1.0;"/></g><!--link decision to notice_no_permissions--><g id="link_decision_notice_no_permissions"><path codeLine="170" d="M1740.88,525.6337 C1756.19,563.6537 1771.1778,600.8484 1781.4878,626.4384 " fill="none" id="decision-to-notice_no_permissions" style="stroke:#181818;stroke-width:1.0;stroke-dasharray:7.0,7.0;"/><polygon fill="#181818" points="1783.73,632.0037,1784.0769,622.1609,1781.8615,627.3659,1776.6565,625.1505,1783.73,632.0037" style="stroke:#181818;stroke-width:1.0;"/></g><!--link delete to container_errors--><g id="link_delete_container_errors"><path codeLine="171" d="M1960.08,506.5437 C1967.1,548.4037 1975.0963,596.0365 1980.1363,626.0465 " fill="none" id="delete-to-container_errors" style="stroke:#181818;stroke-width:1.0;stroke-dasharray:7.0,7.0;"/><polygon fill="#181818" points="1981.13,631.9637,1983.5841,622.4255,1980.3019,627.0327,1975.6946,623.7505,1981.13,631.9637" style="stroke:#181818;stroke-width:1.0;"/></g><!--link delete to notice_no_permissions--><g id="link_delete_notice_no_permissions"><path codeLine="172" d="M1904.8,506.5437 C1873.28,548.4037 1836.5694,597.1608 1813.9694,627.1708 " fill="none" id="delete-to-notice_no_permissions" style="stroke:#181818;stroke-width:1.0;stroke-dasharray:7.0,7.0;"/><polygon fill="#181818" points="1810.36,631.9637,1818.9694,627.1806,1813.3679,627.9696,1812.5789,622.368,1810.36,631.9637" style="stroke:#181818;stroke-width:1.0;"/></g><!--link form_request to container_errors--><g id="link_form_request_container_errors"><path codeLine="173" d="M2515.74,553.7537 C2506.55,560.6537 2496.93,566.8737 2487,572.0137 C2412.57,610.5437 2178.6527,636.9824 2059.4727,648.3824 " fill="none" id="form_request-to-container_errors" style="stroke:#181818;stroke-width:1.0;stroke-dasharray:7.0,7.0;"/><polygon fill="#181818" points="2053.5,648.9537,2062.84,652.0785,2058.4773,648.4776,2062.0782,644.1149,2053.5,648.9537" style="stroke:#181818;stroke-width:1.0;"/></g><!--link form_request to notice_no_contact_data--><g id="link_form_request_notice_no_contact_data"><path codeLine="174" d="M2611,553.8137 C2611,583.3537 2611,606.5637 2611,625.9437 " fill="none" id="form_request-to-notice_no_contact_data" style="stroke:#181818;stroke-width:1.0;stroke-dasharray:7.0,7.0;"/><polygon fill="#181818" points="2611,631.9437,2615,622.9437,2611,626.9437,2607,622.9437,2611,631.9437" style="stroke:#181818;stroke-width:1.0;"/></g><!--link form_request to notice_no_permissions--><g id="link_form_request_notice_no_permissions"><path codeLine="175" d="M2517.22,553.6037 C2507.61,560.6837 2497.5,566.9837 2487,572.0137 C2250.07,685.4537 2158.43,590.7637 1899,632.0137 C1893.33,632.9137 1893.4006,632.8462 1887.5406,633.9262 " fill="none" id="form_request-to-notice_no_permissions" style="stroke:#181818;stroke-width:1.0;stroke-dasharray:7.0,7.0;"/><polygon fill="#181818" points="1881.64,635.0137,1891.2159,637.3162,1886.5572,634.1074,1889.7659,629.4487,1881.64,635.0137" style="stroke:#181818;stroke-width:1.0;"/></g><!--link form_request_followup to buttons_form_request_followup--><g id="link_form_request_followup_buttons_form_request_followup"><path codeLine="176" d="M1397.56,572.3137 C1389.66,595.1837 1384.2195,610.9427 1378.9295,626.2527 " fill="none" id="form_request_followup-to-buttons_form_request_followup" style="stroke:#181818;stroke-width:1.0;stroke-dasharray:7.0,7.0;"/><polygon fill="#181818" points="1376.97,631.9237,1383.6899,624.7235,1378.6029,627.1978,1376.1285,622.1108,1376.97,631.9237" style="stroke:#181818;stroke-width:1.0;"/></g><!--link form_request_followup to container_messages--><g id="link_form_request_followup_container_messages"><path codeLine="177" d="M1311.13,559.9137 C1305.41,564.1037 1299.69,568.1537 1294,572.0137 C1260.08,595.0437 1224.4179,613.9341 1192.8079,629.2741 " fill="none" id="form_request_followup-to-container_messages" style="stroke:#181818;stroke-width:1.0;stroke-dasharray:7.0,7.0;"/><polygon fill="#181818" points="1187.41,631.8937,1197.2533,631.563,1191.9083,629.7107,1193.7605,624.3657,1187.41,631.8937" style="stroke:#181818;stroke-width:1.0;"/></g><!--link form_request_followup to container_errors--><g id="link_form_request_followup_container_errors"><path codeLine="178" d="M1570.94,562.4037 C1576.9,565.8737 1582.92,569.1037 1589,572.0137 C1715.53,632.7037 1762.24,600.5337 1899,632.0137 C1904.57,633.2937 1904.5086,633.2408 1910.2786,634.6808 " fill="none" id="form_request_followup-to-container_errors" style="stroke:#181818;stroke-width:1.0;stroke-dasharray:7.0,7.0;"/><polygon fill="#181818" points="1916.1,636.1337,1908.3364,630.0734,1911.2488,634.923,1906.3993,637.8354,1916.1,636.1337" style="stroke:#181818;stroke-width:1.0;"/></g><!--link form_request_followup to notice_no_request--><g id="link_form_request_followup_notice_no_request"><path codeLine="179" d="M1533.31,572.3137 C1550.1,595.1837 1562.2692,611.7772 1573.5092,627.0872 " fill="none" id="form_request_followup-to-notice_no_request" style="stroke:#181818;stroke-width:1.0;stroke-dasharray:7.0,7.0;"/><polygon fill="#181818" points="1577.06,631.9237,1574.9582,622.3017,1574.101,627.8932,1568.5095,627.0361,1577.06,631.9237" style="stroke:#181818;stroke-width:1.0;"/></g><!--link form_request_followup to notice_no_permissions--><g id="link_form_request_followup_notice_no_permissions"><path codeLine="180" d="M1570.88,560.3537 C1576.9,564.4337 1582.95,568.3437 1589,572.0137 C1630.2,596.9837 1674.6098,615.4649 1714.8298,629.8349 " fill="none" id="form_request_followup-to-notice_no_permissions" style="stroke:#181818;stroke-width:1.0;stroke-dasharray:7.0,7.0;"/><polygon fill="#181818" points="1720.48,631.8537,1713.3505,625.0588,1715.7715,630.1714,1710.6589,632.5924,1720.48,631.8537" style="stroke:#181818;stroke-width:1.0;"/></g><!--link form_simple to container_errors--><g id="link_form_simple_container_errors"><path codeLine="181" d="M2098.35,544.1737 C2089.16,553.6337 2079.93,563.0437 2071,572.0137 C2050.65,592.4537 2031.3954,611.0264 2014.0654,627.5264 " fill="none" id="form_simple-to-container_errors" style="stroke:#181818;stroke-width:1.0;stroke-dasharray:7.0,7.0;"/><polygon fill="#181818" points="2009.72,631.6637,2018.9963,628.3547,2013.3412,628.2159,2013.4799,622.5608,2009.72,631.6637" style="stroke:#181818;stroke-width:1.0;"/></g><!--link form_simple to notice_no_permissions--><g id="link_form_simple_notice_no_permissions"><path codeLine="182" d="M2107.92,544.2437 C2096.27,554.5637 2083.86,564.1437 2071,572.0137 C2039.04,591.5637 1956.1763,614.9403 1887.4863,632.3403 " fill="none" id="form_simple-to-notice_no_permissions" style="stroke:#181818;stroke-width:1.0;stroke-dasharray:7.0,7.0;"/><polygon fill="#181818" points="1881.67,633.8137,1891.3767,635.4812,1886.5169,632.5859,1889.4122,627.7261,1881.67,633.8137" style="stroke:#181818;stroke-width:1.0;"/></g><!--link index to container_messages--><g id="link_index_container_messages"><path codeLine="183" d="M1162.64,506.5437 C1155.41,548.4037 1147.1806,596.0411 1142.0006,626.0511 " fill="none" id="index-to-container_messages" style="stroke:#181818;stroke-width:1.0;stroke-dasharray:7.0,7.0;"/><polygon fill="#181818" points="1140.98,631.9637,1146.4526,623.7752,1141.8305,627.0365,1138.5691,622.4144,1140.98,631.9637" style="stroke:#181818;stroke-width:1.0;"/></g><!--link index to notice_no_permissions--><g id="link_index_notice_no_permissions"><path codeLine="184" d="M1216.77,506.8337 C1237.45,530.9237 1264.16,556.5737 1294,572.0137 C1450.92,653.2237 1513.25,599.9337 1687,632.0137 C1692.65,633.0537 1692.5665,632.997 1698.4165,634.167 " fill="none" id="index-to-notice_no_permissions" style="stroke:#181818;stroke-width:1.0;stroke-dasharray:7.0,7.0;"/><polygon fill="#181818" points="1704.3,635.3437,1696.2592,629.6563,1699.3971,634.3631,1694.6903,637.5009,1704.3,635.3437" style="stroke:#181818;stroke-width:1.0;"/></g><!--link map_request to map_filters_cleanupeventrequest--><g id="link_map_request_map_filters_cleanupeventrequest"><path codeLine="185" d="M2888,553.8137 C2888,583.3537 2888,606.5637 2888,625.9437 " fill="none" id="map_request-to-map_filters_cleanupeventrequest" style="stroke:#181818;stroke-width:1.0;stroke-dasharray:7.0,7.0;"/><polygon fill="#181818" points="2888,631.9437,2892,622.9437,2888,626.9437,2884,622.9437,2888,631.9437" style="stroke:#181818;stroke-width:1.0;"/></g><!--link map_request to notice_no_permissions--><g id="link_map_request_notice_no_permissions"><path codeLine="186" d="M2770.95,553.7437 C2759.34,560.8537 2747.29,567.1137 2735,572.0137 C2561.98,640.9837 2083.36,605.5337 1899,632.0137 C1893.31,632.8337 1893.3897,632.7467 1887.5197,633.7767 " fill="none" id="map_request-to-notice_no_permissions" style="stroke:#181818;stroke-width:1.0;stroke-dasharray:7.0,7.0;"/><polygon fill="#181818" points="1881.61,634.8137,1891.1659,637.198,1886.5348,633.9495,1889.7833,629.3184,1881.61,634.8137" style="stroke:#181818;stroke-width:1.0;"/></g><!--link table_request to container_messages--><g id="link_table_request_container_messages"><path codeLine="187" d="M774.53,553.7537 C783.39,560.5037 792.59,566.7137 802,572.0137 C881.35,616.7237 978.6242,636.7988 1049.3942,646.3788 " fill="none" id="table_request-to-container_messages" style="stroke:#181818;stroke-width:1.0;stroke-dasharray:7.0,7.0;"/><polygon fill="#181818" points="1055.34,647.1837,1046.9579,642.0125,1050.3852,646.5129,1045.8848,649.9402,1055.34,647.1837" style="stroke:#181818;stroke-width:1.0;"/></g><!--link table_request to container_table_warning--><g id="link_table_request_container_table_warning"><path codeLine="188" d="M740.33,553.8137 C758.04,583.3537 772.4646,607.4178 784.0846,626.7978 " fill="none" id="table_request-to-container_table_warning" style="stroke:#181818;stroke-width:1.0;stroke-dasharray:7.0,7.0;"/><polygon fill="#181818" points="787.17,631.9437,785.9725,622.1679,784.5988,627.6554,779.1113,626.2818,787.17,631.9437" style="stroke:#181818;stroke-width:1.0;"/></g><!--link table_request to notice_no_permissions--><g id="link_table_request_notice_no_permissions"><path codeLine="189" d="M770.86,553.7237 C780.75,560.8337 791.17,567.1037 802,572.0137 C981.54,653.3837 1491.83,604.3737 1687,632.0137 C1692.69,632.8237 1692.6103,632.7267 1698.4803,633.7567 " fill="none" id="table_request-to-notice_no_permissions" style="stroke:#181818;stroke-width:1.0;stroke-dasharray:7.0,7.0;"/><polygon fill="#181818" points="1704.39,634.7937,1696.2167,629.2984,1699.4652,633.9295,1694.8341,637.178,1704.39,634.7937" style="stroke:#181818;stroke-width:1.0;"/></g><!--link table_simple to container_messages--><g id="link_table_simple_container_messages"><path codeLine="190" d="M1034.54,553.6837 C1040.79,559.8937 1046.97,566.0337 1053,572.0137 C1073.38,592.2237 1092.3196,610.939 1109.1696,627.569 " fill="none" id="table_simple-to-container_messages" style="stroke:#181818;stroke-width:1.0;stroke-dasharray:7.0,7.0;"/><polygon fill="#181818" points="1113.44,631.7837,1109.8441,622.6147,1109.8813,628.2714,1104.2246,628.3086,1113.44,631.7837" style="stroke:#181818;stroke-width:1.0;"/></g><!--link table_simple to container_table_warning--><g id="link_table_simple_container_table_warning"><path codeLine="191" d="M862.15,553.8137 C844.31,583.3537 829.7649,607.4295 818.0449,626.8095 " fill="none" id="table_simple-to-container_table_warning" style="stroke:#181818;stroke-width:1.0;stroke-dasharray:7.0,7.0;"/><polygon fill="#181818" points="814.94,631.9437,823.0201,626.3123,817.5274,627.6652,816.1745,622.1725,814.94,631.9437" style="stroke:#181818;stroke-width:1.0;"/></g><!--link table_simple to notice_no_permissions--><g id="link_table_simple_notice_no_permissions"><path codeLine="192" d="M1022.39,553.6937 C1032.14,560.7537 1042.38,567.0237 1053,572.0137 C1181.11,632.1537 1547.16,610.3037 1687,632.0137 C1692.68,632.8937 1692.5973,632.8177 1698.4673,633.8877 " fill="none" id="table_simple-to-notice_no_permissions" style="stroke:#181818;stroke-width:1.0;stroke-dasharray:7.0,7.0;"/><polygon fill="#181818" points="1704.37,634.9637,1696.2332,629.4146,1699.4511,634.067,1694.7986,637.2849,1704.37,634.9637" style="stroke:#181818;stroke-width:1.0;"/></g><!--SRC=[tLTRSgim3Frd5MoWMK7dReLHG2IUwmUrJPDEchrV1mYnUGh8t6dwYNnqh1UIN43w5muOPs1Hdb3dzXB5SSh1c7WF1kFRPnnVSeOykyP7X2mG2BGG22op70E9iLzTIQfPOKqWa_2v1ns8KYMTKJQGvKfPR63kxgDoCYPJNcROK2H7AxW3NAFM4U-WuqzxguTcCiDp1zVtwc6SfufQAxrELQWCUEAESgP5WkT2QHjVhftpveAkc2l8c3pS3XnbqUGKfDLmC0Aa-nBknjZBRMcjaYR9bRjDuqU9nheFpjMfBFmBRiO2awZhkytmcK1Zt2KZfnRs79CJQEcCh30j2AIINqAL9X5Gp4QELaf1tToB1CzEblaCtPEMoJClmvGPfkI2d0uKPZzESxWwrYDbhYnBCP7gdhSvM85QC7Dpe-STHulFyercywWnVYN-a49uWhiLFhM9ww_mbD1uF-bFZT5aRtcjFwHomJ1HSFmzDJdgxTB9jo6H16lSG4XonjsuDqdA4MHPuAUxkEqH7UmBzOxfsCmulZgWmrt97zc39CE0eIpKS_xNv65aWLaT_vhbTRh9VucEYy_ZxR6hdXoxtH_lFRBpr_ekzFtxxSt7LXri5bMroMWOrbkQTy6AIbMwBuvq_6qLewBzoRf6vp6DboZNbKjLcKX57-prRwfAq6oMAJMEHD5utgeYx1yF_1mRE9fnlPYXlzzieF1_oB6wtEB9X3xLYE1fiDeK0il8thwHY-xSOxaVvfpUhBTnaqfx7I4f9NDqbA9VnqV8JpEqjpawIK8rfzxHDwHmYe1gXBzk3pFDxR1hEAdMXMleXb0j8mhNe7LiormaLkMiXqGUceChglmV]--></g></svg>