<?xml version="1.0" encoding="us-ascii" standalone="no"?><svg xmlns="http://www.w3.org/2000/svg" xmlns:xlink="http://www.w3.org/1999/xlink" contentStyleType="text/css" height="684px" preserveAspectRatio="none" style="width:3047px;height:684px;background:#FFFFFF;" version="1.1" viewBox="0 0 3047 684" width="3047px" zoomAndPan="magnify"><defs/><g><!--cluster datenwerft--><g id="cluster_datenwerft"><path d="M8.5,6.0137 L85.5,6.0137 A3.75,3.75 0 0 1 88,8.5137 L95,30.6348 L525.5,30.6348 A2.5,2.5 0 0 1 528,33.1348 L528,492.0137 A2.5,2.5 0 0 1 525.5,494.5137 L8.5,494.5137 A2.5,2.5 0 0 1 6,492.0137 L6,8.5137 A2.5,2.5 0 0 1 8.5,6.0137 " fill="none" style="stroke:#000000;stroke-width:1.5;"/><line style="stroke:#000000;stroke-width:1.5;" x1="6" x2="95" y1="30.6348" y2="30.6348"/><text fill="#000000" font-family="sans-serif" font-size="14" font-weight="bold" lengthAdjust="spacing" textLength="76" x="10" y="23.1211">datenwerft</text></g><!--cluster antragsmanagement--><g id="cluster_antragsmanagement"><path d="M554.5,282.0137 L698.5,282.0137 A3.75,3.75 0 0 1 701,284.5137 L708,306.6348 L3037.5,306.6348 A2.5,2.5 0 0 1 3040,309.1348 L3040,674.5137 A2.5,2.5 0 0 1 3037.5,677.0137 L554.5,677.0137 A2.5,2.5 0 0 1 552,674.5137 L552,284.5137 A2.5,2.5 0 0 1 554.5,282.0137 " fill="none" style="stroke:#000000;stroke-width:1.5;"/><line style="stroke:#000000;stroke-width:1.5;" x1="552" x2="708" y1="306.6348" y2="306.6348"/><text fill="#000000" font-family="sans-serif" font-size="14" font-weight="bold" lengthAdjust="spacing" textLength="143" x="556" y="299.1211">antragsmanagement</text></g><!--class base--><g id="elem_base"><rect codeLine="2" fill="#F1F1F1" height="215.5898" id="base" rx="2.5" ry="2.5" style="stroke:#181818;stroke-width:0.5;" width="139" x="228.5" y="43.0137"/><ellipse cx="278.25" cy="59.0137" fill="#ADD1B2" rx="11" ry="11" style="stroke:#181818;stroke-width:1.0;"/><path d="M281.0156,54.8887 Q281.1719,54.6699 281.3594,54.5605 Q281.5469,54.4512 281.7656,54.4512 Q282.1406,54.4512 282.375,54.7168 Q282.6094,54.9668 282.6094,55.5762 L282.6094,57.0293 Q282.6094,57.6387 282.375,57.9043 Q282.1406,58.1699 281.7656,58.1699 Q281.4219,58.1699 281.2188,57.9668 Q281.0156,57.7793 280.9063,57.2637 Q280.8594,56.9043 280.6719,56.7168 Q280.3438,56.3418 279.7344,56.123 Q279.125,55.9043 278.5,55.9043 Q277.7344,55.9043 277.0938,56.2324 Q276.4688,56.5605 275.9688,57.3105 Q275.4844,58.0605 275.4844,59.0918 L275.4844,60.1855 Q275.4844,61.4199 276.375,62.248 Q277.2656,63.0605 278.8594,63.0605 Q279.7969,63.0605 280.4531,62.8105 Q280.8438,62.6543 281.2656,62.2168 Q281.5313,61.9512 281.6719,61.873 Q281.8281,61.7949 282.0313,61.7949 Q282.3594,61.7949 282.6094,62.0605 Q282.875,62.3105 282.875,62.6543 Q282.875,62.998 282.5313,63.4043 Q282.0313,63.9824 281.2344,64.3105 Q280.1563,64.7637 278.8594,64.7637 Q277.3438,64.7637 276.1406,64.1387 Q275.1563,63.6387 274.4688,62.5762 Q273.7813,61.498 273.7813,60.2168 L273.7813,59.0605 Q273.7813,57.7324 274.3906,56.5918 Q275.0156,55.4355 276.1094,54.8262 Q277.2031,54.2012 278.4375,54.2012 Q279.1719,54.2012 279.8125,54.373 Q280.4688,54.5293 281.0156,54.8887 Z " fill="#000000"/><text fill="#000000" font-family="sans-serif" font-size="14" lengthAdjust="spacing" textLength="31" x="298.75" y="64.8105">base</text><line style="stroke:#181818;stroke-width:0.5;" x1="229.5" x2="366.5" y1="75.0137" y2="75.0137"/><text fill="#000000" font-family="sans-serif" font-size="14" lengthAdjust="spacing" textLength="32" x="234.5" y="94.1211">head</text><text fill="#000000" font-family="sans-serif" font-size="14" lengthAdjust="spacing" textLength="31" x="234.5" y="112.7422">meta</text><text fill="#000000" font-family="sans-serif" font-size="14" lengthAdjust="spacing" textLength="22" x="234.5" y="131.3633">title</text><text fill="#000000" font-family="sans-serif" font-size="14" lengthAdjust="spacing" textLength="29" x="234.5" y="149.9844">style</text><text fill="#000000" font-family="sans-serif" font-size="14" lengthAdjust="spacing" textLength="41" x="234.5" y="168.6055">scripts</text><text fill="#000000" font-family="sans-serif" font-size="14" lengthAdjust="spacing" textLength="44" x="234.5" y="187.2266">navbar</text><text fill="#000000" font-family="sans-serif" font-size="14" lengthAdjust="spacing" textLength="47" x="234.5" y="205.8477">content</text><text fill="#000000" font-family="sans-serif" font-size="14" lengthAdjust="spacing" textLength="37" x="234.5" y="224.4688">footer</text><line style="stroke:#181818;stroke-width:0.5;" x1="229.5" x2="366.5" y1="231.9824" y2="231.9824"/><text fill="#000000" font-family="sans-serif" font-size="14" lengthAdjust="spacing" textLength="127" x="234.5" y="251.0898">include navbar_html</text></g><!--class navbar_html--><g id="elem_navbar_html"><rect codeLine="14" fill="#F1F1F1" height="66.6211" id="navbar_html" rx="2.5" ry="2.5" style="stroke:#181818;stroke-width:0.5;" width="110" x="391" y="402.5137"/><ellipse cx="406" cy="418.5137" fill="#ADD1B2" rx="11" ry="11" style="stroke:#181818;stroke-width:1.0;"/><path d="M408.7656,414.3887 Q408.9219,414.1699 409.1094,414.0605 Q409.2969,413.9512 409.5156,413.9512 Q409.8906,413.9512 410.125,414.2168 Q410.3594,414.4668 410.3594,415.0762 L410.3594,416.5293 Q410.3594,417.1387 410.125,417.4043 Q409.8906,417.6699 409.5156,417.6699 Q409.1719,417.6699 408.9688,417.4668 Q408.7656,417.2793 408.6563,416.7637 Q408.6094,416.4043 408.4219,416.2168 Q408.0938,415.8418 407.4844,415.623 Q406.875,415.4043 406.25,415.4043 Q405.4844,415.4043 404.8438,415.7324 Q404.2188,416.0605 403.7188,416.8105 Q403.2344,417.5605 403.2344,418.5918 L403.2344,419.6855 Q403.2344,420.9199 404.125,421.748 Q405.0156,422.5605 406.6094,422.5605 Q407.5469,422.5605 408.2031,422.3105 Q408.5938,422.1543 409.0156,421.7168 Q409.2813,421.4512 409.4219,421.373 Q409.5781,421.2949 409.7813,421.2949 Q410.1094,421.2949 410.3594,421.5605 Q410.625,421.8105 410.625,422.1543 Q410.625,422.498 410.2813,422.9043 Q409.7813,423.4824 408.9844,423.8105 Q407.9063,424.2637 406.6094,424.2637 Q405.0938,424.2637 403.8906,423.6387 Q402.9063,423.1387 402.2188,422.0762 Q401.5313,420.998 401.5313,419.7168 L401.5313,418.5605 Q401.5313,417.2324 402.1406,416.0918 Q402.7656,414.9355 403.8594,414.3262 Q404.9531,413.7012 406.1875,413.7012 Q406.9219,413.7012 407.5625,413.873 Q408.2188,414.0293 408.7656,414.3887 Z " fill="#000000"/><text fill="#000000" font-family="sans-serif" font-size="14" lengthAdjust="spacing" textLength="78" x="420" y="424.3105">navbar_html</text><line style="stroke:#181818;stroke-width:0.5;" x1="392" x2="500" y1="434.5137" y2="434.5137"/><text fill="#000000" font-family="sans-serif" font-size="14" lengthAdjust="spacing" textLength="44" x="397" y="453.6211">navbar</text><line style="stroke:#181818;stroke-width:0.5;" x1="392" x2="500" y1="461.1348" y2="461.1348"/></g><!--class index--><g id="elem_index"><rect codeLine="18" fill="#F1F1F1" height="85.2422" id="index" rx="2.5" ry="2.5" style="stroke:#181818;stroke-width:0.5;" width="65" x="192.5" y="393.5137"/><ellipse cx="207.5" cy="409.5137" fill="#ADD1B2" rx="11" ry="11" style="stroke:#181818;stroke-width:1.0;"/><path d="M210.2656,405.3887 Q210.4219,405.1699 210.6094,405.0605 Q210.7969,404.9512 211.0156,404.9512 Q211.3906,404.9512 211.625,405.2168 Q211.8594,405.4668 211.8594,406.0762 L211.8594,407.5293 Q211.8594,408.1387 211.625,408.4043 Q211.3906,408.6699 211.0156,408.6699 Q210.6719,408.6699 210.4688,408.4668 Q210.2656,408.2793 210.1563,407.7637 Q210.1094,407.4043 209.9219,407.2168 Q209.5938,406.8418 208.9844,406.623 Q208.375,406.4043 207.75,406.4043 Q206.9844,406.4043 206.3438,406.7324 Q205.7188,407.0605 205.2188,407.8105 Q204.7344,408.5605 204.7344,409.5918 L204.7344,410.6855 Q204.7344,411.9199 205.625,412.748 Q206.5156,413.5605 208.1094,413.5605 Q209.0469,413.5605 209.7031,413.3105 Q210.0938,413.1543 210.5156,412.7168 Q210.7813,412.4512 210.9219,412.373 Q211.0781,412.2949 211.2813,412.2949 Q211.6094,412.2949 211.8594,412.5605 Q212.125,412.8105 212.125,413.1543 Q212.125,413.498 211.7813,413.9043 Q211.2813,414.4824 210.4844,414.8105 Q209.4063,415.2637 208.1094,415.2637 Q206.5938,415.2637 205.3906,414.6387 Q204.4063,414.1387 203.7188,413.0762 Q203.0313,411.998 203.0313,410.7168 L203.0313,409.5605 Q203.0313,408.2324 203.6406,407.0918 Q204.2656,405.9355 205.3594,405.3262 Q206.4531,404.7012 207.6875,404.7012 Q208.4219,404.7012 209.0625,404.873 Q209.7188,405.0293 210.2656,405.3887 Z " fill="#000000"/><text fill="#000000" font-family="sans-serif" font-size="14" lengthAdjust="spacing" textLength="33" x="221.5" y="415.3105">index</text><line style="stroke:#181818;stroke-width:0.5;" x1="193.5" x2="256.5" y1="425.5137" y2="425.5137"/><text fill="#000000" font-family="sans-serif" font-size="14" lengthAdjust="spacing" textLength="22" x="198.5" y="444.6211">title</text><text fill="#000000" font-family="sans-serif" font-size="14" lengthAdjust="spacing" textLength="47" x="198.5" y="463.2422">content</text><line style="stroke:#181818;stroke-width:0.5;" x1="193.5" x2="256.5" y1="470.7559" y2="470.7559"/></g><!--class error--><g id="elem_error"><rect codeLine="23" fill="#F1F1F1" height="85.2422" id="error" rx="2.5" ry="2.5" style="stroke:#181818;stroke-width:0.5;" width="63" x="292.5" y="393.5137"/><ellipse cx="307.5" cy="409.5137" fill="#ADD1B2" rx="11" ry="11" style="stroke:#181818;stroke-width:1.0;"/><path d="M310.2656,405.3887 Q310.4219,405.1699 310.6094,405.0605 Q310.7969,404.9512 311.0156,404.9512 Q311.3906,404.9512 311.625,405.2168 Q311.8594,405.4668 311.8594,406.0762 L311.8594,407.5293 Q311.8594,408.1387 311.625,408.4043 Q311.3906,408.6699 311.0156,408.6699 Q310.6719,408.6699 310.4688,408.4668 Q310.2656,408.2793 310.1563,407.7637 Q310.1094,407.4043 309.9219,407.2168 Q309.5938,406.8418 308.9844,406.623 Q308.375,406.4043 307.75,406.4043 Q306.9844,406.4043 306.3438,406.7324 Q305.7188,407.0605 305.2188,407.8105 Q304.7344,408.5605 304.7344,409.5918 L304.7344,410.6855 Q304.7344,411.9199 305.625,412.748 Q306.5156,413.5605 308.1094,413.5605 Q309.0469,413.5605 309.7031,413.3105 Q310.0938,413.1543 310.5156,412.7168 Q310.7813,412.4512 310.9219,412.373 Q311.0781,412.2949 311.2813,412.2949 Q311.6094,412.2949 311.8594,412.5605 Q312.125,412.8105 312.125,413.1543 Q312.125,413.498 311.7813,413.9043 Q311.2813,414.4824 310.4844,414.8105 Q309.4063,415.2637 308.1094,415.2637 Q306.5938,415.2637 305.3906,414.6387 Q304.4063,414.1387 303.7188,413.0762 Q303.0313,411.998 303.0313,410.7168 L303.0313,409.5605 Q303.0313,408.2324 303.6406,407.0918 Q304.2656,405.9355 305.3594,405.3262 Q306.4531,404.7012 307.6875,404.7012 Q308.4219,404.7012 309.0625,404.873 Q309.7188,405.0293 310.2656,405.3887 Z " fill="#000000"/><text fill="#000000" font-family="sans-serif" font-size="14" lengthAdjust="spacing" textLength="31" x="321.5" y="415.3105">error</text><line style="stroke:#181818;stroke-width:0.5;" x1="293.5" x2="354.5" y1="425.5137" y2="425.5137"/><text fill="#000000" font-family="sans-serif" font-size="14" lengthAdjust="spacing" textLength="22" x="298.5" y="444.6211">title</text><text fill="#000000" font-family="sans-serif" font-size="14" lengthAdjust="spacing" textLength="47" x="298.5" y="463.2422">content</text><line style="stroke:#181818;stroke-width:0.5;" x1="293.5" x2="354.5" y1="470.7559" y2="470.7559"/></g><!--class modal_confirm_export--><g id="elem_modal_confirm_export"><rect codeLine="28" fill="#F1F1F1" height="48" id="modal_confirm_export" rx="2.5" ry="2.5" style="stroke:#181818;stroke-width:0.5;" width="171" x="22.5" y="127.0137"/><ellipse cx="37.5" cy="143.0137" fill="#ADD1B2" rx="11" ry="11" style="stroke:#181818;stroke-width:1.0;"/><path d="M40.2656,138.8887 Q40.4219,138.6699 40.6094,138.5605 Q40.7969,138.4512 41.0156,138.4512 Q41.3906,138.4512 41.625,138.7168 Q41.8594,138.9668 41.8594,139.5762 L41.8594,141.0293 Q41.8594,141.6387 41.625,141.9043 Q41.3906,142.1699 41.0156,142.1699 Q40.6719,142.1699 40.4688,141.9668 Q40.2656,141.7793 40.1563,141.2637 Q40.1094,140.9043 39.9219,140.7168 Q39.5938,140.3418 38.9844,140.123 Q38.375,139.9043 37.75,139.9043 Q36.9844,139.9043 36.3438,140.2324 Q35.7188,140.5605 35.2188,141.3105 Q34.7344,142.0605 34.7344,143.0918 L34.7344,144.1855 Q34.7344,145.4199 35.625,146.248 Q36.5156,147.0605 38.1094,147.0605 Q39.0469,147.0605 39.7031,146.8105 Q40.0938,146.6543 40.5156,146.2168 Q40.7813,145.9512 40.9219,145.873 Q41.0781,145.7949 41.2813,145.7949 Q41.6094,145.7949 41.8594,146.0605 Q42.125,146.3105 42.125,146.6543 Q42.125,146.998 41.7813,147.4043 Q41.2813,147.9824 40.4844,148.3105 Q39.4063,148.7637 38.1094,148.7637 Q36.5938,148.7637 35.3906,148.1387 Q34.4063,147.6387 33.7188,146.5762 Q33.0313,145.498 33.0313,144.2168 L33.0313,143.0605 Q33.0313,141.7324 33.6406,140.5918 Q34.2656,139.4355 35.3594,138.8262 Q36.4531,138.2012 37.6875,138.2012 Q38.4219,138.2012 39.0625,138.373 Q39.7188,138.5293 40.2656,138.8887 Z " fill="#000000"/><text fill="#000000" font-family="sans-serif" font-size="14" lengthAdjust="spacing" textLength="139" x="51.5" y="148.8105">modal_confirm_export</text><line style="stroke:#181818;stroke-width:0.5;" x1="23.5" x2="192.5" y1="159.0137" y2="159.0137"/><line style="stroke:#181818;stroke-width:0.5;" x1="23.5" x2="192.5" y1="167.0137" y2="167.0137"/></g><!--class modal_error--><g id="elem_modal_error"><rect codeLine="29" fill="#F1F1F1" height="48" id="modal_error" rx="2.5" ry="2.5" style="stroke:#181818;stroke-width:0.5;" width="109" x="402.5" y="127.0137"/><ellipse cx="417.5" cy="143.0137" fill="#ADD1B2" rx="11" ry="11" style="stroke:#181818;stroke-width:1.0;"/><path d="M420.2656,138.8887 Q420.4219,138.6699 420.6094,138.5605 Q420.7969,138.4512 421.0156,138.4512 Q421.3906,138.4512 421.625,138.7168 Q421.8594,138.9668 421.8594,139.5762 L421.8594,141.0293 Q421.8594,141.6387 421.625,141.9043 Q421.3906,142.1699 421.0156,142.1699 Q420.6719,142.1699 420.4688,141.9668 Q420.2656,141.7793 420.1563,141.2637 Q420.1094,140.9043 419.9219,140.7168 Q419.5938,140.3418 418.9844,140.123 Q418.375,139.9043 417.75,139.9043 Q416.9844,139.9043 416.3438,140.2324 Q415.7188,140.5605 415.2188,141.3105 Q414.7344,142.0605 414.7344,143.0918 L414.7344,144.1855 Q414.7344,145.4199 415.625,146.248 Q416.5156,147.0605 418.1094,147.0605 Q419.0469,147.0605 419.7031,146.8105 Q420.0938,146.6543 420.5156,146.2168 Q420.7813,145.9512 420.9219,145.873 Q421.0781,145.7949 421.2813,145.7949 Q421.6094,145.7949 421.8594,146.0605 Q422.125,146.3105 422.125,146.6543 Q422.125,146.998 421.7813,147.4043 Q421.2813,147.9824 420.4844,148.3105 Q419.4063,148.7637 418.1094,148.7637 Q416.5938,148.7637 415.3906,148.1387 Q414.4063,147.6387 413.7188,146.5762 Q413.0313,145.498 413.0313,144.2168 L413.0313,143.0605 Q413.0313,141.7324 413.6406,140.5918 Q414.2656,139.4355 415.3594,138.8262 Q416.4531,138.2012 417.6875,138.2012 Q418.4219,138.2012 419.0625,138.373 Q419.7188,138.5293 420.2656,138.8887 Z " fill="#000000"/><text fill="#000000" font-family="sans-serif" font-size="14" lengthAdjust="spacing" textLength="77" x="431.5" y="148.8105">modal_error</text><line style="stroke:#181818;stroke-width:0.5;" x1="403.5" x2="510.5" y1="159.0137" y2="159.0137"/><line style="stroke:#181818;stroke-width:0.5;" x1="403.5" x2="510.5" y1="167.0137" y2="167.0137"/></g><!--class modal_loading--><g id="elem_modal_loading"><rect codeLine="30" fill="#F1F1F1" height="48" id="modal_loading" rx="2.5" ry="2.5" style="stroke:#181818;stroke-width:0.5;" width="124" x="33" y="412.0137"/><ellipse cx="48" cy="428.0137" fill="#ADD1B2" rx="11" ry="11" style="stroke:#181818;stroke-width:1.0;"/><path d="M50.7656,423.8887 Q50.9219,423.6699 51.1094,423.5605 Q51.2969,423.4512 51.5156,423.4512 Q51.8906,423.4512 52.125,423.7168 Q52.3594,423.9668 52.3594,424.5762 L52.3594,426.0293 Q52.3594,426.6387 52.125,426.9043 Q51.8906,427.1699 51.5156,427.1699 Q51.1719,427.1699 50.9688,426.9668 Q50.7656,426.7793 50.6563,426.2637 Q50.6094,425.9043 50.4219,425.7168 Q50.0938,425.3418 49.4844,425.123 Q48.875,424.9043 48.25,424.9043 Q47.4844,424.9043 46.8438,425.2324 Q46.2188,425.5605 45.7188,426.3105 Q45.2344,427.0605 45.2344,428.0918 L45.2344,429.1855 Q45.2344,430.4199 46.125,431.248 Q47.0156,432.0605 48.6094,432.0605 Q49.5469,432.0605 50.2031,431.8105 Q50.5938,431.6543 51.0156,431.2168 Q51.2813,430.9512 51.4219,430.873 Q51.5781,430.7949 51.7813,430.7949 Q52.1094,430.7949 52.3594,431.0605 Q52.625,431.3105 52.625,431.6543 Q52.625,431.998 52.2813,432.4043 Q51.7813,432.9824 50.9844,433.3105 Q49.9063,433.7637 48.6094,433.7637 Q47.0938,433.7637 45.8906,433.1387 Q44.9063,432.6387 44.2188,431.5762 Q43.5313,430.498 43.5313,429.2168 L43.5313,428.0605 Q43.5313,426.7324 44.1406,425.5918 Q44.7656,424.4355 45.8594,423.8262 Q46.9531,423.2012 48.1875,423.2012 Q48.9219,423.2012 49.5625,423.373 Q50.2188,423.5293 50.7656,423.8887 Z " fill="#000000"/><text fill="#000000" font-family="sans-serif" font-size="14" lengthAdjust="spacing" textLength="92" x="62" y="433.8105">modal_loading</text><line style="stroke:#181818;stroke-width:0.5;" x1="34" x2="156" y1="444.0137" y2="444.0137"/><line style="stroke:#181818;stroke-width:0.5;" x1="34" x2="156" y1="452.0137" y2="452.0137"/></g><!--class container_errors--><g id="elem_container_errors"><rect codeLine="34" fill="#F1F1F1" height="48" id="container_errors" rx="2.5" ry="2.5" style="stroke:#181818;stroke-width:0.5;" width="137" x="1827.5" y="613.0137"/><ellipse cx="1842.5" cy="629.0137" fill="#ADD1B2" rx="11" ry="11" style="stroke:#181818;stroke-width:1.0;"/><path d="M1845.2656,624.8887 Q1845.4219,624.6699 1845.6094,624.5605 Q1845.7969,624.4512 1846.0156,624.4512 Q1846.3906,624.4512 1846.625,624.7168 Q1846.8594,624.9668 1846.8594,625.5762 L1846.8594,627.0293 Q1846.8594,627.6387 1846.625,627.9043 Q1846.3906,628.1699 1846.0156,628.1699 Q1845.6719,628.1699 1845.4688,627.9668 Q1845.2656,627.7793 1845.1563,627.2637 Q1845.1094,626.9043 1844.9219,626.7168 Q1844.5938,626.3418 1843.9844,626.123 Q1843.375,625.9043 1842.75,625.9043 Q1841.9844,625.9043 1841.3438,626.2324 Q1840.7188,626.5605 1840.2188,627.3105 Q1839.7344,628.0605 1839.7344,629.0918 L1839.7344,630.1855 Q1839.7344,631.4199 1840.625,632.248 Q1841.5156,633.0605 1843.1094,633.0605 Q1844.0469,633.0605 1844.7031,632.8105 Q1845.0938,632.6543 1845.5156,632.2168 Q1845.7813,631.9512 1845.9219,631.873 Q1846.0781,631.7949 1846.2813,631.7949 Q1846.6094,631.7949 1846.8594,632.0605 Q1847.125,632.3105 1847.125,632.6543 Q1847.125,632.998 1846.7813,633.4043 Q1846.2813,633.9824 1845.4844,634.3105 Q1844.4063,634.7637 1843.1094,634.7637 Q1841.5938,634.7637 1840.3906,634.1387 Q1839.4063,633.6387 1838.7188,632.5762 Q1838.0313,631.498 1838.0313,630.2168 L1838.0313,629.0605 Q1838.0313,627.7324 1838.6406,626.5918 Q1839.2656,625.4355 1840.3594,624.8262 Q1841.4531,624.2012 1842.6875,624.2012 Q1843.4219,624.2012 1844.0625,624.373 Q1844.7188,624.5293 1845.2656,624.8887 Z " fill="#000000"/><text fill="#000000" font-family="sans-serif" font-size="14" lengthAdjust="spacing" textLength="105" x="1856.5" y="634.8105">container_errors</text><line style="stroke:#181818;stroke-width:0.5;" x1="1828.5" x2="1963.5" y1="645.0137" y2="645.0137"/><line style="stroke:#181818;stroke-width:0.5;" x1="1828.5" x2="1963.5" y1="653.0137" y2="653.0137"/></g><!--class container_messages--><g id="elem_container_messages"><rect codeLine="35" fill="#F1F1F1" height="48" id="container_messages" rx="2.5" ry="2.5" style="stroke:#181818;stroke-width:0.5;" width="163" x="1091.5" y="613.0137"/><ellipse cx="1106.5" cy="629.0137" fill="#ADD1B2" rx="11" ry="11" style="stroke:#181818;stroke-width:1.0;"/><path d="M1109.2656,624.8887 Q1109.4219,624.6699 1109.6094,624.5605 Q1109.7969,624.4512 1110.0156,624.4512 Q1110.3906,624.4512 1110.625,624.7168 Q1110.8594,624.9668 1110.8594,625.5762 L1110.8594,627.0293 Q1110.8594,627.6387 1110.625,627.9043 Q1110.3906,628.1699 1110.0156,628.1699 Q1109.6719,628.1699 1109.4688,627.9668 Q1109.2656,627.7793 1109.1563,627.2637 Q1109.1094,626.9043 1108.9219,626.7168 Q1108.5938,626.3418 1107.9844,626.123 Q1107.375,625.9043 1106.75,625.9043 Q1105.9844,625.9043 1105.3438,626.2324 Q1104.7188,626.5605 1104.2188,627.3105 Q1103.7344,628.0605 1103.7344,629.0918 L1103.7344,630.1855 Q1103.7344,631.4199 1104.625,632.248 Q1105.5156,633.0605 1107.1094,633.0605 Q1108.0469,633.0605 1108.7031,632.8105 Q1109.0938,632.6543 1109.5156,632.2168 Q1109.7813,631.9512 1109.9219,631.873 Q1110.0781,631.7949 1110.2813,631.7949 Q1110.6094,631.7949 1110.8594,632.0605 Q1111.125,632.3105 1111.125,632.6543 Q1111.125,632.998 1110.7813,633.4043 Q1110.2813,633.9824 1109.4844,634.3105 Q1108.4063,634.7637 1107.1094,634.7637 Q1105.5938,634.7637 1104.3906,634.1387 Q1103.4063,633.6387 1102.7188,632.5762 Q1102.0313,631.498 1102.0313,630.2168 L1102.0313,629.0605 Q1102.0313,627.7324 1102.6406,626.5918 Q1103.2656,625.4355 1104.3594,624.8262 Q1105.4531,624.2012 1106.6875,624.2012 Q1107.4219,624.2012 1108.0625,624.373 Q1108.7188,624.5293 1109.2656,624.8887 Z " fill="#000000"/><text fill="#000000" font-family="sans-serif" font-size="14" lengthAdjust="spacing" textLength="131" x="1120.5" y="634.8105">container_messages</text><line style="stroke:#181818;stroke-width:0.5;" x1="1092.5" x2="1253.5" y1="645.0137" y2="645.0137"/><line style="stroke:#181818;stroke-width:0.5;" x1="1092.5" x2="1253.5" y1="653.0137" y2="653.0137"/></g><!--class container_table_warnings--><g id="elem_container_table_warnings"><rect codeLine="36" fill="#F1F1F1" height="48" id="container_table_warnings" rx="2.5" ry="2.5" style="stroke:#181818;stroke-width:0.5;" width="194" x="2830" y="412.0137"/><ellipse cx="2845" cy="428.0137" fill="#ADD1B2" rx="11" ry="11" style="stroke:#181818;stroke-width:1.0;"/><path d="M2847.7656,423.8887 Q2847.9219,423.6699 2848.1094,423.5605 Q2848.2969,423.4512 2848.5156,423.4512 Q2848.8906,423.4512 2849.125,423.7168 Q2849.3594,423.9668 2849.3594,424.5762 L2849.3594,426.0293 Q2849.3594,426.6387 2849.125,426.9043 Q2848.8906,427.1699 2848.5156,427.1699 Q2848.1719,427.1699 2847.9688,426.9668 Q2847.7656,426.7793 2847.6563,426.2637 Q2847.6094,425.9043 2847.4219,425.7168 Q2847.0938,425.3418 2846.4844,425.123 Q2845.875,424.9043 2845.25,424.9043 Q2844.4844,424.9043 2843.8438,425.2324 Q2843.2188,425.5605 2842.7188,426.3105 Q2842.2344,427.0605 2842.2344,428.0918 L2842.2344,429.1855 Q2842.2344,430.4199 2843.125,431.248 Q2844.0156,432.0605 2845.6094,432.0605 Q2846.5469,432.0605 2847.2031,431.8105 Q2847.5938,431.6543 2848.0156,431.2168 Q2848.2813,430.9512 2848.4219,430.873 Q2848.5781,430.7949 2848.7813,430.7949 Q2849.1094,430.7949 2849.3594,431.0605 Q2849.625,431.3105 2849.625,431.6543 Q2849.625,431.998 2849.2813,432.4043 Q2848.7813,432.9824 2847.9844,433.3105 Q2846.9063,433.7637 2845.6094,433.7637 Q2844.0938,433.7637 2842.8906,433.1387 Q2841.9063,432.6387 2841.2188,431.5762 Q2840.5313,430.498 2840.5313,429.2168 L2840.5313,428.0605 Q2840.5313,426.7324 2841.1406,425.5918 Q2841.7656,424.4355 2842.8594,423.8262 Q2843.9531,423.2012 2845.1875,423.2012 Q2845.9219,423.2012 2846.5625,423.373 Q2847.2188,423.5293 2847.7656,423.8887 Z " fill="#000000"/><text fill="#000000" font-family="sans-serif" font-size="14" lengthAdjust="spacing" textLength="162" x="2859" y="433.8105">container_table_warnings</text><line style="stroke:#181818;stroke-width:0.5;" x1="2831" x2="3023" y1="444.0137" y2="444.0137"/><line style="stroke:#181818;stroke-width:0.5;" x1="2831" x2="3023" y1="452.0137" y2="452.0137"/></g><!--class decision--><g id="elem_decision"><rect codeLine="38" fill="#F1F1F1" height="159.7266" id="decision" rx="2.5" ry="2.5" style="stroke:#181818;stroke-width:0.5;" width="206" x="1311" y="356.0137"/><ellipse cx="1383.75" cy="372.0137" fill="#ADD1B2" rx="11" ry="11" style="stroke:#181818;stroke-width:1.0;"/><path d="M1386.5156,367.8887 Q1386.6719,367.6699 1386.8594,367.5605 Q1387.0469,367.4512 1387.2656,367.4512 Q1387.6406,367.4512 1387.875,367.7168 Q1388.1094,367.9668 1388.1094,368.5762 L1388.1094,370.0293 Q1388.1094,370.6387 1387.875,370.9043 Q1387.6406,371.1699 1387.2656,371.1699 Q1386.9219,371.1699 1386.7188,370.9668 Q1386.5156,370.7793 1386.4063,370.2637 Q1386.3594,369.9043 1386.1719,369.7168 Q1385.8438,369.3418 1385.2344,369.123 Q1384.625,368.9043 1384,368.9043 Q1383.2344,368.9043 1382.5938,369.2324 Q1381.9688,369.5605 1381.4688,370.3105 Q1380.9844,371.0605 1380.9844,372.0918 L1380.9844,373.1855 Q1380.9844,374.4199 1381.875,375.248 Q1382.7656,376.0605 1384.3594,376.0605 Q1385.2969,376.0605 1385.9531,375.8105 Q1386.3438,375.6543 1386.7656,375.2168 Q1387.0313,374.9512 1387.1719,374.873 Q1387.3281,374.7949 1387.5313,374.7949 Q1387.8594,374.7949 1388.1094,375.0605 Q1388.375,375.3105 1388.375,375.6543 Q1388.375,375.998 1388.0313,376.4043 Q1387.5313,376.9824 1386.7344,377.3105 Q1385.6563,377.7637 1384.3594,377.7637 Q1382.8438,377.7637 1381.6406,377.1387 Q1380.6563,376.6387 1379.9688,375.5762 Q1379.2813,374.498 1379.2813,373.2168 L1379.2813,372.0605 Q1379.2813,370.7324 1379.8906,369.5918 Q1380.5156,368.4355 1381.6094,367.8262 Q1382.7031,367.2012 1383.9375,367.2012 Q1384.6719,367.2012 1385.3125,367.373 Q1385.9688,367.5293 1386.5156,367.8887 Z " fill="#000000"/><text fill="#000000" font-family="sans-serif" font-size="14" lengthAdjust="spacing" textLength="52" x="1404.25" y="377.8105">decision</text><line style="stroke:#181818;stroke-width:0.5;" x1="1312" x2="1516" y1="388.0137" y2="388.0137"/><text fill="#000000" font-family="sans-serif" font-size="14" lengthAdjust="spacing" textLength="22" x="1317" y="407.1211">title</text><text fill="#000000" font-family="sans-serif" font-size="14" lengthAdjust="spacing" textLength="47" x="1317" y="425.7422">content</text><line style="stroke:#181818;stroke-width:0.5;" x1="1312" x2="1516" y1="433.2559" y2="433.2559"/><text fill="#000000" font-family="sans-serif" font-size="14" lengthAdjust="spacing" textLength="180" x="1317" y="452.3633">include container_messages</text><text fill="#000000" font-family="sans-serif" font-size="14" lengthAdjust="spacing" textLength="154" x="1317" y="470.9844">include container_errors</text><text fill="#000000" font-family="sans-serif" font-size="14" lengthAdjust="spacing" textLength="167" x="1317" y="489.6055">include notice_no_request</text><text fill="#000000" font-family="sans-serif" font-size="14" lengthAdjust="spacing" textLength="194" x="1317" y="508.2266">include notice_no_permissions</text></g><!--class delete--><g id="elem_delete"><rect codeLine="47" fill="#F1F1F1" height="122.4844" id="delete" rx="2.5" ry="2.5" style="stroke:#181818;stroke-width:0.5;" width="206" x="2034" y="375.0137"/><ellipse cx="2113.25" cy="391.0137" fill="#ADD1B2" rx="11" ry="11" style="stroke:#181818;stroke-width:1.0;"/><path d="M2116.0156,386.8887 Q2116.1719,386.6699 2116.3594,386.5605 Q2116.5469,386.4512 2116.7656,386.4512 Q2117.1406,386.4512 2117.375,386.7168 Q2117.6094,386.9668 2117.6094,387.5762 L2117.6094,389.0293 Q2117.6094,389.6387 2117.375,389.9043 Q2117.1406,390.1699 2116.7656,390.1699 Q2116.4219,390.1699 2116.2188,389.9668 Q2116.0156,389.7793 2115.9063,389.2637 Q2115.8594,388.9043 2115.6719,388.7168 Q2115.3438,388.3418 2114.7344,388.123 Q2114.125,387.9043 2113.5,387.9043 Q2112.7344,387.9043 2112.0938,388.2324 Q2111.4688,388.5605 2110.9688,389.3105 Q2110.4844,390.0605 2110.4844,391.0918 L2110.4844,392.1855 Q2110.4844,393.4199 2111.375,394.248 Q2112.2656,395.0605 2113.8594,395.0605 Q2114.7969,395.0605 2115.4531,394.8105 Q2115.8438,394.6543 2116.2656,394.2168 Q2116.5313,393.9512 2116.6719,393.873 Q2116.8281,393.7949 2117.0313,393.7949 Q2117.3594,393.7949 2117.6094,394.0605 Q2117.875,394.3105 2117.875,394.6543 Q2117.875,394.998 2117.5313,395.4043 Q2117.0313,395.9824 2116.2344,396.3105 Q2115.1563,396.7637 2113.8594,396.7637 Q2112.3438,396.7637 2111.1406,396.1387 Q2110.1563,395.6387 2109.4688,394.5762 Q2108.7813,393.498 2108.7813,392.2168 L2108.7813,391.0605 Q2108.7813,389.7324 2109.3906,388.5918 Q2110.0156,387.4355 2111.1094,386.8262 Q2112.2031,386.2012 2113.4375,386.2012 Q2114.1719,386.2012 2114.8125,386.373 Q2115.4688,386.5293 2116.0156,386.8887 Z " fill="#000000"/><text fill="#000000" font-family="sans-serif" font-size="14" lengthAdjust="spacing" textLength="39" x="2133.75" y="396.8105">delete</text><line style="stroke:#181818;stroke-width:0.5;" x1="2035" x2="2239" y1="407.0137" y2="407.0137"/><text fill="#000000" font-family="sans-serif" font-size="14" lengthAdjust="spacing" textLength="22" x="2040" y="426.1211">title</text><text fill="#000000" font-family="sans-serif" font-size="14" lengthAdjust="spacing" textLength="47" x="2040" y="444.7422">content</text><line style="stroke:#181818;stroke-width:0.5;" x1="2035" x2="2239" y1="452.2559" y2="452.2559"/><text fill="#000000" font-family="sans-serif" font-size="14" lengthAdjust="spacing" textLength="154" x="2040" y="471.3633">include container_errors</text><text fill="#000000" font-family="sans-serif" font-size="14" lengthAdjust="spacing" textLength="194" x="2040" y="489.9844">include notice_no_permissions</text></g><!--class form_request--><g id="elem_form_request"><rect codeLine="54" fill="#F1F1F1" height="215.5898" id="form_request" rx="2.5" ry="2.5" style="stroke:#181818;stroke-width:0.5;" width="213" x="2275.5" y="328.0137"/><ellipse cx="2335.75" cy="344.0137" fill="#ADD1B2" rx="11" ry="11" style="stroke:#181818;stroke-width:1.0;"/><path d="M2338.5156,339.8887 Q2338.6719,339.6699 2338.8594,339.5605 Q2339.0469,339.4512 2339.2656,339.4512 Q2339.6406,339.4512 2339.875,339.7168 Q2340.1094,339.9668 2340.1094,340.5762 L2340.1094,342.0293 Q2340.1094,342.6387 2339.875,342.9043 Q2339.6406,343.1699 2339.2656,343.1699 Q2338.9219,343.1699 2338.7188,342.9668 Q2338.5156,342.7793 2338.4063,342.2637 Q2338.3594,341.9043 2338.1719,341.7168 Q2337.8438,341.3418 2337.2344,341.123 Q2336.625,340.9043 2336,340.9043 Q2335.2344,340.9043 2334.5938,341.2324 Q2333.9688,341.5605 2333.4688,342.3105 Q2332.9844,343.0605 2332.9844,344.0918 L2332.9844,345.1855 Q2332.9844,346.4199 2333.875,347.248 Q2334.7656,348.0605 2336.3594,348.0605 Q2337.2969,348.0605 2337.9531,347.8105 Q2338.3438,347.6543 2338.7656,347.2168 Q2339.0313,346.9512 2339.1719,346.873 Q2339.3281,346.7949 2339.5313,346.7949 Q2339.8594,346.7949 2340.1094,347.0605 Q2340.375,347.3105 2340.375,347.6543 Q2340.375,347.998 2340.0313,348.4043 Q2339.5313,348.9824 2338.7344,349.3105 Q2337.6563,349.7637 2336.3594,349.7637 Q2334.8438,349.7637 2333.6406,349.1387 Q2332.6563,348.6387 2331.9688,347.5762 Q2331.2813,346.498 2331.2813,345.2168 L2331.2813,344.0605 Q2331.2813,342.7324 2331.8906,341.5918 Q2332.5156,340.4355 2333.6094,339.8262 Q2334.7031,339.2012 2335.9375,339.2012 Q2336.6719,339.2012 2337.3125,339.373 Q2337.9688,339.5293 2338.5156,339.8887 Z " fill="#000000"/><text fill="#000000" font-family="sans-serif" font-size="14" lengthAdjust="spacing" textLength="84" x="2356.25" y="349.8105">form_request</text><line style="stroke:#181818;stroke-width:0.5;" x1="2276.5" x2="2487.5" y1="360.0137" y2="360.0137"/><text fill="#000000" font-family="sans-serif" font-size="14" lengthAdjust="spacing" textLength="22" x="2281.5" y="379.1211">title</text><text fill="#000000" font-family="sans-serif" font-size="14" lengthAdjust="spacing" textLength="29" x="2281.5" y="397.7422">style</text><text fill="#000000" font-family="sans-serif" font-size="14" lengthAdjust="spacing" textLength="41" x="2281.5" y="416.3633">scripts</text><text fill="#000000" font-family="sans-serif" font-size="14" lengthAdjust="spacing" textLength="47" x="2281.5" y="434.9844">content</text><line style="stroke:#181818;stroke-width:0.5;" x1="2276.5" x2="2487.5" y1="442.498" y2="442.498"/><text fill="#000000" font-family="sans-serif" font-size="14" lengthAdjust="spacing" textLength="75" x="2281.5" y="461.6055">extend style</text><text fill="#000000" font-family="sans-serif" font-size="14" lengthAdjust="spacing" textLength="87" x="2281.5" y="480.2266">extend scripts</text><text fill="#000000" font-family="sans-serif" font-size="14" lengthAdjust="spacing" textLength="154" x="2281.5" y="498.8477">include container_errors</text><text fill="#000000" font-family="sans-serif" font-size="14" lengthAdjust="spacing" textLength="201" x="2281.5" y="517.4688">include notice_no_contact_data</text><text fill="#000000" font-family="sans-serif" font-size="14" lengthAdjust="spacing" textLength="194" x="2281.5" y="536.0898">include notice_no_permissions</text></g><!--class form_request_followup--><g id="elem_form_request_followup"><rect codeLine="66" fill="#F1F1F1" height="234.2109" id="form_request_followup" rx="2.5" ry="2.5" style="stroke:#181818;stroke-width:0.5;" width="206" x="1552" y="319.0137"/><ellipse cx="1580.95" cy="335.0137" fill="#ADD1B2" rx="11" ry="11" style="stroke:#181818;stroke-width:1.0;"/><path d="M1583.7156,330.8887 Q1583.8719,330.6699 1584.0594,330.5605 Q1584.2469,330.4512 1584.4656,330.4512 Q1584.8406,330.4512 1585.075,330.7168 Q1585.3094,330.9668 1585.3094,331.5762 L1585.3094,333.0293 Q1585.3094,333.6387 1585.075,333.9043 Q1584.8406,334.1699 1584.4656,334.1699 Q1584.1219,334.1699 1583.9188,333.9668 Q1583.7156,333.7793 1583.6063,333.2637 Q1583.5594,332.9043 1583.3719,332.7168 Q1583.0438,332.3418 1582.4344,332.123 Q1581.825,331.9043 1581.2,331.9043 Q1580.4344,331.9043 1579.7938,332.2324 Q1579.1688,332.5605 1578.6688,333.3105 Q1578.1844,334.0605 1578.1844,335.0918 L1578.1844,336.1855 Q1578.1844,337.4199 1579.075,338.248 Q1579.9656,339.0605 1581.5594,339.0605 Q1582.4969,339.0605 1583.1531,338.8105 Q1583.5438,338.6543 1583.9656,338.2168 Q1584.2313,337.9512 1584.3719,337.873 Q1584.5281,337.7949 1584.7313,337.7949 Q1585.0594,337.7949 1585.3094,338.0605 Q1585.575,338.3105 1585.575,338.6543 Q1585.575,338.998 1585.2313,339.4043 Q1584.7313,339.9824 1583.9344,340.3105 Q1582.8563,340.7637 1581.5594,340.7637 Q1580.0438,340.7637 1578.8406,340.1387 Q1577.8563,339.6387 1577.1688,338.5762 Q1576.4813,337.498 1576.4813,336.2168 L1576.4813,335.0605 Q1576.4813,333.7324 1577.0906,332.5918 Q1577.7156,331.4355 1578.8094,330.8262 Q1579.9031,330.2012 1581.1375,330.2012 Q1581.8719,330.2012 1582.5125,330.373 Q1583.1688,330.5293 1583.7156,330.8887 Z " fill="#000000"/><text fill="#000000" font-family="sans-serif" font-size="14" lengthAdjust="spacing" textLength="143" x="1598.05" y="340.8105">form_request_followup</text><line style="stroke:#181818;stroke-width:0.5;" x1="1553" x2="1757" y1="351.0137" y2="351.0137"/><text fill="#000000" font-family="sans-serif" font-size="14" lengthAdjust="spacing" textLength="22" x="1558" y="370.1211">title</text><text fill="#000000" font-family="sans-serif" font-size="14" lengthAdjust="spacing" textLength="29" x="1558" y="388.7422">style</text><text fill="#000000" font-family="sans-serif" font-size="14" lengthAdjust="spacing" textLength="41" x="1558" y="407.3633">scripts</text><text fill="#000000" font-family="sans-serif" font-size="14" lengthAdjust="spacing" textLength="47" x="1558" y="425.9844">content</text><line style="stroke:#181818;stroke-width:0.5;" x1="1553" x2="1757" y1="433.498" y2="433.498"/><text fill="#000000" font-family="sans-serif" font-size="14" lengthAdjust="spacing" textLength="75" x="1558" y="452.6055">extend style</text><text fill="#000000" font-family="sans-serif" font-size="14" lengthAdjust="spacing" textLength="87" x="1558" y="471.2266">extend scripts</text><text fill="#000000" font-family="sans-serif" font-size="14" lengthAdjust="spacing" textLength="180" x="1558" y="489.8477">include container_messages</text><text fill="#000000" font-family="sans-serif" font-size="14" lengthAdjust="spacing" textLength="154" x="1558" y="508.4688">include container_errors</text><text fill="#000000" font-family="sans-serif" font-size="14" lengthAdjust="spacing" textLength="167" x="1558" y="527.0898">include notice_no_request</text><text fill="#000000" font-family="sans-serif" font-size="14" lengthAdjust="spacing" textLength="194" x="1558" y="545.7109">include notice_no_permissions</text></g><!--class form_simple--><g id="elem_form_simple"><rect codeLine="79" fill="#F1F1F1" height="196.9688" id="form_simple" rx="2.5" ry="2.5" style="stroke:#181818;stroke-width:0.5;" width="206" x="1793" y="337.5137"/><ellipse cx="1853.75" cy="353.5137" fill="#ADD1B2" rx="11" ry="11" style="stroke:#181818;stroke-width:1.0;"/><path d="M1856.5156,349.3887 Q1856.6719,349.1699 1856.8594,349.0605 Q1857.0469,348.9512 1857.2656,348.9512 Q1857.6406,348.9512 1857.875,349.2168 Q1858.1094,349.4668 1858.1094,350.0762 L1858.1094,351.5293 Q1858.1094,352.1387 1857.875,352.4043 Q1857.6406,352.6699 1857.2656,352.6699 Q1856.9219,352.6699 1856.7188,352.4668 Q1856.5156,352.2793 1856.4063,351.7637 Q1856.3594,351.4043 1856.1719,351.2168 Q1855.8438,350.8418 1855.2344,350.623 Q1854.625,350.4043 1854,350.4043 Q1853.2344,350.4043 1852.5938,350.7324 Q1851.9688,351.0605 1851.4688,351.8105 Q1850.9844,352.5605 1850.9844,353.5918 L1850.9844,354.6855 Q1850.9844,355.9199 1851.875,356.748 Q1852.7656,357.5605 1854.3594,357.5605 Q1855.2969,357.5605 1855.9531,357.3105 Q1856.3438,357.1543 1856.7656,356.7168 Q1857.0313,356.4512 1857.1719,356.373 Q1857.3281,356.2949 1857.5313,356.2949 Q1857.8594,356.2949 1858.1094,356.5605 Q1858.375,356.8105 1858.375,357.1543 Q1858.375,357.498 1858.0313,357.9043 Q1857.5313,358.4824 1856.7344,358.8105 Q1855.6563,359.2637 1854.3594,359.2637 Q1852.8438,359.2637 1851.6406,358.6387 Q1850.6563,358.1387 1849.9688,357.0762 Q1849.2813,355.998 1849.2813,354.7168 L1849.2813,353.5605 Q1849.2813,352.2324 1849.8906,351.0918 Q1850.5156,349.9355 1851.6094,349.3262 Q1852.7031,348.7012 1853.9375,348.7012 Q1854.6719,348.7012 1855.3125,348.873 Q1855.9688,349.0293 1856.5156,349.3887 Z " fill="#000000"/><text fill="#000000" font-family="sans-serif" font-size="14" lengthAdjust="spacing" textLength="76" x="1874.25" y="359.3105">form_simple</text><line style="stroke:#181818;stroke-width:0.5;" x1="1794" x2="1998" y1="369.5137" y2="369.5137"/><text fill="#000000" font-family="sans-serif" font-size="14" lengthAdjust="spacing" textLength="22" x="1799" y="388.6211">title</text><text fill="#000000" font-family="sans-serif" font-size="14" lengthAdjust="spacing" textLength="29" x="1799" y="407.2422">style</text><text fill="#000000" font-family="sans-serif" font-size="14" lengthAdjust="spacing" textLength="41" x="1799" y="425.8633">scripts</text><text fill="#000000" font-family="sans-serif" font-size="14" lengthAdjust="spacing" textLength="47" x="1799" y="444.4844">content</text><line style="stroke:#181818;stroke-width:0.5;" x1="1794" x2="1998" y1="451.998" y2="451.998"/><text fill="#000000" font-family="sans-serif" font-size="14" lengthAdjust="spacing" textLength="75" x="1799" y="471.1055">extend style</text><text fill="#000000" font-family="sans-serif" font-size="14" lengthAdjust="spacing" textLength="87" x="1799" y="489.7266">extend scripts</text><text fill="#000000" font-family="sans-serif" font-size="14" lengthAdjust="spacing" textLength="154" x="1799" y="508.3477">include container_errors</text><text fill="#000000" font-family="sans-serif" font-size="14" lengthAdjust="spacing" textLength="194" x="1799" y="526.9688">include notice_no_permissions</text></g><!--class index--><g id="elem_index"><rect codeLine="90" fill="#F1F1F1" height="122.4844" id="index" rx="2.5" ry="2.5" style="stroke:#181818;stroke-width:0.5;" width="206" x="1070" y="375.0137"/><ellipse cx="1152.25" cy="391.0137" fill="#ADD1B2" rx="11" ry="11" style="stroke:#181818;stroke-width:1.0;"/><path d="M1155.0156,386.8887 Q1155.1719,386.6699 1155.3594,386.5605 Q1155.5469,386.4512 1155.7656,386.4512 Q1156.1406,386.4512 1156.375,386.7168 Q1156.6094,386.9668 1156.6094,387.5762 L1156.6094,389.0293 Q1156.6094,389.6387 1156.375,389.9043 Q1156.1406,390.1699 1155.7656,390.1699 Q1155.4219,390.1699 1155.2188,389.9668 Q1155.0156,389.7793 1154.9063,389.2637 Q1154.8594,388.9043 1154.6719,388.7168 Q1154.3438,388.3418 1153.7344,388.123 Q1153.125,387.9043 1152.5,387.9043 Q1151.7344,387.9043 1151.0938,388.2324 Q1150.4688,388.5605 1149.9688,389.3105 Q1149.4844,390.0605 1149.4844,391.0918 L1149.4844,392.1855 Q1149.4844,393.4199 1150.375,394.248 Q1151.2656,395.0605 1152.8594,395.0605 Q1153.7969,395.0605 1154.4531,394.8105 Q1154.8438,394.6543 1155.2656,394.2168 Q1155.5313,393.9512 1155.6719,393.873 Q1155.8281,393.7949 1156.0313,393.7949 Q1156.3594,393.7949 1156.6094,394.0605 Q1156.875,394.3105 1156.875,394.6543 Q1156.875,394.998 1156.5313,395.4043 Q1156.0313,395.9824 1155.2344,396.3105 Q1154.1563,396.7637 1152.8594,396.7637 Q1151.3438,396.7637 1150.1406,396.1387 Q1149.1563,395.6387 1148.4688,394.5762 Q1147.7813,393.498 1147.7813,392.2168 L1147.7813,391.0605 Q1147.7813,389.7324 1148.3906,388.5918 Q1149.0156,387.4355 1150.1094,386.8262 Q1151.2031,386.2012 1152.4375,386.2012 Q1153.1719,386.2012 1153.8125,386.373 Q1154.4688,386.5293 1155.0156,386.8887 Z " fill="#000000"/><text fill="#000000" font-family="sans-serif" font-size="14" lengthAdjust="spacing" textLength="33" x="1172.75" y="396.8105">index</text><line style="stroke:#181818;stroke-width:0.5;" x1="1071" x2="1275" y1="407.0137" y2="407.0137"/><text fill="#000000" font-family="sans-serif" font-size="14" lengthAdjust="spacing" textLength="22" x="1076" y="426.1211">title</text><text fill="#000000" font-family="sans-serif" font-size="14" lengthAdjust="spacing" textLength="47" x="1076" y="444.7422">content</text><line style="stroke:#181818;stroke-width:0.5;" x1="1071" x2="1275" y1="452.2559" y2="452.2559"/><text fill="#000000" font-family="sans-serif" font-size="14" lengthAdjust="spacing" textLength="180" x="1076" y="471.3633">include container_messages</text><text fill="#000000" font-family="sans-serif" font-size="14" lengthAdjust="spacing" textLength="194" x="1076" y="489.9844">include notice_no_permissions</text></g><!--class map_filters_cleanupeventrequest--><g id="elem_map_filters_cleanupeventrequest"><rect codeLine="97" fill="#F1F1F1" height="48" id="map_filters_cleanupeventrequest" rx="2.5" ry="2.5" style="stroke:#181818;stroke-width:0.5;" width="242" x="2538" y="613.0137"/><ellipse cx="2553" cy="629.0137" fill="#ADD1B2" rx="11" ry="11" style="stroke:#181818;stroke-width:1.0;"/><path d="M2555.7656,624.8887 Q2555.9219,624.6699 2556.1094,624.5605 Q2556.2969,624.4512 2556.5156,624.4512 Q2556.8906,624.4512 2557.125,624.7168 Q2557.3594,624.9668 2557.3594,625.5762 L2557.3594,627.0293 Q2557.3594,627.6387 2557.125,627.9043 Q2556.8906,628.1699 2556.5156,628.1699 Q2556.1719,628.1699 2555.9688,627.9668 Q2555.7656,627.7793 2555.6563,627.2637 Q2555.6094,626.9043 2555.4219,626.7168 Q2555.0938,626.3418 2554.4844,626.123 Q2553.875,625.9043 2553.25,625.9043 Q2552.4844,625.9043 2551.8438,626.2324 Q2551.2188,626.5605 2550.7188,627.3105 Q2550.2344,628.0605 2550.2344,629.0918 L2550.2344,630.1855 Q2550.2344,631.4199 2551.125,632.248 Q2552.0156,633.0605 2553.6094,633.0605 Q2554.5469,633.0605 2555.2031,632.8105 Q2555.5938,632.6543 2556.0156,632.2168 Q2556.2813,631.9512 2556.4219,631.873 Q2556.5781,631.7949 2556.7813,631.7949 Q2557.1094,631.7949 2557.3594,632.0605 Q2557.625,632.3105 2557.625,632.6543 Q2557.625,632.998 2557.2813,633.4043 Q2556.7813,633.9824 2555.9844,634.3105 Q2554.9063,634.7637 2553.6094,634.7637 Q2552.0938,634.7637 2550.8906,634.1387 Q2549.9063,633.6387 2549.2188,632.5762 Q2548.5313,631.498 2548.5313,630.2168 L2548.5313,629.0605 Q2548.5313,627.7324 2549.1406,626.5918 Q2549.7656,625.4355 2550.8594,624.8262 Q2551.9531,624.2012 2553.1875,624.2012 Q2553.9219,624.2012 2554.5625,624.373 Q2555.2188,624.5293 2555.7656,624.8887 Z " fill="#000000"/><text fill="#000000" font-family="sans-serif" font-size="14" lengthAdjust="spacing" textLength="210" x="2567" y="634.8105">map_filters_cleanupeventrequest</text><line style="stroke:#181818;stroke-width:0.5;" x1="2539" x2="2779" y1="645.0137" y2="645.0137"/><line style="stroke:#181818;stroke-width:0.5;" x1="2539" x2="2779" y1="653.0137" y2="653.0137"/></g><!--class map_request--><g id="elem_map_request"><rect codeLine="99" fill="#F1F1F1" height="215.5898" id="map_request" rx="2.5" ry="2.5" style="stroke:#181818;stroke-width:0.5;" width="271" x="2523.5" y="328.0137"/><ellipse cx="2613.25" cy="344.0137" fill="#ADD1B2" rx="11" ry="11" style="stroke:#181818;stroke-width:1.0;"/><path d="M2616.0156,339.8887 Q2616.1719,339.6699 2616.3594,339.5605 Q2616.5469,339.4512 2616.7656,339.4512 Q2617.1406,339.4512 2617.375,339.7168 Q2617.6094,339.9668 2617.6094,340.5762 L2617.6094,342.0293 Q2617.6094,342.6387 2617.375,342.9043 Q2617.1406,343.1699 2616.7656,343.1699 Q2616.4219,343.1699 2616.2188,342.9668 Q2616.0156,342.7793 2615.9063,342.2637 Q2615.8594,341.9043 2615.6719,341.7168 Q2615.3438,341.3418 2614.7344,341.123 Q2614.125,340.9043 2613.5,340.9043 Q2612.7344,340.9043 2612.0938,341.2324 Q2611.4688,341.5605 2610.9688,342.3105 Q2610.4844,343.0605 2610.4844,344.0918 L2610.4844,345.1855 Q2610.4844,346.4199 2611.375,347.248 Q2612.2656,348.0605 2613.8594,348.0605 Q2614.7969,348.0605 2615.4531,347.8105 Q2615.8438,347.6543 2616.2656,347.2168 Q2616.5313,346.9512 2616.6719,346.873 Q2616.8281,346.7949 2617.0313,346.7949 Q2617.3594,346.7949 2617.6094,347.0605 Q2617.875,347.3105 2617.875,347.6543 Q2617.875,347.998 2617.5313,348.4043 Q2617.0313,348.9824 2616.2344,349.3105 Q2615.1563,349.7637 2613.8594,349.7637 Q2612.3438,349.7637 2611.1406,349.1387 Q2610.1563,348.6387 2609.4688,347.5762 Q2608.7813,346.498 2608.7813,345.2168 L2608.7813,344.0605 Q2608.7813,342.7324 2609.3906,341.5918 Q2610.0156,340.4355 2611.1094,339.8262 Q2612.2031,339.2012 2613.4375,339.2012 Q2614.1719,339.2012 2614.8125,339.373 Q2615.4688,339.5293 2616.0156,339.8887 Z " fill="#000000"/><text fill="#000000" font-family="sans-serif" font-size="14" lengthAdjust="spacing" textLength="83" x="2633.75" y="349.8105">map_request</text><line style="stroke:#181818;stroke-width:0.5;" x1="2524.5" x2="2793.5" y1="360.0137" y2="360.0137"/><text fill="#000000" font-family="sans-serif" font-size="14" lengthAdjust="spacing" textLength="22" x="2529.5" y="379.1211">title</text><text fill="#000000" font-family="sans-serif" font-size="14" lengthAdjust="spacing" textLength="29" x="2529.5" y="397.7422">style</text><text fill="#000000" font-family="sans-serif" font-size="14" lengthAdjust="spacing" textLength="41" x="2529.5" y="416.3633">scripts</text><text fill="#000000" font-family="sans-serif" font-size="14" lengthAdjust="spacing" textLength="47" x="2529.5" y="434.9844">content</text><line style="stroke:#181818;stroke-width:0.5;" x1="2524.5" x2="2793.5" y1="442.498" y2="442.498"/><text fill="#000000" font-family="sans-serif" font-size="14" lengthAdjust="spacing" textLength="75" x="2529.5" y="461.6055">extend style</text><text fill="#000000" font-family="sans-serif" font-size="14" lengthAdjust="spacing" textLength="87" x="2529.5" y="480.2266">extend scripts</text><text fill="#000000" font-family="sans-serif" font-size="14" lengthAdjust="spacing" textLength="180" x="2529.5" y="498.8477">include container_messages</text><text fill="#000000" font-family="sans-serif" font-size="14" lengthAdjust="spacing" textLength="259" x="2529.5" y="517.4688">include map_filters_cleanupeventrequest</text><text fill="#000000" font-family="sans-serif" font-size="14" lengthAdjust="spacing" textLength="194" x="2529.5" y="536.0898">include notice_no_permissions</text></g><!--class notice_no_contact_data--><g id="elem_notice_no_contact_data"><rect codeLine="111" fill="#F1F1F1" height="48" id="notice_no_contact_data" rx="2.5" ry="2.5" style="stroke:#181818;stroke-width:0.5;" width="184" x="2290" y="613.0137"/><ellipse cx="2305" cy="629.0137" fill="#ADD1B2" rx="11" ry="11" style="stroke:#181818;stroke-width:1.0;"/><path d="M2307.7656,624.8887 Q2307.9219,624.6699 2308.1094,624.5605 Q2308.2969,624.4512 2308.5156,624.4512 Q2308.8906,624.4512 2309.125,624.7168 Q2309.3594,624.9668 2309.3594,625.5762 L2309.3594,627.0293 Q2309.3594,627.6387 2309.125,627.9043 Q2308.8906,628.1699 2308.5156,628.1699 Q2308.1719,628.1699 2307.9688,627.9668 Q2307.7656,627.7793 2307.6563,627.2637 Q2307.6094,626.9043 2307.4219,626.7168 Q2307.0938,626.3418 2306.4844,626.123 Q2305.875,625.9043 2305.25,625.9043 Q2304.4844,625.9043 2303.8438,626.2324 Q2303.2188,626.5605 2302.7188,627.3105 Q2302.2344,628.0605 2302.2344,629.0918 L2302.2344,630.1855 Q2302.2344,631.4199 2303.125,632.248 Q2304.0156,633.0605 2305.6094,633.0605 Q2306.5469,633.0605 2307.2031,632.8105 Q2307.5938,632.6543 2308.0156,632.2168 Q2308.2813,631.9512 2308.4219,631.873 Q2308.5781,631.7949 2308.7813,631.7949 Q2309.1094,631.7949 2309.3594,632.0605 Q2309.625,632.3105 2309.625,632.6543 Q2309.625,632.998 2309.2813,633.4043 Q2308.7813,633.9824 2307.9844,634.3105 Q2306.9063,634.7637 2305.6094,634.7637 Q2304.0938,634.7637 2302.8906,634.1387 Q2301.9063,633.6387 2301.2188,632.5762 Q2300.5313,631.498 2300.5313,630.2168 L2300.5313,629.0605 Q2300.5313,627.7324 2301.1406,626.5918 Q2301.7656,625.4355 2302.8594,624.8262 Q2303.9531,624.2012 2305.1875,624.2012 Q2305.9219,624.2012 2306.5625,624.373 Q2307.2188,624.5293 2307.7656,624.8887 Z " fill="#000000"/><text fill="#000000" font-family="sans-serif" font-size="14" lengthAdjust="spacing" textLength="152" x="2319" y="634.8105">notice_no_contact_data</text><line style="stroke:#181818;stroke-width:0.5;" x1="2291" x2="2473" y1="645.0137" y2="645.0137"/><line style="stroke:#181818;stroke-width:0.5;" x1="2291" x2="2473" y1="653.0137" y2="653.0137"/></g><!--class notice_no_permissions--><g id="elem_notice_no_permissions"><rect codeLine="112" fill="#F1F1F1" height="48" id="notice_no_permissions" rx="2.5" ry="2.5" style="stroke:#181818;stroke-width:0.5;" width="177" x="1566.5" y="613.0137"/><ellipse cx="1581.5" cy="629.0137" fill="#ADD1B2" rx="11" ry="11" style="stroke:#181818;stroke-width:1.0;"/><path d="M1584.2656,624.8887 Q1584.4219,624.6699 1584.6094,624.5605 Q1584.7969,624.4512 1585.0156,624.4512 Q1585.3906,624.4512 1585.625,624.7168 Q1585.8594,624.9668 1585.8594,625.5762 L1585.8594,627.0293 Q1585.8594,627.6387 1585.625,627.9043 Q1585.3906,628.1699 1585.0156,628.1699 Q1584.6719,628.1699 1584.4688,627.9668 Q1584.2656,627.7793 1584.1563,627.2637 Q1584.1094,626.9043 1583.9219,626.7168 Q1583.5938,626.3418 1582.9844,626.123 Q1582.375,625.9043 1581.75,625.9043 Q1580.9844,625.9043 1580.3438,626.2324 Q1579.7188,626.5605 1579.2188,627.3105 Q1578.7344,628.0605 1578.7344,629.0918 L1578.7344,630.1855 Q1578.7344,631.4199 1579.625,632.248 Q1580.5156,633.0605 1582.1094,633.0605 Q1583.0469,633.0605 1583.7031,632.8105 Q1584.0938,632.6543 1584.5156,632.2168 Q1584.7813,631.9512 1584.9219,631.873 Q1585.0781,631.7949 1585.2813,631.7949 Q1585.6094,631.7949 1585.8594,632.0605 Q1586.125,632.3105 1586.125,632.6543 Q1586.125,632.998 1585.7813,633.4043 Q1585.2813,633.9824 1584.4844,634.3105 Q1583.4063,634.7637 1582.1094,634.7637 Q1580.5938,634.7637 1579.3906,634.1387 Q1578.4063,633.6387 1577.7188,632.5762 Q1577.0313,631.498 1577.0313,630.2168 L1577.0313,629.0605 Q1577.0313,627.7324 1577.6406,626.5918 Q1578.2656,625.4355 1579.3594,624.8262 Q1580.4531,624.2012 1581.6875,624.2012 Q1582.4219,624.2012 1583.0625,624.373 Q1583.7188,624.5293 1584.2656,624.8887 Z " fill="#000000"/><text fill="#000000" font-family="sans-serif" font-size="14" lengthAdjust="spacing" textLength="145" x="1595.5" y="634.8105">notice_no_permissions</text><line style="stroke:#181818;stroke-width:0.5;" x1="1567.5" x2="1742.5" y1="645.0137" y2="645.0137"/><line style="stroke:#181818;stroke-width:0.5;" x1="1567.5" x2="1742.5" y1="653.0137" y2="653.0137"/></g><!--class notice_no_request--><g id="elem_notice_no_request"><rect codeLine="113" fill="#F1F1F1" height="48" id="notice_no_request" rx="2.5" ry="2.5" style="stroke:#181818;stroke-width:0.5;" width="150" x="1360" y="613.0137"/><ellipse cx="1375" cy="629.0137" fill="#ADD1B2" rx="11" ry="11" style="stroke:#181818;stroke-width:1.0;"/><path d="M1377.7656,624.8887 Q1377.9219,624.6699 1378.1094,624.5605 Q1378.2969,624.4512 1378.5156,624.4512 Q1378.8906,624.4512 1379.125,624.7168 Q1379.3594,624.9668 1379.3594,625.5762 L1379.3594,627.0293 Q1379.3594,627.6387 1379.125,627.9043 Q1378.8906,628.1699 1378.5156,628.1699 Q1378.1719,628.1699 1377.9688,627.9668 Q1377.7656,627.7793 1377.6563,627.2637 Q1377.6094,626.9043 1377.4219,626.7168 Q1377.0938,626.3418 1376.4844,626.123 Q1375.875,625.9043 1375.25,625.9043 Q1374.4844,625.9043 1373.8438,626.2324 Q1373.2188,626.5605 1372.7188,627.3105 Q1372.2344,628.0605 1372.2344,629.0918 L1372.2344,630.1855 Q1372.2344,631.4199 1373.125,632.248 Q1374.0156,633.0605 1375.6094,633.0605 Q1376.5469,633.0605 1377.2031,632.8105 Q1377.5938,632.6543 1378.0156,632.2168 Q1378.2813,631.9512 1378.4219,631.873 Q1378.5781,631.7949 1378.7813,631.7949 Q1379.1094,631.7949 1379.3594,632.0605 Q1379.625,632.3105 1379.625,632.6543 Q1379.625,632.998 1379.2813,633.4043 Q1378.7813,633.9824 1377.9844,634.3105 Q1376.9063,634.7637 1375.6094,634.7637 Q1374.0938,634.7637 1372.8906,634.1387 Q1371.9063,633.6387 1371.2188,632.5762 Q1370.5313,631.498 1370.5313,630.2168 L1370.5313,629.0605 Q1370.5313,627.7324 1371.1406,626.5918 Q1371.7656,625.4355 1372.8594,624.8262 Q1373.9531,624.2012 1375.1875,624.2012 Q1375.9219,624.2012 1376.5625,624.373 Q1377.2188,624.5293 1377.7656,624.8887 Z " fill="#000000"/><text fill="#000000" font-family="sans-serif" font-size="14" lengthAdjust="spacing" textLength="118" x="1389" y="634.8105">notice_no_request</text><line style="stroke:#181818;stroke-width:0.5;" x1="1361" x2="1509" y1="645.0137" y2="645.0137"/><line style="stroke:#181818;stroke-width:0.5;" x1="1361" x2="1509" y1="653.0137" y2="653.0137"/></g><!--class table_request--><g id="elem_table_request"><rect codeLine="115" fill="#F1F1F1" height="215.5898" id="table_request" rx="2.5" ry="2.5" style="stroke:#181818;stroke-width:0.5;" width="216" x="568" y="328.0137"/><ellipse cx="628.25" cy="344.0137" fill="#ADD1B2" rx="11" ry="11" style="stroke:#181818;stroke-width:1.0;"/><path d="M631.0156,339.8887 Q631.1719,339.6699 631.3594,339.5605 Q631.5469,339.4512 631.7656,339.4512 Q632.1406,339.4512 632.375,339.7168 Q632.6094,339.9668 632.6094,340.5762 L632.6094,342.0293 Q632.6094,342.6387 632.375,342.9043 Q632.1406,343.1699 631.7656,343.1699 Q631.4219,343.1699 631.2188,342.9668 Q631.0156,342.7793 630.9063,342.2637 Q630.8594,341.9043 630.6719,341.7168 Q630.3438,341.3418 629.7344,341.123 Q629.125,340.9043 628.5,340.9043 Q627.7344,340.9043 627.0938,341.2324 Q626.4688,341.5605 625.9688,342.3105 Q625.4844,343.0605 625.4844,344.0918 L625.4844,345.1855 Q625.4844,346.4199 626.375,347.248 Q627.2656,348.0605 628.8594,348.0605 Q629.7969,348.0605 630.4531,347.8105 Q630.8438,347.6543 631.2656,347.2168 Q631.5313,346.9512 631.6719,346.873 Q631.8281,346.7949 632.0313,346.7949 Q632.3594,346.7949 632.6094,347.0605 Q632.875,347.3105 632.875,347.6543 Q632.875,347.998 632.5313,348.4043 Q632.0313,348.9824 631.2344,349.3105 Q630.1563,349.7637 628.8594,349.7637 Q627.3438,349.7637 626.1406,349.1387 Q625.1563,348.6387 624.4688,347.5762 Q623.7813,346.498 623.7813,345.2168 L623.7813,344.0605 Q623.7813,342.7324 624.3906,341.5918 Q625.0156,340.4355 626.1094,339.8262 Q627.2031,339.2012 628.4375,339.2012 Q629.1719,339.2012 629.8125,339.373 Q630.4688,339.5293 631.0156,339.8887 Z " fill="#000000"/><text fill="#000000" font-family="sans-serif" font-size="14" lengthAdjust="spacing" textLength="87" x="648.75" y="349.8105">table_request</text><line style="stroke:#181818;stroke-width:0.5;" x1="569" x2="783" y1="360.0137" y2="360.0137"/><text fill="#000000" font-family="sans-serif" font-size="14" lengthAdjust="spacing" textLength="22" x="574" y="379.1211">title</text><text fill="#000000" font-family="sans-serif" font-size="14" lengthAdjust="spacing" textLength="29" x="574" y="397.7422">style</text><text fill="#000000" font-family="sans-serif" font-size="14" lengthAdjust="spacing" textLength="41" x="574" y="416.3633">scripts</text><text fill="#000000" font-family="sans-serif" font-size="14" lengthAdjust="spacing" textLength="47" x="574" y="434.9844">content</text><line style="stroke:#181818;stroke-width:0.5;" x1="569" x2="783" y1="442.498" y2="442.498"/><text fill="#000000" font-family="sans-serif" font-size="14" lengthAdjust="spacing" textLength="75" x="574" y="461.6055">extend style</text><text fill="#000000" font-family="sans-serif" font-size="14" lengthAdjust="spacing" textLength="87" x="574" y="480.2266">extend scripts</text><text fill="#000000" font-family="sans-serif" font-size="14" lengthAdjust="spacing" textLength="180" x="574" y="498.8477">include container_messages</text><text fill="#000000" font-family="sans-serif" font-size="14" lengthAdjust="spacing" textLength="204" x="574" y="517.4688">include container_table_warning</text><text fill="#000000" font-family="sans-serif" font-size="14" lengthAdjust="spacing" textLength="194" x="574" y="536.0898">include notice_no_permissions</text></g><!--class table_simple--><g id="elem_table_simple"><rect codeLine="127" fill="#F1F1F1" height="215.5898" id="table_simple" rx="2.5" ry="2.5" style="stroke:#181818;stroke-width:0.5;" width="216" x="819" y="328.0137"/><ellipse cx="883.25" cy="344.0137" fill="#ADD1B2" rx="11" ry="11" style="stroke:#181818;stroke-width:1.0;"/><path d="M886.0156,339.8887 Q886.1719,339.6699 886.3594,339.5605 Q886.5469,339.4512 886.7656,339.4512 Q887.1406,339.4512 887.375,339.7168 Q887.6094,339.9668 887.6094,340.5762 L887.6094,342.0293 Q887.6094,342.6387 887.375,342.9043 Q887.1406,343.1699 886.7656,343.1699 Q886.4219,343.1699 886.2188,342.9668 Q886.0156,342.7793 885.9063,342.2637 Q885.8594,341.9043 885.6719,341.7168 Q885.3438,341.3418 884.7344,341.123 Q884.125,340.9043 883.5,340.9043 Q882.7344,340.9043 882.0938,341.2324 Q881.4688,341.5605 880.9688,342.3105 Q880.4844,343.0605 880.4844,344.0918 L880.4844,345.1855 Q880.4844,346.4199 881.375,347.248 Q882.2656,348.0605 883.8594,348.0605 Q884.7969,348.0605 885.4531,347.8105 Q885.8438,347.6543 886.2656,347.2168 Q886.5313,346.9512 886.6719,346.873 Q886.8281,346.7949 887.0313,346.7949 Q887.3594,346.7949 887.6094,347.0605 Q887.875,347.3105 887.875,347.6543 Q887.875,347.998 887.5313,348.4043 Q887.0313,348.9824 886.2344,349.3105 Q885.1563,349.7637 883.8594,349.7637 Q882.3438,349.7637 881.1406,349.1387 Q880.1563,348.6387 879.4688,347.5762 Q878.7813,346.498 878.7813,345.2168 L878.7813,344.0605 Q878.7813,342.7324 879.3906,341.5918 Q880.0156,340.4355 881.1094,339.8262 Q882.2031,339.2012 883.4375,339.2012 Q884.1719,339.2012 884.8125,339.373 Q885.4688,339.5293 886.0156,339.8887 Z " fill="#000000"/><text fill="#000000" font-family="sans-serif" font-size="14" lengthAdjust="spacing" textLength="79" x="903.75" y="349.8105">table_simple</text><line style="stroke:#181818;stroke-width:0.5;" x1="820" x2="1034" y1="360.0137" y2="360.0137"/><text fill="#000000" font-family="sans-serif" font-size="14" lengthAdjust="spacing" textLength="22" x="825" y="379.1211">title</text><text fill="#000000" font-family="sans-serif" font-size="14" lengthAdjust="spacing" textLength="29" x="825" y="397.7422">style</text><text fill="#000000" font-family="sans-serif" font-size="14" lengthAdjust="spacing" textLength="41" x="825" y="416.3633">scripts</text><text fill="#000000" font-family="sans-serif" font-size="14" lengthAdjust="spacing" textLength="47" x="825" y="434.9844">content</text><line style="stroke:#181818;stroke-width:0.5;" x1="820" x2="1034" y1="442.498" y2="442.498"/><text fill="#000000" font-family="sans-serif" font-size="14" lengthAdjust="spacing" textLength="75" x="825" y="461.6055">extend style</text><text fill="#000000" font-family="sans-serif" font-size="14" lengthAdjust="spacing" textLength="87" x="825" y="480.2266">extend scripts</text><text fill="#000000" font-family="sans-serif" font-size="14" lengthAdjust="spacing" textLength="180" x="825" y="498.8477">include container_messages</text><text fill="#000000" font-family="sans-serif" font-size="14" lengthAdjust="spacing" textLength="204" x="825" y="517.4688">include container_table_warning</text><text fill="#000000" font-family="sans-serif" font-size="14" lengthAdjust="spacing" textLength="194" x="825" y="536.0898">include notice_no_permissions</text></g><!--class container_table_warning--><g id="elem_container_table_warning"><rect fill="#F1F1F1" height="48" id="container_table_warning" rx="2.5" ry="2.5" style="stroke:#181818;stroke-width:0.5;" width="187" x="707.5" y="613.0137"/><ellipse cx="722.5" cy="629.0137" fill="#ADD1B2" rx="11" ry="11" style="stroke:#181818;stroke-width:1.0;"/><path d="M725.2656,624.8887 Q725.4219,624.6699 725.6094,624.5605 Q725.7969,624.4512 726.0156,624.4512 Q726.3906,624.4512 726.625,624.7168 Q726.8594,624.9668 726.8594,625.5762 L726.8594,627.0293 Q726.8594,627.6387 726.625,627.9043 Q726.3906,628.1699 726.0156,628.1699 Q725.6719,628.1699 725.4688,627.9668 Q725.2656,627.7793 725.1563,627.2637 Q725.1094,626.9043 724.9219,626.7168 Q724.5938,626.3418 723.9844,626.123 Q723.375,625.9043 722.75,625.9043 Q721.9844,625.9043 721.3438,626.2324 Q720.7188,626.5605 720.2188,627.3105 Q719.7344,628.0605 719.7344,629.0918 L719.7344,630.1855 Q719.7344,631.4199 720.625,632.248 Q721.5156,633.0605 723.1094,633.0605 Q724.0469,633.0605 724.7031,632.8105 Q725.0938,632.6543 725.5156,632.2168 Q725.7813,631.9512 725.9219,631.873 Q726.0781,631.7949 726.2813,631.7949 Q726.6094,631.7949 726.8594,632.0605 Q727.125,632.3105 727.125,632.6543 Q727.125,632.998 726.7813,633.4043 Q726.2813,633.9824 725.4844,634.3105 Q724.4063,634.7637 723.1094,634.7637 Q721.5938,634.7637 720.3906,634.1387 Q719.4063,633.6387 718.7188,632.5762 Q718.0313,631.498 718.0313,630.2168 L718.0313,629.0605 Q718.0313,627.7324 718.6406,626.5918 Q719.2656,625.4355 720.3594,624.8262 Q721.4531,624.2012 722.6875,624.2012 Q723.4219,624.2012 724.0625,624.373 Q724.7188,624.5293 725.2656,624.8887 Z " fill="#000000"/><text fill="#000000" font-family="sans-serif" font-size="14" lengthAdjust="spacing" textLength="155" x="736.5" y="634.8105">container_table_warning</text><line style="stroke:#181818;stroke-width:0.5;" x1="708.5" x2="893.5" y1="645.0137" y2="645.0137"/><line style="stroke:#181818;stroke-width:0.5;" x1="708.5" x2="893.5" y1="653.0137" y2="653.0137"/></g><!--link base to navbar_html--><g id="link_base_navbar_html"><path codeLine="140" d="M364.81,259.0237 C367.63,264.0637 370.37,269.0737 373,274.0137 C396.04,317.3737 416.4787,363.8909 430.2987,396.8309 " fill="none" id="base-to-navbar_html" style="stroke:#181818;stroke-width:1.0;stroke-dasharray:7.0,7.0;"/><polygon fill="#181818" points="432.62,402.3637,432.8266,392.517,430.6856,397.753,425.4496,395.612,432.62,402.3637" style="stroke:#181818;stroke-width:1.0;"/></g><!--reverse link base to index--><g id="link_base_index"><path codeLine="141" d="M265.8047,276.8333 C253.7447,323.5933 244.82,358.1937 235.73,393.4037 " fill="none" id="base-backto-index" style="stroke:#181818;stroke-width:1.0;"/><polygon fill="none" points="270.3,259.4037,259.9948,275.3349,271.6146,278.3317,270.3,259.4037" style="stroke:#181818;stroke-width:1.0;"/></g><!--reverse link base to error--><g id="link_base_error"><path codeLine="142" d="M309.5145,277.3284 C313.8045,324.0884 316.94,358.1937 320.18,393.4037 " fill="none" id="base-backto-error" style="stroke:#181818;stroke-width:1.0;"/><polygon fill="none" points="307.87,259.4037,303.5396,277.8766,315.4894,276.7802,307.87,259.4037" style="stroke:#181818;stroke-width:1.0;"/></g><!--reverse link base to decision--><g id="link_base_decision"><path codeLine="144" d="M382.2423,259.173 C387.7023,263.203 378.97,256.0837 385,259.0137 C430.43,281.0837 1249.05,250.9837 1294,274.0137 C1328.6,291.7337 1355.82,324.5637 1375.53,355.9737 " fill="none" id="base-backto-decision" style="stroke:#181818;stroke-width:1.0;"/><polygon fill="none" points="367.76,248.4837,378.6792,264.0005,385.8054,254.3456,367.76,248.4837" style="stroke:#181818;stroke-width:1.0;"/></g><!--reverse link base to delete--><g id="link_base_delete"><path codeLine="145" d="M382.2343,259.1932 C387.7043,263.2132 378.96,256.1037 385,259.0137 C466.7,298.3437 1936.15,232.9737 2017,274.0137 C2058.81,295.2337 2089.81,338.6037 2109.82,374.9837 " fill="none" id="base-backto-delete" style="stroke:#181818;stroke-width:1.0;"/><polygon fill="none" points="367.73,248.5337,378.6812,264.0279,385.7875,254.3584,367.73,248.5337" style="stroke:#181818;stroke-width:1.0;"/></g><!--reverse link base to form_request--><g id="link_base_form_request"><path codeLine="146" d="M382.2343,259.2032 C387.7043,263.2232 378.96,256.1137 385,259.0137 C431.89,281.5537 2211.41,250.8537 2258,274.0137 C2282.8,286.3437 2304.05,306.2437 2321.6,327.9237 " fill="none" id="base-backto-form_request" style="stroke:#181818;stroke-width:1.0;"/><polygon fill="none" points="367.73,248.5437,378.6812,264.0379,385.7875,254.3684,367.73,248.5437" style="stroke:#181818;stroke-width:1.0;"/></g><!--reverse link base to form_request_followup--><g id="link_base_form_request_followup"><path codeLine="147" d="M382.2323,259.193 C387.6923,263.223 378.97,256.0937 385,259.0137 C442.52,286.8437 1478.08,244.9837 1535,274.0137 C1555.81,284.6237 1573.94,300.7137 1589.38,318.6837 " fill="none" id="base-backto-form_request_followup" style="stroke:#181818;stroke-width:1.0;"/><polygon fill="none" points="367.75,248.5037,378.6692,264.0205,385.7954,254.3656,367.75,248.5037" style="stroke:#181818;stroke-width:1.0;"/></g><!--reverse link base to form_simple--><g id="link_base_form_simple"><path codeLine="148" d="M382.235,259.1958 C387.695,263.2158 378.96,256.1037 385,259.0137 C454.61,292.5937 1707.12,238.9737 1776,274.0137 C1803.81,288.1637 1826.84,312.0937 1845.04,337.2437 " fill="none" id="base-backto-form_simple" style="stroke:#181818;stroke-width:1.0;"/><polygon fill="none" points="367.74,248.5237,378.6776,264.0275,385.7924,254.3642,367.74,248.5237" style="stroke:#181818;stroke-width:1.0;"/></g><!--reverse link base to index--><g id="link_base_index"><path codeLine="149" d="M382.2403,259.1628 C387.6903,263.2028 378.98,256.0637 385,259.0137 C451.68,291.6637 987.02,239.9737 1053,274.0137 C1094.51,295.4337 1125.45,338.5437 1145.5,374.7637 " fill="none" id="base-backto-index-1" style="stroke:#181818;stroke-width:1.0;"/><polygon fill="none" points="367.78,248.4437,378.6672,263.9829,385.8133,254.3428,367.78,248.4437" style="stroke:#181818;stroke-width:1.0;"/></g><!--reverse link base to map_request--><g id="link_base_map_request"><path codeLine="150" d="M382.237,259.1959 C387.707,263.2059 378.96,256.1137 385,259.0137 C438.11,284.5137 2451.94,250.5837 2506,274.0137 C2533.95,286.1237 2559.22,306.0937 2580.8,327.9237 " fill="none" id="base-backto-map_request" style="stroke:#181818;stroke-width:1.0;"/><polygon fill="none" points="367.72,248.5537,378.6896,264.0349,385.7844,254.3569,367.72,248.5537" style="stroke:#181818;stroke-width:1.0;"/></g><!--reverse link base to table_request--><g id="link_base_table_request"><path codeLine="151" d="M381.652,258.5267 C387.212,262.8967 378.89,255.7037 385,259.0137 C441.19,289.4437 470.91,245.3037 528,274.0137 C553.95,287.0637 577.6,306.6937 598.02,327.8037 " fill="none" id="base-backto-table_request" style="stroke:#181818;stroke-width:1.0;"/><polygon fill="none" points="367.5,247.4037,377.9443,263.244,385.3596,253.8094,367.5,247.4037" style="stroke:#181818;stroke-width:1.0;"/></g><!--reverse link base to table_simple--><g id="link_base_table_simple"><path codeLine="152" d="M381.9238,258.932 C387.4638,263.092 378.89,255.9737 385,259.0137 C468,300.3537 719.47,231.7437 802,274.0137 C826.57,286.5937 847.77,306.4537 865.37,327.9937 " fill="none" id="base-backto-table_simple" style="stroke:#181818;stroke-width:1.0;"/><polygon fill="none" points="367.53,248.1237,378.321,263.7299,385.5265,254.1341,367.53,248.1237" style="stroke:#181818;stroke-width:1.0;"/></g><!--link decision to container_messages--><g id="link_decision_container_messages"><path codeLine="155" d="M1335.68,516.3237 C1322.13,528.9837 1307.91,541.6537 1294,553.0137 C1267.17,574.9237 1239.7292,593.7269 1215.1892,609.5869 " fill="none" id="decision-to-container_messages" style="stroke:#181818;stroke-width:1.0;stroke-dasharray:7.0,7.0;"/><polygon fill="#181818" points="1210.15,612.8437,1219.88,611.318,1214.3493,610.1297,1215.5376,604.599,1210.15,612.8437" style="stroke:#181818;stroke-width:1.0;"/></g><!--link decision to container_errors--><g id="link_decision_container_errors"><path codeLine="156" d="M1484.09,516.1137 C1499.66,530.0837 1516.95,543.2637 1535,553.0137 C1584.87,579.9437 1731.2677,608.1115 1821.3277,623.6815 " fill="none" id="decision-to-container_errors" style="stroke:#181818;stroke-width:1.0;stroke-dasharray:7.0,7.0;"/><polygon fill="#181818" points="1827.24,624.7037,1819.053,619.2289,1822.3131,623.8519,1817.6901,627.112,1827.24,624.7037" style="stroke:#181818;stroke-width:1.0;"/></g><!--link decision to notice_no_request--><g id="link_decision_notice_no_request"><path codeLine="157" d="M1422.36,516.2337 C1426.02,550.9237 1429.4108,583.0667 1431.9108,606.7767 " fill="none" id="decision-to-notice_no_request" style="stroke:#181818;stroke-width:1.0;stroke-dasharray:7.0,7.0;"/><polygon fill="#181818" points="1432.54,612.7437,1435.5742,603.3739,1432.0157,607.7712,1427.6183,604.2127,1432.54,612.7437" style="stroke:#181818;stroke-width:1.0;"/></g><!--link decision to notice_no_permissions--><g id="link_decision_notice_no_permissions"><path codeLine="158" d="M1493.07,516.2337 C1506.72,528.9137 1521.02,541.6037 1535,553.0137 C1561.78,574.8837 1589.0965,593.7427 1613.4565,609.6527 " fill="none" id="decision-to-notice_no_permissions" style="stroke:#181818;stroke-width:1.0;stroke-dasharray:7.0,7.0;"/><polygon fill="#181818" points="1618.48,612.9337,1613.1321,604.6633,1614.2938,610.1996,1608.7575,611.3613,1618.48,612.9337" style="stroke:#181818;stroke-width:1.0;"/></g><!--link delete to container_errors--><g id="link_delete_container_errors"><path codeLine="159" d="M2078.69,497.1837 C2059.65,515.7837 2037.98,535.8737 2017,553.0137 C1990.17,574.9237 1962.7292,593.7269 1938.1892,609.5869 " fill="none" id="delete-to-container_errors" style="stroke:#181818;stroke-width:1.0;stroke-dasharray:7.0,7.0;"/><polygon fill="#181818" points="1933.15,612.8437,1942.88,611.318,1937.3493,610.1297,1938.5376,604.599,1933.15,612.8437" style="stroke:#181818;stroke-width:1.0;"/></g><!--link delete to notice_no_permissions--><g id="link_delete_notice_no_permissions"><path codeLine="160" d="M2087.18,497.1437 C2067.31,517.6437 2042.98,538.9237 2017,553.0137 C1970.52,578.2237 1840.9387,604.1507 1749.5587,620.2807 " fill="none" id="delete-to-notice_no_permissions" style="stroke:#181818;stroke-width:1.0;stroke-dasharray:7.0,7.0;"/><polygon fill="#181818" points="1743.65,621.3237,1753.2083,623.6983,1748.5739,620.4545,1751.8177,615.8201,1743.65,621.3237" style="stroke:#181818;stroke-width:1.0;"/></g><!--link form_request to container_errors--><g id="link_form_request_container_errors"><path codeLine="161" d="M2275.32,542.7137 C2269.64,546.4337 2263.86,549.9037 2258,553.0137 C2163.92,603.0437 2046.4275,622.4402 1970.7175,630.3502 " fill="none" id="form_request-to-container_errors" style="stroke:#181818;stroke-width:1.0;stroke-dasharray:7.0,7.0;"/><polygon fill="#181818" points="1964.75,630.9737,1974.1169,634.0168,1969.7229,630.4541,1973.2856,626.0601,1964.75,630.9737" style="stroke:#181818;stroke-width:1.0;"/></g><!--link form_request to notice_no_contact_data--><g id="link_form_request_notice_no_contact_data"><path codeLine="162" d="M2382,544.0837 C2382,570.0337 2382,589.2837 2382,606.7337 " fill="none" id="form_request-to-notice_no_contact_data" style="stroke:#181818;stroke-width:1.0;stroke-dasharray:7.0,7.0;"/><polygon fill="#181818" points="2382,612.7337,2386,603.7337,2382,607.7337,2378,603.7337,2382,612.7337" style="stroke:#181818;stroke-width:1.0;"/></g><!--link form_request to notice_no_permissions--><g id="link_form_request_notice_no_permissions"><path codeLine="163" d="M2275.28,543.6237 C2269.63,547.0837 2263.86,550.2337 2258,553.0137 C2076.47,639.0537 2008.92,584.9337 1810,613.0137 C1788.58,616.0337 1771.4553,618.5252 1749.8353,621.7252 " fill="none" id="form_request-to-notice_no_permissions" style="stroke:#181818;stroke-width:1.0;stroke-dasharray:7.0,7.0;"/><polygon fill="#181818" points="1743.9,622.6037,1753.3887,625.2428,1748.8461,621.8716,1752.2173,617.329,1743.9,622.6037" style="stroke:#181818;stroke-width:1.0;"/></g><!--link form_request_followup to container_messages--><g id="link_form_request_followup_container_messages"><path codeLine="164" d="M1551.92,542.7237 C1546.38,546.4437 1540.73,549.9037 1535,553.0137 C1487.32,578.8737 1351.8604,605.5607 1260.5404,621.5207 " fill="none" id="form_request_followup-to-container_messages" style="stroke:#181818;stroke-width:1.0;stroke-dasharray:7.0,7.0;"/><polygon fill="#181818" points="1254.63,622.5537,1264.1843,624.9445,1259.5553,621.6929,1262.807,617.064,1254.63,622.5537" style="stroke:#181818;stroke-width:1.0;"/></g><!--link form_request_followup to container_errors--><g id="link_form_request_followup_container_errors"><path codeLine="165" d="M1758.32,538.0837 C1764.22,543.2137 1770.14,548.2237 1776,553.0137 C1802.78,574.8837 1830.0965,593.7427 1854.4565,609.6527 " fill="none" id="form_request_followup-to-container_errors" style="stroke:#181818;stroke-width:1.0;stroke-dasharray:7.0,7.0;"/><polygon fill="#181818" points="1859.48,612.9337,1854.1321,604.6633,1855.2938,610.1996,1849.7575,611.3613,1859.48,612.9337" style="stroke:#181818;stroke-width:1.0;"/></g><!--link form_request_followup to notice_no_request--><g id="link_form_request_followup_notice_no_request"><path codeLine="166" d="M1551.72,537.7937 C1546.1,542.9837 1540.5,548.0837 1535,553.0137 C1511.64,573.9437 1488.8374,592.8433 1468.5974,609.1933 " fill="none" id="form_request_followup-to-notice_no_request" style="stroke:#181818;stroke-width:1.0;stroke-dasharray:7.0,7.0;"/><polygon fill="#181818" points="1463.93,612.9637,1473.4446,610.4197,1467.8195,609.8217,1468.4175,604.1966,1463.93,612.9637" style="stroke:#181818;stroke-width:1.0;"/></g><!--link form_request_followup to notice_no_permissions--><g id="link_form_request_followup_notice_no_permissions"><path codeLine="167" d="M1655,553.0637 C1655,575.7437 1655,591.2537 1655,606.6737 " fill="none" id="form_request_followup-to-notice_no_permissions" style="stroke:#181818;stroke-width:1.0;stroke-dasharray:7.0,7.0;"/><polygon fill="#181818" points="1655,612.6737,1659,603.6737,1655,607.6737,1651,603.6737,1655,612.6737" style="stroke:#181818;stroke-width:1.0;"/></g><!--link form_simple to container_errors--><g id="link_form_simple_container_errors"><path codeLine="168" d="M1896,534.7637 C1896,563.8637 1896,587.1537 1896,606.6937 " fill="none" id="form_simple-to-container_errors" style="stroke:#181818;stroke-width:1.0;stroke-dasharray:7.0,7.0;"/><polygon fill="#181818" points="1896,612.6937,1900,603.6937,1896,607.6937,1892,603.6937,1896,612.6937" style="stroke:#181818;stroke-width:1.0;"/></g><!--link form_simple to notice_no_permissions--><g id="link_form_simple_notice_no_permissions"><path codeLine="169" d="M1797.65,534.5537 C1790.44,540.9337 1783.18,547.1437 1776,553.0137 C1749.17,574.9237 1721.7292,593.7269 1697.1892,609.5869 " fill="none" id="form_simple-to-notice_no_permissions" style="stroke:#181818;stroke-width:1.0;stroke-dasharray:7.0,7.0;"/><polygon fill="#181818" points="1692.15,612.8437,1701.88,611.318,1696.3493,610.1297,1697.5376,604.599,1692.15,612.8437" style="stroke:#181818;stroke-width:1.0;"/></g><!--link index to container_messages--><g id="link_index_container_messages"><path codeLine="170" d="M1173,497.2637 C1173,536.1537 1173,578.5837 1173,606.7237 " fill="none" id="index-to-container_messages" style="stroke:#181818;stroke-width:1.0;stroke-dasharray:7.0,7.0;"/><polygon fill="#181818" points="1173,612.7237,1177,603.7237,1173,607.7237,1169,603.7237,1173,612.7237" style="stroke:#181818;stroke-width:1.0;"/></g><!--link index to notice_no_permissions--><g id="link_index_notice_no_permissions"><path codeLine="171" d="M1223.33,497.1337 C1243.37,517.6337 1267.88,538.9137 1294,553.0137 C1317.87,565.9037 1461.2522,596.6587 1560.2222,616.9487 " fill="none" id="index-to-notice_no_permissions" style="stroke:#181818;stroke-width:1.0;stroke-dasharray:7.0,7.0;"/><polygon fill="#181818" points="1566.1,618.1537,1558.0867,612.4277,1561.2019,617.1495,1556.48,620.2647,1566.1,618.1537" style="stroke:#181818;stroke-width:1.0;"/></g><!--link map_request to map_filters_cleanupeventrequest--><g id="link_map_request_map_filters_cleanupeventrequest"><path codeLine="172" d="M2659,544.0837 C2659,570.0337 2659,589.2837 2659,606.7337 " fill="none" id="map_request-to-map_filters_cleanupeventrequest" style="stroke:#181818;stroke-width:1.0;stroke-dasharray:7.0,7.0;"/><polygon fill="#181818" points="2659,612.7337,2663,603.7337,2659,607.7337,2655,603.7337,2659,612.7337" style="stroke:#181818;stroke-width:1.0;"/></g><!--link map_request to notice_no_permissions--><g id="link_map_request_notice_no_permissions"><path codeLine="173" d="M2525.89,544.2137 C2519.33,547.4837 2512.69,550.4437 2506,553.0137 C2216.23,664.5237 2118.37,576.8737 1810,613.0137 C1788.52,615.5337 1771.3661,617.8305 1749.7461,621.0105 " fill="none" id="map_request-to-notice_no_permissions" style="stroke:#181818;stroke-width:1.0;stroke-dasharray:7.0,7.0;"/><polygon fill="#181818" points="1743.81,621.8837,1753.2963,624.5314,1748.7568,621.1561,1752.1321,616.6166,1743.81,621.8837" style="stroke:#181818;stroke-width:1.0;"/></g><!--link table_request to container_messages--><g id="link_table_request_container_messages"><path codeLine="174" d="M784.07,542.4937 C789.95,546.3037 795.94,549.8437 802,553.0137 C894.1,601.2137 1007.3451,620.8752 1085.4351,629.3652 " fill="none" id="table_request-to-container_messages" style="stroke:#181818;stroke-width:1.0;stroke-dasharray:7.0,7.0;"/><polygon fill="#181818" points="1091.4,630.0137,1082.8851,625.0644,1086.4293,629.4733,1082.0204,633.0175,1091.4,630.0137" style="stroke:#181818;stroke-width:1.0;"/></g><!--link table_request to container_table_warning--><g id="link_table_request_container_table_warning"><path codeLine="175" d="M743.26,544.0837 C759.55,570.0337 772.2167,590.204 783.1867,607.654 " fill="none" id="table_request-to-container_table_warning" style="stroke:#181818;stroke-width:1.0;stroke-dasharray:7.0,7.0;"/><polygon fill="#181818" points="786.38,612.7337,784.9764,602.9853,783.7189,608.5006,778.2036,607.2431,786.38,612.7337" style="stroke:#181818;stroke-width:1.0;"/></g><!--link table_request to notice_no_permissions--><g id="link_table_request_notice_no_permissions"><path codeLine="176" d="M784.35,544.0037 C790.12,547.3537 796.01,550.3837 802,553.0137 C950.25,618.0237 1367.5,591.8937 1528,613.0137 C1540.44,614.6537 1547.6033,615.6776 1560.4333,617.8376 " fill="none" id="table_request-to-notice_no_permissions" style="stroke:#181818;stroke-width:1.0;stroke-dasharray:7.0,7.0;"/><polygon fill="#181818" points="1566.35,618.8337,1558.139,613.395,1561.4194,618.0036,1556.8108,621.284,1566.35,618.8337" style="stroke:#181818;stroke-width:1.0;"/></g><!--link table_simple to container_messages--><g id="link_table_simple_container_messages"><path codeLine="177" d="M1035.1,538.2737 C1041.09,543.3337 1047.08,548.2737 1053,553.0137 C1080.1,574.6937 1107.5469,593.6369 1131.8769,609.6369 " fill="none" id="table_simple-to-container_messages" style="stroke:#181818;stroke-width:1.0;stroke-dasharray:7.0,7.0;"/><polygon fill="#181818" points="1136.89,612.9337,1131.5681,604.6465,1132.7124,610.1864,1127.1725,611.3306,1136.89,612.9337" style="stroke:#181818;stroke-width:1.0;"/></g><!--link table_simple to container_table_warning--><g id="link_table_simple_container_table_warning"><path codeLine="178" d="M859.21,544.0837 C842.78,570.0337 830,590.2145 818.95,607.6645 " fill="none" id="table_simple-to-container_table_warning" style="stroke:#181818;stroke-width:1.0;stroke-dasharray:7.0,7.0;"/><polygon fill="#181818" points="815.74,612.7337,823.9344,607.2699,818.415,608.5094,817.1755,602.99,815.74,612.7337" style="stroke:#181818;stroke-width:1.0;"/></g><!--link table_simple to notice_no_permissions--><g id="link_table_simple_notice_no_permissions"><path codeLine="179" d="M1035.11,543.4437 C1040.96,546.9737 1046.93,550.1937 1053,553.0137 C1245.98,642.6637 1317.68,580.7137 1528,613.0137 C1540.4,614.9137 1547.5488,616.0654 1560.3688,618.2954 " fill="none" id="table_simple-to-notice_no_permissions" style="stroke:#181818;stroke-width:1.0;stroke-dasharray:7.0,7.0;"/><polygon fill="#181818" points="1566.28,619.3237,1558.0986,613.8405,1561.354,618.4668,1556.7277,621.7221,1566.28,619.3237" style="stroke:#181818;stroke-width:1.0;"/></g><!--SRC=[tLPPakCW3FttARX0-mHTSnKNCN923OiRI2TJcTnzy38sUCNGDJNfJukdXvua2zMu_8dFW0Ws86wWAlF842ePrXgTi0RKV2Bqg2WmyaGNmCGpS33OCnXg67WMRNvDBQMYjT6UJU3F4rQUgPJ21cKyMoMbWHvcxxv8QwEYP5S2FKLnCPnPm3CRX3W74pt3hGwQ2WBt2MwkQWpESGMbf8fpvP9WLjYZYYfUmBsMog37StBUNp0rCua95UVcm5BMVKsnC0gVDSV2Vd5x8nfhsyI0gG3LKMgNSppZeBNrNJar-CIWk64bxDqjPW0HAAccKXp8nK91vu7iuJenA-qX3IsX4B9Gy745RVPWDIXETID3-xKYmC30LsaBYtarc4hQVkaLxOOKzYyk1WvtQoCkm_J4PKgLs-9BKzYvXByaDKKb6PEtQ_qAEVg_shrDewQyPl1z6cnLxT7ndr38W6WuhekACllcwQ9aWCMrXazxyV33Jx0lD0YsSxCZF3gXooF6VU0MIPO1IrNeNiLlKuULvpuw_ntBwqoJVv8Tcvzn0S_RlJlFVpXBUUxkjbFe- - -tDnVRJh1TL3icisNOR7FC_ovquVXcHGf5kmzrZC_mk1zoxfemr6KZgtEmCuf3NRovSSof5v9bwtLh-sb-lD3d2HpzotkOORwg952u_zPQNwOesV0F3S9RsQD32M1PsQSJkSB5ZKjtGll54GQbROykf37Z-09osB-HQK8tIKB3wLRYX19k4OG6uMwtoqnxAsCCPsXq_jQNaAfZHFxM4STsJ69WL-ug3EG94nZHvNy0]--></g></svg>