<?xml version="1.0" encoding="UTF-8" standalone="no"?>
<!-- Generator: Adobe Illustrator 15.0.2, SVG Export Plug-In . SVG Version: 6.00 Build 0)  -->

<svg
   version="1.1"
   id="Layer_1"
   x="0px"
   y="0px"
   width="45"
   height="30"
   viewBox="0 0 42.187503 28.125003"
   enable-background="new 0 0 363 227"
   xml:space="preserve"
   inkscape:version="1.2.1 (9c6d41e410, 2022-07-14)"
   sodipodi:docname="logo.svg"
   inkscape:export-filename="D:\favicon.png"
   inkscape:export-xdpi="614.40002"
   inkscape:export-ydpi="614.40002"
   xmlns:inkscape="http://www.inkscape.org/namespaces/inkscape"
   xmlns:sodipodi="http://sodipodi.sourceforge.net/DTD/sodipodi-0.dtd"
   xmlns="http://www.w3.org/2000/svg"
   xmlns:svg="http://www.w3.org/2000/svg"
   xmlns:rdf="http://www.w3.org/1999/02/22-rdf-syntax-ns#"
   xmlns:cc="http://creativecommons.org/ns#"
   xmlns:dc="http://purl.org/dc/elements/1.1/"><metadata
     id="metadata3108"><rdf:RDF><cc:Work
         rdf:about=""><dc:format>image/svg+xml</dc:format><dc:type
           rdf:resource="http://purl.org/dc/dcmitype/StillImage" /></cc:Work></rdf:RDF></metadata><defs
     id="defs3106" /><sodipodi:namedview
     pagecolor="#ffffff"
     bordercolor="#666666"
     borderopacity="1"
     objecttolerance="10"
     gridtolerance="10"
     guidetolerance="10"
     inkscape:pageopacity="0"
     inkscape:pageshadow="2"
     inkscape:window-width="1920"
     inkscape:window-height="1177"
     id="namedview3104"
     showgrid="false"
     fit-margin-top="0"
     fit-margin-left="0"
     fit-margin-right="0"
     fit-margin-bottom="0"
     inkscape:zoom="31.066667"
     inkscape:cx="22.5"
     inkscape:cy="15"
     inkscape:window-x="-8"
     inkscape:window-y="-8"
     inkscape:window-maximized="1"
     inkscape:current-layer="g3943"
     showguides="true"
     inkscape:guide-bbox="true"
     units="mm"
     inkscape:showpageshadow="2"
     inkscape:pagecheckerboard="0"
     inkscape:deskcolor="#d1d1d1" /><g
     id="g3943"
     transform="translate(-58.65625,-300.15625)"><path
       id="rect1017"
       style="fill:#0d6efd;fill-opacity:1;stroke:none;stroke-width:0;stroke-linecap:square;stroke-dasharray:none;stroke-opacity:1"
       d="m 75.902464,300.15625 a 10.246735,9.9521418 0 0 0 -10.246953,9.9521 10.246735,9.9521418 0 0 0 0.01224,0.15433 c -4.044791,1.03307 -7.011501,4.59569 -7.011501,8.85735 0,5.07517 4.20676,9.16122 9.432167,9.16122 H 78.8002 93.083542 c 4.299055,0 7.760218,-3.36166 7.760218,-7.53715 0,-3.4528 -2.367516,-6.34681 -5.617709,-7.2459 a 6.3359648,6.1538054 0 0 0 0.563324,-2.53268 6.3359648,6.1538054 0 0 0 -6.335907,-6.15396 6.3359648,6.1538054 0 0 0 -4.096449,1.46481 10.246735,9.9521418 0 0 0 -9.453825,-6.12001 z" /><path
       fill="#000000"
       d="m 80.679829,318.00392 -6.712546,6.71256 c -0.242792,0.24278 -0.538052,0.36417 -0.885827,0.36417 -0.341217,0 -0.639756,-0.1215 -0.895664,-0.36417 l -1.043311,-1.06299 c -0.249335,-0.23621 -0.37401,-0.5315 -0.37401,-0.88581 0,-0.34778 0.124827,-0.64635 0.37401,-0.89567 l 6.702722,-6.70273 c 0.255909,0.64303 0.631566,1.21226 1.126955,1.70767 0.495407,0.4954 1.064635,0.87106 1.707671,1.12697 z m 6.24014,-4.28148 c 0,0.2559 -0.07541,0.60366 -0.226379,1.0433 -0.308408,0.87926 -0.848107,1.59283 -1.619082,2.14074 -0.771005,0.5479 -1.619083,0.82185 -2.544291,0.82185 -1.213896,0 -2.252279,-0.43143 -3.115137,-1.29429 -0.862857,-0.86285 -1.294278,-1.90125 -1.294278,-3.11515 0,-1.2139 0.431421,-2.25228 1.294278,-3.11513 0.862858,-0.86287 1.901241,-1.2943 3.115137,-1.2943 0.380583,0 0.779211,0.0541 1.195867,0.1624 0.416672,0.1082 0.769358,0.26082 1.058075,0.45768 0.105029,0.0721 0.157468,0.16404 0.157468,0.2756 0,0.11152 -0.05244,0.20341 -0.157468,0.27558 l -2.883862,1.66336 v 2.20471 l 1.899593,1.05316 c 0.0328,-0.0197 0.291997,-0.1788 0.777564,-0.47736 0.485568,-0.29855 0.930105,-0.56428 1.33366,-0.79723 0.403538,-0.23294 0.634846,-0.34941 0.693889,-0.34941 0.09838,0 0.175527,0.0329 0.231305,0.0985 0.05577,0.0656 0.08372,0.14764 0.08372,0.24605 z"
       id="path295"
       style="fill:#ffffff;fill-opacity:1;stroke:none;stroke-width:0.260316;stroke-dasharray:none;stroke-opacity:1"
       sodipodi:nodetypes="ccsccsccscscssssssscsccccsssss" /></g></svg>
