<?xml version="1.0" encoding="UTF-8" standalone="no"?>
<svg
   viewBox="0 0 42.999998 29.999999"
   height="30"
   width="43"
   xml:space="preserve"
   version="1.1"
   id="svg2"
   sodipodi:docname="rostock.svg"
   inkscape:version="1.2.1 (9c6d41e410, 2022-07-14)"
   inkscape:export-filename="D:\hro.png"
   inkscape:export-xdpi="695.04999"
   inkscape:export-ydpi="695.04999"
   xmlns:inkscape="http://www.inkscape.org/namespaces/inkscape"
   xmlns:sodipodi="http://sodipodi.sourceforge.net/DTD/sodipodi-0.dtd"
   xmlns="http://www.w3.org/2000/svg"
   xmlns:svg="http://www.w3.org/2000/svg"
   xmlns:rdf="http://www.w3.org/1999/02/22-rdf-syntax-ns#"
   xmlns:cc="http://creativecommons.org/ns#"
   xmlns:dc="http://purl.org/dc/elements/1.1/"><sodipodi:namedview
     pagecolor="#ffffff"
     bordercolor="#666666"
     borderopacity="1"
     objecttolerance="10"
     gridtolerance="10"
     guidetolerance="10"
     inkscape:pageopacity="0"
     inkscape:pageshadow="2"
     inkscape:window-width="1920"
     inkscape:window-height="1177"
     id="namedview97"
     showgrid="false"
     inkscape:zoom="31.066667"
     inkscape:cx="21.502146"
     inkscape:cy="15"
     inkscape:window-x="-8"
     inkscape:window-y="-8"
     inkscape:window-maximized="1"
     inkscape:current-layer="g333"
     fit-margin-top="0"
     fit-margin-left="0"
     fit-margin-right="0"
     fit-margin-bottom="0"
     inkscape:showpageshadow="2"
     inkscape:pagecheckerboard="0"
     inkscape:deskcolor="#d1d1d1" /><metadata
     id="metadata8"><rdf:RDF><cc:Work
         rdf:about=""><dc:format>image/svg+xml</dc:format><dc:type
           rdf:resource="http://purl.org/dc/dcmitype/StillImage" /></cc:Work></rdf:RDF></metadata><defs
     id="defs6"><clipPath
       id="clipPath16"
       clipPathUnits="userSpaceOnUse"><path
         id="path18"
         d="M 0,141.732 H 178.583 V 0 H 0 Z"
         inkscape:connector-curvature="0" /></clipPath></defs><g
     id="g333"
     transform="matrix(0.31132518,0,0,0.30872298,0,-0.02560981)"><path
       id="path22"
       style="fill:#0d6efd;fill-opacity:1;fill-rule:nonzero;stroke:none;stroke-width:1.25"
       d="M 63.16163,0.08295402 V 54.409199 H 9.43413 C 59.49663,40.465454 63.16163,0.08295402 63.16163,0.08295402"
       inkscape:connector-curvature="0" /><path
       id="path30"
       style="fill:#dc3545;fill-opacity:1;fill-rule:nonzero;stroke:none;stroke-width:1.25"
       d="M 73.77188,0.08295402 V 54.409199 h 53.7275 C 77.43688,40.465454 73.77188,0.08295402 73.77188,0.08295402"
       inkscape:connector-curvature="0" /><g
       id="g36"
       transform="matrix(1.25,0,0,-1.25,64.89375,36.929829)"><path
         inkscape:connector-curvature="0"
         d="M 0,0 C 1.242,0.225 2.336,0.819 2.336,0.819 2.582,0.943 3.801,1.042 4.57,0.596 4.447,0.1 2.732,-0.124 2.285,-0.074 1.564,-0.198 0.77,-1.02 0,0"
         style="fill:#fbc707;fill-opacity:1;fill-rule:nonzero;stroke:none"
         id="path38" /></g><g
       id="g40"
       transform="matrix(1.25,0,0,-1.25,64.89375,36.929829)"><path
         inkscape:connector-curvature="0"
         d="M 0,0 C 1.242,0.225 2.336,0.819 2.336,0.819 2.582,0.943 3.801,1.042 4.57,0.596 4.447,0.1 2.732,-0.124 2.285,-0.074 1.564,-0.198 0.77,-1.02 0,0 Z"
         style="fill:none;stroke:#ffffff;stroke-width:0.133;stroke-linecap:butt;stroke-linejoin:round;stroke-miterlimit:3.864;stroke-dasharray:none;stroke-opacity:1"
         id="path42" /></g><g
       id="g44"
       transform="matrix(1.25,0,0,-1.25,67.16175,39.041704)"><path
         inkscape:connector-curvature="0"
         d="M 0,0 C 1.414,-0.247 2.109,0.398 2.109,0.398 2.953,1.218 4.221,0.746 4.221,0.746 4.295,0.448 2.383,-0.297 2.383,-0.297 2.383,-0.297 0.547,-1.143 0,0"
         style="fill:#fbc707;fill-opacity:1;fill-rule:nonzero;stroke:none"
         id="path46" /></g><g
       id="g48"
       transform="matrix(1.25,0,0,-1.25,67.16175,39.041704)"><path
         inkscape:connector-curvature="0"
         d="M 0,0 C 1.414,-0.247 2.109,0.398 2.109,0.398 2.953,1.218 4.221,0.746 4.221,0.746 4.295,0.448 2.383,-0.297 2.383,-0.297 2.383,-0.297 0.547,-1.143 0,0 Z"
         style="fill:none;stroke:#ffffff;stroke-width:0.133;stroke-linecap:butt;stroke-linejoin:round;stroke-miterlimit:3.864;stroke-dasharray:none;stroke-opacity:1"
         id="path50" /></g><path
       id="path54"
       style="fill:#ffc107;fill-opacity:1;fill-rule:evenodd;stroke:none;stroke-width:1.25"
       d="m 60.5505,36.152329 c 0,0 -2.8275,-0.525 -3.4475,1.15 -0.4025,1.92375 0.68375,1.395 0.59125,0.7775 4.065,-0.7775 4.6875,2.32625 4.6875,2.32625 0.12125,1.05625 -4.595,0.49875 -4.595,0.49875 -0.125,1.395 5.05875,0.92875 5.05875,0.92875 0,0 -1.95625,4.1925 -5.80375,3.945 -6.58125,-1.27625 -7.48,-5.21625 -7.48,-5.21625 -0.2175,-0.31 1.2725,-2.63875 1.0525,-3.6025 -0.2125,-1.64375 -1.705,-1.24125 -1.83125,-1.02375 -0.09,0.4975 1.025,0.0925 0.7175,1.02375 -0.6225,0.96375 -0.59125,1.89375 -0.59125,2.48375 -0.1875,1.15 -1.08875,0.435 -1.27125,0.2175 0,0 -1.49125,-1.365 -1.18125,-2.73125 0.12375,-1.7675 -1.7075,-1.39625 -1.64625,-1.14625 -0.12125,0.1525 1.11875,0.55625 0.49875,2.57375 0.02875,0.6525 1.39625,1.7075 1.39625,1.7075 0.745,1.11625 -1.2725,1.33375 -1.39625,1.0875 -1.55375,-0.8075 -2.08,-0.31 -2.11,-0.0625 1.52125,0.2775 1.20875,1.46 1.55,1.58125 0.3425,0.28125 2.45125,-1.73625 4.21875,-0.6825 0.655,0.6525 -1.1475,2.11125 -1.05125,2.32875 0.12125,0.31 2.42125,-0.65125 2.42125,-0.65125 0.99125,-0.06375 3.5375,3.6325 3.5375,3.6325 0,0 0.55625,0.61875 0.03,1.27375 -5.2125,4.4375 -5.67875,0.775 -6.33125,0.96 -0.185,0.27875 -0.43625,2.48375 2.7,2.11125 -3.3225,0.8375 -3.725,-1.36625 -4.1275,-1.18125 -0.46625,2.2675 2.10875,2.3925 2.10875,2.3925 2.4225,0.2475 4.40875,-0.965 4.40875,-0.965 -2.65375,2.055 -5.0575,0.995 -4.84375,1.39875 0.06375,0.15375 0.9625,1.73625 4.22375,0.15375 3.32125,-2.26625 4.12625,-1.05375 4.12625,-1.05375 0,0 1.08875,1.17875 -3.07125,3.47625 -3.78625,2.42 -3.105,-1.21125 -3.47625,-0.77625 -0.31,0.155 -0.84,4.53125 -3.41625,1.9225 -0.4975,-0.71375 -1.8625,-3.475 -2.94875,-1.51875 -0.05875,0.2475 0.4975,-0.5275 1.025,-0.1275 0.125,1.93 1.55375,2.05375 1.55375,2.05375 1.5175,0.80625 -0.09375,1.675 -0.31125,1.61375 -3.85,0.46375 -2.7925,2.41875 -2.7925,2.41875 0.09,-0.40125 0.37125,-1.6125 1.365,-0.74375 1.70625,-1.89375 3.415,-1.76875 3.415,-1.76875 0.62,0.215 0.15375,1.45875 -0.21875,1.79875 -4.4075,2.54625 -1.49,2.9175 -1.49,2.9175 -0.37125,-0.1225 -0.58875,-1.7075 0.7125,-0.99125 2.6075,-3.9425 4.38,-4.62625 4.38,-4.62625 3.26,-1.74 4.28,1.11625 2.42,1.6775 0.84,0.21625 2.0775,-1.1175 2.0775,-1.1175 0,0 0.06375,0.59 -1.5475,1.76875 1.17625,-0.155 2.6975,-1.5525 2.6975,-1.5525 0,0 -0.06125,0.5575 -1.08625,1.58375 1.83125,-0.65375 2.265,-1.49125 2.265,-1.49125 0,0 -0.31,1.05625 -0.74125,1.525 2.10875,-0.4375 3.225,-3.32375 3.225,-3.32375 0,0 1.2425,2.015 6.36125,0.5575 3.8525,-1.1175 5.465,-0.84 5.465,-0.84 0,0 -2.73,0.2825 -2.48375,3.355 -0.0588,1.7675 -2.41875,2.91875 -2.41875,2.91875 -1.985,0.80625 -2.33,-1.15125 -2.33,-1.15125 -0.06,-1.48875 -1.89125,-0.46375 -1.89125,-0.46375 0,0 1.30125,-0.12375 1.3325,0.21625 -0.77625,0.80625 0.80875,1.67875 0.53,1.8325 -1.8625,-2.04875 -3.105,-1.05375 -3.105,-1.05375 1.1175,-0.15625 1.14875,1.395 2.10875,1.48875 0.715,0.31125 2.205,-0.03 2.205,-0.03 0,0 -0.65,0.93 -2.4225,0.46375 -2.76125,-1.335 -2.10875,1.025 -2.10875,1.025 0.28,-1.335 1.21,-0.625 1.21,-0.625 0.37125,0.37625 -0.2775,0.99875 1.45875,1.275 2.14,0.405 3.66375,-1.33375 3.66375,-1.33375 1.39625,-1.24125 3.91125,-1.36375 3.91125,-1.36375 0.7125,-0.3125 0.37125,-4.9375 5.24625,-4.9075 0.745,0.0338 0.40375,3.19625 6.145,3.50875 3.8475,-0.65375 3.69375,0.2475 3.69375,0.2475 0.5275,1.27375 -2.45125,1.2425 -2.45125,1.2425 l 1.11875,0.3425 c 0,0 -1.68,0 -1.585,1.52125 0.46625,-0.84 1.92375,-0.90375 1.92375,-0.90375 0,0 -1.025,0.34375 -0.77625,1.06 0.6525,-0.4675 1.3975,-0.49875 1.3975,-0.49875 0,0 -0.80625,0.49875 -0.8375,0.71625 0.9325,0.43125 2.20125,-0.15625 2.20125,-0.15625 0,0 3.51125,-2.1425 1.92625,-3.85125 -0.62,-0.9925 -0.34125,-1.8 -0.64875,-1.92375 -0.59375,-0.0613 -6.24,0 -6.52125,-2.545 5.80375,2.07875 7.6975,-1.1175 7.6975,-1.1175 0.6225,-0.40375 1.83125,-6.64375 -3.29125,-5.4325 -7.44875,2.42125 -6.57875,-0.52625 -6.57875,-0.52625 0.55625,-2.795 5.6175,-1.025 5.6175,-1.025 4.6575,2.45375 6.11625,-0.0613 6.17625,-0.465 0.40625,-0.995 -0.495,-3.695 1.08625,-5.49625 -0.4925,-0.24875 -4.3425,-2.0475 -5.73875,0.43375 -0.8725,1.15 0,2.29875 0,2.29875 1.82875,2.60625 0.275,2.39 0.0925,2.2975 -0.3425,-0.09375 -3.5725,-1.30375 -5.62,-0.6225 -4.62375,1.585 -2.88625,5.1225 -1.0575,5.28625 1.3375,0.58 5.55625,-0.59875 5.55625,-0.59875 3.60125,-0.58875 2.33,3.01125 2.17625,2.98 -1.73875,1.7075 -6.1775,-0.03 -6.33375,-0.27875 -0.495,-0.24625 -4.345,-2.8875 -8.5375,-3.19875 11.02125,-6.26875 13.69125,-9.56125 13.69125,-9.56125 3.90875,-4.06375 3.81875,-7.48 3.81875,-7.48 0,0 -1.61375,1.6475 -2.3,1.6775 0.5275,-0.80625 0.27875,-0.9 0.27875,-0.9 0,0 -3.59875,3.13625 -9.52625,3.445 0.62,-0.80625 0.43125,-0.96125 0.43125,-0.96125 -0.275,-0.28 -2.6075,0.9925 -2.6075,0.9925 0,0 1.895,-1.30125 1.55375,-1.80125 -0.71375,-0.03 -1.61375,1.2425 -4.315,1.585 1.895,-0.93 1.6775,-1.14875 1.6775,-1.14875 0,0 -0.37125,-0.40375 -4.59375,1.7375 -5.18625,2.4825 -2.48625,6.36125 -2.48625,6.36125 0,0 1.1525,2.42375 -0.15375,4.06875 -1.7375,1.76875 -5.525,0.52625 -4.16,-0.7775 5.435,-5.3375 1.39875,-10.24125 1.39875,-10.24125 0,0 1.02375,-0.065 1.42875,-0.21875 0.495,-0.27875 1.7675,-0.21875 1.89125,-0.6525 0,-0.15375 -0.74375,-1.02375 -3.29,0.18875 -0.62,0.245 -1.30125,-0.37375 -1.30125,-0.37375 0,0 -3.41625,-2.82375 -4.65625,-1.55375"
       inkscape:connector-curvature="0" /><g
       id="g56"
       transform="matrix(1.25,0,0,-1.25,60.5505,36.152329)"><path
         inkscape:connector-curvature="0"
         d="m 0,0 c 0,0 -2.262,0.42 -2.758,-0.92 -0.322,-1.539 0.547,-1.116 0.473,-0.622 3.252,0.622 3.75,-1.861 3.75,-1.861 0.097,-0.845 -3.676,-0.399 -3.676,-0.399 -0.1,-1.116 4.047,-0.743 4.047,-0.743 0,0 -1.565,-3.354 -4.643,-3.156 -5.265,1.021 -5.984,4.173 -5.984,4.173 -0.174,0.248 1.018,2.111 0.842,2.882 -0.17,1.315 -1.364,0.993 -1.465,0.819 -0.072,-0.398 0.82,-0.074 0.574,-0.819 -0.498,-0.771 -0.473,-1.515 -0.473,-1.987 -0.15,-0.92 -0.871,-0.348 -1.017,-0.174 0,0 -1.193,1.092 -0.945,2.185 0.099,1.414 -1.366,1.117 -1.317,0.917 -0.097,-0.122 0.895,-0.445 0.399,-2.059 0.023,-0.522 1.117,-1.366 1.117,-1.366 0.596,-0.893 -1.018,-1.067 -1.117,-0.87 -1.243,0.646 -1.664,0.248 -1.688,0.05 1.217,-0.222 0.967,-1.168 1.24,-1.265 0.274,-0.225 1.961,1.389 3.375,0.546 0.524,-0.522 -0.918,-1.689 -0.841,-1.863 0.097,-0.248 1.937,0.521 1.937,0.521 0.793,0.051 2.83,-2.906 2.83,-2.906 0,0 0.445,-0.495 0.024,-1.019 -4.17,-3.55 -4.543,-0.62 -5.065,-0.768 -0.148,-0.223 -0.349,-1.987 2.16,-1.689 -2.658,-0.67 -2.98,1.093 -3.302,0.945 -0.373,-1.814 1.687,-1.914 1.687,-1.914 1.938,-0.198 3.527,0.772 3.527,0.772 -2.123,-1.644 -4.046,-0.796 -3.875,-1.119 0.051,-0.123 0.77,-1.389 3.379,-0.123 2.657,1.813 3.301,0.843 3.301,0.843 0,0 0.871,-0.943 -2.457,-2.781 -3.029,-1.936 -2.484,0.969 -2.781,0.621 -0.248,-0.124 -0.672,-3.625 -2.733,-1.538 -0.398,0.571 -1.49,2.78 -2.359,1.215 -0.047,-0.198 0.398,0.422 0.82,0.102 0.1,-1.544 1.243,-1.643 1.243,-1.643 1.214,-0.645 -0.075,-1.34 -0.249,-1.291 -3.08,-0.371 -2.234,-1.935 -2.234,-1.935 0.072,0.321 0.297,1.29 1.092,0.595 1.365,1.515 2.732,1.415 2.732,1.415 0.496,-0.172 0.123,-1.167 -0.175,-1.439 -3.526,-2.037 -1.192,-2.334 -1.192,-2.334 -0.297,0.098 -0.471,1.366 0.57,0.793 2.086,3.154 3.504,3.701 3.504,3.701 2.608,1.392 3.424,-0.893 1.936,-1.342 0.672,-0.173 1.662,0.894 1.662,0.894 0,0 0.051,-0.472 -1.238,-1.415 0.941,0.124 2.158,1.242 2.158,1.242 0,0 -0.049,-0.446 -0.869,-1.267 1.465,0.523 1.812,1.193 1.812,1.193 0,0 -0.248,-0.845 -0.593,-1.22 1.687,0.35 2.58,2.659 2.58,2.659 0,0 0.994,-1.612 5.089,-0.446 3.082,0.894 4.372,0.672 4.372,0.672 0,0 -2.184,-0.226 -1.987,-2.684 -0.047,-1.414 -1.935,-2.335 -1.935,-2.335 -1.588,-0.645 -1.864,0.921 -1.864,0.921 -0.048,1.191 -1.513,0.371 -1.513,0.371 0,0 1.041,0.099 1.066,-0.173 -0.621,-0.645 0.647,-1.343 0.424,-1.466 -1.49,1.639 -2.484,0.843 -2.484,0.843 0.894,0.125 0.919,-1.116 1.687,-1.191 0.572,-0.249 1.764,0.024 1.764,0.024 0,0 -0.52,-0.744 -1.938,-0.371 -2.209,1.068 -1.687,-0.82 -1.687,-0.82 0.224,1.068 0.968,0.5 0.968,0.5 0.297,-0.301 -0.222,-0.799 1.167,-1.02 1.712,-0.324 2.931,1.067 2.931,1.067 1.117,0.993 3.129,1.091 3.129,1.091 0.57,0.25 0.297,3.95 4.197,3.926 0.596,-0.027 0.323,-2.557 4.916,-2.807 3.078,0.523 2.955,-0.198 2.955,-0.198 0.422,-1.019 -1.961,-0.994 -1.961,-0.994 l 0.895,-0.274 c 0,0 -1.344,0 -1.268,-1.217 0.373,0.672 1.539,0.723 1.539,0.723 0,0 -0.82,-0.275 -0.621,-0.848 0.522,0.374 1.118,0.399 1.118,0.399 0,0 -0.645,-0.399 -0.67,-0.573 0.746,-0.345 1.761,0.125 1.761,0.125 0,0 2.809,1.714 1.541,3.081 -0.496,0.794 -0.273,1.44 -0.519,1.539 -0.475,0.049 -4.992,0 -5.217,2.036 4.643,-1.663 6.158,0.894 6.158,0.894 0.498,0.323 1.465,5.315 -2.633,4.346 -5.959,-1.937 -5.263,0.421 -5.263,0.421 0.445,2.236 4.494,0.82 4.494,0.82 3.726,-1.963 4.893,0.049 4.941,0.372 0.325,0.796 -0.396,2.956 0.869,4.397 -0.394,0.199 -3.474,1.638 -4.591,-0.347 -0.698,-0.92 0,-1.839 0,-1.839 1.463,-2.085 0.22,-1.912 0.074,-1.838 -0.274,0.075 -2.858,1.043 -4.496,0.498 -3.699,-1.268 -2.309,-4.098 -0.846,-4.229 1.07,-0.464 4.445,0.479 4.445,0.479 2.881,0.471 1.864,-2.409 1.741,-2.384 -1.391,-1.366 -4.942,0.024 -5.067,0.223 -0.396,0.197 -3.476,2.31 -6.83,2.559 8.817,5.015 10.953,7.649 10.953,7.649 3.127,3.251 3.055,5.984 3.055,5.984 0,0 -1.291,-1.318 -1.84,-1.342 0.422,0.645 0.223,0.72 0.223,0.72 0,0 -2.879,-2.509 -7.621,-2.756 0.496,0.645 0.345,0.769 0.345,0.769 -0.22,0.224 -2.086,-0.794 -2.086,-0.794 0,0 1.516,1.041 1.243,1.441 -0.571,0.024 -1.291,-0.994 -3.452,-1.268 1.516,0.744 1.342,0.919 1.342,0.919 0,0 -0.297,0.323 -3.675,-1.39 -4.149,-1.986 -1.989,-5.089 -1.989,-5.089 0,0 0.922,-1.939 -0.123,-3.255 -1.39,-1.415 -4.42,-0.421 -3.328,0.622 4.348,4.27 1.119,8.193 1.119,8.193 0,0 0.819,0.052 1.143,0.175 0.396,0.223 1.414,0.175 1.513,0.522 0,0.123 -0.595,0.819 -2.632,-0.151 C 4.27,-1.738 3.725,-1.243 3.725,-1.243 3.725,-1.243 0.992,1.016 0,0 Z"
         style="fill:none;stroke:#ffffff;stroke-width:0.133;stroke-linecap:butt;stroke-linejoin:round;stroke-miterlimit:3.864;stroke-dasharray:none;stroke-opacity:1"
         id="path58" /></g><g
       id="g60"
       transform="matrix(1.25,0,0,-1.25,51.981125,36.557579)"><path
         inkscape:connector-curvature="0"
         d="m 0,0 c 0.596,1.142 1.863,0.596 1.887,0.199 0.324,-0.595 0,-2.011 0,-2.011 -0.545,-2.706 1.763,-1.167 1.763,-1.167 1.565,1.638 2.782,0.644 2.782,0.644 l 1.316,-0.894 c 0,0 -2.51,0.822 -3.475,-0.075 -1.89,-2.184 -3.13,-0.644 -3.13,-0.644 -0.721,0.794 0.125,2.483 0.125,2.483 C 1.764,0.373 0,0 0,0"
         style="fill:#dc3545;fill-opacity:1;fill-rule:nonzero;stroke:none"
         id="path62" /></g><path
       id="path66"
       style="fill:none;stroke:#ffffff;stroke-width:0.16625;stroke-linecap:butt;stroke-linejoin:round;stroke-miterlimit:3.864;stroke-dasharray:none;stroke-opacity:1"
       d="m 51.981125,36.557579 c 0.745,-1.4275 2.32875,-0.745 2.35875,-0.24875 0.405,0.74375 0,2.51375 0,2.51375 -0.68125,3.3825 2.20375,1.45875 2.20375,1.45875 1.956245,-2.0475 3.477505,-0.805 3.477505,-0.805 l 1.64499,1.1175 c 0,0 -3.1375,-1.0275 -4.34375,0.09375 -2.362495,2.73 -3.912495,0.805 -3.912495,0.805 -0.90125,-0.9925 0.15625,-3.10375 0.15625,-3.10375 0.62,-2.2975 -1.585,-1.83125 -1.585,-1.83125 z"
       inkscape:connector-curvature="0" /><path
       id="path70"
       style="fill:#0d6efd;fill-opacity:1;fill-rule:nonzero;stroke:none;stroke-width:1.25"
       d="m 0,72.139829 h 1.04125 v 3.0125 h 3.5825 v -3.0125 H 5.665 v 7.46875 H 4.62375 v -3.70625 h -3.5825 v 3.70625 H 0 Z"
       inkscape:connector-curvature="0" /><path
       id="path74"
       style="fill:#0d6efd;fill-opacity:1;fill-rule:nonzero;stroke:none;stroke-width:1.25"
       d="m 9.786375,76.640579 c -1.23,0.3475 -1.6675,0.71625 -1.6675,1.4225 0,0.54875 0.325,0.9175 0.80625,0.9175 0.47,0 0.97375,-0.41375 1.22,-0.985 0.15625,-0.38125 0.22375,-0.7725 0.22375,-1.32125 v -0.19 z m 0.72875,2.9675 c -0.12375,-0.325 -0.14625,-0.47 -0.1575,-0.9175 -0.88375,0.86125 -1.175,1.04125 -1.74625,1.04125 -0.8625,0 -1.48875,-0.66125 -1.48875,-1.57875 0,-0.695 0.34625,-1.19875 1.075,-1.58 0.335,-0.16625 0.48,-0.2125 1.32,-0.47 l 0.84,-0.2575 c -0.0775,-0.705 -0.47,-1.07375 -1.1525,-1.07375 -0.4475,0 -0.90625,0.19 -1.36625,0.55875 l -0.37,-0.47 c 0.52625,-0.47 1.15375,-0.705 1.90375,-0.705 0.75125,0 1.34375,0.2575 1.66875,0.7275 0.23375,0.33625 0.26875,0.515 0.26875,1.4775 v 1.54625 c 0,0.9625 0.0325,1.1975 0.23375,1.70125 z"
       inkscape:connector-curvature="0" /><path
       id="path78"
       style="fill:#0d6efd;fill-opacity:1;fill-rule:nonzero;stroke:none;stroke-width:1.25"
       d="m 13.178625,74.278449 h 0.9525 v 0.6725 c 0.5475,-0.54875 1.11875,-0.79625 1.84625,-0.79625 0.87375,0 1.4675,0.37 1.7025,1.065 0.11125,0.325 0.13375,0.55875 0.13375,1.39875 v 2.99 h -0.95125 v -2.99 c 0,-0.695 -0.03375,-0.92875 -0.20125,-1.20875 -0.20125,-0.35875 -0.56,-0.54875 -1.0525,-0.54875 -0.605,0 -1.0975,0.29125 -1.32125,0.78375 -0.12375,0.26875 -0.15625,0.515 -0.15625,1.16375 v 2.8 h -0.9525 z"
       inkscape:connector-curvature="0" /><path
       id="path82"
       style="fill:#0d6efd;fill-opacity:1;fill-rule:nonzero;stroke:none;stroke-width:1.25"
       d="m 22.091,75.118329 c -0.28,-0.2125 -0.62625,-0.325 -0.97375,-0.325 -0.45875,0 -0.78375,0.2475 -0.78375,0.59375 0,0.27875 0.14625,0.45875 0.64875,0.8175 1.29875,0.92875 1.58,1.27625 1.58,1.97 0,0.91875 -0.74,1.55625 -1.8025,1.55625 -0.6725,0 -1.13125,-0.17875 -1.7025,-0.6825 l 0.48125,-0.52625 c 0.4375,0.39125 0.7275,0.5375 1.13125,0.5375 0.54875,0 0.9075,-0.3025 0.9075,-0.7725 0,-0.415 -0.14625,-0.5825 -0.89625,-1.13125 -1.04125,-0.73875 -1.27625,-1.04125 -1.27625,-1.61125 0,-0.79625 0.7275,-1.39 1.69,-1.39 0.52625,0 0.985,0.1575 1.3775,0.47125 z"
       inkscape:connector-curvature="0" /><path
       id="path86"
       style="fill:#0d6efd;fill-opacity:1;fill-rule:nonzero;stroke:none;stroke-width:1.25"
       d="m 27.3095,76.395199 c -0.02375,-1.01875 -0.4375,-1.5675 -1.23125,-1.5675 -0.8075,0 -1.355,0.59375 -1.43375,1.5675 z m -2.6875,0.615 c 0.0225,1.2425 0.75,2.06125 1.81375,2.06125 0.47,0 0.9625,-0.16875 1.41125,-0.47 l 0.27875,0.51375 c -0.71625,0.45875 -1.23125,0.6275 -1.9025,0.6275 -1.5675,0 -2.63125,-1.165 -2.63125,-2.86625 0,-1.60125 1.03,-2.72125 2.49625,-2.72125 0.94,0 1.60125,0.45875 1.925,1.34375 0.1475,0.3575 0.20375,0.795 0.20375,1.51125 z"
       inkscape:connector-curvature="0" /><path
       inkscape:connector-curvature="0"
       d="m 29.77175,76.663329 h 2.65375 v 0.80625 h -2.65375 z"
       style="fill:#0d6efd;fill-opacity:1;fill-rule:nonzero;stroke:none;stroke-width:1.25"
       id="path88" /><path
       id="path92"
       style="fill:#0d6efd;fill-opacity:1;fill-rule:nonzero;stroke:none;stroke-width:1.25"
       d="m 41.101,79.608079 h -0.95125 v -0.67125 c -0.54875,0.5475 -1.11875,0.795 -1.8475,0.795 -0.87375,0 -1.4775,-0.38125 -1.7025,-1.06375 -0.11,-0.31375 -0.13375,-0.605 -0.13375,-1.41125 v -2.97875 h 0.9525 v 2.97875 c 0,0.695 0.0325,0.92875 0.20125,1.22125 0.20125,0.3575 0.56,0.5475 1.0525,0.5475 0.60375,0 1.0975,-0.29 1.32,-0.795 0.12375,-0.2675 0.1575,-0.515 0.1575,-1.16375 v -2.78875 H 41.101 Z"
       inkscape:connector-curvature="0" /><path
       id="path96"
       style="fill:#0d6efd;fill-opacity:1;fill-rule:nonzero;stroke:none;stroke-width:1.25"
       d="m 42.960125,74.278449 h 0.9525 v 0.6725 c 0.5475,-0.54875 1.11875,-0.79625 1.84625,-0.79625 0.87375,0 1.4675,0.37 1.7025,1.065 0.11125,0.325 0.13375,0.55875 0.13375,1.39875 v 2.99 h -0.95125 v -2.99 c 0,-0.695 -0.03375,-0.92875 -0.20125,-1.20875 -0.20125,-0.35875 -0.56,-0.54875 -1.0525,-0.54875 -0.605,0 -1.0975,0.29125 -1.32125,0.78375 -0.12375,0.26875 -0.15625,0.515 -0.15625,1.16375 v 2.8 h -0.9525 z"
       inkscape:connector-curvature="0" /><path
       id="path100"
       style="fill:#0d6efd;fill-opacity:1;fill-rule:nonzero;stroke:none;stroke-width:1.25"
       d="m 49.980375,76.843199 c 0,1.3425 0.6275,2.21625 1.59,2.21625 0.99625,0 1.6675,-0.895 1.6675,-2.21625 0,-1.19875 -0.66,-2.015 -1.6225,-2.015 -1.03,0 -1.635,0.74875 -1.635,2.015 m 4.17625,-5.0725 v 7.8375 h -0.92875 v -0.84 c -0.5375,0.66 -1.12,0.96375 -1.86875,0.96375 -1.41125,0 -2.4075,-1.14375 -2.4075,-2.7775 0,-1.62375 1.085,-2.79875 2.57375,-2.79875 0.75125,0 1.2425,0.22375 1.7025,0.795 v -3.18 z"
       inkscape:connector-curvature="0" /><path
       id="path104"
       style="fill:#0d6efd;fill-opacity:1;fill-rule:nonzero;stroke:none;stroke-width:1.25"
       d="m 59.94625,72.139829 v 4.165 c 0,1.1875 0.0888,1.6125 0.41375,2.03875 0.31375,0.41375 0.8175,0.6375 1.44375,0.6375 0.81875,0 1.43375,-0.36875 1.7125,-1.04125 0.1575,-0.36875 0.18,-0.61625 0.18,-1.64625 v -4.15375 H 64.67 v 4.2325 c 0,1.34375 -0.1125,1.81375 -0.5925,2.39625 -0.5375,0.6375 -1.31,0.9625 -2.31875,0.9625 -1.175,0 -2.07,-0.45875 -2.5175,-1.27625 -0.26875,-0.4925 -0.33625,-0.92875 -0.33625,-2.1725 v -4.1425 z"
       inkscape:connector-curvature="0" /><path
       id="path108"
       style="fill:#0d6efd;fill-opacity:1;fill-rule:nonzero;stroke:none;stroke-width:1.25"
       d="m 66.45013,74.278449 h 0.9525 v 0.6725 c 0.5475,-0.54875 1.11875,-0.79625 1.84625,-0.79625 0.87375,0 1.4675,0.37 1.7025,1.065 0.11125,0.325 0.13375,0.55875 0.13375,1.39875 v 2.99 h -0.95125 v -2.99 c 0,-0.695 -0.0337,-0.92875 -0.20125,-1.20875 -0.20125,-0.35875 -0.56,-0.54875 -1.0525,-0.54875 -0.605,0 -1.0975,0.29125 -1.32125,0.78375 -0.12375,0.26875 -0.15625,0.515 -0.15625,1.16375 v 2.8 h -0.9525 z"
       inkscape:connector-curvature="0" /><path
       inkscape:connector-curvature="0"
       d="m 72.87675,74.278329 h 0.9525 v 5.33 h -0.9525 z m 1.08625,-1.7125 c 0,0.34625 -0.2675,0.615 -0.61625,0.615 -0.335,0 -0.60375,-0.2575 -0.60375,-0.5925 0,-0.38125 0.24625,-0.62625 0.61625,-0.62625 0.34625,0 0.60375,0.2575 0.60375,0.60375"
       style="fill:#0d6efd;fill-opacity:1;fill-rule:nonzero;stroke:none;stroke-width:1.25"
       id="path110" /><path
       id="path114"
       style="fill:#0d6efd;fill-opacity:1;fill-rule:nonzero;stroke:none;stroke-width:1.25"
       d="m 74.9145,74.446949 0.93,-0.2575 1.6675,4.13125 1.70125,-4.13125 0.8075,0.18 -2.28375,5.23875 h -0.60625 z"
       inkscape:connector-curvature="0" /><path
       id="path118"
       style="fill:#0d6efd;fill-opacity:1;fill-rule:nonzero;stroke:none;stroke-width:1.25"
       d="m 84.38713,76.395199 c -0.0238,-1.01875 -0.4375,-1.5675 -1.23125,-1.5675 -0.8075,0 -1.355,0.59375 -1.43375,1.5675 z m -2.6875,0.615 c 0.0225,1.2425 0.75,2.06125 1.81375,2.06125 0.47,0 0.9625,-0.16875 1.41125,-0.47 l 0.27875,0.51375 c -0.71625,0.45875 -1.23125,0.6275 -1.9025,0.6275 -1.5675,0 -2.63125,-1.165 -2.63125,-2.86625 0,-1.60125 1.03,-2.72125 2.49625,-2.72125 0.94,0 1.60125,0.45875 1.925,1.34375 0.1475,0.3575 0.20375,0.795 0.20375,1.51125 z"
       inkscape:connector-curvature="0" /><path
       id="path122"
       style="fill:#0d6efd;fill-opacity:1;fill-rule:nonzero;stroke:none;stroke-width:1.25"
       d="m 86.726,74.278449 h 0.9525 v 0.8075 l 0.23375,-0.2925 c 0.415,-0.52625 0.57125,-0.63875 0.87375,-0.63875 0.30375,0 0.59375,0.1575 0.9525,0.52625 l -0.4475,0.60625 c -0.3025,-0.1475 -0.505,-0.20125 -0.72875,-0.20125 -0.325,0 -0.59375,0.2225 -0.73875,0.60375 -0.1125,0.30125 -0.145,0.62625 -0.145,1.3425 v 2.57625 H 86.726 Z"
       inkscape:connector-curvature="0" /><path
       id="path126"
       style="fill:#0d6efd;fill-opacity:1;fill-rule:nonzero;stroke:none;stroke-width:1.25"
       d="m 93.02975,75.118329 c -0.28,-0.2125 -0.62625,-0.325 -0.97375,-0.325 -0.45875,0 -0.78375,0.2475 -0.78375,0.59375 0,0.27875 0.14625,0.45875 0.64875,0.8175 1.29875,0.92875 1.58,1.27625 1.58,1.97 0,0.91875 -0.74,1.55625 -1.8025,1.55625 -0.6725,0 -1.13125,-0.17875 -1.7025,-0.6825 l 0.48125,-0.52625 c 0.4375,0.39125 0.7275,0.5375 1.13125,0.5375 0.54875,0 0.9075,-0.3025 0.9075,-0.7725 0,-0.415 -0.14625,-0.5825 -0.89625,-1.13125 -1.04125,-0.73875 -1.27625,-1.04125 -1.27625,-1.61125 0,-0.79625 0.7275,-1.39 1.69,-1.39 0.52625,0 0.985,0.1575 1.3775,0.47125 z"
       inkscape:connector-curvature="0" /><path
       inkscape:connector-curvature="0"
       d="m 94.96675,74.278329 h 0.9525 v 5.33 h -0.9525 z m 1.08625,-1.7125 c 0,0.34625 -0.26875,0.615 -0.61625,0.615 -0.335,0 -0.60375,-0.2575 -0.60375,-0.5925 0,-0.38125 0.24625,-0.62625 0.61625,-0.62625 0.34625,0 0.60375,0.2575 0.60375,0.60375"
       style="fill:#0d6efd;fill-opacity:1;fill-rule:nonzero;stroke:none;stroke-width:1.25"
       id="path128" /><path
       id="path132"
       style="fill:#0d6efd;fill-opacity:1;fill-rule:nonzero;stroke:none;stroke-width:1.25"
       d="m 97.15087,74.278449 h 0.73875 v -1.2875 l 0.9525,-0.3125 v 1.6 h 1.39875 v 0.56 h -1.39875 v 2.81 c 0,1.08625 0.1775,1.41125 0.76,1.41125 0.2575,0 0.4825,-0.0563 0.71625,-0.19 l 0.23625,0.52625 c -0.38125,0.23375 -0.75125,0.335 -1.165,0.335 -0.5475,0 -0.99625,-0.22375 -1.265,-0.6275 -0.19,-0.29 -0.235,-0.5475 -0.235,-1.3875 v -2.8775 h -0.73875 z"
       inkscape:connector-curvature="0" /><path
       id="path136"
       style="fill:#0d6efd;fill-opacity:1;fill-rule:nonzero;stroke:none;stroke-width:1.25"
       d="m 104.89862,72.845449 c 0,0.325 -0.24625,0.57125 -0.57125,0.57125 -0.30125,0 -0.55875,-0.2575 -0.55875,-0.57125 0,-0.30125 0.2575,-0.55875 0.57,-0.55875 0.31375,0 0.56,0.245 0.56,0.55875 m -1.27625,3.795 c -1.23125,0.3475 -1.6675,0.71625 -1.6675,1.4225 0,0.54875 0.32375,0.9175 0.805,0.9175 0.47,0 0.97375,-0.41375 1.22125,-0.985 0.15625,-0.38125 0.2225,-0.7725 0.2225,-1.32125 v -0.19 z m -0.85125,-3.795 c 0,0.325 -0.245,0.57125 -0.57,0.57125 -0.3025,0 -0.56,-0.2575 -0.56,-0.57125 0,-0.31375 0.2575,-0.55875 0.57125,-0.55875 0.31375,0 0.55875,0.245 0.55875,0.55875 m 1.58,6.7625 c -0.12375,-0.325 -0.1475,-0.47 -0.1575,-0.9175 -0.88375,0.86125 -1.17625,1.04125 -1.7475,1.04125 -0.86125,0 -1.4875,-0.66125 -1.4875,-1.57875 0,-0.695 0.34625,-1.19875 1.07375,-1.58 0.33625,-0.16625 0.48125,-0.21125 1.32125,-0.47 l 0.84,-0.2575 c -0.0788,-0.705 -0.47,-1.07375 -1.1525,-1.07375 -0.44875,0 -0.9075,0.19 -1.36625,0.55875 l -0.37,-0.47 c 0.52625,-0.47 1.15375,-0.705 1.9025,-0.705 0.75125,0 1.345,0.2575 1.66875,0.7275 0.235,0.33625 0.26875,0.515 0.26875,1.47875 v 1.545 c 0,0.9625 0.0338,1.1975 0.235,1.70125 z"
       inkscape:connector-curvature="0" /><path
       id="path140"
       style="fill:#0d6efd;fill-opacity:1;fill-rule:nonzero;stroke:none;stroke-width:1.25"
       d="m 106.38787,74.278449 h 0.73875 v -1.2875 l 0.9525,-0.3125 v 1.6 h 1.39875 v 0.56 h -1.39875 v 2.81 c 0,1.08625 0.1775,1.41125 0.76,1.41125 0.2575,0 0.4825,-0.0563 0.71625,-0.19 l 0.23625,0.52625 c -0.38125,0.23375 -0.75125,0.335 -1.165,0.335 -0.5475,0 -0.99625,-0.22375 -1.265,-0.6275 -0.19,-0.29 -0.235,-0.5475 -0.235,-1.3875 v -2.8775 h -0.73875 z"
       inkscape:connector-curvature="0" /><path
       id="path144"
       style="fill:#0d6efd;fill-opacity:1;fill-rule:nonzero;stroke:none;stroke-width:1.25"
       d="m 113.11637,75.118329 c -0.28,-0.2125 -0.62625,-0.325 -0.97375,-0.325 -0.45875,0 -0.78375,0.2475 -0.78375,0.59375 0,0.27875 0.14625,0.45875 0.64875,0.8175 1.29875,0.92875 1.58,1.27625 1.58,1.97 0,0.91875 -0.74,1.55625 -1.8025,1.55625 -0.6725,0 -1.13125,-0.17875 -1.7025,-0.6825 l 0.48125,-0.52625 c 0.4375,0.39125 0.7275,0.5375 1.13125,0.5375 0.54875,0 0.9075,-0.3025 0.9075,-0.7725 0,-0.415 -0.14625,-0.5825 -0.89625,-1.13125 -1.04125,-0.73875 -1.27625,-1.04125 -1.27625,-1.61125 0,-0.79625 0.7275,-1.39 1.69,-1.39 0.52625,0 0.985,0.1575 1.3775,0.47125 z"
       inkscape:connector-curvature="0" /><path
       id="path148"
       style="fill:#0d6efd;fill-opacity:1;fill-rule:nonzero;stroke:none;stroke-width:1.25"
       d="m 117.539,75.118329 c -0.28,-0.2125 -0.62625,-0.325 -0.97375,-0.325 -0.45875,0 -0.78375,0.2475 -0.78375,0.59375 0,0.27875 0.14625,0.45875 0.64875,0.8175 1.29875,0.92875 1.58,1.27625 1.58,1.97 0,0.91875 -0.74,1.55625 -1.8025,1.55625 -0.6725,0 -1.13125,-0.17875 -1.7025,-0.6825 l 0.48125,-0.52625 c 0.4375,0.39125 0.7275,0.5375 1.13125,0.5375 0.54875,0 0.9075,-0.3025 0.9075,-0.7725 0,-0.415 -0.14625,-0.5825 -0.89625,-1.13125 -1.04125,-0.73875 -1.27625,-1.04125 -1.27625,-1.61125 0,-0.79625 0.7275,-1.39 1.69,-1.39 0.52625,0 0.985,0.1575 1.3775,0.47125 z"
       inkscape:connector-curvature="0" /><path
       id="path152"
       style="fill:#0d6efd;fill-opacity:1;fill-rule:nonzero;stroke:none;stroke-width:1.25"
       d="m 118.85,74.278449 h 0.73875 v -1.2875 l 0.9525,-0.3125 v 1.6 H 121.94 v 0.56 h -1.39875 v 2.81 c 0,1.08625 0.1775,1.41125 0.76,1.41125 0.2575,0 0.4825,-0.0563 0.71625,-0.19 l 0.23625,0.52625 c -0.38125,0.23375 -0.75125,0.335 -1.165,0.335 -0.5475,0 -0.99625,-0.22375 -1.265,-0.6275 -0.19,-0.29 -0.235,-0.5475 -0.235,-1.3875 v -2.8775 H 118.85 Z"
       inkscape:connector-curvature="0" /><path
       id="path156"
       style="fill:#0d6efd;fill-opacity:1;fill-rule:nonzero;stroke:none;stroke-width:1.25"
       d="m 125.321,76.640579 c -1.23,0.3475 -1.6675,0.71625 -1.6675,1.4225 0,0.54875 0.325,0.9175 0.80625,0.9175 0.47,0 0.97375,-0.41375 1.22,-0.985 0.15625,-0.38125 0.22375,-0.7725 0.22375,-1.32125 v -0.19 z m 0.72875,2.9675 c -0.12375,-0.325 -0.14625,-0.47 -0.1575,-0.9175 -0.88375,0.86125 -1.175,1.04125 -1.74625,1.04125 -0.8625,0 -1.48875,-0.66125 -1.48875,-1.57875 0,-0.695 0.34625,-1.19875 1.075,-1.58 0.335,-0.16625 0.48,-0.2125 1.32,-0.47 l 0.84,-0.2575 c -0.0775,-0.705 -0.47,-1.07375 -1.1525,-1.07375 -0.4475,0 -0.90625,0.19 -1.36625,0.55875 l -0.37,-0.47 c 0.52625,-0.47 1.15375,-0.705 1.90375,-0.705 0.75125,0 1.34375,0.2575 1.66875,0.7275 0.23375,0.33625 0.26875,0.515 0.26875,1.4775 v 1.54625 c 0,0.9625 0.0325,1.1975 0.23375,1.70125 z"
       inkscape:connector-curvature="0" /><path
       id="path160"
       style="fill:#0d6efd;fill-opacity:1;fill-rule:nonzero;stroke:none;stroke-width:1.25"
       d="m 129.30662,76.843199 c 0,1.3425 0.6275,2.21625 1.59,2.21625 0.99625,0 1.6675,-0.895 1.6675,-2.21625 0,-1.19875 -0.66,-2.015 -1.6225,-2.015 -1.03,0 -1.635,0.74875 -1.635,2.015 m 4.17625,-5.0725 v 7.8375 h -0.92875 v -0.84 c -0.5375,0.66 -1.12,0.96375 -1.86875,0.96375 -1.41125,0 -2.4075,-1.14375 -2.4075,-2.7775 0,-1.62375 1.085,-2.79875 2.57375,-2.79875 0.75125,0 1.2425,0.22375 1.7025,0.795 v -3.18 z"
       inkscape:connector-curvature="0" /><path
       id="path164"
       style="fill:#0d6efd;fill-opacity:1;fill-rule:nonzero;stroke:none;stroke-width:1.25"
       d="m 134.7155,74.278449 h 0.73875 v -1.2875 l 0.9525,-0.3125 v 1.6 h 1.39875 v 0.56 h -1.39875 v 2.81 c 0,1.08625 0.1775,1.41125 0.76,1.41125 0.2575,0 0.4825,-0.0563 0.71625,-0.19 l 0.23625,0.52625 c -0.38125,0.23375 -0.75125,0.335 -1.165,0.335 -0.5475,0 -0.99625,-0.22375 -1.265,-0.6275 -0.19,-0.29 -0.235,-0.5475 -0.235,-1.3875 v -2.8775 h -0.73875 z"
       inkscape:connector-curvature="0" /><path
       id="path168"
       style="fill:#0d6efd;fill-opacity:1;fill-rule:nonzero;stroke:none;stroke-width:1.25"
       d="m 35.40275,91.043699 c 0.765,0 1.10875,-0.0975 1.40125,-0.375 0.27875,-0.26125 0.44125,-0.7175 0.44125,-1.17375 0,-0.52125 -0.19625,-0.94625 -0.52125,-1.175 -0.26125,-0.1625 -0.62,-0.2275 -1.29,-0.2275 h -0.61875 v 2.95125 z m -3.84875,-4.86 h 4.22375 c 1.84125,0 2.625,0.1475 3.31,0.62 0.7825,0.53875 1.22375,1.43625 1.22375,2.48 0,1.33625 -0.65375,2.315 -2.00625,3 l 2.57625,4.615 -3.40875,0.35875 -1.81,-4.485 h -0.8475 v 4.28875 H 31.554 Z"
       inkscape:connector-curvature="0" /><path
       id="path172"
       style="fill:#0d6efd;fill-opacity:1;fill-rule:nonzero;stroke:none;stroke-width:1.25"
       d="m 45.44425,91.614949 c 0,2.25125 0.65125,3.36 1.98875,3.36 1.32125,0 1.99,-1.12625 1.99,-3.31125 0,-2.3 -0.6525,-3.40875 -1.99,-3.40875 -1.32125,0 -1.98875,1.10875 -1.98875,3.36 m 7.38625,-0.0488 c 0,3.32625 -2.23375,5.675 -5.38125,5.675 -3.16375,0 -5.41375,-2.34875 -5.41375,-5.6425 0,-3.27875 2.31625,-5.61 5.545,-5.61 3,0 5.25,2.38 5.25,5.5775"
       inkscape:connector-curvature="0" /><path
       id="path176"
       style="fill:#0d6efd;fill-opacity:1;fill-rule:nonzero;stroke:none;stroke-width:1.25"
       d="m 60.60425,88.450829 c -0.6025,-0.2925 -1.02625,-0.4075 -1.5,-0.4075 -0.61875,0 -1.02625,0.26125 -1.02625,0.685 0,0.3425 0.17875,0.555 1.125,1.37 0.9775,0.83125 1.2875,1.10875 1.6625,1.51625 0.685,0.7175 1.04375,1.565 1.04375,2.41375 0,1.925 -1.68,3.2125 -4.19125,3.2125 -1.305,0 -2.36375,-0.31 -3.425,-0.995 l 0.995,-1.81 c 0.60375,0.49 1.32125,0.76625 1.97375,0.76625 0.75,0 1.23875,-0.42375 1.23875,-1.05875 0,-0.63625 -0.27625,-0.995 -1.54875,-2.05625 -0.76625,-0.65125 -1.06,-0.92875 -1.38625,-1.27125 -0.52125,-0.57 -0.76625,-1.20625 -0.76625,-1.94 0,-1.7125 1.5325,-2.87125 3.81625,-2.87125 0.995,0 1.92375,0.22875 2.85375,0.7175 z"
       inkscape:connector-curvature="0" /><path
       id="path180"
       style="fill:#0d6efd;fill-opacity:1;fill-rule:nonzero;stroke:none;stroke-width:1.25"
       d="m 66.01563,88.255579 h -3.13125 v -2.07125 h 9.55625 v 2.07125 h -3.165 v 8.80625 h -3.26 z"
       inkscape:connector-curvature="0" /><path
       id="path184"
       style="fill:#0d6efd;fill-opacity:1;fill-rule:nonzero;stroke:none;stroke-width:1.25"
       d="m 76.61125,91.614949 c 0,2.25125 0.65125,3.36 1.98875,3.36 1.32125,0 1.99,-1.12625 1.99,-3.31125 0,-2.3 -0.6525,-3.40875 -1.99,-3.40875 -1.32125,0 -1.98875,1.10875 -1.98875,3.36 m 7.38625,-0.0488 c 0,3.32625 -2.23375,5.675 -5.38125,5.675 -3.16375,0 -5.41375,-2.34875 -5.41375,-5.6425 0,-3.27875 2.31625,-5.61 5.545,-5.61 3,0 5.25,2.38 5.25,5.5775"
       inkscape:connector-curvature="0" /><path
       id="path188"
       style="fill:#0d6efd;fill-opacity:1;fill-rule:nonzero;stroke:none;stroke-width:1.25"
       d="m 94.10512,88.516829 c -0.62,-0.18 -1.04375,-0.245 -1.53375,-0.245 -2.1025,0 -3.42375,1.32 -3.42375,3.3925 0,2.08625 1.2875,3.31 3.47375,3.31 0.57125,0 1.06,-0.065 1.69625,-0.24375 l 0.6025,2.03875 c -0.8475,0.30875 -1.7775,0.47125 -2.7225,0.47125 -3.68625,0 -6.4575,-2.44625 -6.4575,-5.7075 0,-3.2125 2.60875,-5.52875 6.2775,-5.52875 1.0275,0 1.85875,0.1475 2.9025,0.53875 z"
       inkscape:connector-curvature="0" /><path
       id="path192"
       style="fill:#0d6efd;fill-opacity:1;fill-rule:nonzero;stroke:none;stroke-width:1.25"
       d="m 96.8225,86.184079 h 3.26125 v 4.485 l 2.7725,-4.63125 2.8225,0.57125 -2.8225,4.3375 3.83375,5.69125 -3.3925,0.5875 -3.21375,-5.44625 v 5.2825 H 96.8225 Z"
       inkscape:connector-curvature="0" /></g></svg>
